<svg width="172" height="60" fill="none" xmlns="http://www.w3.org/2000/svg"><g clip-path="url(#clip0)"><path d="M69.404 41.505h4.347v1.024h-3.28v1.818h2.737v1.024H70.47v2.006h3.281v1.024h-4.347v-6.896zm8.506 1.63c.46 0 .836.104 1.087.293.25.188.439.438.543.773.105.313.147.69.147 1.066v3.155h-1.024V45.33c0-.25-.042-.48-.105-.669a.944.944 0 00-.334-.46 1.07 1.07 0 00-.669-.146 1.55 1.55 0 00-.71.168c-.21.104-.356.25-.481.438a1.065 1.065 0 00-.168.607V48.4h-1.023v-5.183h1.023v.815c.168-.25.398-.46.69-.647a2.237 2.237 0 011.024-.251zm3.887 6.145c.189.145.44.27.732.354.292.084.585.147.878.147.522 0 .94-.126 1.233-.397.292-.251.418-.648.418-1.17v-.628c-.084.168-.23.314-.398.44-.167.145-.376.25-.606.354-.23.084-.46.126-.71.126-.48 0-.92-.126-1.296-.355a2.399 2.399 0 01-.92-.962c-.23-.418-.334-.877-.334-1.4 0-.522.105-.982.335-1.4.23-.397.522-.732.92-.962.375-.23.814-.355 1.295-.355.397 0 .752.084 1.045.272.313.167.543.355.69.564v-.71h1.024v4.869c0 .627-.126 1.108-.377 1.505-.25.376-.564.647-.982.836a3.367 3.367 0 01-1.317.271c-.376 0-.731-.062-1.107-.167-.355-.125-.669-.272-.878-.439l.355-.794zm1.63-5.226c-.313 0-.606.084-.836.23-.25.147-.438.356-.585.627a1.84 1.84 0 00-.209.899c0 .334.063.627.21.899.146.271.334.48.584.627.251.146.523.23.837.23.334 0 .606-.084.856-.23.251-.147.44-.356.585-.627a1.84 1.84 0 00.21-.9c0-.334-.063-.647-.21-.898a1.585 1.585 0 00-1.442-.857zm4.055 4.368V41.13h1.024v7.293h-1.024zm3.156-6.312c-.23 0-.398-.062-.523-.166a.689.689 0 010-.899c.105-.125.293-.188.523-.188.23 0 .397.063.522.188a.689.689 0 010 .899c-.125.104-.293.167-.522.167zm.522 6.312h-1.024V43.24h1.024v5.183zm4.514-3.824a2.69 2.69 0 00-.627-.46 1.34 1.34 0 00-.648-.188c-.146 0-.271.02-.418.042-.125.041-.25.083-.334.188a.535.535 0 00-.146.397c0 .23.104.397.313.502.21.104.46.188.773.271.272.063.523.167.794.272.251.104.46.272.627.48.168.21.251.502.251.878 0 .314-.083.606-.271.836a1.8 1.8 0 01-.711.523 2.236 2.236 0 01-.899.188 2.88 2.88 0 01-1.107-.21c-.356-.125-.669-.375-.94-.689l.689-.585c.167.209.376.355.606.48.23.126.502.168.836.168.125 0 .25-.021.376-.063a.642.642 0 00.314-.209.603.603 0 00.125-.397.474.474 0 00-.146-.376 1.096 1.096 0 00-.377-.21 3.811 3.811 0 00-.522-.145 5.65 5.65 0 01-.836-.293c-.272-.125-.501-.272-.69-.502-.188-.209-.271-.501-.271-.877 0-.314.083-.565.25-.794.168-.23.398-.398.69-.523.293-.125.585-.188.899-.188.313 0 .648.063 1.003.188.355.126.669.334.899.627l-.502.669zm4.451-1.463c.46 0 .836.104 1.087.293a1.5 1.5 0 01.544.773c.104.313.146.69.146 1.066v3.155h-1.024V45.33c0-.25-.042-.48-.105-.669a.94.94 0 00-.334-.46c-.167-.104-.376-.167-.669-.146a1.55 1.55 0 00-.71.168c-.21.104-.356.25-.481.438a1.066 1.066 0 00-.167.607V48.4h-1.024v-7.293h1.024v2.946c.167-.25.397-.46.69-.647a2.033 2.033 0 011.023-.272zm8.903 1.463a2.687 2.687 0 00-.627-.46 1.341 1.341 0 00-.648-.188c-.146 0-.271.02-.417.042-.126.041-.251.083-.335.188a.538.538 0 00-.146.397c0 .23.104.397.313.502.209.104.46.188.774.271.271.063.522.167.794.272.25.104.459.272.627.48.167.21.25.502.25.878 0 .314-.083.606-.271.836-.188.23-.418.397-.711.523a2.232 2.232 0 01-.898.188c-.377 0-.753-.063-1.108-.21-.355-.125-.669-.375-.94-.689l.689-.585c.167.209.376.355.606.48.23.126.502.168.836.168.126 0 .251-.021.376-.063a.643.643 0 00.314-.209.606.606 0 00.125-.397.475.475 0 00-.146-.376 1.102 1.102 0 00-.376-.21 3.816 3.816 0 00-.523-.145 5.686 5.686 0 01-.836-.293c-.271-.125-.501-.272-.689-.502-.188-.209-.272-.501-.272-.877 0-.314.084-.565.251-.794.167-.23.397-.398.689-.523a2.24 2.24 0 01.899-.188c.314 0 .648.063 1.003.188.356.126.669.334.899.627l-.502.669zm4.452-1.463c.459 0 .877.104 1.233.334.355.23.648.544.857.94.209.398.313.858.313 1.4 0 .523-.104.983-.313 1.38a2.551 2.551 0 01-.857.962c-.356.23-.774.355-1.212.355a2.22 2.22 0 01-1.004-.23 2.137 2.137 0 01-.71-.543v2.842h-1.024v-7.357h1.024v.753c.146-.21.376-.418.69-.585.313-.147.647-.251 1.003-.251zm-.147.94c-.313 0-.585.084-.815.23-.23.147-.418.355-.564.627a2.04 2.04 0 00-.209.899c0 .334.063.627.209.878.126.271.314.48.564.627.23.146.523.23.815.23.293 0 .586-.084.815-.23.23-.147.418-.356.565-.627.125-.272.209-.565.209-.878 0-.335-.063-.627-.209-.899a1.623 1.623 0 00-.565-.627 1.487 1.487 0 00-.815-.23zm8.109 3.658c-.23.209-.501.376-.878.543-.376.167-.752.23-1.149.23-.543 0-1.024-.105-1.421-.334a2.45 2.45 0 01-.962-.941 2.695 2.695 0 01-.355-1.358c0-.586.126-1.066.355-1.484.251-.418.565-.732.962-.94.397-.23.836-.335 1.316-.335a2.31 2.31 0 012.049 1.191c.208.376.313.815.313 1.317v.439h-3.971c.063.46.251.836.585 1.107.335.272.732.418 1.233.418.356 0 .648-.062.878-.209.23-.125.418-.271.544-.397l.501.753zm-2.111-3.679c-.397 0-.731.084-1.024.272-.292.188-.48.502-.564.94h2.905v-.062c-.021-.23-.084-.418-.23-.585a1.26 1.26 0 00-.481-.397 1.065 1.065 0 00-.606-.168zm8.276 4.368h-1.024v-.794a2.63 2.63 0 01-.71.606 2.041 2.041 0 01-1.066.293 2.16 2.16 0 01-1.191-.355 2.397 2.397 0 01-.857-.962 3.066 3.066 0 01-.314-1.4c0-.523.105-.982.335-1.4a2.43 2.43 0 01.898-.94c.376-.23.815-.335 1.296-.335.355 0 .669.084.961.23.272.167.502.334.648.543v-.69h1.024v5.204zm-2.57-.857c.313 0 .585-.083.836-.23.229-.146.418-.355.543-.626.125-.272.188-.565.188-.9 0-.334-.063-.626-.188-.877a1.456 1.456 0 00-.543-.627 1.596 1.596 0 00-1.651 0 1.46 1.46 0 00-.544.627 2.101 2.101 0 00-.188.899c0 .334.063.627.188.898.126.272.314.481.544.627.25.147.522.21.815.21zm3.991.857V41.13h1.024v4.43l2.341-2.32h1.379l-2.424 2.278 2.487 2.905h-1.296l-1.922-2.236-.565.544v1.692h-1.024zm6.291-6.312c-.23 0-.397-.062-.523-.166a.691.691 0 010-.899c.105-.125.293-.188.523-.188.23 0 .397.063.522.188a.686.686 0 010 .899c-.125.104-.292.167-.522.167zm.522 6.312h-1.024V43.24h1.024v5.183zm4.243-5.287c.459 0 .836.104 1.086.293a1.5 1.5 0 01.544.773c.104.313.146.69.146 1.066v3.155h-1.003V45.33c0-.25-.042-.48-.105-.669a.94.94 0 00-.334-.46c-.167-.104-.376-.167-.669-.146a1.55 1.55 0 00-.71.168c-.209.104-.356.25-.481.438a1.068 1.068 0 00-.167.607V48.4h-1.024v-5.183h1.024v.815c.167-.25.397-.46.69-.647a2.087 2.087 0 011.003-.251zm3.866 6.145c.188.145.439.27.731.354.293.084.586.147.878.147.523 0 .941-.126 1.233-.397.293-.251.418-.648.418-1.17v-.628a1.31 1.31 0 01-.397.44c-.167.145-.376.25-.606.354-.23.084-.46.126-.711.126-.48 0-.919-.126-1.295-.355a2.401 2.401 0 01-.92-.962c-.23-.418-.334-.877-.334-1.4 0-.522.104-.982.334-1.4.23-.397.523-.732.92-.962.376-.23.815-.355 1.295-.355.398 0 .753.084 1.045.272.314.167.544.355.69.564v-.71h1.024v4.869c0 .627-.125 1.108-.376 1.505a2.252 2.252 0 01-.982.836 3.367 3.367 0 01-1.317.271c-.376 0-.731-.062-1.108-.167-.355-.125-.668-.272-.877-.439l.355-.794zm1.651-5.226c-.314 0-.606.084-.836.23a1.54 1.54 0 00-.585.627 1.842 1.842 0 00-.209.899c0 .334.063.627.209.899.146.271.334.48.585.627.251.146.522.23.836.23.334 0 .606-.084.857-.23a1.54 1.54 0 00.585-.627c.146-.272.209-.565.209-.9 0-.334-.063-.647-.209-.898a1.587 1.587 0 00-1.442-.857zm7.461 1.756c0 .334.083.648.23.92.146.271.355.48.606.626.25.147.522.23.815.23.334 0 .606-.083.857-.25.25-.168.438-.356.585-.544l.564.69c-.125.188-.293.334-.522.501-.209.147-.46.272-.732.377a2.42 2.42 0 01-.878.146c-.48 0-.898-.126-1.274-.355a2.482 2.482 0 01-.899-.962c-.23-.418-.334-.857-.334-1.38 0-.522.104-.981.334-1.378.23-.398.522-.732.899-.962.376-.23.815-.355 1.274-.355.481 0 .899.105 1.275.293.376.188.648.438.836.752l-.564.69c-.146-.23-.376-.418-.648-.586a1.544 1.544 0 00-.815-.25 1.61 1.61 0 00-.836.23 1.54 1.54 0 00-.585.627 2.778 2.778 0 00-.188.94zm4.618 2.612V41.13h1.024v7.293h-1.024zm5.956-2.069V43.24h1.024v5.183h-1.024v-.836c-.146.251-.376.46-.668.648-.293.188-.648.272-1.045.272-.544 0-.982-.188-1.317-.544-.334-.376-.501-.877-.501-1.525V43.24h1.024v2.926c0 .272.041.502.125.732.084.23.209.397.397.543.188.125.418.209.69.209.355 0 .668-.105.919-.334.251-.251.376-.565.376-.962zm5.142-3.218c.459 0 .877.104 1.233.334.355.23.647.544.856.94.209.398.314.878.314 1.4 0 .523-.105 1.004-.314 1.401a2.402 2.402 0 01-.856.962 2.23 2.23 0 01-1.213.355c-.376 0-.71-.084-1.003-.251-.292-.167-.543-.334-.71-.543v.668h-1.024V41.13h1.024v2.863a1.96 1.96 0 01.689-.585c.293-.188.627-.272 1.004-.272zm-.147.92c-.313 0-.585.083-.815.23-.23.146-.418.355-.564.626a2.11 2.11 0 00-.209.899c0 .334.063.627.209.899.146.271.313.48.564.627.23.167.523.23.815.23.293 0 .585-.084.815-.23a2.06 2.06 0 00.565-.627c.125-.272.209-.565.209-.9 0-.334-.063-.626-.209-.898a1.376 1.376 0 00-.565-.627 1.49 1.49 0 00-.815-.23zM69.488 10.909c0-.334.272-.606.606-.606h11.704c2.32 0 4.075.564 5.287 1.714 1.212 1.15 1.818 2.8 1.818 4.932 0 1.233-.23 2.299-.69 3.197a5.08 5.08 0 01-1.128 1.505c-.293.272-.25.773.104.961.71.397 1.275.878 1.672 1.463.564.815.857 1.965.857 3.428 0 2.32-.648 4.096-1.944 5.308-1.295 1.212-3.176 1.839-5.6 1.839H70.115a.606.606 0 01-.606-.606V10.909h-.02zm10.575 9.3c1.923 0 2.884-.899 2.884-2.717 0-.961-.25-1.672-.732-2.11-.48-.46-1.295-.69-2.466-.69h-3.845a.607.607 0 00-.606.606v4.326c0 .334.272.606.606.606h4.159v-.021zm.564 10.094c1.087 0 1.881-.23 2.383-.69.501-.46.752-1.274.752-2.403 0-.961-.25-1.672-.773-2.11-.523-.46-1.38-.69-2.592-.69h-4.493a.606.606 0 00-.606.606v4.702c0 .334.272.606.606.606h4.723v-.021zm13.083-9.07h-1.254a.594.594 0 01-.585-.669l.376-3.302a.605.605 0 01.585-.522h6.709c.334 0 .606.272.606.606v16.719a.607.607 0 01-.607.606h-4.618a.607.607 0 01-.606-.606V21.839a.606.606 0 00-.606-.606zm.731-11.912h5.141c.335 0 .606.271.606.606v3.385a.606.606 0 01-.606.607h-5.14a.606.606 0 01-.607-.607V9.927c0-.335.272-.606.606-.606zm11.829 24.033c-1.024-1.107-1.547-2.675-1.547-4.723v-6.687a.606.606 0 00-.606-.607h-1.107a.607.607 0 01-.607-.605v-3.407c0-.334.272-.606.607-.606h1.107a.606.606 0 00.606-.606v-2.675c0-.272.188-.502.439-.585l4.619-1.296a.6.6 0 01.752.585v3.97c0 .335.272.607.606.607h2.926c.334 0 .627.293.606.627l-.188 3.406a.6.6 0 01-.606.565h-2.738a.607.607 0 00-.606.606v6.27c0 .856.188 1.462.585 1.797.376.334 1.003.501 1.881.501.46 0 .94-.063 1.4-.167a.594.594 0 01.732.585v2.926c0 .25-.147.48-.397.564-1.066.397-2.341.606-3.846.606-2.048.021-3.594-.543-4.618-1.65zm11.724-.125c-1.129-1.191-1.672-2.947-1.672-5.225V17.346c0-.334.272-.606.606-.606h4.619c.334 0 .606.272.606.606V27.67c0 1.003.23 1.734.689 2.215.46.46 1.171.69 2.132.69.669 0 1.317-.146 1.944-.44a4.928 4.928 0 001.421-.981.585.585 0 00.167-.418v-11.41c0-.335.272-.607.606-.607h4.619c.334 0 .606.272.606.606v16.719a.607.607 0 01-.606.606h-4.305a.574.574 0 01-.586-.522c-.041-.44-.543-.67-.898-.44-1.463.9-3.198 1.338-5.183 1.338-2.069 0-3.657-.606-4.765-1.797z" fill="#fff"/><path d="M51.369 1.547c-.335.292-.732.501-1.087.752-.543.418-.961.899-1.38 1.442-.438.564-.668 1.337-.543 2.048.147.857.773 1.358 1.442 1.818.293.188.502.397.815.564.71.377 1.254.94 1.84 1.484 1.692 1.61 2.82 3.595 3.636 5.747 1.233 3.281 1.943 6.688 2.006 10.199.084 4.096.125 8.171-.146 12.246-.23 3.532-.753 7.043-1.84 10.429a20.334 20.334 0 01-2.236 4.744c-1.922 3.03-5.057 5.078-8.589 5.705-2.34.418-8.526.94-8.86.94 2.319-.898 5.078-1.943 7.293-2.988a17.49 17.49 0 004.806-3.364c1.442-1.422 2.884-2.822 3.908-4.577 1.38-2.341 2.571-4.765 3.03-7.503.168-1.024.586-5.872.586-6.29 0-1.965.125-3.93-.02-5.894-.23-3.135-.732-6.228-2.133-9.112-.501-1.045-.856-2.069-1.525-3.05-.69-.983-1.484-1.882-2.34-2.739-1.046-1.044-2.341-1.63-3.512-2.486-.815-.586-1.755-.92-2.57-1.526-1.526-1.129-3.01-3.448-1.233-5.078 1.19-1.087 2.508-2.049 3.97-2.78.836-.418 1.651-.878 2.508-1.254.397-.188.836-.293 1.233-.48.23-.105.48-.21.71-.314.147-.063.314-.146.482-.188.167-.042.376-.021.564.02.94.377-.564 1.276-.815 1.485z" fill="#E2E8F0"/><path fill-rule="evenodd" clip-rule="evenodd" d="M9.55 57.158c3.95 2.361 14.692 2.967 19.875 2.821l.932-.024c6.85-.173 13.352-.338 17.73-3.257 5.769-3.908 8.172-11.41 7.963-15.925.606-3.406.627-6.938.543-10.428-.104-4.159-.731-8.213-2.925-11.787-1.84-3.01-3.741-6.04-7.273-7.503-1.247-.52-2.288-1.473-3.286-2.388l-.016-.015c-1.359-1.275-1.359-1.985.02-3.24 1.986-1.838 4.369-3.05 6.814-4.158.121-.057.25-.101.377-.145.2-.069.397-.137.563-.252.054-.045.1-.094.146-.142.06-.063.117-.124.189-.172.108-.077.227-.142.34-.205l.12-.066a.955.955 0 01.166-.073.951.951 0 00.168-.074c-.25-.066-.526-.08-.797-.093l-.206-.011C50.616 0 50.26 0 49.885 0l-.524.013c-4.366.104-22.927.546-35.317 4.835-1.191.418-2.362.857-3.49 1.422-4.117 2.048-7.001 5.162-8.652 9.55C.773 18.85-.23 25.371.042 34.274c.146 4.43.627 8.798 1.692 13.103.962 3.908 3.156 6.918 6.542 9.05l.272.165c.328.2.659.402 1.003.566zm12.247-2.048c2.215.313 4.451.501 6.75.313 1.66.159 3.34.029 5.019-.102a68.552 68.552 0 012.254-.149c.982-.062 1.985-.146 2.926-.376 5.14-1.275 9.154-4.033 11.39-8.986 1.713-3.804 2.32-7.858 2.215-11.975-.042-1.84-.23-3.7-.439-5.538-.523-4.514-2.32-8.339-5.768-11.39-2.612-2.32-5.475-4.159-8.903-4.974a59.682 59.682 0 00-1.107-.271c-.371-.09-.742-.178-1.108-.272-2.466-.606-4.995-.648-7.482-.606-2.445.041-4.848.668-7.21 1.358-2.131.627-4.054 1.63-5.81 2.947-.44.333-.855.7-1.27 1.07-.237.209-.473.419-.715.623-3.03 2.55-4.89 5.788-5.58 9.697-.502 2.863-.69 5.726-.69 8.63 0 3.26.586 6.417 1.693 9.447.815 2.236 2.006 4.263 3.741 5.893 2.842 2.654 6.29 4.138 10.094 4.66z" fill="#fff"/><path d="M30.491 32.163c.397-1.902 1.233-3.448 2.57-4.744 3.93-3.804 11.328-2.487 13.062 3.553 1.275 4.514-1.525 8.297-5.412 9.467-4.41 1.337-8.903-1.233-10.053-5.685-.062-.209-.062-.438-.104-.648-.126-.501-.188-.585-.815-.543-.502.021-1.15-.25-1.359.543-.041.168-.062.314-.104.481-.773 3.156-2.738 5.204-5.873 5.977-6.018 1.484-10.512-3.553-9.843-8.36.48-3.468 3.74-6.75 7.628-6.854 3.219-.105 7.064 1.923 8.004 5.935.23.982.44 1.045 1.317.962.293-.042.564-.042.982-.084z" fill="#fff"/><path d="M29.53 44.263a8.997 8.997 0 01-3.448-.857c-.69-.334-1.338-.752-1.651-1.504-.105-.251-.105-.544.146-.732.25-.188.522-.167.752.042 2.257 2.215 4.87 2.006 7.586 1.15.46-.147.857-.46 1.213-.816a2.3 2.3 0 01.647-.46c.126-.062.335 0 .46.063.188.105.293.314.251.565-.042.418-.313.71-.606.94-.669.543-1.4 1.045-2.278 1.254-.94.188-1.902.334-3.072.355z" fill="#fff"/><path d="M20.46 39.477c-3.302-.083-5.831-2.152-6.479-5.287-.397-1.943.084-3.74 1.38-5.183 2.528-2.863 7.251-3.323 10.135-.146 2.884 3.177 1.798 8.046-1.985 9.927-.982.501-2.048.752-3.051.69zm17.993-.041c-4.618-.021-7.753-4.368-6.248-8.59.815-2.257 2.528-3.49 4.764-4.033 3.135-.773 6.458.92 7.628 3.866 1.254 3.135-.167 6.688-3.218 8.13-.92.418-1.922.69-2.926.627z" fill="#FF6D03"/></g><defs><clipPath id="clip0"><path fill="#fff" d="M0 0h171.181v60H0z"/></clipPath></defs></svg>