<svg width="1944" height="344" fill="none" xmlns="http://www.w3.org/2000/svg"><g clip-path="url(#clip0)" fill="#E0E7EE"><path d="M-10 1a1 1 0 112 0 1 1 0 01-2 0zM8 1a1 1 0 112 0 1 1 0 01-2 0zm18 0a1 1 0 112 0 1 1 0 01-2 0zm18 0a1 1 0 112 0 1 1 0 01-2 0zm18 0a1 1 0 112 0 1 1 0 01-2 0zm18 0a1 1 0 112 0 1 1 0 01-2 0zm18 0a1 1 0 112 0 1 1 0 01-2 0zm18 0a1 1 0 112 0 1 1 0 01-2 0zm18 0a1 1 0 112 0 1 1 0 01-2 0zm18 0a1 1 0 112 0 1 1 0 01-2 0zm18 0a1 1 0 112 0 1 1 0 01-2 0zm18 0a1 1 0 112 0 1 1 0 01-2 0zm18 0a1 1 0 112 0 1 1 0 01-2 0zm18 0a1 1 0 112 0 1 1 0 01-2 0zm18 0a1 1 0 112 0 1 1 0 01-2 0zm18 0a1 1 0 112 0 1 1 0 01-2 0zm18 0a1 1 0 112 0 1 1 0 01-2 0zm18 0a1 1 0 112 0 1 1 0 01-2 0zm18 0a1 1 0 112 0 1 1 0 01-2 0zm18 0a1 1 0 112 0 1 1 0 01-2 0zm18 0a1 1 0 112 0 1 1 0 01-2 0zm18 0a1 1 0 112 0 1 1 0 01-2 0zm18 0a1 1 0 112 0 1 1 0 01-2 0zm18 0a1 1 0 112 0 1 1 0 01-2 0zm18 0a1 1 0 112 0 1 1 0 01-2 0zm18 0a1 1 0 112 0 1 1 0 01-2 0zm18 0a1 1 0 112 0 1 1 0 01-2 0zm18 0a1 1 0 112 0 1 1 0 01-2 0zm18 0a1 1 0 112 0 1 1 0 01-2 0zm18 0a1 1 0 112 0 1 1 0 01-2 0zm18 0a1 1 0 112 0 1 1 0 01-2 0zm18 0a1 1 0 112 0 1 1 0 01-2 0zm18 0a1 1 0 112 0 1 1 0 01-2 0zm18 0a1 1 0 112 0 1 1 0 01-2 0zm18 0a1 1 0 112 0 1 1 0 01-2 0zm18 0a1 1 0 112 0 1 1 0 01-2 0zm18 0a1 1 0 112 0 1 1 0 01-2 0zm18 0a1 1 0 112 0 1 1 0 01-2 0zm18 0a1 1 0 112 0 1 1 0 01-2 0zm18 0a1 1 0 112 0 1 1 0 01-2 0zm18 0a1 1 0 112 0 1 1 0 01-2 0zm18 0a1 1 0 112 0 1 1 0 01-2 0zm18 0a1 1 0 112 0 1 1 0 01-2 0zm18 0a1 1 0 112 0 1 1 0 01-2 0zm18 0a1 1 0 112 0 1 1 0 01-2 0zm18 0a1 1 0 112 0 1 1 0 01-2 0zm18 0a1 1 0 112 0 1 1 0 01-2 0zm18 0a1 1 0 112 0 1 1 0 01-2 0zm18 0a1 1 0 112 0 1 1 0 01-2 0zm18 0a1 1 0 112 0 1 1 0 01-2 0zm18 0a1 1 0 112 0 1 1 0 01-2 0zm18 0a1 1 0 112 0 1 1 0 01-2 0zm18 0a1 1 0 112 0 1 1 0 01-2 0zm18 0a1 1 0 112 0 1 1 0 01-2 0zm18 0a1 1 0 112 0 1 1 0 01-2 0zm18 0a1 1 0 112 0 1 1 0 01-2 0zm18 0a1 1 0 112 0 1 1 0 01-2 0zm18 0c0-.552.45-1 1-1s1 .448 1 1-.45 1-1 1-1-.448-1-1zm18 0c0-.552.45-1 1-1s1 .448 1 1-.45 1-1 1-1-.448-1-1zm18 0c0-.552.45-1 1-1s1 .448 1 1-.45 1-1 1-1-.448-1-1zm18 0c0-.552.45-1 1-1s1 .448 1 1-.45 1-1 1-1-.448-1-1zm18 0c0-.552.45-1 1-1s1 .448 1 1-.45 1-1 1-1-.448-1-1zm18 0c0-.552.45-1 1-1s1 .448 1 1-.45 1-1 1-1-.448-1-1zm18 0c0-.552.45-1 1-1s1 .448 1 1-.45 1-1 1-1-.448-1-1zm18 0c0-.552.45-1 1-1s1 .448 1 1-.45 1-1 1-1-.448-1-1zm18 0c0-.552.45-1 1-1s1 .448 1 1-.45 1-1 1-1-.448-1-1zm18 0c0-.552.45-1 1-1s1 .448 1 1-.45 1-1 1-1-.448-1-1zm18 0c0-.552.45-1 1-1s1 .448 1 1-.45 1-1 1-1-.448-1-1zm18 0c0-.552.45-1 1-1s1 .448 1 1-.45 1-1 1-1-.448-1-1zm18 0c0-.552.45-1 1-1s1 .448 1 1-.45 1-1 1-1-.448-1-1zm18 0c0-.552.45-1 1-1s1 .448 1 1-.45 1-1 1-1-.448-1-1zm18 0c0-.552.45-1 1-1s1 .448 1 1-.45 1-1 1-1-.448-1-1zm18 0c0-.552.45-1 1-1s1 .448 1 1-.45 1-1 1-1-.448-1-1zm18 0c0-.552.45-1 1-1s1 .448 1 1-.45 1-1 1-1-.448-1-1zm18 0c0-.552.45-1 1-1s1 .448 1 1-.45 1-1 1-1-.448-1-1zm18 0c0-.552.45-1 1-1s1 .448 1 1-.45 1-1 1-1-.448-1-1zm18 0c0-.552.45-1 1-1s1 .448 1 1-.45 1-1 1-1-.448-1-1zm18 0c0-.552.45-1 1-1s1 .448 1 1-.45 1-1 1-1-.448-1-1zm18 0c0-.552.45-1 1-1s1 .448 1 1-.45 1-1 1-1-.448-1-1zm18 0c0-.552.45-1 1-1s1 .448 1 1-.45 1-1 1-1-.448-1-1zm18 0c0-.552.45-1 1-1s1 .448 1 1-.45 1-1 1-1-.448-1-1zm18 0c0-.552.45-1 1-1s1 .448 1 1-.45 1-1 1-1-.448-1-1zm18 0c0-.552.45-1 1-1s1 .448 1 1-.45 1-1 1-1-.448-1-1zm18 0c0-.552.45-1 1-1s1 .448 1 1-.45 1-1 1-1-.448-1-1zm18 0c0-.552.45-1 1-1s1 .448 1 1-.45 1-1 1-1-.448-1-1zm18 0c0-.552.45-1 1-1s1 .448 1 1-.45 1-1 1-1-.448-1-1zm18 0c0-.552.45-1 1-1s1 .448 1 1-.45 1-1 1-1-.448-1-1zm18 0c0-.552.45-1 1-1s1 .448 1 1-.45 1-1 1-1-.448-1-1zm18 0c0-.552.45-1 1-1s1 .448 1 1-.45 1-1 1-1-.448-1-1zm18 0c0-.552.45-1 1-1s1 .448 1 1-.45 1-1 1-1-.448-1-1zm18 0c0-.552.45-1 1-1s1 .448 1 1-.45 1-1 1-1-.448-1-1zm18 0c0-.552.45-1 1-1s1 .448 1 1-.45 1-1 1-1-.448-1-1zm18 0c0-.552.45-1 1-1s1 .448 1 1-.45 1-1 1-1-.448-1-1zm18 0c0-.552.45-1 1-1s1 .448 1 1-.45 1-1 1-1-.448-1-1zm18 0c0-.552.45-1 1-1s1 .448 1 1-.45 1-1 1-1-.448-1-1zm18 0c0-.552.45-1 1-1s1 .448 1 1-.45 1-1 1-1-.448-1-1zm18 0c0-.552.45-1 1-1s1 .448 1 1-.45 1-1 1-1-.448-1-1zm18 0c0-.552.45-1 1-1s1 .448 1 1-.45 1-1 1-1-.448-1-1zm18 0c0-.552.45-1 1-1s1 .448 1 1-.45 1-1 1-1-.448-1-1zm18 0c0-.552.45-1 1-1s1 .448 1 1-.45 1-1 1-1-.448-1-1zm18 0c0-.552.45-1 1-1s1 .448 1 1-.45 1-1 1-1-.448-1-1zm18 0c0-.552.45-1 1-1s1 .448 1 1-.45 1-1 1-1-.448-1-1zm18 0c0-.552.45-1 1-1s1 .448 1 1-.45 1-1 1-1-.448-1-1zm18 0c0-.552.45-1 1-1s1 .448 1 1-.45 1-1 1-1-.448-1-1zm18 0c0-.552.45-1 1-1s1 .448 1 1-.45 1-1 1-1-.448-1-1zm18 0c0-.552.45-1 1-1s1 .448 1 1-.45 1-1 1-1-.448-1-1zm18 0c0-.552.45-1 1-1s1 .448 1 1-.45 1-1 1-1-.448-1-1zm18 0c0-.552.45-1 1-1s1 .448 1 1-.45 1-1 1-1-.448-1-1zm18 0c0-.552.45-1 1-1s1 .448 1 1-.45 1-1 1-1-.448-1-1zm18 0c0-.552.45-1 1-1s1 .448 1 1-.45 1-1 1-1-.448-1-1zM-10 19a1 1 0 112 0 1 1 0 01-2 0zm18 0a1 1 0 112 0 1 1 0 01-2 0zm18 0a1 1 0 112 0 1 1 0 01-2 0zm18 0a1 1 0 112 0 1 1 0 01-2 0zm18 0a1 1 0 112 0 1 1 0 01-2 0zm18 0a1 1 0 112 0 1 1 0 01-2 0zm18 0a1 1 0 112 0 1 1 0 01-2 0zm18 0a1 1 0 112 0 1 1 0 01-2 0zm18 0a1 1 0 112 0 1 1 0 01-2 0zm18 0a1 1 0 112 0 1 1 0 01-2 0zm18 0a1 1 0 112 0 1 1 0 01-2 0zm18 0a1 1 0 112 0 1 1 0 01-2 0zm18 0a1 1 0 112 0 1 1 0 01-2 0zm18 0a1 1 0 112 0 1 1 0 01-2 0zm18 0a1 1 0 112 0 1 1 0 01-2 0zm18 0a1 1 0 112 0 1 1 0 01-2 0zm18 0a1 1 0 112 0 1 1 0 01-2 0zm18 0a1 1 0 112 0 1 1 0 01-2 0zm18 0a1 1 0 112 0 1 1 0 01-2 0zm18 0a1 1 0 112 0 1 1 0 01-2 0zm18 0a1 1 0 112 0 1 1 0 01-2 0zm18 0a1 1 0 112 0 1 1 0 01-2 0zm18 0a1 1 0 112 0 1 1 0 01-2 0zm18 0a1 1 0 112 0 1 1 0 01-2 0zm18 0a1 1 0 112 0 1 1 0 01-2 0zm18 0a1 1 0 112 0 1 1 0 01-2 0zm18 0a1 1 0 112 0 1 1 0 01-2 0zm18 0a1 1 0 112 0 1 1 0 01-2 0zm18 0a1 1 0 112 0 1 1 0 01-2 0zm18 0a1 1 0 112 0 1 1 0 01-2 0zm18 0a1 1 0 112 0 1 1 0 01-2 0zm18 0a1 1 0 112 0 1 1 0 01-2 0zm18 0a1 1 0 112 0 1 1 0 01-2 0zm18 0a1 1 0 112 0 1 1 0 01-2 0zm18 0a1 1 0 112 0 1 1 0 01-2 0zm18 0a1 1 0 112 0 1 1 0 01-2 0zm18 0a1 1 0 112 0 1 1 0 01-2 0zm18 0a1 1 0 112 0 1 1 0 01-2 0zm18 0a1 1 0 112 0 1 1 0 01-2 0zm18 0a1 1 0 112 0 1 1 0 01-2 0zm18 0a1 1 0 112 0 1 1 0 01-2 0zm18 0a1 1 0 112 0 1 1 0 01-2 0zm18 0a1 1 0 112 0 1 1 0 01-2 0zm18 0a1 1 0 112 0 1 1 0 01-2 0zm18 0a1 1 0 112 0 1 1 0 01-2 0zm18 0a1 1 0 112 0 1 1 0 01-2 0zm18 0a1 1 0 112 0 1 1 0 01-2 0zm18 0a1 1 0 112 0 1 1 0 01-2 0zm18 0a1 1 0 112 0 1 1 0 01-2 0zm18 0a1 1 0 112 0 1 1 0 01-2 0zm18 0a1 1 0 112 0 1 1 0 01-2 0zm18 0a1 1 0 112 0 1 1 0 01-2 0zm18 0a1 1 0 112 0 1 1 0 01-2 0zm18 0a1 1 0 112 0 1 1 0 01-2 0zm18 0a1 1 0 112 0 1 1 0 01-2 0zm18 0a1 1 0 112 0 1 1 0 01-2 0zm18 0a1 1 0 112 0 1 1 0 01-2 0zm18 0c0-.552.45-1 1-1s1 .448 1 1-.45 1-1 1-1-.448-1-1zm18 0c0-.552.45-1 1-1s1 .448 1 1-.45 1-1 1-1-.448-1-1zm18 0c0-.552.45-1 1-1s1 .448 1 1-.45 1-1 1-1-.448-1-1zm18 0c0-.552.45-1 1-1s1 .448 1 1-.45 1-1 1-1-.448-1-1zm18 0c0-.552.45-1 1-1s1 .448 1 1-.45 1-1 1-1-.448-1-1zm18 0c0-.552.45-1 1-1s1 .448 1 1-.45 1-1 1-1-.448-1-1zm18 0c0-.552.45-1 1-1s1 .448 1 1-.45 1-1 1-1-.448-1-1zm18 0c0-.552.45-1 1-1s1 .448 1 1-.45 1-1 1-1-.448-1-1zm18 0c0-.552.45-1 1-1s1 .448 1 1-.45 1-1 1-1-.448-1-1zm18 0c0-.552.45-1 1-1s1 .448 1 1-.45 1-1 1-1-.448-1-1zm18 0c0-.552.45-1 1-1s1 .448 1 1-.45 1-1 1-1-.448-1-1zm18 0c0-.552.45-1 1-1s1 .448 1 1-.45 1-1 1-1-.448-1-1zm18 0c0-.552.45-1 1-1s1 .448 1 1-.45 1-1 1-1-.448-1-1zm18 0c0-.552.45-1 1-1s1 .448 1 1-.45 1-1 1-1-.448-1-1zm18 0c0-.552.45-1 1-1s1 .448 1 1-.45 1-1 1-1-.448-1-1zm18 0c0-.552.45-1 1-1s1 .448 1 1-.45 1-1 1-1-.448-1-1zm18 0c0-.552.45-1 1-1s1 .448 1 1-.45 1-1 1-1-.448-1-1zm18 0c0-.552.45-1 1-1s1 .448 1 1-.45 1-1 1-1-.448-1-1zm18 0c0-.552.45-1 1-1s1 .448 1 1-.45 1-1 1-1-.448-1-1zm18 0c0-.552.45-1 1-1s1 .448 1 1-.45 1-1 1-1-.448-1-1zm18 0c0-.552.45-1 1-1s1 .448 1 1-.45 1-1 1-1-.448-1-1zm18 0c0-.552.45-1 1-1s1 .448 1 1-.45 1-1 1-1-.448-1-1zm18 0c0-.552.45-1 1-1s1 .448 1 1-.45 1-1 1-1-.448-1-1zm18 0c0-.552.45-1 1-1s1 .448 1 1-.45 1-1 1-1-.448-1-1zm18 0c0-.552.45-1 1-1s1 .448 1 1-.45 1-1 1-1-.448-1-1zm18 0c0-.552.45-1 1-1s1 .448 1 1-.45 1-1 1-1-.448-1-1zm18 0c0-.552.45-1 1-1s1 .448 1 1-.45 1-1 1-1-.448-1-1zm18 0c0-.552.45-1 1-1s1 .448 1 1-.45 1-1 1-1-.448-1-1zm18 0c0-.552.45-1 1-1s1 .448 1 1-.45 1-1 1-1-.448-1-1zm18 0c0-.552.45-1 1-1s1 .448 1 1-.45 1-1 1-1-.448-1-1zm18 0c0-.552.45-1 1-1s1 .448 1 1-.45 1-1 1-1-.448-1-1zm18 0c0-.552.45-1 1-1s1 .448 1 1-.45 1-1 1-1-.448-1-1zm18 0c0-.552.45-1 1-1s1 .448 1 1-.45 1-1 1-1-.448-1-1zm18 0c0-.552.45-1 1-1s1 .448 1 1-.45 1-1 1-1-.448-1-1zm18 0c0-.552.45-1 1-1s1 .448 1 1-.45 1-1 1-1-.448-1-1zm18 0c0-.552.45-1 1-1s1 .448 1 1-.45 1-1 1-1-.448-1-1zm18 0c0-.552.45-1 1-1s1 .448 1 1-.45 1-1 1-1-.448-1-1zm18 0c0-.552.45-1 1-1s1 .448 1 1-.45 1-1 1-1-.448-1-1zm18 0c0-.552.45-1 1-1s1 .448 1 1-.45 1-1 1-1-.448-1-1zm18 0c0-.552.45-1 1-1s1 .448 1 1-.45 1-1 1-1-.448-1-1zm18 0c0-.552.45-1 1-1s1 .448 1 1-.45 1-1 1-1-.448-1-1zm18 0c0-.552.45-1 1-1s1 .448 1 1-.45 1-1 1-1-.448-1-1zm18 0c0-.552.45-1 1-1s1 .448 1 1-.45 1-1 1-1-.448-1-1zm18 0c0-.552.45-1 1-1s1 .448 1 1-.45 1-1 1-1-.448-1-1zm18 0c0-.552.45-1 1-1s1 .448 1 1-.45 1-1 1-1-.448-1-1zm18 0c0-.552.45-1 1-1s1 .448 1 1-.45 1-1 1-1-.448-1-1zm18 0c0-.552.45-1 1-1s1 .448 1 1-.45 1-1 1-1-.448-1-1zm18 0c0-.552.45-1 1-1s1 .448 1 1-.45 1-1 1-1-.448-1-1zm18 0c0-.552.45-1 1-1s1 .448 1 1-.45 1-1 1-1-.448-1-1zm18 0c0-.552.45-1 1-1s1 .448 1 1-.45 1-1 1-1-.448-1-1zm18 0c0-.552.45-1 1-1s1 .448 1 1-.45 1-1 1-1-.448-1-1zm18 0c0-.552.45-1 1-1s1 .448 1 1-.45 1-1 1-1-.448-1-1zm18 0c0-.552.45-1 1-1s1 .448 1 1-.45 1-1 1-1-.448-1-1zM-10 37a1 1 0 112 0 1 1 0 01-2 0zm18 0a1 1 0 112 0 1 1 0 01-2 0zm18 0a1 1 0 112 0 1 1 0 01-2 0zm18 0a1 1 0 112 0 1 1 0 01-2 0zm18 0a1 1 0 112 0 1 1 0 01-2 0zm18 0a1 1 0 112 0 1 1 0 01-2 0zm18 0a1 1 0 112 0 1 1 0 01-2 0zm18 0a1 1 0 112 0 1 1 0 01-2 0zm18 0a1 1 0 112 0 1 1 0 01-2 0zm18 0a1 1 0 112 0 1 1 0 01-2 0zm18 0a1 1 0 112 0 1 1 0 01-2 0zm18 0a1 1 0 112 0 1 1 0 01-2 0zm18 0a1 1 0 112 0 1 1 0 01-2 0zm18 0a1 1 0 112 0 1 1 0 01-2 0zm18 0a1 1 0 112 0 1 1 0 01-2 0zm18 0a1 1 0 112 0 1 1 0 01-2 0zm18 0a1 1 0 112 0 1 1 0 01-2 0zm18 0a1 1 0 112 0 1 1 0 01-2 0zm18 0a1 1 0 112 0 1 1 0 01-2 0zm18 0a1 1 0 112 0 1 1 0 01-2 0zm18 0a1 1 0 112 0 1 1 0 01-2 0zm18 0a1 1 0 112 0 1 1 0 01-2 0zm18 0a1 1 0 112 0 1 1 0 01-2 0zm18 0a1 1 0 112 0 1 1 0 01-2 0zm18 0a1 1 0 112 0 1 1 0 01-2 0zm18 0a1 1 0 112 0 1 1 0 01-2 0zm18 0a1 1 0 112 0 1 1 0 01-2 0zm18 0a1 1 0 112 0 1 1 0 01-2 0zm18 0a1 1 0 112 0 1 1 0 01-2 0zm18 0a1 1 0 112 0 1 1 0 01-2 0zm18 0a1 1 0 112 0 1 1 0 01-2 0zm18 0a1 1 0 112 0 1 1 0 01-2 0zm18 0a1 1 0 112 0 1 1 0 01-2 0zm18 0a1 1 0 112 0 1 1 0 01-2 0zm18 0a1 1 0 112 0 1 1 0 01-2 0zm18 0a1 1 0 112 0 1 1 0 01-2 0zm18 0a1 1 0 112 0 1 1 0 01-2 0zm18 0a1 1 0 112 0 1 1 0 01-2 0zm18 0a1 1 0 112 0 1 1 0 01-2 0zm18 0a1 1 0 112 0 1 1 0 01-2 0zm18 0a1 1 0 112 0 1 1 0 01-2 0zm18 0a1 1 0 112 0 1 1 0 01-2 0zm18 0a1 1 0 112 0 1 1 0 01-2 0zm18 0a1 1 0 112 0 1 1 0 01-2 0zm18 0a1 1 0 112 0 1 1 0 01-2 0zm18 0a1 1 0 112 0 1 1 0 01-2 0zm18 0a1 1 0 112 0 1 1 0 01-2 0zm18 0a1 1 0 112 0 1 1 0 01-2 0zm18 0a1 1 0 112 0 1 1 0 01-2 0zm18 0a1 1 0 112 0 1 1 0 01-2 0zm18 0a1 1 0 112 0 1 1 0 01-2 0zm18 0a1 1 0 112 0 1 1 0 01-2 0zm18 0a1 1 0 112 0 1 1 0 01-2 0zm18 0a1 1 0 112 0 1 1 0 01-2 0zm18 0a1 1 0 112 0 1 1 0 01-2 0zm18 0a1 1 0 112 0 1 1 0 01-2 0zm18 0a1 1 0 112 0 1 1 0 01-2 0zm18 0c0-.552.45-1 1-1s1 .448 1 1-.45 1-1 1-1-.448-1-1zm18 0c0-.552.45-1 1-1s1 .448 1 1-.45 1-1 1-1-.448-1-1zm18 0c0-.552.45-1 1-1s1 .448 1 1-.45 1-1 1-1-.448-1-1zm18 0c0-.552.45-1 1-1s1 .448 1 1-.45 1-1 1-1-.448-1-1zm18 0c0-.552.45-1 1-1s1 .448 1 1-.45 1-1 1-1-.448-1-1zm18 0c0-.552.45-1 1-1s1 .448 1 1-.45 1-1 1-1-.448-1-1zm18 0c0-.552.45-1 1-1s1 .448 1 1-.45 1-1 1-1-.448-1-1zm18 0c0-.552.45-1 1-1s1 .448 1 1-.45 1-1 1-1-.448-1-1zm18 0c0-.552.45-1 1-1s1 .448 1 1-.45 1-1 1-1-.448-1-1zm18 0c0-.552.45-1 1-1s1 .448 1 1-.45 1-1 1-1-.448-1-1zm18 0c0-.552.45-1 1-1s1 .448 1 1-.45 1-1 1-1-.448-1-1zm18 0c0-.552.45-1 1-1s1 .448 1 1-.45 1-1 1-1-.448-1-1zm18 0c0-.552.45-1 1-1s1 .448 1 1-.45 1-1 1-1-.448-1-1zm18 0c0-.552.45-1 1-1s1 .448 1 1-.45 1-1 1-1-.448-1-1zm18 0c0-.552.45-1 1-1s1 .448 1 1-.45 1-1 1-1-.448-1-1zm18 0c0-.552.45-1 1-1s1 .448 1 1-.45 1-1 1-1-.448-1-1zm18 0c0-.552.45-1 1-1s1 .448 1 1-.45 1-1 1-1-.448-1-1zm18 0c0-.552.45-1 1-1s1 .448 1 1-.45 1-1 1-1-.448-1-1zm18 0c0-.552.45-1 1-1s1 .448 1 1-.45 1-1 1-1-.448-1-1zm18 0c0-.552.45-1 1-1s1 .448 1 1-.45 1-1 1-1-.448-1-1zm18 0c0-.552.45-1 1-1s1 .448 1 1-.45 1-1 1-1-.448-1-1zm18 0c0-.552.45-1 1-1s1 .448 1 1-.45 1-1 1-1-.448-1-1zm18 0c0-.552.45-1 1-1s1 .448 1 1-.45 1-1 1-1-.448-1-1zm18 0c0-.552.45-1 1-1s1 .448 1 1-.45 1-1 1-1-.448-1-1zm18 0c0-.552.45-1 1-1s1 .448 1 1-.45 1-1 1-1-.448-1-1zm18 0c0-.552.45-1 1-1s1 .448 1 1-.45 1-1 1-1-.448-1-1zm18 0c0-.552.45-1 1-1s1 .448 1 1-.45 1-1 1-1-.448-1-1zm18 0c0-.552.45-1 1-1s1 .448 1 1-.45 1-1 1-1-.448-1-1zm18 0c0-.552.45-1 1-1s1 .448 1 1-.45 1-1 1-1-.448-1-1zm18 0c0-.552.45-1 1-1s1 .448 1 1-.45 1-1 1-1-.448-1-1zm18 0c0-.552.45-1 1-1s1 .448 1 1-.45 1-1 1-1-.448-1-1zm18 0c0-.552.45-1 1-1s1 .448 1 1-.45 1-1 1-1-.448-1-1zm18 0c0-.552.45-1 1-1s1 .448 1 1-.45 1-1 1-1-.448-1-1zm18 0c0-.552.45-1 1-1s1 .448 1 1-.45 1-1 1-1-.448-1-1zm18 0c0-.552.45-1 1-1s1 .448 1 1-.45 1-1 1-1-.448-1-1zm18 0c0-.552.45-1 1-1s1 .448 1 1-.45 1-1 1-1-.448-1-1zm18 0c0-.552.45-1 1-1s1 .448 1 1-.45 1-1 1-1-.448-1-1zm18 0c0-.552.45-1 1-1s1 .448 1 1-.45 1-1 1-1-.448-1-1zm18 0c0-.552.45-1 1-1s1 .448 1 1-.45 1-1 1-1-.448-1-1zm18 0c0-.552.45-1 1-1s1 .448 1 1-.45 1-1 1-1-.448-1-1zm18 0c0-.552.45-1 1-1s1 .448 1 1-.45 1-1 1-1-.448-1-1zm18 0c0-.552.45-1 1-1s1 .448 1 1-.45 1-1 1-1-.448-1-1zm18 0c0-.552.45-1 1-1s1 .448 1 1-.45 1-1 1-1-.448-1-1zm18 0c0-.552.45-1 1-1s1 .448 1 1-.45 1-1 1-1-.448-1-1zm18 0c0-.552.45-1 1-1s1 .448 1 1-.45 1-1 1-1-.448-1-1zm18 0c0-.552.45-1 1-1s1 .448 1 1-.45 1-1 1-1-.448-1-1zm18 0c0-.552.45-1 1-1s1 .448 1 1-.45 1-1 1-1-.448-1-1zm18 0c0-.552.45-1 1-1s1 .448 1 1-.45 1-1 1-1-.448-1-1zm18 0c0-.552.45-1 1-1s1 .448 1 1-.45 1-1 1-1-.448-1-1zm18 0c0-.552.45-1 1-1s1 .448 1 1-.45 1-1 1-1-.448-1-1zm18 0c0-.552.45-1 1-1s1 .448 1 1-.45 1-1 1-1-.448-1-1zm18 0c0-.552.45-1 1-1s1 .448 1 1-.45 1-1 1-1-.448-1-1zm18 0c0-.552.45-1 1-1s1 .448 1 1-.45 1-1 1-1-.448-1-1zM-10 55a1 1 0 112 0 1 1 0 01-2 0zm18 0a1 1 0 112 0 1 1 0 01-2 0zm18 0a1 1 0 112 0 1 1 0 01-2 0zm18 0a1 1 0 112 0 1 1 0 01-2 0zm18 0a1 1 0 112 0 1 1 0 01-2 0zm18 0a1 1 0 112 0 1 1 0 01-2 0zm18 0a1 1 0 112 0 1 1 0 01-2 0zm18 0a1 1 0 112 0 1 1 0 01-2 0zm18 0a1 1 0 112 0 1 1 0 01-2 0zm18 0a1 1 0 112 0 1 1 0 01-2 0zm18 0a1 1 0 112 0 1 1 0 01-2 0zm18 0a1 1 0 112 0 1 1 0 01-2 0zm18 0a1 1 0 112 0 1 1 0 01-2 0zm18 0a1 1 0 112 0 1 1 0 01-2 0zm18 0a1 1 0 112 0 1 1 0 01-2 0zm18 0a1 1 0 112 0 1 1 0 01-2 0zm18 0a1 1 0 112 0 1 1 0 01-2 0zm18 0a1 1 0 112 0 1 1 0 01-2 0zm18 0a1 1 0 112 0 1 1 0 01-2 0zm18 0a1 1 0 112 0 1 1 0 01-2 0zm18 0a1 1 0 112 0 1 1 0 01-2 0zm18 0a1 1 0 112 0 1 1 0 01-2 0zm18 0a1 1 0 112 0 1 1 0 01-2 0zm18 0a1 1 0 112 0 1 1 0 01-2 0zm18 0a1 1 0 112 0 1 1 0 01-2 0zm18 0a1 1 0 112 0 1 1 0 01-2 0zm18 0a1 1 0 112 0 1 1 0 01-2 0zm18 0a1 1 0 112 0 1 1 0 01-2 0zm18 0a1 1 0 112 0 1 1 0 01-2 0zm18 0a1 1 0 112 0 1 1 0 01-2 0zm18 0a1 1 0 112 0 1 1 0 01-2 0zm18 0a1 1 0 112 0 1 1 0 01-2 0zm18 0a1 1 0 112 0 1 1 0 01-2 0zm18 0a1 1 0 112 0 1 1 0 01-2 0zm18 0a1 1 0 112 0 1 1 0 01-2 0zm18 0a1 1 0 112 0 1 1 0 01-2 0zm18 0a1 1 0 112 0 1 1 0 01-2 0zm18 0a1 1 0 112 0 1 1 0 01-2 0zm18 0a1 1 0 112 0 1 1 0 01-2 0zm18 0a1 1 0 112 0 1 1 0 01-2 0zm18 0a1 1 0 112 0 1 1 0 01-2 0zm18 0a1 1 0 112 0 1 1 0 01-2 0zm18 0a1 1 0 112 0 1 1 0 01-2 0zm18 0a1 1 0 112 0 1 1 0 01-2 0zm18 0a1 1 0 112 0 1 1 0 01-2 0zm18 0a1 1 0 112 0 1 1 0 01-2 0zm18 0a1 1 0 112 0 1 1 0 01-2 0zm18 0a1 1 0 112 0 1 1 0 01-2 0zm18 0a1 1 0 112 0 1 1 0 01-2 0zm18 0a1 1 0 112 0 1 1 0 01-2 0zm18 0a1 1 0 112 0 1 1 0 01-2 0zm18 0a1 1 0 112 0 1 1 0 01-2 0zm18 0a1 1 0 112 0 1 1 0 01-2 0zm18 0a1 1 0 112 0 1 1 0 01-2 0zm18 0a1 1 0 112 0 1 1 0 01-2 0zm18 0a1 1 0 112 0 1 1 0 01-2 0zm18 0a1 1 0 112 0 1 1 0 01-2 0zm18 0c0-.552.45-1 1-1s1 .448 1 1-.45 1-1 1-1-.448-1-1zm18 0c0-.552.45-1 1-1s1 .448 1 1-.45 1-1 1-1-.448-1-1zm18 0c0-.552.45-1 1-1s1 .448 1 1-.45 1-1 1-1-.448-1-1zm18 0c0-.552.45-1 1-1s1 .448 1 1-.45 1-1 1-1-.448-1-1zm18 0c0-.552.45-1 1-1s1 .448 1 1-.45 1-1 1-1-.448-1-1zm18 0c0-.552.45-1 1-1s1 .448 1 1-.45 1-1 1-1-.448-1-1zm18 0c0-.552.45-1 1-1s1 .448 1 1-.45 1-1 1-1-.448-1-1zm18 0c0-.552.45-1 1-1s1 .448 1 1-.45 1-1 1-1-.448-1-1zm18 0c0-.552.45-1 1-1s1 .448 1 1-.45 1-1 1-1-.448-1-1zm18 0c0-.552.45-1 1-1s1 .448 1 1-.45 1-1 1-1-.448-1-1zm18 0c0-.552.45-1 1-1s1 .448 1 1-.45 1-1 1-1-.448-1-1zm18 0c0-.552.45-1 1-1s1 .448 1 1-.45 1-1 1-1-.448-1-1zm18 0c0-.552.45-1 1-1s1 .448 1 1-.45 1-1 1-1-.448-1-1zm18 0c0-.552.45-1 1-1s1 .448 1 1-.45 1-1 1-1-.448-1-1zm18 0c0-.552.45-1 1-1s1 .448 1 1-.45 1-1 1-1-.448-1-1zm18 0c0-.552.45-1 1-1s1 .448 1 1-.45 1-1 1-1-.448-1-1zm18 0c0-.552.45-1 1-1s1 .448 1 1-.45 1-1 1-1-.448-1-1zm18 0c0-.552.45-1 1-1s1 .448 1 1-.45 1-1 1-1-.448-1-1zm18 0c0-.552.45-1 1-1s1 .448 1 1-.45 1-1 1-1-.448-1-1zm18 0c0-.552.45-1 1-1s1 .448 1 1-.45 1-1 1-1-.448-1-1zm18 0c0-.552.45-1 1-1s1 .448 1 1-.45 1-1 1-1-.448-1-1zm18 0c0-.552.45-1 1-1s1 .448 1 1-.45 1-1 1-1-.448-1-1zm18 0c0-.552.45-1 1-1s1 .448 1 1-.45 1-1 1-1-.448-1-1zm18 0c0-.552.45-1 1-1s1 .448 1 1-.45 1-1 1-1-.448-1-1zm18 0c0-.552.45-1 1-1s1 .448 1 1-.45 1-1 1-1-.448-1-1zm18 0c0-.552.45-1 1-1s1 .448 1 1-.45 1-1 1-1-.448-1-1zm18 0c0-.552.45-1 1-1s1 .448 1 1-.45 1-1 1-1-.448-1-1zm18 0c0-.552.45-1 1-1s1 .448 1 1-.45 1-1 1-1-.448-1-1zm18 0c0-.552.45-1 1-1s1 .448 1 1-.45 1-1 1-1-.448-1-1zm18 0c0-.552.45-1 1-1s1 .448 1 1-.45 1-1 1-1-.448-1-1zm18 0c0-.552.45-1 1-1s1 .448 1 1-.45 1-1 1-1-.448-1-1zm18 0c0-.552.45-1 1-1s1 .448 1 1-.45 1-1 1-1-.448-1-1zm18 0c0-.552.45-1 1-1s1 .448 1 1-.45 1-1 1-1-.448-1-1zm18 0c0-.552.45-1 1-1s1 .448 1 1-.45 1-1 1-1-.448-1-1zm18 0c0-.552.45-1 1-1s1 .448 1 1-.45 1-1 1-1-.448-1-1zm18 0c0-.552.45-1 1-1s1 .448 1 1-.45 1-1 1-1-.448-1-1zm18 0c0-.552.45-1 1-1s1 .448 1 1-.45 1-1 1-1-.448-1-1zm18 0c0-.552.45-1 1-1s1 .448 1 1-.45 1-1 1-1-.448-1-1zm18 0c0-.552.45-1 1-1s1 .448 1 1-.45 1-1 1-1-.448-1-1zm18 0c0-.552.45-1 1-1s1 .448 1 1-.45 1-1 1-1-.448-1-1zm18 0c0-.552.45-1 1-1s1 .448 1 1-.45 1-1 1-1-.448-1-1zm18 0c0-.552.45-1 1-1s1 .448 1 1-.45 1-1 1-1-.448-1-1zm18 0c0-.552.45-1 1-1s1 .448 1 1-.45 1-1 1-1-.448-1-1zm18 0c0-.552.45-1 1-1s1 .448 1 1-.45 1-1 1-1-.448-1-1zm18 0c0-.552.45-1 1-1s1 .448 1 1-.45 1-1 1-1-.448-1-1zm18 0c0-.552.45-1 1-1s1 .448 1 1-.45 1-1 1-1-.448-1-1zm18 0c0-.552.45-1 1-1s1 .448 1 1-.45 1-1 1-1-.448-1-1zm18 0c0-.552.45-1 1-1s1 .448 1 1-.45 1-1 1-1-.448-1-1zm18 0c0-.552.45-1 1-1s1 .448 1 1-.45 1-1 1-1-.448-1-1zm18 0c0-.552.45-1 1-1s1 .448 1 1-.45 1-1 1-1-.448-1-1zm18 0c0-.552.45-1 1-1s1 .448 1 1-.45 1-1 1-1-.448-1-1zm18 0c0-.552.45-1 1-1s1 .448 1 1-.45 1-1 1-1-.448-1-1zm18 0c0-.552.45-1 1-1s1 .448 1 1-.45 1-1 1-1-.448-1-1zM-10 73a1 1 0 112 0 1 1 0 01-2 0zm18 0a1 1 0 112 0 1 1 0 01-2 0zm18 0a1 1 0 112 0 1 1 0 01-2 0zm18 0a1 1 0 112 0 1 1 0 01-2 0zm18 0a1 1 0 112 0 1 1 0 01-2 0zm18 0a1 1 0 112 0 1 1 0 01-2 0zm18 0a1 1 0 112 0 1 1 0 01-2 0zm18 0a1 1 0 112 0 1 1 0 01-2 0zm18 0a1 1 0 112 0 1 1 0 01-2 0zm18 0a1 1 0 112 0 1 1 0 01-2 0zm18 0a1 1 0 112 0 1 1 0 01-2 0zm18 0a1 1 0 112 0 1 1 0 01-2 0zm18 0a1 1 0 112 0 1 1 0 01-2 0zm18 0a1 1 0 112 0 1 1 0 01-2 0zm18 0a1 1 0 112 0 1 1 0 01-2 0zm18 0a1 1 0 112 0 1 1 0 01-2 0zm18 0a1 1 0 112 0 1 1 0 01-2 0zm18 0a1 1 0 112 0 1 1 0 01-2 0zm18 0a1 1 0 112 0 1 1 0 01-2 0zm18 0a1 1 0 112 0 1 1 0 01-2 0zm18 0a1 1 0 112 0 1 1 0 01-2 0zm18 0a1 1 0 112 0 1 1 0 01-2 0zm18 0a1 1 0 112 0 1 1 0 01-2 0zm18 0a1 1 0 112 0 1 1 0 01-2 0zm18 0a1 1 0 112 0 1 1 0 01-2 0zm18 0a1 1 0 112 0 1 1 0 01-2 0zm18 0a1 1 0 112 0 1 1 0 01-2 0zm18 0a1 1 0 112 0 1 1 0 01-2 0zm18 0a1 1 0 112 0 1 1 0 01-2 0zm18 0a1 1 0 112 0 1 1 0 01-2 0zm18 0a1 1 0 112 0 1 1 0 01-2 0zm18 0a1 1 0 112 0 1 1 0 01-2 0zm18 0a1 1 0 112 0 1 1 0 01-2 0zm18 0a1 1 0 112 0 1 1 0 01-2 0zm18 0a1 1 0 112 0 1 1 0 01-2 0zm18 0a1 1 0 112 0 1 1 0 01-2 0zm18 0a1 1 0 112 0 1 1 0 01-2 0zm18 0a1 1 0 112 0 1 1 0 01-2 0zm18 0a1 1 0 112 0 1 1 0 01-2 0zm18 0a1 1 0 112 0 1 1 0 01-2 0zm18 0a1 1 0 112 0 1 1 0 01-2 0zm18 0a1 1 0 112 0 1 1 0 01-2 0zm18 0a1 1 0 112 0 1 1 0 01-2 0zm18 0a1 1 0 112 0 1 1 0 01-2 0zm18 0a1 1 0 112 0 1 1 0 01-2 0zm18 0a1 1 0 112 0 1 1 0 01-2 0zm18 0a1 1 0 112 0 1 1 0 01-2 0zm18 0a1 1 0 112 0 1 1 0 01-2 0zm18 0a1 1 0 112 0 1 1 0 01-2 0zm18 0a1 1 0 112 0 1 1 0 01-2 0zm18 0a1 1 0 112 0 1 1 0 01-2 0zm18 0a1 1 0 112 0 1 1 0 01-2 0zm18 0a1 1 0 112 0 1 1 0 01-2 0zm18 0a1 1 0 112 0 1 1 0 01-2 0zm18 0a1 1 0 112 0 1 1 0 01-2 0zm18 0a1 1 0 112 0 1 1 0 01-2 0zm18 0a1 1 0 112 0 1 1 0 01-2 0zm18 0c0-.552.45-1 1-1s1 .448 1 1-.45 1-1 1-1-.448-1-1zm18 0c0-.552.45-1 1-1s1 .448 1 1-.45 1-1 1-1-.448-1-1zm18 0c0-.552.45-1 1-1s1 .448 1 1-.45 1-1 1-1-.448-1-1zm18 0c0-.552.45-1 1-1s1 .448 1 1-.45 1-1 1-1-.448-1-1zm18 0c0-.552.45-1 1-1s1 .448 1 1-.45 1-1 1-1-.448-1-1zm18 0c0-.552.45-1 1-1s1 .448 1 1-.45 1-1 1-1-.448-1-1zm18 0c0-.552.45-1 1-1s1 .448 1 1-.45 1-1 1-1-.448-1-1zm18 0c0-.552.45-1 1-1s1 .448 1 1-.45 1-1 1-1-.448-1-1zm18 0c0-.552.45-1 1-1s1 .448 1 1-.45 1-1 1-1-.448-1-1zm18 0c0-.552.45-1 1-1s1 .448 1 1-.45 1-1 1-1-.448-1-1zm18 0c0-.552.45-1 1-1s1 .448 1 1-.45 1-1 1-1-.448-1-1zm18 0c0-.552.45-1 1-1s1 .448 1 1-.45 1-1 1-1-.448-1-1zm18 0c0-.552.45-1 1-1s1 .448 1 1-.45 1-1 1-1-.448-1-1zm18 0c0-.552.45-1 1-1s1 .448 1 1-.45 1-1 1-1-.448-1-1zm18 0c0-.552.45-1 1-1s1 .448 1 1-.45 1-1 1-1-.448-1-1zm18 0c0-.552.45-1 1-1s1 .448 1 1-.45 1-1 1-1-.448-1-1zm18 0c0-.552.45-1 1-1s1 .448 1 1-.45 1-1 1-1-.448-1-1zm18 0c0-.552.45-1 1-1s1 .448 1 1-.45 1-1 1-1-.448-1-1zm18 0c0-.552.45-1 1-1s1 .448 1 1-.45 1-1 1-1-.448-1-1zm18 0c0-.552.45-1 1-1s1 .448 1 1-.45 1-1 1-1-.448-1-1zm18 0c0-.552.45-1 1-1s1 .448 1 1-.45 1-1 1-1-.448-1-1zm18 0c0-.552.45-1 1-1s1 .448 1 1-.45 1-1 1-1-.448-1-1zm18 0c0-.552.45-1 1-1s1 .448 1 1-.45 1-1 1-1-.448-1-1zm18 0c0-.552.45-1 1-1s1 .448 1 1-.45 1-1 1-1-.448-1-1zm18 0c0-.552.45-1 1-1s1 .448 1 1-.45 1-1 1-1-.448-1-1zm18 0c0-.552.45-1 1-1s1 .448 1 1-.45 1-1 1-1-.448-1-1zm18 0c0-.552.45-1 1-1s1 .448 1 1-.45 1-1 1-1-.448-1-1zm18 0c0-.552.45-1 1-1s1 .448 1 1-.45 1-1 1-1-.448-1-1zm18 0c0-.552.45-1 1-1s1 .448 1 1-.45 1-1 1-1-.448-1-1zm18 0c0-.552.45-1 1-1s1 .448 1 1-.45 1-1 1-1-.448-1-1zm18 0c0-.552.45-1 1-1s1 .448 1 1-.45 1-1 1-1-.448-1-1zm18 0c0-.552.45-1 1-1s1 .448 1 1-.45 1-1 1-1-.448-1-1zm18 0c0-.552.45-1 1-1s1 .448 1 1-.45 1-1 1-1-.448-1-1zm18 0c0-.552.45-1 1-1s1 .448 1 1-.45 1-1 1-1-.448-1-1zm18 0c0-.552.45-1 1-1s1 .448 1 1-.45 1-1 1-1-.448-1-1zm18 0c0-.552.45-1 1-1s1 .448 1 1-.45 1-1 1-1-.448-1-1zm18 0c0-.552.45-1 1-1s1 .448 1 1-.45 1-1 1-1-.448-1-1zm18 0c0-.552.45-1 1-1s1 .448 1 1-.45 1-1 1-1-.448-1-1zm18 0c0-.552.45-1 1-1s1 .448 1 1-.45 1-1 1-1-.448-1-1zm18 0c0-.552.45-1 1-1s1 .448 1 1-.45 1-1 1-1-.448-1-1zm18 0c0-.552.45-1 1-1s1 .448 1 1-.45 1-1 1-1-.448-1-1zm18 0c0-.552.45-1 1-1s1 .448 1 1-.45 1-1 1-1-.448-1-1zm18 0c0-.552.45-1 1-1s1 .448 1 1-.45 1-1 1-1-.448-1-1zm18 0c0-.552.45-1 1-1s1 .448 1 1-.45 1-1 1-1-.448-1-1zm18 0c0-.552.45-1 1-1s1 .448 1 1-.45 1-1 1-1-.448-1-1zm18 0c0-.552.45-1 1-1s1 .448 1 1-.45 1-1 1-1-.448-1-1zm18 0c0-.552.45-1 1-1s1 .448 1 1-.45 1-1 1-1-.448-1-1zm18 0c0-.552.45-1 1-1s1 .448 1 1-.45 1-1 1-1-.448-1-1zm18 0c0-.552.45-1 1-1s1 .448 1 1-.45 1-1 1-1-.448-1-1zm18 0c0-.552.45-1 1-1s1 .448 1 1-.45 1-1 1-1-.448-1-1zm18 0c0-.552.45-1 1-1s1 .448 1 1-.45 1-1 1-1-.448-1-1zm18 0c0-.552.45-1 1-1s1 .448 1 1-.45 1-1 1-1-.448-1-1zm18 0c0-.552.45-1 1-1s1 .448 1 1-.45 1-1 1-1-.448-1-1zM-10 91a1 1 0 112 0 1 1 0 01-2 0zm18 0a1 1 0 112 0 1 1 0 01-2 0zm18 0a1 1 0 112 0 1 1 0 01-2 0zm18 0a1 1 0 112 0 1 1 0 01-2 0zm18 0a1 1 0 112 0 1 1 0 01-2 0zm18 0a1 1 0 112 0 1 1 0 01-2 0zm18 0a1 1 0 112 0 1 1 0 01-2 0zm18 0a1 1 0 112 0 1 1 0 01-2 0zm18 0a1 1 0 112 0 1 1 0 01-2 0zm18 0a1 1 0 112 0 1 1 0 01-2 0zm18 0a1 1 0 112 0 1 1 0 01-2 0zm18 0a1 1 0 112 0 1 1 0 01-2 0zm18 0a1 1 0 112 0 1 1 0 01-2 0zm18 0a1 1 0 112 0 1 1 0 01-2 0zm18 0a1 1 0 112 0 1 1 0 01-2 0zm18 0a1 1 0 112 0 1 1 0 01-2 0zm18 0a1 1 0 112 0 1 1 0 01-2 0zm18 0a1 1 0 112 0 1 1 0 01-2 0zm18 0a1 1 0 112 0 1 1 0 01-2 0zm18 0a1 1 0 112 0 1 1 0 01-2 0zm18 0a1 1 0 112 0 1 1 0 01-2 0zm18 0a1 1 0 112 0 1 1 0 01-2 0zm18 0a1 1 0 112 0 1 1 0 01-2 0zm18 0a1 1 0 112 0 1 1 0 01-2 0zm18 0a1 1 0 112 0 1 1 0 01-2 0zm18 0a1 1 0 112 0 1 1 0 01-2 0zm18 0a1 1 0 112 0 1 1 0 01-2 0zm18 0a1 1 0 112 0 1 1 0 01-2 0zm18 0a1 1 0 112 0 1 1 0 01-2 0zm18 0a1 1 0 112 0 1 1 0 01-2 0zm18 0a1 1 0 112 0 1 1 0 01-2 0zm18 0a1 1 0 112 0 1 1 0 01-2 0zm18 0a1 1 0 112 0 1 1 0 01-2 0zm18 0a1 1 0 112 0 1 1 0 01-2 0zm18 0a1 1 0 112 0 1 1 0 01-2 0zm18 0a1 1 0 112 0 1 1 0 01-2 0zm18 0a1 1 0 112 0 1 1 0 01-2 0zm18 0a1 1 0 112 0 1 1 0 01-2 0zm18 0a1 1 0 112 0 1 1 0 01-2 0zm18 0a1 1 0 112 0 1 1 0 01-2 0zm18 0a1 1 0 112 0 1 1 0 01-2 0zm18 0a1 1 0 112 0 1 1 0 01-2 0zm18 0a1 1 0 112 0 1 1 0 01-2 0zm18 0a1 1 0 112 0 1 1 0 01-2 0zm18 0a1 1 0 112 0 1 1 0 01-2 0zm18 0a1 1 0 112 0 1 1 0 01-2 0zm18 0a1 1 0 112 0 1 1 0 01-2 0zm18 0a1 1 0 112 0 1 1 0 01-2 0zm18 0a1 1 0 112 0 1 1 0 01-2 0zm18 0a1 1 0 112 0 1 1 0 01-2 0zm18 0a1 1 0 112 0 1 1 0 01-2 0zm18 0a1 1 0 112 0 1 1 0 01-2 0zm18 0a1 1 0 112 0 1 1 0 01-2 0zm18 0a1 1 0 112 0 1 1 0 01-2 0zm18 0a1 1 0 112 0 1 1 0 01-2 0zm18 0a1 1 0 112 0 1 1 0 01-2 0zm18 0a1 1 0 112 0 1 1 0 01-2 0zm18 0c0-.552.45-1 1-1s1 .448 1 1-.45 1-1 1-1-.448-1-1zm18 0c0-.552.45-1 1-1s1 .448 1 1-.45 1-1 1-1-.448-1-1zm18 0c0-.552.45-1 1-1s1 .448 1 1-.45 1-1 1-1-.448-1-1zm18 0c0-.552.45-1 1-1s1 .448 1 1-.45 1-1 1-1-.448-1-1zm18 0c0-.552.45-1 1-1s1 .448 1 1-.45 1-1 1-1-.448-1-1zm18 0c0-.552.45-1 1-1s1 .448 1 1-.45 1-1 1-1-.448-1-1zm18 0c0-.552.45-1 1-1s1 .448 1 1-.45 1-1 1-1-.448-1-1zm18 0c0-.552.45-1 1-1s1 .448 1 1-.45 1-1 1-1-.448-1-1zm18 0c0-.552.45-1 1-1s1 .448 1 1-.45 1-1 1-1-.448-1-1zm18 0c0-.552.45-1 1-1s1 .448 1 1-.45 1-1 1-1-.448-1-1zm18 0c0-.552.45-1 1-1s1 .448 1 1-.45 1-1 1-1-.448-1-1zm18 0c0-.552.45-1 1-1s1 .448 1 1-.45 1-1 1-1-.448-1-1zm18 0c0-.552.45-1 1-1s1 .448 1 1-.45 1-1 1-1-.448-1-1zm18 0c0-.552.45-1 1-1s1 .448 1 1-.45 1-1 1-1-.448-1-1zm18 0c0-.552.45-1 1-1s1 .448 1 1-.45 1-1 1-1-.448-1-1zm18 0c0-.552.45-1 1-1s1 .448 1 1-.45 1-1 1-1-.448-1-1zm18 0c0-.552.45-1 1-1s1 .448 1 1-.45 1-1 1-1-.448-1-1zm18 0c0-.552.45-1 1-1s1 .448 1 1-.45 1-1 1-1-.448-1-1zm18 0c0-.552.45-1 1-1s1 .448 1 1-.45 1-1 1-1-.448-1-1zm18 0c0-.552.45-1 1-1s1 .448 1 1-.45 1-1 1-1-.448-1-1zm18 0c0-.552.45-1 1-1s1 .448 1 1-.45 1-1 1-1-.448-1-1zm18 0c0-.552.45-1 1-1s1 .448 1 1-.45 1-1 1-1-.448-1-1zm18 0c0-.552.45-1 1-1s1 .448 1 1-.45 1-1 1-1-.448-1-1zm18 0c0-.552.45-1 1-1s1 .448 1 1-.45 1-1 1-1-.448-1-1zm18 0c0-.552.45-1 1-1s1 .448 1 1-.45 1-1 1-1-.448-1-1zm18 0c0-.552.45-1 1-1s1 .448 1 1-.45 1-1 1-1-.448-1-1zm18 0c0-.552.45-1 1-1s1 .448 1 1-.45 1-1 1-1-.448-1-1zm18 0c0-.552.45-1 1-1s1 .448 1 1-.45 1-1 1-1-.448-1-1zm18 0c0-.552.45-1 1-1s1 .448 1 1-.45 1-1 1-1-.448-1-1zm18 0c0-.552.45-1 1-1s1 .448 1 1-.45 1-1 1-1-.448-1-1zm18 0c0-.552.45-1 1-1s1 .448 1 1-.45 1-1 1-1-.448-1-1zm18 0c0-.552.45-1 1-1s1 .448 1 1-.45 1-1 1-1-.448-1-1zm18 0c0-.552.45-1 1-1s1 .448 1 1-.45 1-1 1-1-.448-1-1zm18 0c0-.552.45-1 1-1s1 .448 1 1-.45 1-1 1-1-.448-1-1zm18 0c0-.552.45-1 1-1s1 .448 1 1-.45 1-1 1-1-.448-1-1zm18 0c0-.552.45-1 1-1s1 .448 1 1-.45 1-1 1-1-.448-1-1zm18 0c0-.552.45-1 1-1s1 .448 1 1-.45 1-1 1-1-.448-1-1zm18 0c0-.552.45-1 1-1s1 .448 1 1-.45 1-1 1-1-.448-1-1zm18 0c0-.552.45-1 1-1s1 .448 1 1-.45 1-1 1-1-.448-1-1zm18 0c0-.552.45-1 1-1s1 .448 1 1-.45 1-1 1-1-.448-1-1zm18 0c0-.552.45-1 1-1s1 .448 1 1-.45 1-1 1-1-.448-1-1zm18 0c0-.552.45-1 1-1s1 .448 1 1-.45 1-1 1-1-.448-1-1zm18 0c0-.552.45-1 1-1s1 .448 1 1-.45 1-1 1-1-.448-1-1zm18 0c0-.552.45-1 1-1s1 .448 1 1-.45 1-1 1-1-.448-1-1zm18 0c0-.552.45-1 1-1s1 .448 1 1-.45 1-1 1-1-.448-1-1zm18 0c0-.552.45-1 1-1s1 .448 1 1-.45 1-1 1-1-.448-1-1zm18 0c0-.552.45-1 1-1s1 .448 1 1-.45 1-1 1-1-.448-1-1zm18 0c0-.552.45-1 1-1s1 .448 1 1-.45 1-1 1-1-.448-1-1zm18 0c0-.552.45-1 1-1s1 .448 1 1-.45 1-1 1-1-.448-1-1zm18 0c0-.552.45-1 1-1s1 .448 1 1-.45 1-1 1-1-.448-1-1zm18 0c0-.552.45-1 1-1s1 .448 1 1-.45 1-1 1-1-.448-1-1zm18 0c0-.552.45-1 1-1s1 .448 1 1-.45 1-1 1-1-.448-1-1zm18 0c0-.552.45-1 1-1s1 .448 1 1-.45 1-1 1-1-.448-1-1zM-10 109a1 1 0 112 0 1 1 0 01-2 0zm18 0a1 1 0 112 0 1 1 0 01-2 0zm18 0a1 1 0 112 0 1 1 0 01-2 0zm18 0a1 1 0 112 0 1 1 0 01-2 0zm18 0a1 1 0 112 0 1 1 0 01-2 0zm18 0a1 1 0 112 0 1 1 0 01-2 0zm18 0a1 1 0 112 0 1 1 0 01-2 0zm18 0a1 1 0 112 0 1 1 0 01-2 0zm18 0a1 1 0 112 0 1 1 0 01-2 0zm18 0a1 1 0 112 0 1 1 0 01-2 0zm18 0a1 1 0 112 0 1 1 0 01-2 0zm18 0a1 1 0 112 0 1 1 0 01-2 0zm18 0a1 1 0 112 0 1 1 0 01-2 0zm18 0a1 1 0 112 0 1 1 0 01-2 0zm18 0a1 1 0 112 0 1 1 0 01-2 0zm18 0a1 1 0 112 0 1 1 0 01-2 0zm18 0a1 1 0 112 0 1 1 0 01-2 0zm18 0a1 1 0 112 0 1 1 0 01-2 0zm18 0a1 1 0 112 0 1 1 0 01-2 0zm18 0a1 1 0 112 0 1 1 0 01-2 0zm18 0a1 1 0 112 0 1 1 0 01-2 0zm18 0a1 1 0 112 0 1 1 0 01-2 0zm18 0a1 1 0 112 0 1 1 0 01-2 0zm18 0a1 1 0 112 0 1 1 0 01-2 0zm18 0a1 1 0 112 0 1 1 0 01-2 0zm18 0a1 1 0 112 0 1 1 0 01-2 0zm18 0a1 1 0 112 0 1 1 0 01-2 0zm18 0a1 1 0 112 0 1 1 0 01-2 0zm18 0a1 1 0 112 0 1 1 0 01-2 0zm18 0a1 1 0 112 0 1 1 0 01-2 0zm18 0a1 1 0 112 0 1 1 0 01-2 0zm18 0a1 1 0 112 0 1 1 0 01-2 0zm18 0a1 1 0 112 0 1 1 0 01-2 0zm18 0a1 1 0 112 0 1 1 0 01-2 0zm18 0a1 1 0 112 0 1 1 0 01-2 0zm18 0a1 1 0 112 0 1 1 0 01-2 0zm18 0a1 1 0 112 0 1 1 0 01-2 0zm18 0a1 1 0 112 0 1 1 0 01-2 0zm18 0a1 1 0 112 0 1 1 0 01-2 0zm18 0a1 1 0 112 0 1 1 0 01-2 0zm18 0a1 1 0 112 0 1 1 0 01-2 0zm18 0a1 1 0 112 0 1 1 0 01-2 0zm18 0a1 1 0 112 0 1 1 0 01-2 0zm18 0a1 1 0 112 0 1 1 0 01-2 0zm18 0a1 1 0 112 0 1 1 0 01-2 0zm18 0a1 1 0 112 0 1 1 0 01-2 0zm18 0a1 1 0 112 0 1 1 0 01-2 0zm18 0a1 1 0 112 0 1 1 0 01-2 0zm18 0a1 1 0 112 0 1 1 0 01-2 0zm18 0a1 1 0 112 0 1 1 0 01-2 0zm18 0a1 1 0 112 0 1 1 0 01-2 0zm18 0a1 1 0 112 0 1 1 0 01-2 0zm18 0a1 1 0 112 0 1 1 0 01-2 0zm18 0a1 1 0 112 0 1 1 0 01-2 0zm18 0a1 1 0 112 0 1 1 0 01-2 0zm18 0a1 1 0 112 0 1 1 0 01-2 0zm18 0a1 1 0 112 0 1 1 0 01-2 0zm18 0c0-.552.45-1 1-1s1 .448 1 1-.45 1-1 1-1-.448-1-1zm18 0c0-.552.45-1 1-1s1 .448 1 1-.45 1-1 1-1-.448-1-1zm18 0c0-.552.45-1 1-1s1 .448 1 1-.45 1-1 1-1-.448-1-1zm18 0c0-.552.45-1 1-1s1 .448 1 1-.45 1-1 1-1-.448-1-1zm18 0c0-.552.45-1 1-1s1 .448 1 1-.45 1-1 1-1-.448-1-1zm18 0c0-.552.45-1 1-1s1 .448 1 1-.45 1-1 1-1-.448-1-1zm18 0c0-.552.45-1 1-1s1 .448 1 1-.45 1-1 1-1-.448-1-1zm18 0c0-.552.45-1 1-1s1 .448 1 1-.45 1-1 1-1-.448-1-1zm18 0c0-.552.45-1 1-1s1 .448 1 1-.45 1-1 1-1-.448-1-1zm18 0c0-.552.45-1 1-1s1 .448 1 1-.45 1-1 1-1-.448-1-1zm18 0c0-.552.45-1 1-1s1 .448 1 1-.45 1-1 1-1-.448-1-1zm18 0c0-.552.45-1 1-1s1 .448 1 1-.45 1-1 1-1-.448-1-1zm18 0c0-.552.45-1 1-1s1 .448 1 1-.45 1-1 1-1-.448-1-1zm18 0c0-.552.45-1 1-1s1 .448 1 1-.45 1-1 1-1-.448-1-1zm18 0c0-.552.45-1 1-1s1 .448 1 1-.45 1-1 1-1-.448-1-1zm18 0c0-.552.45-1 1-1s1 .448 1 1-.45 1-1 1-1-.448-1-1zm18 0c0-.552.45-1 1-1s1 .448 1 1-.45 1-1 1-1-.448-1-1zm18 0c0-.552.45-1 1-1s1 .448 1 1-.45 1-1 1-1-.448-1-1zm18 0c0-.552.45-1 1-1s1 .448 1 1-.45 1-1 1-1-.448-1-1zm18 0c0-.552.45-1 1-1s1 .448 1 1-.45 1-1 1-1-.448-1-1zm18 0c0-.552.45-1 1-1s1 .448 1 1-.45 1-1 1-1-.448-1-1zm18 0c0-.552.45-1 1-1s1 .448 1 1-.45 1-1 1-1-.448-1-1zm18 0c0-.552.45-1 1-1s1 .448 1 1-.45 1-1 1-1-.448-1-1zm18 0c0-.552.45-1 1-1s1 .448 1 1-.45 1-1 1-1-.448-1-1zm18 0c0-.552.45-1 1-1s1 .448 1 1-.45 1-1 1-1-.448-1-1zm18 0c0-.552.45-1 1-1s1 .448 1 1-.45 1-1 1-1-.448-1-1zm18 0c0-.552.45-1 1-1s1 .448 1 1-.45 1-1 1-1-.448-1-1zm18 0c0-.552.45-1 1-1s1 .448 1 1-.45 1-1 1-1-.448-1-1zm18 0c0-.552.45-1 1-1s1 .448 1 1-.45 1-1 1-1-.448-1-1zm18 0c0-.552.45-1 1-1s1 .448 1 1-.45 1-1 1-1-.448-1-1zm18 0c0-.552.45-1 1-1s1 .448 1 1-.45 1-1 1-1-.448-1-1zm18 0c0-.552.45-1 1-1s1 .448 1 1-.45 1-1 1-1-.448-1-1zm18 0c0-.552.45-1 1-1s1 .448 1 1-.45 1-1 1-1-.448-1-1zm18 0c0-.552.45-1 1-1s1 .448 1 1-.45 1-1 1-1-.448-1-1zm18 0c0-.552.45-1 1-1s1 .448 1 1-.45 1-1 1-1-.448-1-1zm18 0c0-.552.45-1 1-1s1 .448 1 1-.45 1-1 1-1-.448-1-1zm18 0c0-.552.45-1 1-1s1 .448 1 1-.45 1-1 1-1-.448-1-1zm18 0c0-.552.45-1 1-1s1 .448 1 1-.45 1-1 1-1-.448-1-1zm18 0c0-.552.45-1 1-1s1 .448 1 1-.45 1-1 1-1-.448-1-1zm18 0c0-.552.45-1 1-1s1 .448 1 1-.45 1-1 1-1-.448-1-1zm18 0c0-.552.45-1 1-1s1 .448 1 1-.45 1-1 1-1-.448-1-1zm18 0c0-.552.45-1 1-1s1 .448 1 1-.45 1-1 1-1-.448-1-1zm18 0c0-.552.45-1 1-1s1 .448 1 1-.45 1-1 1-1-.448-1-1zm18 0c0-.552.45-1 1-1s1 .448 1 1-.45 1-1 1-1-.448-1-1zm18 0c0-.552.45-1 1-1s1 .448 1 1-.45 1-1 1-1-.448-1-1zm18 0c0-.552.45-1 1-1s1 .448 1 1-.45 1-1 1-1-.448-1-1zm18 0c0-.552.45-1 1-1s1 .448 1 1-.45 1-1 1-1-.448-1-1zm18 0c0-.552.45-1 1-1s1 .448 1 1-.45 1-1 1-1-.448-1-1zm18 0c0-.552.45-1 1-1s1 .448 1 1-.45 1-1 1-1-.448-1-1zm18 0c0-.552.45-1 1-1s1 .448 1 1-.45 1-1 1-1-.448-1-1zm18 0c0-.552.45-1 1-1s1 .448 1 1-.45 1-1 1-1-.448-1-1zm18 0c0-.552.45-1 1-1s1 .448 1 1-.45 1-1 1-1-.448-1-1zm18 0c0-.552.45-1 1-1s1 .448 1 1-.45 1-1 1-1-.448-1-1zM-10 127a1 1 0 112 0 1 1 0 01-2 0zm18 0a1 1 0 112 0 1 1 0 01-2 0zm18 0a1 1 0 112 0 1 1 0 01-2 0zm18 0a1 1 0 112 0 1 1 0 01-2 0zm18 0a1 1 0 112 0 1 1 0 01-2 0zm18 0a1 1 0 112 0 1 1 0 01-2 0zm18 0a1 1 0 112 0 1 1 0 01-2 0zm18 0a1 1 0 112 0 1 1 0 01-2 0zm18 0a1 1 0 112 0 1 1 0 01-2 0zm18 0a1 1 0 112 0 1 1 0 01-2 0zm18 0a1 1 0 112 0 1 1 0 01-2 0zm18 0a1 1 0 112 0 1 1 0 01-2 0zm18 0a1 1 0 112 0 1 1 0 01-2 0zm18 0a1 1 0 112 0 1 1 0 01-2 0zm18 0a1 1 0 112 0 1 1 0 01-2 0zm18 0a1 1 0 112 0 1 1 0 01-2 0zm18 0a1 1 0 112 0 1 1 0 01-2 0zm18 0a1 1 0 112 0 1 1 0 01-2 0zm18 0a1 1 0 112 0 1 1 0 01-2 0zm18 0a1 1 0 112 0 1 1 0 01-2 0zm18 0a1 1 0 112 0 1 1 0 01-2 0zm18 0a1 1 0 112 0 1 1 0 01-2 0zm18 0a1 1 0 112 0 1 1 0 01-2 0zm18 0a1 1 0 112 0 1 1 0 01-2 0zm18 0a1 1 0 112 0 1 1 0 01-2 0zm18 0a1 1 0 112 0 1 1 0 01-2 0zm18 0a1 1 0 112 0 1 1 0 01-2 0zm18 0a1 1 0 112 0 1 1 0 01-2 0zm18 0a1 1 0 112 0 1 1 0 01-2 0zm18 0a1 1 0 112 0 1 1 0 01-2 0zm18 0a1 1 0 112 0 1 1 0 01-2 0zm18 0a1 1 0 112 0 1 1 0 01-2 0zm18 0a1 1 0 112 0 1 1 0 01-2 0zm18 0a1 1 0 112 0 1 1 0 01-2 0zm18 0a1 1 0 112 0 1 1 0 01-2 0zm18 0a1 1 0 112 0 1 1 0 01-2 0zm18 0a1 1 0 112 0 1 1 0 01-2 0zm18 0a1 1 0 112 0 1 1 0 01-2 0zm18 0a1 1 0 112 0 1 1 0 01-2 0zm18 0a1 1 0 112 0 1 1 0 01-2 0zm18 0a1 1 0 112 0 1 1 0 01-2 0zm18 0a1 1 0 112 0 1 1 0 01-2 0zm18 0a1 1 0 112 0 1 1 0 01-2 0zm18 0a1 1 0 112 0 1 1 0 01-2 0zm18 0a1 1 0 112 0 1 1 0 01-2 0zm18 0a1 1 0 112 0 1 1 0 01-2 0zm18 0a1 1 0 112 0 1 1 0 01-2 0zm18 0a1 1 0 112 0 1 1 0 01-2 0zm18 0a1 1 0 112 0 1 1 0 01-2 0zm18 0a1 1 0 112 0 1 1 0 01-2 0zm18 0a1 1 0 112 0 1 1 0 01-2 0zm18 0a1 1 0 112 0 1 1 0 01-2 0zm18 0a1 1 0 112 0 1 1 0 01-2 0zm18 0a1 1 0 112 0 1 1 0 01-2 0zm18 0a1 1 0 112 0 1 1 0 01-2 0zm18 0a1 1 0 112 0 1 1 0 01-2 0zm18 0a1 1 0 112 0 1 1 0 01-2 0zm18 0c0-.552.45-1 1-1s1 .448 1 1-.45 1-1 1-1-.448-1-1zm18 0c0-.552.45-1 1-1s1 .448 1 1-.45 1-1 1-1-.448-1-1zm18 0c0-.552.45-1 1-1s1 .448 1 1-.45 1-1 1-1-.448-1-1zm18 0c0-.552.45-1 1-1s1 .448 1 1-.45 1-1 1-1-.448-1-1zm18 0c0-.552.45-1 1-1s1 .448 1 1-.45 1-1 1-1-.448-1-1zm18 0c0-.552.45-1 1-1s1 .448 1 1-.45 1-1 1-1-.448-1-1zm18 0c0-.552.45-1 1-1s1 .448 1 1-.45 1-1 1-1-.448-1-1zm18 0c0-.552.45-1 1-1s1 .448 1 1-.45 1-1 1-1-.448-1-1zm18 0c0-.552.45-1 1-1s1 .448 1 1-.45 1-1 1-1-.448-1-1zm18 0c0-.552.45-1 1-1s1 .448 1 1-.45 1-1 1-1-.448-1-1zm18 0c0-.552.45-1 1-1s1 .448 1 1-.45 1-1 1-1-.448-1-1zm18 0c0-.552.45-1 1-1s1 .448 1 1-.45 1-1 1-1-.448-1-1zm18 0c0-.552.45-1 1-1s1 .448 1 1-.45 1-1 1-1-.448-1-1zm18 0c0-.552.45-1 1-1s1 .448 1 1-.45 1-1 1-1-.448-1-1zm18 0c0-.552.45-1 1-1s1 .448 1 1-.45 1-1 1-1-.448-1-1zm18 0c0-.552.45-1 1-1s1 .448 1 1-.45 1-1 1-1-.448-1-1zm18 0c0-.552.45-1 1-1s1 .448 1 1-.45 1-1 1-1-.448-1-1zm18 0c0-.552.45-1 1-1s1 .448 1 1-.45 1-1 1-1-.448-1-1zm18 0c0-.552.45-1 1-1s1 .448 1 1-.45 1-1 1-1-.448-1-1zm18 0c0-.552.45-1 1-1s1 .448 1 1-.45 1-1 1-1-.448-1-1zm18 0c0-.552.45-1 1-1s1 .448 1 1-.45 1-1 1-1-.448-1-1zm18 0c0-.552.45-1 1-1s1 .448 1 1-.45 1-1 1-1-.448-1-1zm18 0c0-.552.45-1 1-1s1 .448 1 1-.45 1-1 1-1-.448-1-1zm18 0c0-.552.45-1 1-1s1 .448 1 1-.45 1-1 1-1-.448-1-1zm18 0c0-.552.45-1 1-1s1 .448 1 1-.45 1-1 1-1-.448-1-1zm18 0c0-.552.45-1 1-1s1 .448 1 1-.45 1-1 1-1-.448-1-1zm18 0c0-.552.45-1 1-1s1 .448 1 1-.45 1-1 1-1-.448-1-1zm18 0c0-.552.45-1 1-1s1 .448 1 1-.45 1-1 1-1-.448-1-1zm18 0c0-.552.45-1 1-1s1 .448 1 1-.45 1-1 1-1-.448-1-1zm18 0c0-.552.45-1 1-1s1 .448 1 1-.45 1-1 1-1-.448-1-1zm18 0c0-.552.45-1 1-1s1 .448 1 1-.45 1-1 1-1-.448-1-1zm18 0c0-.552.45-1 1-1s1 .448 1 1-.45 1-1 1-1-.448-1-1zm18 0c0-.552.45-1 1-1s1 .448 1 1-.45 1-1 1-1-.448-1-1zm18 0c0-.552.45-1 1-1s1 .448 1 1-.45 1-1 1-1-.448-1-1zm18 0c0-.552.45-1 1-1s1 .448 1 1-.45 1-1 1-1-.448-1-1zm18 0c0-.552.45-1 1-1s1 .448 1 1-.45 1-1 1-1-.448-1-1zm18 0c0-.552.45-1 1-1s1 .448 1 1-.45 1-1 1-1-.448-1-1zm18 0c0-.552.45-1 1-1s1 .448 1 1-.45 1-1 1-1-.448-1-1zm18 0c0-.552.45-1 1-1s1 .448 1 1-.45 1-1 1-1-.448-1-1zm18 0c0-.552.45-1 1-1s1 .448 1 1-.45 1-1 1-1-.448-1-1zm18 0c0-.552.45-1 1-1s1 .448 1 1-.45 1-1 1-1-.448-1-1zm18 0c0-.552.45-1 1-1s1 .448 1 1-.45 1-1 1-1-.448-1-1zm18 0c0-.552.45-1 1-1s1 .448 1 1-.45 1-1 1-1-.448-1-1zm18 0c0-.552.45-1 1-1s1 .448 1 1-.45 1-1 1-1-.448-1-1zm18 0c0-.552.45-1 1-1s1 .448 1 1-.45 1-1 1-1-.448-1-1zm18 0c0-.552.45-1 1-1s1 .448 1 1-.45 1-1 1-1-.448-1-1zm18 0c0-.552.45-1 1-1s1 .448 1 1-.45 1-1 1-1-.448-1-1zm18 0c0-.552.45-1 1-1s1 .448 1 1-.45 1-1 1-1-.448-1-1zm18 0c0-.552.45-1 1-1s1 .448 1 1-.45 1-1 1-1-.448-1-1zm18 0c0-.552.45-1 1-1s1 .448 1 1-.45 1-1 1-1-.448-1-1zm18 0c0-.552.45-1 1-1s1 .448 1 1-.45 1-1 1-1-.448-1-1zm18 0c0-.552.45-1 1-1s1 .448 1 1-.45 1-1 1-1-.448-1-1zm18 0c0-.552.45-1 1-1s1 .448 1 1-.45 1-1 1-1-.448-1-1zM-10 145a1 1 0 112 0 1 1 0 01-2 0zm18 0a1 1 0 112 0 1 1 0 01-2 0zm18 0a1 1 0 112 0 1 1 0 01-2 0zm18 0a1 1 0 112 0 1 1 0 01-2 0zm18 0a1 1 0 112 0 1 1 0 01-2 0zm18 0a1 1 0 112 0 1 1 0 01-2 0zm18 0a1 1 0 112 0 1 1 0 01-2 0zm18 0a1 1 0 112 0 1 1 0 01-2 0zm18 0a1 1 0 112 0 1 1 0 01-2 0zm18 0a1 1 0 112 0 1 1 0 01-2 0zm18 0a1 1 0 112 0 1 1 0 01-2 0zm18 0a1 1 0 112 0 1 1 0 01-2 0zm18 0a1 1 0 112 0 1 1 0 01-2 0zm18 0a1 1 0 112 0 1 1 0 01-2 0zm18 0a1 1 0 112 0 1 1 0 01-2 0zm18 0a1 1 0 112 0 1 1 0 01-2 0zm18 0a1 1 0 112 0 1 1 0 01-2 0zm18 0a1 1 0 112 0 1 1 0 01-2 0zm18 0a1 1 0 112 0 1 1 0 01-2 0zm18 0a1 1 0 112 0 1 1 0 01-2 0zm18 0a1 1 0 112 0 1 1 0 01-2 0zm18 0a1 1 0 112 0 1 1 0 01-2 0zm18 0a1 1 0 112 0 1 1 0 01-2 0zm18 0a1 1 0 112 0 1 1 0 01-2 0zm18 0a1 1 0 112 0 1 1 0 01-2 0zm18 0a1 1 0 112 0 1 1 0 01-2 0zm18 0a1 1 0 112 0 1 1 0 01-2 0zm18 0a1 1 0 112 0 1 1 0 01-2 0zm18 0a1 1 0 112 0 1 1 0 01-2 0zm18 0a1 1 0 112 0 1 1 0 01-2 0zm18 0a1 1 0 112 0 1 1 0 01-2 0zm18 0a1 1 0 112 0 1 1 0 01-2 0zm18 0a1 1 0 112 0 1 1 0 01-2 0zm18 0a1 1 0 112 0 1 1 0 01-2 0zm18 0a1 1 0 112 0 1 1 0 01-2 0zm18 0a1 1 0 112 0 1 1 0 01-2 0zm18 0a1 1 0 112 0 1 1 0 01-2 0zm18 0a1 1 0 112 0 1 1 0 01-2 0zm18 0a1 1 0 112 0 1 1 0 01-2 0zm18 0a1 1 0 112 0 1 1 0 01-2 0zm18 0a1 1 0 112 0 1 1 0 01-2 0zm18 0a1 1 0 112 0 1 1 0 01-2 0zm18 0a1 1 0 112 0 1 1 0 01-2 0zm18 0a1 1 0 112 0 1 1 0 01-2 0zm18 0a1 1 0 112 0 1 1 0 01-2 0zm18 0a1 1 0 112 0 1 1 0 01-2 0zm18 0a1 1 0 112 0 1 1 0 01-2 0zm18 0a1 1 0 112 0 1 1 0 01-2 0zm18 0a1 1 0 112 0 1 1 0 01-2 0zm18 0a1 1 0 112 0 1 1 0 01-2 0zm18 0a1 1 0 112 0 1 1 0 01-2 0zm18 0a1 1 0 112 0 1 1 0 01-2 0zm18 0a1 1 0 112 0 1 1 0 01-2 0zm18 0a1 1 0 112 0 1 1 0 01-2 0zm18 0a1 1 0 112 0 1 1 0 01-2 0zm18 0a1 1 0 112 0 1 1 0 01-2 0zm18 0a1 1 0 112 0 1 1 0 01-2 0zm18 0c0-.552.45-1 1-1s1 .448 1 1-.45 1-1 1-1-.448-1-1zm18 0c0-.552.45-1 1-1s1 .448 1 1-.45 1-1 1-1-.448-1-1zm18 0c0-.552.45-1 1-1s1 .448 1 1-.45 1-1 1-1-.448-1-1zm18 0c0-.552.45-1 1-1s1 .448 1 1-.45 1-1 1-1-.448-1-1zm18 0c0-.552.45-1 1-1s1 .448 1 1-.45 1-1 1-1-.448-1-1zm18 0c0-.552.45-1 1-1s1 .448 1 1-.45 1-1 1-1-.448-1-1zm18 0c0-.552.45-1 1-1s1 .448 1 1-.45 1-1 1-1-.448-1-1zm18 0c0-.552.45-1 1-1s1 .448 1 1-.45 1-1 1-1-.448-1-1zm18 0c0-.552.45-1 1-1s1 .448 1 1-.45 1-1 1-1-.448-1-1zm18 0c0-.552.45-1 1-1s1 .448 1 1-.45 1-1 1-1-.448-1-1zm18 0c0-.552.45-1 1-1s1 .448 1 1-.45 1-1 1-1-.448-1-1zm18 0c0-.552.45-1 1-1s1 .448 1 1-.45 1-1 1-1-.448-1-1zm18 0c0-.552.45-1 1-1s1 .448 1 1-.45 1-1 1-1-.448-1-1zm18 0c0-.552.45-1 1-1s1 .448 1 1-.45 1-1 1-1-.448-1-1zm18 0c0-.552.45-1 1-1s1 .448 1 1-.45 1-1 1-1-.448-1-1zm18 0c0-.552.45-1 1-1s1 .448 1 1-.45 1-1 1-1-.448-1-1zm18 0c0-.552.45-1 1-1s1 .448 1 1-.45 1-1 1-1-.448-1-1zm18 0c0-.552.45-1 1-1s1 .448 1 1-.45 1-1 1-1-.448-1-1zm18 0c0-.552.45-1 1-1s1 .448 1 1-.45 1-1 1-1-.448-1-1zm18 0c0-.552.45-1 1-1s1 .448 1 1-.45 1-1 1-1-.448-1-1zm18 0c0-.552.45-1 1-1s1 .448 1 1-.45 1-1 1-1-.448-1-1zm18 0c0-.552.45-1 1-1s1 .448 1 1-.45 1-1 1-1-.448-1-1zm18 0c0-.552.45-1 1-1s1 .448 1 1-.45 1-1 1-1-.448-1-1zm18 0c0-.552.45-1 1-1s1 .448 1 1-.45 1-1 1-1-.448-1-1zm18 0c0-.552.45-1 1-1s1 .448 1 1-.45 1-1 1-1-.448-1-1zm18 0c0-.552.45-1 1-1s1 .448 1 1-.45 1-1 1-1-.448-1-1zm18 0c0-.552.45-1 1-1s1 .448 1 1-.45 1-1 1-1-.448-1-1zm18 0c0-.552.45-1 1-1s1 .448 1 1-.45 1-1 1-1-.448-1-1zm18 0c0-.552.45-1 1-1s1 .448 1 1-.45 1-1 1-1-.448-1-1zm18 0c0-.552.45-1 1-1s1 .448 1 1-.45 1-1 1-1-.448-1-1zm18 0c0-.552.45-1 1-1s1 .448 1 1-.45 1-1 1-1-.448-1-1zm18 0c0-.552.45-1 1-1s1 .448 1 1-.45 1-1 1-1-.448-1-1zm18 0c0-.552.45-1 1-1s1 .448 1 1-.45 1-1 1-1-.448-1-1zm18 0c0-.552.45-1 1-1s1 .448 1 1-.45 1-1 1-1-.448-1-1zm18 0c0-.552.45-1 1-1s1 .448 1 1-.45 1-1 1-1-.448-1-1zm18 0c0-.552.45-1 1-1s1 .448 1 1-.45 1-1 1-1-.448-1-1zm18 0c0-.552.45-1 1-1s1 .448 1 1-.45 1-1 1-1-.448-1-1zm18 0c0-.552.45-1 1-1s1 .448 1 1-.45 1-1 1-1-.448-1-1zm18 0c0-.552.45-1 1-1s1 .448 1 1-.45 1-1 1-1-.448-1-1zm18 0c0-.552.45-1 1-1s1 .448 1 1-.45 1-1 1-1-.448-1-1zm18 0c0-.552.45-1 1-1s1 .448 1 1-.45 1-1 1-1-.448-1-1zm18 0c0-.552.45-1 1-1s1 .448 1 1-.45 1-1 1-1-.448-1-1zm18 0c0-.552.45-1 1-1s1 .448 1 1-.45 1-1 1-1-.448-1-1zm18 0c0-.552.45-1 1-1s1 .448 1 1-.45 1-1 1-1-.448-1-1zm18 0c0-.552.45-1 1-1s1 .448 1 1-.45 1-1 1-1-.448-1-1zm18 0c0-.552.45-1 1-1s1 .448 1 1-.45 1-1 1-1-.448-1-1zm18 0c0-.552.45-1 1-1s1 .448 1 1-.45 1-1 1-1-.448-1-1zm18 0c0-.552.45-1 1-1s1 .448 1 1-.45 1-1 1-1-.448-1-1zm18 0c0-.552.45-1 1-1s1 .448 1 1-.45 1-1 1-1-.448-1-1zm18 0c0-.552.45-1 1-1s1 .448 1 1-.45 1-1 1-1-.448-1-1zm18 0c0-.552.45-1 1-1s1 .448 1 1-.45 1-1 1-1-.448-1-1zm18 0c0-.552.45-1 1-1s1 .448 1 1-.45 1-1 1-1-.448-1-1zm18 0c0-.552.45-1 1-1s1 .448 1 1-.45 1-1 1-1-.448-1-1zM-10 163a1 1 0 112 0 1 1 0 01-2 0zm18 0a1 1 0 112 0 1 1 0 01-2 0zm18 0a1 1 0 112 0 1 1 0 01-2 0zm18 0a1 1 0 112 0 1 1 0 01-2 0zm18 0a1 1 0 112 0 1 1 0 01-2 0zm18 0a1 1 0 112 0 1 1 0 01-2 0zm18 0a1 1 0 112 0 1 1 0 01-2 0zm18 0a1 1 0 112 0 1 1 0 01-2 0zm18 0a1 1 0 112 0 1 1 0 01-2 0zm18 0a1 1 0 112 0 1 1 0 01-2 0zm18 0a1 1 0 112 0 1 1 0 01-2 0zm18 0a1 1 0 112 0 1 1 0 01-2 0zm18 0a1 1 0 112 0 1 1 0 01-2 0zm18 0a1 1 0 112 0 1 1 0 01-2 0zm18 0a1 1 0 112 0 1 1 0 01-2 0zm18 0a1 1 0 112 0 1 1 0 01-2 0zm18 0a1 1 0 112 0 1 1 0 01-2 0zm18 0a1 1 0 112 0 1 1 0 01-2 0zm18 0a1 1 0 112 0 1 1 0 01-2 0zm18 0a1 1 0 112 0 1 1 0 01-2 0zm18 0a1 1 0 112 0 1 1 0 01-2 0zm18 0a1 1 0 112 0 1 1 0 01-2 0zm18 0a1 1 0 112 0 1 1 0 01-2 0zm18 0a1 1 0 112 0 1 1 0 01-2 0zm18 0a1 1 0 112 0 1 1 0 01-2 0zm18 0a1 1 0 112 0 1 1 0 01-2 0zm18 0a1 1 0 112 0 1 1 0 01-2 0zm18 0a1 1 0 112 0 1 1 0 01-2 0zm18 0a1 1 0 112 0 1 1 0 01-2 0zm18 0a1 1 0 112 0 1 1 0 01-2 0zm18 0a1 1 0 112 0 1 1 0 01-2 0zm18 0a1 1 0 112 0 1 1 0 01-2 0zm18 0a1 1 0 112 0 1 1 0 01-2 0zm18 0a1 1 0 112 0 1 1 0 01-2 0zm18 0a1 1 0 112 0 1 1 0 01-2 0zm18 0a1 1 0 112 0 1 1 0 01-2 0zm18 0a1 1 0 112 0 1 1 0 01-2 0zm18 0a1 1 0 112 0 1 1 0 01-2 0zm18 0a1 1 0 112 0 1 1 0 01-2 0zm18 0a1 1 0 112 0 1 1 0 01-2 0zm18 0a1 1 0 112 0 1 1 0 01-2 0zm18 0a1 1 0 112 0 1 1 0 01-2 0zm18 0a1 1 0 112 0 1 1 0 01-2 0zm18 0a1 1 0 112 0 1 1 0 01-2 0zm18 0a1 1 0 112 0 1 1 0 01-2 0zm18 0a1 1 0 112 0 1 1 0 01-2 0zm18 0a1 1 0 112 0 1 1 0 01-2 0zm18 0a1 1 0 112 0 1 1 0 01-2 0zm18 0a1 1 0 112 0 1 1 0 01-2 0zm18 0a1 1 0 112 0 1 1 0 01-2 0zm18 0a1 1 0 112 0 1 1 0 01-2 0zm18 0a1 1 0 112 0 1 1 0 01-2 0zm18 0a1 1 0 112 0 1 1 0 01-2 0zm18 0a1 1 0 112 0 1 1 0 01-2 0zm18 0a1 1 0 112 0 1 1 0 01-2 0zm18 0a1 1 0 112 0 1 1 0 01-2 0zm18 0a1 1 0 112 0 1 1 0 01-2 0zm18 0c0-.552.45-1 1-1s1 .448 1 1-.45 1-1 1-1-.448-1-1zm18 0c0-.552.45-1 1-1s1 .448 1 1-.45 1-1 1-1-.448-1-1zm18 0c0-.552.45-1 1-1s1 .448 1 1-.45 1-1 1-1-.448-1-1zm18 0c0-.552.45-1 1-1s1 .448 1 1-.45 1-1 1-1-.448-1-1zm18 0c0-.552.45-1 1-1s1 .448 1 1-.45 1-1 1-1-.448-1-1zm18 0c0-.552.45-1 1-1s1 .448 1 1-.45 1-1 1-1-.448-1-1zm18 0c0-.552.45-1 1-1s1 .448 1 1-.45 1-1 1-1-.448-1-1zm18 0c0-.552.45-1 1-1s1 .448 1 1-.45 1-1 1-1-.448-1-1zm18 0c0-.552.45-1 1-1s1 .448 1 1-.45 1-1 1-1-.448-1-1zm18 0c0-.552.45-1 1-1s1 .448 1 1-.45 1-1 1-1-.448-1-1zm18 0c0-.552.45-1 1-1s1 .448 1 1-.45 1-1 1-1-.448-1-1zm18 0c0-.552.45-1 1-1s1 .448 1 1-.45 1-1 1-1-.448-1-1zm18 0c0-.552.45-1 1-1s1 .448 1 1-.45 1-1 1-1-.448-1-1zm18 0c0-.552.45-1 1-1s1 .448 1 1-.45 1-1 1-1-.448-1-1zm18 0c0-.552.45-1 1-1s1 .448 1 1-.45 1-1 1-1-.448-1-1zm18 0c0-.552.45-1 1-1s1 .448 1 1-.45 1-1 1-1-.448-1-1zm18 0c0-.552.45-1 1-1s1 .448 1 1-.45 1-1 1-1-.448-1-1zm18 0c0-.552.45-1 1-1s1 .448 1 1-.45 1-1 1-1-.448-1-1zm18 0c0-.552.45-1 1-1s1 .448 1 1-.45 1-1 1-1-.448-1-1zm18 0c0-.552.45-1 1-1s1 .448 1 1-.45 1-1 1-1-.448-1-1zm18 0c0-.552.45-1 1-1s1 .448 1 1-.45 1-1 1-1-.448-1-1zm18 0c0-.552.45-1 1-1s1 .448 1 1-.45 1-1 1-1-.448-1-1zm18 0c0-.552.45-1 1-1s1 .448 1 1-.45 1-1 1-1-.448-1-1zm18 0c0-.552.45-1 1-1s1 .448 1 1-.45 1-1 1-1-.448-1-1zm18 0c0-.552.45-1 1-1s1 .448 1 1-.45 1-1 1-1-.448-1-1zm18 0c0-.552.45-1 1-1s1 .448 1 1-.45 1-1 1-1-.448-1-1zm18 0c0-.552.45-1 1-1s1 .448 1 1-.45 1-1 1-1-.448-1-1zm18 0c0-.552.45-1 1-1s1 .448 1 1-.45 1-1 1-1-.448-1-1zm18 0c0-.552.45-1 1-1s1 .448 1 1-.45 1-1 1-1-.448-1-1zm18 0c0-.552.45-1 1-1s1 .448 1 1-.45 1-1 1-1-.448-1-1zm18 0c0-.552.45-1 1-1s1 .448 1 1-.45 1-1 1-1-.448-1-1zm18 0c0-.552.45-1 1-1s1 .448 1 1-.45 1-1 1-1-.448-1-1zm18 0c0-.552.45-1 1-1s1 .448 1 1-.45 1-1 1-1-.448-1-1zm18 0c0-.552.45-1 1-1s1 .448 1 1-.45 1-1 1-1-.448-1-1zm18 0c0-.552.45-1 1-1s1 .448 1 1-.45 1-1 1-1-.448-1-1zm18 0c0-.552.45-1 1-1s1 .448 1 1-.45 1-1 1-1-.448-1-1zm18 0c0-.552.45-1 1-1s1 .448 1 1-.45 1-1 1-1-.448-1-1zm18 0c0-.552.45-1 1-1s1 .448 1 1-.45 1-1 1-1-.448-1-1zm18 0c0-.552.45-1 1-1s1 .448 1 1-.45 1-1 1-1-.448-1-1zm18 0c0-.552.45-1 1-1s1 .448 1 1-.45 1-1 1-1-.448-1-1zm18 0c0-.552.45-1 1-1s1 .448 1 1-.45 1-1 1-1-.448-1-1zm18 0c0-.552.45-1 1-1s1 .448 1 1-.45 1-1 1-1-.448-1-1zm18 0c0-.552.45-1 1-1s1 .448 1 1-.45 1-1 1-1-.448-1-1zm18 0c0-.552.45-1 1-1s1 .448 1 1-.45 1-1 1-1-.448-1-1zm18 0c0-.552.45-1 1-1s1 .448 1 1-.45 1-1 1-1-.448-1-1zm18 0c0-.552.45-1 1-1s1 .448 1 1-.45 1-1 1-1-.448-1-1zm18 0c0-.552.45-1 1-1s1 .448 1 1-.45 1-1 1-1-.448-1-1zm18 0c0-.552.45-1 1-1s1 .448 1 1-.45 1-1 1-1-.448-1-1zm18 0c0-.552.45-1 1-1s1 .448 1 1-.45 1-1 1-1-.448-1-1zm18 0c0-.552.45-1 1-1s1 .448 1 1-.45 1-1 1-1-.448-1-1zm18 0c0-.552.45-1 1-1s1 .448 1 1-.45 1-1 1-1-.448-1-1zm18 0c0-.552.45-1 1-1s1 .448 1 1-.45 1-1 1-1-.448-1-1zm18 0c0-.552.45-1 1-1s1 .448 1 1-.45 1-1 1-1-.448-1-1zM-10 181a1 1 0 112 0 1 1 0 01-2 0zm18 0a1 1 0 112 0 1 1 0 01-2 0zm18 0a1 1 0 112 0 1 1 0 01-2 0zm18 0a1 1 0 112 0 1 1 0 01-2 0zm18 0a1 1 0 112 0 1 1 0 01-2 0zm18 0a1 1 0 112 0 1 1 0 01-2 0zm18 0a1 1 0 112 0 1 1 0 01-2 0zm18 0a1 1 0 112 0 1 1 0 01-2 0zm18 0a1 1 0 112 0 1 1 0 01-2 0zm18 0a1 1 0 112 0 1 1 0 01-2 0zm18 0a1 1 0 112 0 1 1 0 01-2 0zm18 0a1 1 0 112 0 1 1 0 01-2 0zm18 0a1 1 0 112 0 1 1 0 01-2 0zm18 0a1 1 0 112 0 1 1 0 01-2 0zm18 0a1 1 0 112 0 1 1 0 01-2 0zm18 0a1 1 0 112 0 1 1 0 01-2 0zm18 0a1 1 0 112 0 1 1 0 01-2 0zm18 0a1 1 0 112 0 1 1 0 01-2 0zm18 0a1 1 0 112 0 1 1 0 01-2 0zm18 0a1 1 0 112 0 1 1 0 01-2 0zm18 0a1 1 0 112 0 1 1 0 01-2 0zm18 0a1 1 0 112 0 1 1 0 01-2 0zm18 0a1 1 0 112 0 1 1 0 01-2 0zm18 0a1 1 0 112 0 1 1 0 01-2 0zm18 0a1 1 0 112 0 1 1 0 01-2 0zm18 0a1 1 0 112 0 1 1 0 01-2 0zm18 0a1 1 0 112 0 1 1 0 01-2 0zm18 0a1 1 0 112 0 1 1 0 01-2 0zm18 0a1 1 0 112 0 1 1 0 01-2 0zm18 0a1 1 0 112 0 1 1 0 01-2 0zm18 0a1 1 0 112 0 1 1 0 01-2 0zm18 0a1 1 0 112 0 1 1 0 01-2 0zm18 0a1 1 0 112 0 1 1 0 01-2 0zm18 0a1 1 0 112 0 1 1 0 01-2 0zm18 0a1 1 0 112 0 1 1 0 01-2 0zm18 0a1 1 0 112 0 1 1 0 01-2 0zm18 0a1 1 0 112 0 1 1 0 01-2 0zm18 0a1 1 0 112 0 1 1 0 01-2 0zm18 0a1 1 0 112 0 1 1 0 01-2 0zm18 0a1 1 0 112 0 1 1 0 01-2 0zm18 0a1 1 0 112 0 1 1 0 01-2 0zm18 0a1 1 0 112 0 1 1 0 01-2 0zm18 0a1 1 0 112 0 1 1 0 01-2 0zm18 0a1 1 0 112 0 1 1 0 01-2 0zm18 0a1 1 0 112 0 1 1 0 01-2 0zm18 0a1 1 0 112 0 1 1 0 01-2 0zm18 0a1 1 0 112 0 1 1 0 01-2 0zm18 0a1 1 0 112 0 1 1 0 01-2 0zm18 0a1 1 0 112 0 1 1 0 01-2 0zm18 0a1 1 0 112 0 1 1 0 01-2 0zm18 0a1 1 0 112 0 1 1 0 01-2 0zm18 0a1 1 0 112 0 1 1 0 01-2 0zm18 0a1 1 0 112 0 1 1 0 01-2 0zm18 0a1 1 0 112 0 1 1 0 01-2 0zm18 0a1 1 0 112 0 1 1 0 01-2 0zm18 0a1 1 0 112 0 1 1 0 01-2 0zm18 0a1 1 0 112 0 1 1 0 01-2 0zm18 0c0-.552.45-1 1-1s1 .448 1 1-.45 1-1 1-1-.448-1-1zm18 0c0-.552.45-1 1-1s1 .448 1 1-.45 1-1 1-1-.448-1-1zm18 0c0-.552.45-1 1-1s1 .448 1 1-.45 1-1 1-1-.448-1-1zm18 0c0-.552.45-1 1-1s1 .448 1 1-.45 1-1 1-1-.448-1-1zm18 0c0-.552.45-1 1-1s1 .448 1 1-.45 1-1 1-1-.448-1-1zm18 0c0-.552.45-1 1-1s1 .448 1 1-.45 1-1 1-1-.448-1-1zm18 0c0-.552.45-1 1-1s1 .448 1 1-.45 1-1 1-1-.448-1-1zm18 0c0-.552.45-1 1-1s1 .448 1 1-.45 1-1 1-1-.448-1-1zm18 0c0-.552.45-1 1-1s1 .448 1 1-.45 1-1 1-1-.448-1-1zm18 0c0-.552.45-1 1-1s1 .448 1 1-.45 1-1 1-1-.448-1-1zm18 0c0-.552.45-1 1-1s1 .448 1 1-.45 1-1 1-1-.448-1-1zm18 0c0-.552.45-1 1-1s1 .448 1 1-.45 1-1 1-1-.448-1-1zm18 0c0-.552.45-1 1-1s1 .448 1 1-.45 1-1 1-1-.448-1-1zm18 0c0-.552.45-1 1-1s1 .448 1 1-.45 1-1 1-1-.448-1-1zm18 0c0-.552.45-1 1-1s1 .448 1 1-.45 1-1 1-1-.448-1-1zm18 0c0-.552.45-1 1-1s1 .448 1 1-.45 1-1 1-1-.448-1-1zm18 0c0-.552.45-1 1-1s1 .448 1 1-.45 1-1 1-1-.448-1-1zm18 0c0-.552.45-1 1-1s1 .448 1 1-.45 1-1 1-1-.448-1-1zm18 0c0-.552.45-1 1-1s1 .448 1 1-.45 1-1 1-1-.448-1-1zm18 0c0-.552.45-1 1-1s1 .448 1 1-.45 1-1 1-1-.448-1-1zm18 0c0-.552.45-1 1-1s1 .448 1 1-.45 1-1 1-1-.448-1-1zm18 0c0-.552.45-1 1-1s1 .448 1 1-.45 1-1 1-1-.448-1-1zm18 0c0-.552.45-1 1-1s1 .448 1 1-.45 1-1 1-1-.448-1-1zm18 0c0-.552.45-1 1-1s1 .448 1 1-.45 1-1 1-1-.448-1-1zm18 0c0-.552.45-1 1-1s1 .448 1 1-.45 1-1 1-1-.448-1-1zm18 0c0-.552.45-1 1-1s1 .448 1 1-.45 1-1 1-1-.448-1-1zm18 0c0-.552.45-1 1-1s1 .448 1 1-.45 1-1 1-1-.448-1-1zm18 0c0-.552.45-1 1-1s1 .448 1 1-.45 1-1 1-1-.448-1-1zm18 0c0-.552.45-1 1-1s1 .448 1 1-.45 1-1 1-1-.448-1-1zm18 0c0-.552.45-1 1-1s1 .448 1 1-.45 1-1 1-1-.448-1-1zm18 0c0-.552.45-1 1-1s1 .448 1 1-.45 1-1 1-1-.448-1-1zm18 0c0-.552.45-1 1-1s1 .448 1 1-.45 1-1 1-1-.448-1-1zm18 0c0-.552.45-1 1-1s1 .448 1 1-.45 1-1 1-1-.448-1-1zm18 0c0-.552.45-1 1-1s1 .448 1 1-.45 1-1 1-1-.448-1-1zm18 0c0-.552.45-1 1-1s1 .448 1 1-.45 1-1 1-1-.448-1-1zm18 0c0-.552.45-1 1-1s1 .448 1 1-.45 1-1 1-1-.448-1-1zm18 0c0-.552.45-1 1-1s1 .448 1 1-.45 1-1 1-1-.448-1-1zm18 0c0-.552.45-1 1-1s1 .448 1 1-.45 1-1 1-1-.448-1-1zm18 0c0-.552.45-1 1-1s1 .448 1 1-.45 1-1 1-1-.448-1-1zm18 0c0-.552.45-1 1-1s1 .448 1 1-.45 1-1 1-1-.448-1-1zm18 0c0-.552.45-1 1-1s1 .448 1 1-.45 1-1 1-1-.448-1-1zm18 0c0-.552.45-1 1-1s1 .448 1 1-.45 1-1 1-1-.448-1-1zm18 0c0-.552.45-1 1-1s1 .448 1 1-.45 1-1 1-1-.448-1-1zm18 0c0-.552.45-1 1-1s1 .448 1 1-.45 1-1 1-1-.448-1-1zm18 0c0-.552.45-1 1-1s1 .448 1 1-.45 1-1 1-1-.448-1-1zm18 0c0-.552.45-1 1-1s1 .448 1 1-.45 1-1 1-1-.448-1-1zm18 0c0-.552.45-1 1-1s1 .448 1 1-.45 1-1 1-1-.448-1-1zm18 0c0-.552.45-1 1-1s1 .448 1 1-.45 1-1 1-1-.448-1-1zm18 0c0-.552.45-1 1-1s1 .448 1 1-.45 1-1 1-1-.448-1-1zm18 0c0-.552.45-1 1-1s1 .448 1 1-.45 1-1 1-1-.448-1-1zm18 0c0-.552.45-1 1-1s1 .448 1 1-.45 1-1 1-1-.448-1-1zm18 0c0-.552.45-1 1-1s1 .448 1 1-.45 1-1 1-1-.448-1-1zm18 0c0-.552.45-1 1-1s1 .448 1 1-.45 1-1 1-1-.448-1-1zM-10 199a1 1 0 112 0 1 1 0 01-2 0zm18 0a1 1 0 112 0 1 1 0 01-2 0zm18 0a1 1 0 112 0 1 1 0 01-2 0zm18 0a1 1 0 112 0 1 1 0 01-2 0zm18 0a1 1 0 112 0 1 1 0 01-2 0zm18 0a1 1 0 112 0 1 1 0 01-2 0zm18 0a1 1 0 112 0 1 1 0 01-2 0zm18 0a1 1 0 112 0 1 1 0 01-2 0zm18 0a1 1 0 112 0 1 1 0 01-2 0zm18 0a1 1 0 112 0 1 1 0 01-2 0zm18 0a1 1 0 112 0 1 1 0 01-2 0zm18 0a1 1 0 112 0 1 1 0 01-2 0zm18 0a1 1 0 112 0 1 1 0 01-2 0zm18 0a1 1 0 112 0 1 1 0 01-2 0zm18 0a1 1 0 112 0 1 1 0 01-2 0zm18 0a1 1 0 112 0 1 1 0 01-2 0zm18 0a1 1 0 112 0 1 1 0 01-2 0zm18 0a1 1 0 112 0 1 1 0 01-2 0zm18 0a1 1 0 112 0 1 1 0 01-2 0zm18 0a1 1 0 112 0 1 1 0 01-2 0zm18 0a1 1 0 112 0 1 1 0 01-2 0zm18 0a1 1 0 112 0 1 1 0 01-2 0zm18 0a1 1 0 112 0 1 1 0 01-2 0zm18 0a1 1 0 112 0 1 1 0 01-2 0zm18 0a1 1 0 112 0 1 1 0 01-2 0zm18 0a1 1 0 112 0 1 1 0 01-2 0zm18 0a1 1 0 112 0 1 1 0 01-2 0zm18 0a1 1 0 112 0 1 1 0 01-2 0zm18 0a1 1 0 112 0 1 1 0 01-2 0zm18 0a1 1 0 112 0 1 1 0 01-2 0zm18 0a1 1 0 112 0 1 1 0 01-2 0zm18 0a1 1 0 112 0 1 1 0 01-2 0zm18 0a1 1 0 112 0 1 1 0 01-2 0zm18 0a1 1 0 112 0 1 1 0 01-2 0zm18 0a1 1 0 112 0 1 1 0 01-2 0zm18 0a1 1 0 112 0 1 1 0 01-2 0zm18 0a1 1 0 112 0 1 1 0 01-2 0zm18 0a1 1 0 112 0 1 1 0 01-2 0zm18 0a1 1 0 112 0 1 1 0 01-2 0zm18 0a1 1 0 112 0 1 1 0 01-2 0zm18 0a1 1 0 112 0 1 1 0 01-2 0zm18 0a1 1 0 112 0 1 1 0 01-2 0zm18 0a1 1 0 112 0 1 1 0 01-2 0zm18 0a1 1 0 112 0 1 1 0 01-2 0zm18 0a1 1 0 112 0 1 1 0 01-2 0zm18 0a1 1 0 112 0 1 1 0 01-2 0zm18 0a1 1 0 112 0 1 1 0 01-2 0zm18 0a1 1 0 112 0 1 1 0 01-2 0zm18 0a1 1 0 112 0 1 1 0 01-2 0zm18 0a1 1 0 112 0 1 1 0 01-2 0zm18 0a1 1 0 112 0 1 1 0 01-2 0zm18 0a1 1 0 112 0 1 1 0 01-2 0zm18 0a1 1 0 112 0 1 1 0 01-2 0zm18 0a1 1 0 112 0 1 1 0 01-2 0zm18 0a1 1 0 112 0 1 1 0 01-2 0zm18 0a1 1 0 112 0 1 1 0 01-2 0zm18 0a1 1 0 112 0 1 1 0 01-2 0zm18 0c0-.552.45-1 1-1s1 .448 1 1-.45 1-1 1-1-.448-1-1zm18 0c0-.552.45-1 1-1s1 .448 1 1-.45 1-1 1-1-.448-1-1zm18 0c0-.552.45-1 1-1s1 .448 1 1-.45 1-1 1-1-.448-1-1zm18 0c0-.552.45-1 1-1s1 .448 1 1-.45 1-1 1-1-.448-1-1zm18 0c0-.552.45-1 1-1s1 .448 1 1-.45 1-1 1-1-.448-1-1zm18 0c0-.552.45-1 1-1s1 .448 1 1-.45 1-1 1-1-.448-1-1zm18 0c0-.552.45-1 1-1s1 .448 1 1-.45 1-1 1-1-.448-1-1zm18 0c0-.552.45-1 1-1s1 .448 1 1-.45 1-1 1-1-.448-1-1zm18 0c0-.552.45-1 1-1s1 .448 1 1-.45 1-1 1-1-.448-1-1zm18 0c0-.552.45-1 1-1s1 .448 1 1-.45 1-1 1-1-.448-1-1zm18 0c0-.552.45-1 1-1s1 .448 1 1-.45 1-1 1-1-.448-1-1zm18 0c0-.552.45-1 1-1s1 .448 1 1-.45 1-1 1-1-.448-1-1zm18 0c0-.552.45-1 1-1s1 .448 1 1-.45 1-1 1-1-.448-1-1zm18 0c0-.552.45-1 1-1s1 .448 1 1-.45 1-1 1-1-.448-1-1zm18 0c0-.552.45-1 1-1s1 .448 1 1-.45 1-1 1-1-.448-1-1zm18 0c0-.552.45-1 1-1s1 .448 1 1-.45 1-1 1-1-.448-1-1zm18 0c0-.552.45-1 1-1s1 .448 1 1-.45 1-1 1-1-.448-1-1zm18 0c0-.552.45-1 1-1s1 .448 1 1-.45 1-1 1-1-.448-1-1zm18 0c0-.552.45-1 1-1s1 .448 1 1-.45 1-1 1-1-.448-1-1zm18 0c0-.552.45-1 1-1s1 .448 1 1-.45 1-1 1-1-.448-1-1zm18 0c0-.552.45-1 1-1s1 .448 1 1-.45 1-1 1-1-.448-1-1zm18 0c0-.552.45-1 1-1s1 .448 1 1-.45 1-1 1-1-.448-1-1zm18 0c0-.552.45-1 1-1s1 .448 1 1-.45 1-1 1-1-.448-1-1zm18 0c0-.552.45-1 1-1s1 .448 1 1-.45 1-1 1-1-.448-1-1zm18 0c0-.552.45-1 1-1s1 .448 1 1-.45 1-1 1-1-.448-1-1zm18 0c0-.552.45-1 1-1s1 .448 1 1-.45 1-1 1-1-.448-1-1zm18 0c0-.552.45-1 1-1s1 .448 1 1-.45 1-1 1-1-.448-1-1zm18 0c0-.552.45-1 1-1s1 .448 1 1-.45 1-1 1-1-.448-1-1zm18 0c0-.552.45-1 1-1s1 .448 1 1-.45 1-1 1-1-.448-1-1zm18 0c0-.552.45-1 1-1s1 .448 1 1-.45 1-1 1-1-.448-1-1zm18 0c0-.552.45-1 1-1s1 .448 1 1-.45 1-1 1-1-.448-1-1zm18 0c0-.552.45-1 1-1s1 .448 1 1-.45 1-1 1-1-.448-1-1zm18 0c0-.552.45-1 1-1s1 .448 1 1-.45 1-1 1-1-.448-1-1zm18 0c0-.552.45-1 1-1s1 .448 1 1-.45 1-1 1-1-.448-1-1zm18 0c0-.552.45-1 1-1s1 .448 1 1-.45 1-1 1-1-.448-1-1zm18 0c0-.552.45-1 1-1s1 .448 1 1-.45 1-1 1-1-.448-1-1zm18 0c0-.552.45-1 1-1s1 .448 1 1-.45 1-1 1-1-.448-1-1zm18 0c0-.552.45-1 1-1s1 .448 1 1-.45 1-1 1-1-.448-1-1zm18 0c0-.552.45-1 1-1s1 .448 1 1-.45 1-1 1-1-.448-1-1zm18 0c0-.552.45-1 1-1s1 .448 1 1-.45 1-1 1-1-.448-1-1zm18 0c0-.552.45-1 1-1s1 .448 1 1-.45 1-1 1-1-.448-1-1zm18 0c0-.552.45-1 1-1s1 .448 1 1-.45 1-1 1-1-.448-1-1zm18 0c0-.552.45-1 1-1s1 .448 1 1-.45 1-1 1-1-.448-1-1zm18 0c0-.552.45-1 1-1s1 .448 1 1-.45 1-1 1-1-.448-1-1zm18 0c0-.552.45-1 1-1s1 .448 1 1-.45 1-1 1-1-.448-1-1zm18 0c0-.552.45-1 1-1s1 .448 1 1-.45 1-1 1-1-.448-1-1zm18 0c0-.552.45-1 1-1s1 .448 1 1-.45 1-1 1-1-.448-1-1zm18 0c0-.552.45-1 1-1s1 .448 1 1-.45 1-1 1-1-.448-1-1zm18 0c0-.552.45-1 1-1s1 .448 1 1-.45 1-1 1-1-.448-1-1zm18 0c0-.552.45-1 1-1s1 .448 1 1-.45 1-1 1-1-.448-1-1zm18 0c0-.552.45-1 1-1s1 .448 1 1-.45 1-1 1-1-.448-1-1zm18 0c0-.552.45-1 1-1s1 .448 1 1-.45 1-1 1-1-.448-1-1zm18 0c0-.552.45-1 1-1s1 .448 1 1-.45 1-1 1-1-.448-1-1zM-10 217a1 1 0 112 0 1 1 0 01-2 0zm18 0a1 1 0 112 0 1 1 0 01-2 0zm18 0a1 1 0 112 0 1 1 0 01-2 0zm18 0a1 1 0 112 0 1 1 0 01-2 0zm18 0a1 1 0 112 0 1 1 0 01-2 0zm18 0a1 1 0 112 0 1 1 0 01-2 0zm18 0a1 1 0 112 0 1 1 0 01-2 0zm18 0a1 1 0 112 0 1 1 0 01-2 0zm18 0a1 1 0 112 0 1 1 0 01-2 0zm18 0a1 1 0 112 0 1 1 0 01-2 0zm18 0a1 1 0 112 0 1 1 0 01-2 0zm18 0a1 1 0 112 0 1 1 0 01-2 0zm18 0a1 1 0 112 0 1 1 0 01-2 0zm18 0a1 1 0 112 0 1 1 0 01-2 0zm18 0a1 1 0 112 0 1 1 0 01-2 0zm18 0a1 1 0 112 0 1 1 0 01-2 0zm18 0a1 1 0 112 0 1 1 0 01-2 0zm18 0a1 1 0 112 0 1 1 0 01-2 0zm18 0a1 1 0 112 0 1 1 0 01-2 0zm18 0a1 1 0 112 0 1 1 0 01-2 0zm18 0a1 1 0 112 0 1 1 0 01-2 0zm18 0a1 1 0 112 0 1 1 0 01-2 0zm18 0a1 1 0 112 0 1 1 0 01-2 0zm18 0a1 1 0 112 0 1 1 0 01-2 0zm18 0a1 1 0 112 0 1 1 0 01-2 0zm18 0a1 1 0 112 0 1 1 0 01-2 0zm18 0a1 1 0 112 0 1 1 0 01-2 0zm18 0a1 1 0 112 0 1 1 0 01-2 0zm18 0a1 1 0 112 0 1 1 0 01-2 0zm18 0a1 1 0 112 0 1 1 0 01-2 0zm18 0a1 1 0 112 0 1 1 0 01-2 0zm18 0a1 1 0 112 0 1 1 0 01-2 0zm18 0a1 1 0 112 0 1 1 0 01-2 0zm18 0a1 1 0 112 0 1 1 0 01-2 0zm18 0a1 1 0 112 0 1 1 0 01-2 0zm18 0a1 1 0 112 0 1 1 0 01-2 0zm18 0a1 1 0 112 0 1 1 0 01-2 0zm18 0a1 1 0 112 0 1 1 0 01-2 0zm18 0a1 1 0 112 0 1 1 0 01-2 0zm18 0a1 1 0 112 0 1 1 0 01-2 0zm18 0a1 1 0 112 0 1 1 0 01-2 0zm18 0a1 1 0 112 0 1 1 0 01-2 0zm18 0a1 1 0 112 0 1 1 0 01-2 0zm18 0a1 1 0 112 0 1 1 0 01-2 0zm18 0a1 1 0 112 0 1 1 0 01-2 0zm18 0a1 1 0 112 0 1 1 0 01-2 0zm18 0a1 1 0 112 0 1 1 0 01-2 0zm18 0a1 1 0 112 0 1 1 0 01-2 0zm18 0a1 1 0 112 0 1 1 0 01-2 0zm18 0a1 1 0 112 0 1 1 0 01-2 0zm18 0a1 1 0 112 0 1 1 0 01-2 0zm18 0a1 1 0 112 0 1 1 0 01-2 0zm18 0a1 1 0 112 0 1 1 0 01-2 0zm18 0a1 1 0 112 0 1 1 0 01-2 0zm18 0a1 1 0 112 0 1 1 0 01-2 0zm18 0a1 1 0 112 0 1 1 0 01-2 0zm18 0a1 1 0 112 0 1 1 0 01-2 0zm18 0c0-.552.45-1 1-1s1 .448 1 1-.45 1-1 1-1-.448-1-1zm18 0c0-.552.45-1 1-1s1 .448 1 1-.45 1-1 1-1-.448-1-1zm18 0c0-.552.45-1 1-1s1 .448 1 1-.45 1-1 1-1-.448-1-1zm18 0c0-.552.45-1 1-1s1 .448 1 1-.45 1-1 1-1-.448-1-1zm18 0c0-.552.45-1 1-1s1 .448 1 1-.45 1-1 1-1-.448-1-1zm18 0c0-.552.45-1 1-1s1 .448 1 1-.45 1-1 1-1-.448-1-1zm18 0c0-.552.45-1 1-1s1 .448 1 1-.45 1-1 1-1-.448-1-1zm18 0c0-.552.45-1 1-1s1 .448 1 1-.45 1-1 1-1-.448-1-1zm18 0c0-.552.45-1 1-1s1 .448 1 1-.45 1-1 1-1-.448-1-1zm18 0c0-.552.45-1 1-1s1 .448 1 1-.45 1-1 1-1-.448-1-1zm18 0c0-.552.45-1 1-1s1 .448 1 1-.45 1-1 1-1-.448-1-1zm18 0c0-.552.45-1 1-1s1 .448 1 1-.45 1-1 1-1-.448-1-1zm18 0c0-.552.45-1 1-1s1 .448 1 1-.45 1-1 1-1-.448-1-1zm18 0c0-.552.45-1 1-1s1 .448 1 1-.45 1-1 1-1-.448-1-1zm18 0c0-.552.45-1 1-1s1 .448 1 1-.45 1-1 1-1-.448-1-1zm18 0c0-.552.45-1 1-1s1 .448 1 1-.45 1-1 1-1-.448-1-1zm18 0c0-.552.45-1 1-1s1 .448 1 1-.45 1-1 1-1-.448-1-1zm18 0c0-.552.45-1 1-1s1 .448 1 1-.45 1-1 1-1-.448-1-1zm18 0c0-.552.45-1 1-1s1 .448 1 1-.45 1-1 1-1-.448-1-1zm18 0c0-.552.45-1 1-1s1 .448 1 1-.45 1-1 1-1-.448-1-1zm18 0c0-.552.45-1 1-1s1 .448 1 1-.45 1-1 1-1-.448-1-1zm18 0c0-.552.45-1 1-1s1 .448 1 1-.45 1-1 1-1-.448-1-1zm18 0c0-.552.45-1 1-1s1 .448 1 1-.45 1-1 1-1-.448-1-1zm18 0c0-.552.45-1 1-1s1 .448 1 1-.45 1-1 1-1-.448-1-1zm18 0c0-.552.45-1 1-1s1 .448 1 1-.45 1-1 1-1-.448-1-1zm18 0c0-.552.45-1 1-1s1 .448 1 1-.45 1-1 1-1-.448-1-1zm18 0c0-.552.45-1 1-1s1 .448 1 1-.45 1-1 1-1-.448-1-1zm18 0c0-.552.45-1 1-1s1 .448 1 1-.45 1-1 1-1-.448-1-1zm18 0c0-.552.45-1 1-1s1 .448 1 1-.45 1-1 1-1-.448-1-1zm18 0c0-.552.45-1 1-1s1 .448 1 1-.45 1-1 1-1-.448-1-1zm18 0c0-.552.45-1 1-1s1 .448 1 1-.45 1-1 1-1-.448-1-1zm18 0c0-.552.45-1 1-1s1 .448 1 1-.45 1-1 1-1-.448-1-1zm18 0c0-.552.45-1 1-1s1 .448 1 1-.45 1-1 1-1-.448-1-1zm18 0c0-.552.45-1 1-1s1 .448 1 1-.45 1-1 1-1-.448-1-1zm18 0c0-.552.45-1 1-1s1 .448 1 1-.45 1-1 1-1-.448-1-1zm18 0c0-.552.45-1 1-1s1 .448 1 1-.45 1-1 1-1-.448-1-1zm18 0c0-.552.45-1 1-1s1 .448 1 1-.45 1-1 1-1-.448-1-1zm18 0c0-.552.45-1 1-1s1 .448 1 1-.45 1-1 1-1-.448-1-1zm18 0c0-.552.45-1 1-1s1 .448 1 1-.45 1-1 1-1-.448-1-1zm18 0c0-.552.45-1 1-1s1 .448 1 1-.45 1-1 1-1-.448-1-1zm18 0c0-.552.45-1 1-1s1 .448 1 1-.45 1-1 1-1-.448-1-1zm18 0c0-.552.45-1 1-1s1 .448 1 1-.45 1-1 1-1-.448-1-1zm18 0c0-.552.45-1 1-1s1 .448 1 1-.45 1-1 1-1-.448-1-1zm18 0c0-.552.45-1 1-1s1 .448 1 1-.45 1-1 1-1-.448-1-1zm18 0c0-.552.45-1 1-1s1 .448 1 1-.45 1-1 1-1-.448-1-1zm18 0c0-.552.45-1 1-1s1 .448 1 1-.45 1-1 1-1-.448-1-1zm18 0c0-.552.45-1 1-1s1 .448 1 1-.45 1-1 1-1-.448-1-1zm18 0c0-.552.45-1 1-1s1 .448 1 1-.45 1-1 1-1-.448-1-1zm18 0c0-.552.45-1 1-1s1 .448 1 1-.45 1-1 1-1-.448-1-1zm18 0c0-.552.45-1 1-1s1 .448 1 1-.45 1-1 1-1-.448-1-1zm18 0c0-.552.45-1 1-1s1 .448 1 1-.45 1-1 1-1-.448-1-1zm18 0c0-.552.45-1 1-1s1 .448 1 1-.45 1-1 1-1-.448-1-1zm18 0c0-.552.45-1 1-1s1 .448 1 1-.45 1-1 1-1-.448-1-1zM-10 235a1 1 0 112 0 1 1 0 01-2 0zm18 0a1 1 0 112 0 1 1 0 01-2 0zm18 0a1 1 0 112 0 1 1 0 01-2 0zm18 0a1 1 0 112 0 1 1 0 01-2 0zm18 0a1 1 0 112 0 1 1 0 01-2 0zm18 0a1 1 0 112 0 1 1 0 01-2 0zm18 0a1 1 0 112 0 1 1 0 01-2 0zm18 0a1 1 0 112 0 1 1 0 01-2 0zm18 0a1 1 0 112 0 1 1 0 01-2 0zm18 0a1 1 0 112 0 1 1 0 01-2 0zm18 0a1 1 0 112 0 1 1 0 01-2 0zm18 0a1 1 0 112 0 1 1 0 01-2 0zm18 0a1 1 0 112 0 1 1 0 01-2 0zm18 0a1 1 0 112 0 1 1 0 01-2 0zm18 0a1 1 0 112 0 1 1 0 01-2 0zm18 0a1 1 0 112 0 1 1 0 01-2 0zm18 0a1 1 0 112 0 1 1 0 01-2 0zm18 0a1 1 0 112 0 1 1 0 01-2 0zm18 0a1 1 0 112 0 1 1 0 01-2 0zm18 0a1 1 0 112 0 1 1 0 01-2 0zm18 0a1 1 0 112 0 1 1 0 01-2 0zm18 0a1 1 0 112 0 1 1 0 01-2 0zm18 0a1 1 0 112 0 1 1 0 01-2 0zm18 0a1 1 0 112 0 1 1 0 01-2 0zm18 0a1 1 0 112 0 1 1 0 01-2 0zm18 0a1 1 0 112 0 1 1 0 01-2 0zm18 0a1 1 0 112 0 1 1 0 01-2 0zm18 0a1 1 0 112 0 1 1 0 01-2 0zm18 0a1 1 0 112 0 1 1 0 01-2 0zm18 0a1 1 0 112 0 1 1 0 01-2 0zm18 0a1 1 0 112 0 1 1 0 01-2 0zm18 0a1 1 0 112 0 1 1 0 01-2 0zm18 0a1 1 0 112 0 1 1 0 01-2 0zm18 0a1 1 0 112 0 1 1 0 01-2 0zm18 0a1 1 0 112 0 1 1 0 01-2 0zm18 0a1 1 0 112 0 1 1 0 01-2 0zm18 0a1 1 0 112 0 1 1 0 01-2 0zm18 0a1 1 0 112 0 1 1 0 01-2 0zm18 0a1 1 0 112 0 1 1 0 01-2 0zm18 0a1 1 0 112 0 1 1 0 01-2 0zm18 0a1 1 0 112 0 1 1 0 01-2 0zm18 0a1 1 0 112 0 1 1 0 01-2 0zm18 0a1 1 0 112 0 1 1 0 01-2 0zm18 0a1 1 0 112 0 1 1 0 01-2 0zm18 0a1 1 0 112 0 1 1 0 01-2 0zm18 0a1 1 0 112 0 1 1 0 01-2 0zm18 0a1 1 0 112 0 1 1 0 01-2 0zm18 0a1 1 0 112 0 1 1 0 01-2 0zm18 0a1 1 0 112 0 1 1 0 01-2 0zm18 0a1 1 0 112 0 1 1 0 01-2 0zm18 0a1 1 0 112 0 1 1 0 01-2 0zm18 0a1 1 0 112 0 1 1 0 01-2 0zm18 0a1 1 0 112 0 1 1 0 01-2 0zm18 0a1 1 0 112 0 1 1 0 01-2 0zm18 0a1 1 0 112 0 1 1 0 01-2 0zm18 0a1 1 0 112 0 1 1 0 01-2 0zm18 0a1 1 0 112 0 1 1 0 01-2 0zm18 0c0-.552.45-1 1-1s1 .448 1 1-.45 1-1 1-1-.448-1-1zm18 0c0-.552.45-1 1-1s1 .448 1 1-.45 1-1 1-1-.448-1-1zm18 0c0-.552.45-1 1-1s1 .448 1 1-.45 1-1 1-1-.448-1-1zm18 0c0-.552.45-1 1-1s1 .448 1 1-.45 1-1 1-1-.448-1-1zm18 0c0-.552.45-1 1-1s1 .448 1 1-.45 1-1 1-1-.448-1-1zm18 0c0-.552.45-1 1-1s1 .448 1 1-.45 1-1 1-1-.448-1-1zm18 0c0-.552.45-1 1-1s1 .448 1 1-.45 1-1 1-1-.448-1-1zm18 0c0-.552.45-1 1-1s1 .448 1 1-.45 1-1 1-1-.448-1-1zm18 0c0-.552.45-1 1-1s1 .448 1 1-.45 1-1 1-1-.448-1-1zm18 0c0-.552.45-1 1-1s1 .448 1 1-.45 1-1 1-1-.448-1-1zm18 0c0-.552.45-1 1-1s1 .448 1 1-.45 1-1 1-1-.448-1-1zm18 0c0-.552.45-1 1-1s1 .448 1 1-.45 1-1 1-1-.448-1-1zm18 0c0-.552.45-1 1-1s1 .448 1 1-.45 1-1 1-1-.448-1-1zm18 0c0-.552.45-1 1-1s1 .448 1 1-.45 1-1 1-1-.448-1-1zm18 0c0-.552.45-1 1-1s1 .448 1 1-.45 1-1 1-1-.448-1-1zm18 0c0-.552.45-1 1-1s1 .448 1 1-.45 1-1 1-1-.448-1-1zm18 0c0-.552.45-1 1-1s1 .448 1 1-.45 1-1 1-1-.448-1-1zm18 0c0-.552.45-1 1-1s1 .448 1 1-.45 1-1 1-1-.448-1-1zm18 0c0-.552.45-1 1-1s1 .448 1 1-.45 1-1 1-1-.448-1-1zm18 0c0-.552.45-1 1-1s1 .448 1 1-.45 1-1 1-1-.448-1-1zm18 0c0-.552.45-1 1-1s1 .448 1 1-.45 1-1 1-1-.448-1-1zm18 0c0-.552.45-1 1-1s1 .448 1 1-.45 1-1 1-1-.448-1-1zm18 0c0-.552.45-1 1-1s1 .448 1 1-.45 1-1 1-1-.448-1-1zm18 0c0-.552.45-1 1-1s1 .448 1 1-.45 1-1 1-1-.448-1-1zm18 0c0-.552.45-1 1-1s1 .448 1 1-.45 1-1 1-1-.448-1-1zm18 0c0-.552.45-1 1-1s1 .448 1 1-.45 1-1 1-1-.448-1-1zm18 0c0-.552.45-1 1-1s1 .448 1 1-.45 1-1 1-1-.448-1-1zm18 0c0-.552.45-1 1-1s1 .448 1 1-.45 1-1 1-1-.448-1-1zm18 0c0-.552.45-1 1-1s1 .448 1 1-.45 1-1 1-1-.448-1-1zm18 0c0-.552.45-1 1-1s1 .448 1 1-.45 1-1 1-1-.448-1-1zm18 0c0-.552.45-1 1-1s1 .448 1 1-.45 1-1 1-1-.448-1-1zm18 0c0-.552.45-1 1-1s1 .448 1 1-.45 1-1 1-1-.448-1-1zm18 0c0-.552.45-1 1-1s1 .448 1 1-.45 1-1 1-1-.448-1-1zm18 0c0-.552.45-1 1-1s1 .448 1 1-.45 1-1 1-1-.448-1-1zm18 0c0-.552.45-1 1-1s1 .448 1 1-.45 1-1 1-1-.448-1-1zm18 0c0-.552.45-1 1-1s1 .448 1 1-.45 1-1 1-1-.448-1-1zm18 0c0-.552.45-1 1-1s1 .448 1 1-.45 1-1 1-1-.448-1-1zm18 0c0-.552.45-1 1-1s1 .448 1 1-.45 1-1 1-1-.448-1-1zm18 0c0-.552.45-1 1-1s1 .448 1 1-.45 1-1 1-1-.448-1-1zm18 0c0-.552.45-1 1-1s1 .448 1 1-.45 1-1 1-1-.448-1-1zm18 0c0-.552.45-1 1-1s1 .448 1 1-.45 1-1 1-1-.448-1-1zm18 0c0-.552.45-1 1-1s1 .448 1 1-.45 1-1 1-1-.448-1-1zm18 0c0-.552.45-1 1-1s1 .448 1 1-.45 1-1 1-1-.448-1-1zm18 0c0-.552.45-1 1-1s1 .448 1 1-.45 1-1 1-1-.448-1-1zm18 0c0-.552.45-1 1-1s1 .448 1 1-.45 1-1 1-1-.448-1-1zm18 0c0-.552.45-1 1-1s1 .448 1 1-.45 1-1 1-1-.448-1-1zm18 0c0-.552.45-1 1-1s1 .448 1 1-.45 1-1 1-1-.448-1-1zm18 0c0-.552.45-1 1-1s1 .448 1 1-.45 1-1 1-1-.448-1-1zm18 0c0-.552.45-1 1-1s1 .448 1 1-.45 1-1 1-1-.448-1-1zm18 0c0-.552.45-1 1-1s1 .448 1 1-.45 1-1 1-1-.448-1-1zm18 0c0-.552.45-1 1-1s1 .448 1 1-.45 1-1 1-1-.448-1-1zm18 0c0-.552.45-1 1-1s1 .448 1 1-.45 1-1 1-1-.448-1-1zm18 0c0-.552.45-1 1-1s1 .448 1 1-.45 1-1 1-1-.448-1-1zM-10 253a1 1 0 112 0 1 1 0 01-2 0zm18 0a1 1 0 112 0 1 1 0 01-2 0zm18 0a1 1 0 112 0 1 1 0 01-2 0zm18 0a1 1 0 112 0 1 1 0 01-2 0zm18 0a1 1 0 112 0 1 1 0 01-2 0zm18 0a1 1 0 112 0 1 1 0 01-2 0zm18 0a1 1 0 112 0 1 1 0 01-2 0zm18 0a1 1 0 112 0 1 1 0 01-2 0zm18 0a1 1 0 112 0 1 1 0 01-2 0zm18 0a1 1 0 112 0 1 1 0 01-2 0zm18 0a1 1 0 112 0 1 1 0 01-2 0zm18 0a1 1 0 112 0 1 1 0 01-2 0zm18 0a1 1 0 112 0 1 1 0 01-2 0zm18 0a1 1 0 112 0 1 1 0 01-2 0zm18 0a1 1 0 112 0 1 1 0 01-2 0zm18 0a1 1 0 112 0 1 1 0 01-2 0zm18 0a1 1 0 112 0 1 1 0 01-2 0zm18 0a1 1 0 112 0 1 1 0 01-2 0zm18 0a1 1 0 112 0 1 1 0 01-2 0zm18 0a1 1 0 112 0 1 1 0 01-2 0zm18 0a1 1 0 112 0 1 1 0 01-2 0zm18 0a1 1 0 112 0 1 1 0 01-2 0zm18 0a1 1 0 112 0 1 1 0 01-2 0zm18 0a1 1 0 112 0 1 1 0 01-2 0zm18 0a1 1 0 112 0 1 1 0 01-2 0zm18 0a1 1 0 112 0 1 1 0 01-2 0zm18 0a1 1 0 112 0 1 1 0 01-2 0zm18 0a1 1 0 112 0 1 1 0 01-2 0zm18 0a1 1 0 112 0 1 1 0 01-2 0zm18 0a1 1 0 112 0 1 1 0 01-2 0zm18 0a1 1 0 112 0 1 1 0 01-2 0zm18 0a1 1 0 112 0 1 1 0 01-2 0zm18 0a1 1 0 112 0 1 1 0 01-2 0zm18 0a1 1 0 112 0 1 1 0 01-2 0zm18 0a1 1 0 112 0 1 1 0 01-2 0zm18 0a1 1 0 112 0 1 1 0 01-2 0zm18 0a1 1 0 112 0 1 1 0 01-2 0zm18 0a1 1 0 112 0 1 1 0 01-2 0zm18 0a1 1 0 112 0 1 1 0 01-2 0zm18 0a1 1 0 112 0 1 1 0 01-2 0zm18 0a1 1 0 112 0 1 1 0 01-2 0zm18 0a1 1 0 112 0 1 1 0 01-2 0zm18 0a1 1 0 112 0 1 1 0 01-2 0zm18 0a1 1 0 112 0 1 1 0 01-2 0zm18 0a1 1 0 112 0 1 1 0 01-2 0zm18 0a1 1 0 112 0 1 1 0 01-2 0zm18 0a1 1 0 112 0 1 1 0 01-2 0zm18 0a1 1 0 112 0 1 1 0 01-2 0zm18 0a1 1 0 112 0 1 1 0 01-2 0zm18 0a1 1 0 112 0 1 1 0 01-2 0zm18 0a1 1 0 112 0 1 1 0 01-2 0zm18 0a1 1 0 112 0 1 1 0 01-2 0zm18 0a1 1 0 112 0 1 1 0 01-2 0zm18 0a1 1 0 112 0 1 1 0 01-2 0zm18 0a1 1 0 112 0 1 1 0 01-2 0zm18 0a1 1 0 112 0 1 1 0 01-2 0zm18 0a1 1 0 112 0 1 1 0 01-2 0zm18 0c0-.552.45-1 1-1s1 .448 1 1-.45 1-1 1-1-.448-1-1zm18 0c0-.552.45-1 1-1s1 .448 1 1-.45 1-1 1-1-.448-1-1zm18 0c0-.552.45-1 1-1s1 .448 1 1-.45 1-1 1-1-.448-1-1zm18 0c0-.552.45-1 1-1s1 .448 1 1-.45 1-1 1-1-.448-1-1zm18 0c0-.552.45-1 1-1s1 .448 1 1-.45 1-1 1-1-.448-1-1zm18 0c0-.552.45-1 1-1s1 .448 1 1-.45 1-1 1-1-.448-1-1zm18 0c0-.552.45-1 1-1s1 .448 1 1-.45 1-1 1-1-.448-1-1zm18 0c0-.552.45-1 1-1s1 .448 1 1-.45 1-1 1-1-.448-1-1zm18 0c0-.552.45-1 1-1s1 .448 1 1-.45 1-1 1-1-.448-1-1zm18 0c0-.552.45-1 1-1s1 .448 1 1-.45 1-1 1-1-.448-1-1zm18 0c0-.552.45-1 1-1s1 .448 1 1-.45 1-1 1-1-.448-1-1zm18 0c0-.552.45-1 1-1s1 .448 1 1-.45 1-1 1-1-.448-1-1zm18 0c0-.552.45-1 1-1s1 .448 1 1-.45 1-1 1-1-.448-1-1zm18 0c0-.552.45-1 1-1s1 .448 1 1-.45 1-1 1-1-.448-1-1zm18 0c0-.552.45-1 1-1s1 .448 1 1-.45 1-1 1-1-.448-1-1zm18 0c0-.552.45-1 1-1s1 .448 1 1-.45 1-1 1-1-.448-1-1zm18 0c0-.552.45-1 1-1s1 .448 1 1-.45 1-1 1-1-.448-1-1zm18 0c0-.552.45-1 1-1s1 .448 1 1-.45 1-1 1-1-.448-1-1zm18 0c0-.552.45-1 1-1s1 .448 1 1-.45 1-1 1-1-.448-1-1zm18 0c0-.552.45-1 1-1s1 .448 1 1-.45 1-1 1-1-.448-1-1zm18 0c0-.552.45-1 1-1s1 .448 1 1-.45 1-1 1-1-.448-1-1zm18 0c0-.552.45-1 1-1s1 .448 1 1-.45 1-1 1-1-.448-1-1zm18 0c0-.552.45-1 1-1s1 .448 1 1-.45 1-1 1-1-.448-1-1zm18 0c0-.552.45-1 1-1s1 .448 1 1-.45 1-1 1-1-.448-1-1zm18 0c0-.552.45-1 1-1s1 .448 1 1-.45 1-1 1-1-.448-1-1zm18 0c0-.552.45-1 1-1s1 .448 1 1-.45 1-1 1-1-.448-1-1zm18 0c0-.552.45-1 1-1s1 .448 1 1-.45 1-1 1-1-.448-1-1zm18 0c0-.552.45-1 1-1s1 .448 1 1-.45 1-1 1-1-.448-1-1zm18 0c0-.552.45-1 1-1s1 .448 1 1-.45 1-1 1-1-.448-1-1zm18 0c0-.552.45-1 1-1s1 .448 1 1-.45 1-1 1-1-.448-1-1zm18 0c0-.552.45-1 1-1s1 .448 1 1-.45 1-1 1-1-.448-1-1zm18 0c0-.552.45-1 1-1s1 .448 1 1-.45 1-1 1-1-.448-1-1zm18 0c0-.552.45-1 1-1s1 .448 1 1-.45 1-1 1-1-.448-1-1zm18 0c0-.552.45-1 1-1s1 .448 1 1-.45 1-1 1-1-.448-1-1zm18 0c0-.552.45-1 1-1s1 .448 1 1-.45 1-1 1-1-.448-1-1zm18 0c0-.552.45-1 1-1s1 .448 1 1-.45 1-1 1-1-.448-1-1zm18 0c0-.552.45-1 1-1s1 .448 1 1-.45 1-1 1-1-.448-1-1zm18 0c0-.552.45-1 1-1s1 .448 1 1-.45 1-1 1-1-.448-1-1zm18 0c0-.552.45-1 1-1s1 .448 1 1-.45 1-1 1-1-.448-1-1zm18 0c0-.552.45-1 1-1s1 .448 1 1-.45 1-1 1-1-.448-1-1zm18 0c0-.552.45-1 1-1s1 .448 1 1-.45 1-1 1-1-.448-1-1zm18 0c0-.552.45-1 1-1s1 .448 1 1-.45 1-1 1-1-.448-1-1zm18 0c0-.552.45-1 1-1s1 .448 1 1-.45 1-1 1-1-.448-1-1zm18 0c0-.552.45-1 1-1s1 .448 1 1-.45 1-1 1-1-.448-1-1zm18 0c0-.552.45-1 1-1s1 .448 1 1-.45 1-1 1-1-.448-1-1zm18 0c0-.552.45-1 1-1s1 .448 1 1-.45 1-1 1-1-.448-1-1zm18 0c0-.552.45-1 1-1s1 .448 1 1-.45 1-1 1-1-.448-1-1zm18 0c0-.552.45-1 1-1s1 .448 1 1-.45 1-1 1-1-.448-1-1zm18 0c0-.552.45-1 1-1s1 .448 1 1-.45 1-1 1-1-.448-1-1zm18 0c0-.552.45-1 1-1s1 .448 1 1-.45 1-1 1-1-.448-1-1zm18 0c0-.552.45-1 1-1s1 .448 1 1-.45 1-1 1-1-.448-1-1zm18 0c0-.552.45-1 1-1s1 .448 1 1-.45 1-1 1-1-.448-1-1zm18 0c0-.552.45-1 1-1s1 .448 1 1-.45 1-1 1-1-.448-1-1zM-10 271a1 1 0 112 0 1 1 0 01-2 0zm18 0a1 1 0 112 0 1 1 0 01-2 0zm18 0a1 1 0 112 0 1 1 0 01-2 0zm18 0a1 1 0 112 0 1 1 0 01-2 0zm18 0a1 1 0 112 0 1 1 0 01-2 0zm18 0a1 1 0 112 0 1 1 0 01-2 0zm18 0a1 1 0 112 0 1 1 0 01-2 0zm18 0a1 1 0 112 0 1 1 0 01-2 0zm18 0a1 1 0 112 0 1 1 0 01-2 0zm18 0a1 1 0 112 0 1 1 0 01-2 0zm18 0a1 1 0 112 0 1 1 0 01-2 0zm18 0a1 1 0 112 0 1 1 0 01-2 0zm18 0a1 1 0 112 0 1 1 0 01-2 0zm18 0a1 1 0 112 0 1 1 0 01-2 0zm18 0a1 1 0 112 0 1 1 0 01-2 0zm18 0a1 1 0 112 0 1 1 0 01-2 0zm18 0a1 1 0 112 0 1 1 0 01-2 0zm18 0a1 1 0 112 0 1 1 0 01-2 0zm18 0a1 1 0 112 0 1 1 0 01-2 0zm18 0a1 1 0 112 0 1 1 0 01-2 0zm18 0a1 1 0 112 0 1 1 0 01-2 0zm18 0a1 1 0 112 0 1 1 0 01-2 0zm18 0a1 1 0 112 0 1 1 0 01-2 0zm18 0a1 1 0 112 0 1 1 0 01-2 0zm18 0a1 1 0 112 0 1 1 0 01-2 0zm18 0a1 1 0 112 0 1 1 0 01-2 0zm18 0a1 1 0 112 0 1 1 0 01-2 0zm18 0a1 1 0 112 0 1 1 0 01-2 0zm18 0a1 1 0 112 0 1 1 0 01-2 0zm18 0a1 1 0 112 0 1 1 0 01-2 0zm18 0a1 1 0 112 0 1 1 0 01-2 0zm18 0a1 1 0 112 0 1 1 0 01-2 0zm18 0a1 1 0 112 0 1 1 0 01-2 0zm18 0a1 1 0 112 0 1 1 0 01-2 0zm18 0a1 1 0 112 0 1 1 0 01-2 0zm18 0a1 1 0 112 0 1 1 0 01-2 0zm18 0a1 1 0 112 0 1 1 0 01-2 0zm18 0a1 1 0 112 0 1 1 0 01-2 0zm18 0a1 1 0 112 0 1 1 0 01-2 0zm18 0a1 1 0 112 0 1 1 0 01-2 0zm18 0a1 1 0 112 0 1 1 0 01-2 0zm18 0a1 1 0 112 0 1 1 0 01-2 0zm18 0a1 1 0 112 0 1 1 0 01-2 0zm18 0a1 1 0 112 0 1 1 0 01-2 0zm18 0a1 1 0 112 0 1 1 0 01-2 0zm18 0a1 1 0 112 0 1 1 0 01-2 0zm18 0a1 1 0 112 0 1 1 0 01-2 0zm18 0a1 1 0 112 0 1 1 0 01-2 0zm18 0a1 1 0 112 0 1 1 0 01-2 0zm18 0a1 1 0 112 0 1 1 0 01-2 0zm18 0a1 1 0 112 0 1 1 0 01-2 0zm18 0a1 1 0 112 0 1 1 0 01-2 0zm18 0a1 1 0 112 0 1 1 0 01-2 0zm18 0a1 1 0 112 0 1 1 0 01-2 0zm18 0a1 1 0 112 0 1 1 0 01-2 0zm18 0a1 1 0 112 0 1 1 0 01-2 0zm18 0a1 1 0 112 0 1 1 0 01-2 0zm18 0c0-.552.45-1 1-1s1 .448 1 1-.45 1-1 1-1-.448-1-1zm18 0c0-.552.45-1 1-1s1 .448 1 1-.45 1-1 1-1-.448-1-1zm18 0c0-.552.45-1 1-1s1 .448 1 1-.45 1-1 1-1-.448-1-1zm18 0c0-.552.45-1 1-1s1 .448 1 1-.45 1-1 1-1-.448-1-1zm18 0c0-.552.45-1 1-1s1 .448 1 1-.45 1-1 1-1-.448-1-1zm18 0c0-.552.45-1 1-1s1 .448 1 1-.45 1-1 1-1-.448-1-1zm18 0c0-.552.45-1 1-1s1 .448 1 1-.45 1-1 1-1-.448-1-1zm18 0c0-.552.45-1 1-1s1 .448 1 1-.45 1-1 1-1-.448-1-1zm18 0c0-.552.45-1 1-1s1 .448 1 1-.45 1-1 1-1-.448-1-1zm18 0c0-.552.45-1 1-1s1 .448 1 1-.45 1-1 1-1-.448-1-1zm18 0c0-.552.45-1 1-1s1 .448 1 1-.45 1-1 1-1-.448-1-1zm18 0c0-.552.45-1 1-1s1 .448 1 1-.45 1-1 1-1-.448-1-1zm18 0c0-.552.45-1 1-1s1 .448 1 1-.45 1-1 1-1-.448-1-1zm18 0c0-.552.45-1 1-1s1 .448 1 1-.45 1-1 1-1-.448-1-1zm18 0c0-.552.45-1 1-1s1 .448 1 1-.45 1-1 1-1-.448-1-1zm18 0c0-.552.45-1 1-1s1 .448 1 1-.45 1-1 1-1-.448-1-1zm18 0c0-.552.45-1 1-1s1 .448 1 1-.45 1-1 1-1-.448-1-1zm18 0c0-.552.45-1 1-1s1 .448 1 1-.45 1-1 1-1-.448-1-1zm18 0c0-.552.45-1 1-1s1 .448 1 1-.45 1-1 1-1-.448-1-1zm18 0c0-.552.45-1 1-1s1 .448 1 1-.45 1-1 1-1-.448-1-1zm18 0c0-.552.45-1 1-1s1 .448 1 1-.45 1-1 1-1-.448-1-1zm18 0c0-.552.45-1 1-1s1 .448 1 1-.45 1-1 1-1-.448-1-1zm18 0c0-.552.45-1 1-1s1 .448 1 1-.45 1-1 1-1-.448-1-1zm18 0c0-.552.45-1 1-1s1 .448 1 1-.45 1-1 1-1-.448-1-1zm18 0c0-.552.45-1 1-1s1 .448 1 1-.45 1-1 1-1-.448-1-1zm18 0c0-.552.45-1 1-1s1 .448 1 1-.45 1-1 1-1-.448-1-1zm18 0c0-.552.45-1 1-1s1 .448 1 1-.45 1-1 1-1-.448-1-1zm18 0c0-.552.45-1 1-1s1 .448 1 1-.45 1-1 1-1-.448-1-1zm18 0c0-.552.45-1 1-1s1 .448 1 1-.45 1-1 1-1-.448-1-1zm18 0c0-.552.45-1 1-1s1 .448 1 1-.45 1-1 1-1-.448-1-1zm18 0c0-.552.45-1 1-1s1 .448 1 1-.45 1-1 1-1-.448-1-1zm18 0c0-.552.45-1 1-1s1 .448 1 1-.45 1-1 1-1-.448-1-1zm18 0c0-.552.45-1 1-1s1 .448 1 1-.45 1-1 1-1-.448-1-1zm18 0c0-.552.45-1 1-1s1 .448 1 1-.45 1-1 1-1-.448-1-1zm18 0c0-.552.45-1 1-1s1 .448 1 1-.45 1-1 1-1-.448-1-1zm18 0c0-.552.45-1 1-1s1 .448 1 1-.45 1-1 1-1-.448-1-1zm18 0c0-.552.45-1 1-1s1 .448 1 1-.45 1-1 1-1-.448-1-1zm18 0c0-.552.45-1 1-1s1 .448 1 1-.45 1-1 1-1-.448-1-1zm18 0c0-.552.45-1 1-1s1 .448 1 1-.45 1-1 1-1-.448-1-1zm18 0c0-.552.45-1 1-1s1 .448 1 1-.45 1-1 1-1-.448-1-1zm18 0c0-.552.45-1 1-1s1 .448 1 1-.45 1-1 1-1-.448-1-1zm18 0c0-.552.45-1 1-1s1 .448 1 1-.45 1-1 1-1-.448-1-1zm18 0c0-.552.45-1 1-1s1 .448 1 1-.45 1-1 1-1-.448-1-1zm18 0c0-.552.45-1 1-1s1 .448 1 1-.45 1-1 1-1-.448-1-1zm18 0c0-.552.45-1 1-1s1 .448 1 1-.45 1-1 1-1-.448-1-1zm18 0c0-.552.45-1 1-1s1 .448 1 1-.45 1-1 1-1-.448-1-1zm18 0c0-.552.45-1 1-1s1 .448 1 1-.45 1-1 1-1-.448-1-1zm18 0c0-.552.45-1 1-1s1 .448 1 1-.45 1-1 1-1-.448-1-1zm18 0c0-.552.45-1 1-1s1 .448 1 1-.45 1-1 1-1-.448-1-1zm18 0c0-.552.45-1 1-1s1 .448 1 1-.45 1-1 1-1-.448-1-1zm18 0c0-.552.45-1 1-1s1 .448 1 1-.45 1-1 1-1-.448-1-1zm18 0c0-.552.45-1 1-1s1 .448 1 1-.45 1-1 1-1-.448-1-1zm18 0c0-.552.45-1 1-1s1 .448 1 1-.45 1-1 1-1-.448-1-1zM-10 289a1 1 0 112 0 1 1 0 01-2 0zm18 0a1 1 0 112 0 1 1 0 01-2 0zm18 0a1 1 0 112 0 1 1 0 01-2 0zm18 0a1 1 0 112 0 1 1 0 01-2 0zm18 0a1 1 0 112 0 1 1 0 01-2 0zm18 0a1 1 0 112 0 1 1 0 01-2 0zm18 0a1 1 0 112 0 1 1 0 01-2 0zm18 0a1 1 0 112 0 1 1 0 01-2 0zm18 0a1 1 0 112 0 1 1 0 01-2 0zm18 0a1 1 0 112 0 1 1 0 01-2 0zm18 0a1 1 0 112 0 1 1 0 01-2 0zm18 0a1 1 0 112 0 1 1 0 01-2 0zm18 0a1 1 0 112 0 1 1 0 01-2 0zm18 0a1 1 0 112 0 1 1 0 01-2 0zm18 0a1 1 0 112 0 1 1 0 01-2 0zm18 0a1 1 0 112 0 1 1 0 01-2 0zm18 0a1 1 0 112 0 1 1 0 01-2 0zm18 0a1 1 0 112 0 1 1 0 01-2 0zm18 0a1 1 0 112 0 1 1 0 01-2 0zm18 0a1 1 0 112 0 1 1 0 01-2 0zm18 0a1 1 0 112 0 1 1 0 01-2 0zm18 0a1 1 0 112 0 1 1 0 01-2 0zm18 0a1 1 0 112 0 1 1 0 01-2 0zm18 0a1 1 0 112 0 1 1 0 01-2 0zm18 0a1 1 0 112 0 1 1 0 01-2 0zm18 0a1 1 0 112 0 1 1 0 01-2 0zm18 0a1 1 0 112 0 1 1 0 01-2 0zm18 0a1 1 0 112 0 1 1 0 01-2 0zm18 0a1 1 0 112 0 1 1 0 01-2 0zm18 0a1 1 0 112 0 1 1 0 01-2 0zm18 0a1 1 0 112 0 1 1 0 01-2 0zm18 0a1 1 0 112 0 1 1 0 01-2 0zm18 0a1 1 0 112 0 1 1 0 01-2 0zm18 0a1 1 0 112 0 1 1 0 01-2 0zm18 0a1 1 0 112 0 1 1 0 01-2 0zm18 0a1 1 0 112 0 1 1 0 01-2 0zm18 0a1 1 0 112 0 1 1 0 01-2 0zm18 0a1 1 0 112 0 1 1 0 01-2 0zm18 0a1 1 0 112 0 1 1 0 01-2 0zm18 0a1 1 0 112 0 1 1 0 01-2 0zm18 0a1 1 0 112 0 1 1 0 01-2 0zm18 0a1 1 0 112 0 1 1 0 01-2 0zm18 0a1 1 0 112 0 1 1 0 01-2 0zm18 0a1 1 0 112 0 1 1 0 01-2 0zm18 0a1 1 0 112 0 1 1 0 01-2 0zm18 0a1 1 0 112 0 1 1 0 01-2 0zm18 0a1 1 0 112 0 1 1 0 01-2 0zm18 0a1 1 0 112 0 1 1 0 01-2 0zm18 0a1 1 0 112 0 1 1 0 01-2 0zm18 0a1 1 0 112 0 1 1 0 01-2 0zm18 0a1 1 0 112 0 1 1 0 01-2 0zm18 0a1 1 0 112 0 1 1 0 01-2 0zm18 0a1 1 0 112 0 1 1 0 01-2 0zm18 0a1 1 0 112 0 1 1 0 01-2 0zm18 0a1 1 0 112 0 1 1 0 01-2 0zm18 0a1 1 0 112 0 1 1 0 01-2 0zm18 0a1 1 0 112 0 1 1 0 01-2 0zm18 0c0-.552.45-1 1-1s1 .448 1 1-.45 1-1 1-1-.448-1-1zm18 0c0-.552.45-1 1-1s1 .448 1 1-.45 1-1 1-1-.448-1-1zm18 0c0-.552.45-1 1-1s1 .448 1 1-.45 1-1 1-1-.448-1-1zm18 0c0-.552.45-1 1-1s1 .448 1 1-.45 1-1 1-1-.448-1-1zm18 0c0-.552.45-1 1-1s1 .448 1 1-.45 1-1 1-1-.448-1-1zm18 0c0-.552.45-1 1-1s1 .448 1 1-.45 1-1 1-1-.448-1-1zm18 0c0-.552.45-1 1-1s1 .448 1 1-.45 1-1 1-1-.448-1-1zm18 0c0-.552.45-1 1-1s1 .448 1 1-.45 1-1 1-1-.448-1-1zm18 0c0-.552.45-1 1-1s1 .448 1 1-.45 1-1 1-1-.448-1-1zm18 0c0-.552.45-1 1-1s1 .448 1 1-.45 1-1 1-1-.448-1-1zm18 0c0-.552.45-1 1-1s1 .448 1 1-.45 1-1 1-1-.448-1-1zm18 0c0-.552.45-1 1-1s1 .448 1 1-.45 1-1 1-1-.448-1-1zm18 0c0-.552.45-1 1-1s1 .448 1 1-.45 1-1 1-1-.448-1-1zm18 0c0-.552.45-1 1-1s1 .448 1 1-.45 1-1 1-1-.448-1-1zm18 0c0-.552.45-1 1-1s1 .448 1 1-.45 1-1 1-1-.448-1-1zm18 0c0-.552.45-1 1-1s1 .448 1 1-.45 1-1 1-1-.448-1-1zm18 0c0-.552.45-1 1-1s1 .448 1 1-.45 1-1 1-1-.448-1-1zm18 0c0-.552.45-1 1-1s1 .448 1 1-.45 1-1 1-1-.448-1-1zm18 0c0-.552.45-1 1-1s1 .448 1 1-.45 1-1 1-1-.448-1-1zm18 0c0-.552.45-1 1-1s1 .448 1 1-.45 1-1 1-1-.448-1-1zm18 0c0-.552.45-1 1-1s1 .448 1 1-.45 1-1 1-1-.448-1-1zm18 0c0-.552.45-1 1-1s1 .448 1 1-.45 1-1 1-1-.448-1-1zm18 0c0-.552.45-1 1-1s1 .448 1 1-.45 1-1 1-1-.448-1-1zm18 0c0-.552.45-1 1-1s1 .448 1 1-.45 1-1 1-1-.448-1-1zm18 0c0-.552.45-1 1-1s1 .448 1 1-.45 1-1 1-1-.448-1-1zm18 0c0-.552.45-1 1-1s1 .448 1 1-.45 1-1 1-1-.448-1-1zm18 0c0-.552.45-1 1-1s1 .448 1 1-.45 1-1 1-1-.448-1-1zm18 0c0-.552.45-1 1-1s1 .448 1 1-.45 1-1 1-1-.448-1-1zm18 0c0-.552.45-1 1-1s1 .448 1 1-.45 1-1 1-1-.448-1-1zm18 0c0-.552.45-1 1-1s1 .448 1 1-.45 1-1 1-1-.448-1-1zm18 0c0-.552.45-1 1-1s1 .448 1 1-.45 1-1 1-1-.448-1-1zm18 0c0-.552.45-1 1-1s1 .448 1 1-.45 1-1 1-1-.448-1-1zm18 0c0-.552.45-1 1-1s1 .448 1 1-.45 1-1 1-1-.448-1-1zm18 0c0-.552.45-1 1-1s1 .448 1 1-.45 1-1 1-1-.448-1-1zm18 0c0-.552.45-1 1-1s1 .448 1 1-.45 1-1 1-1-.448-1-1zm18 0c0-.552.45-1 1-1s1 .448 1 1-.45 1-1 1-1-.448-1-1zm18 0c0-.552.45-1 1-1s1 .448 1 1-.45 1-1 1-1-.448-1-1zm18 0c0-.552.45-1 1-1s1 .448 1 1-.45 1-1 1-1-.448-1-1zm18 0c0-.552.45-1 1-1s1 .448 1 1-.45 1-1 1-1-.448-1-1zm18 0c0-.552.45-1 1-1s1 .448 1 1-.45 1-1 1-1-.448-1-1zm18 0c0-.552.45-1 1-1s1 .448 1 1-.45 1-1 1-1-.448-1-1zm18 0c0-.552.45-1 1-1s1 .448 1 1-.45 1-1 1-1-.448-1-1zm18 0c0-.552.45-1 1-1s1 .448 1 1-.45 1-1 1-1-.448-1-1zm18 0c0-.552.45-1 1-1s1 .448 1 1-.45 1-1 1-1-.448-1-1zm18 0c0-.552.45-1 1-1s1 .448 1 1-.45 1-1 1-1-.448-1-1zm18 0c0-.552.45-1 1-1s1 .448 1 1-.45 1-1 1-1-.448-1-1zm18 0c0-.552.45-1 1-1s1 .448 1 1-.45 1-1 1-1-.448-1-1zm18 0c0-.552.45-1 1-1s1 .448 1 1-.45 1-1 1-1-.448-1-1zm18 0c0-.552.45-1 1-1s1 .448 1 1-.45 1-1 1-1-.448-1-1zm18 0c0-.552.45-1 1-1s1 .448 1 1-.45 1-1 1-1-.448-1-1zm18 0c0-.552.45-1 1-1s1 .448 1 1-.45 1-1 1-1-.448-1-1zm18 0c0-.552.45-1 1-1s1 .448 1 1-.45 1-1 1-1-.448-1-1zm18 0c0-.552.45-1 1-1s1 .448 1 1-.45 1-1 1-1-.448-1-1zM-10 307a1 1 0 112 0 1 1 0 01-2 0zm18 0a1 1 0 112 0 1 1 0 01-2 0zm18 0a1 1 0 112 0 1 1 0 01-2 0zm18 0a1 1 0 112 0 1 1 0 01-2 0zm18 0a1 1 0 112 0 1 1 0 01-2 0zm18 0a1 1 0 112 0 1 1 0 01-2 0zm18 0a1 1 0 112 0 1 1 0 01-2 0zm18 0a1 1 0 112 0 1 1 0 01-2 0zm18 0a1 1 0 112 0 1 1 0 01-2 0zm18 0a1 1 0 112 0 1 1 0 01-2 0zm18 0a1 1 0 112 0 1 1 0 01-2 0zm18 0a1 1 0 112 0 1 1 0 01-2 0zm18 0a1 1 0 112 0 1 1 0 01-2 0zm18 0a1 1 0 112 0 1 1 0 01-2 0zm18 0a1 1 0 112 0 1 1 0 01-2 0zm18 0a1 1 0 112 0 1 1 0 01-2 0zm18 0a1 1 0 112 0 1 1 0 01-2 0zm18 0a1 1 0 112 0 1 1 0 01-2 0zm18 0a1 1 0 112 0 1 1 0 01-2 0zm18 0a1 1 0 112 0 1 1 0 01-2 0zm18 0a1 1 0 112 0 1 1 0 01-2 0zm18 0a1 1 0 112 0 1 1 0 01-2 0zm18 0a1 1 0 112 0 1 1 0 01-2 0zm18 0a1 1 0 112 0 1 1 0 01-2 0zm18 0a1 1 0 112 0 1 1 0 01-2 0zm18 0a1 1 0 112 0 1 1 0 01-2 0zm18 0a1 1 0 112 0 1 1 0 01-2 0zm18 0a1 1 0 112 0 1 1 0 01-2 0zm18 0a1 1 0 112 0 1 1 0 01-2 0zm18 0a1 1 0 112 0 1 1 0 01-2 0zm18 0a1 1 0 112 0 1 1 0 01-2 0zm18 0a1 1 0 112 0 1 1 0 01-2 0zm18 0a1 1 0 112 0 1 1 0 01-2 0zm18 0a1 1 0 112 0 1 1 0 01-2 0zm18 0a1 1 0 112 0 1 1 0 01-2 0zm18 0a1 1 0 112 0 1 1 0 01-2 0zm18 0a1 1 0 112 0 1 1 0 01-2 0zm18 0a1 1 0 112 0 1 1 0 01-2 0zm18 0a1 1 0 112 0 1 1 0 01-2 0zm18 0a1 1 0 112 0 1 1 0 01-2 0zm18 0a1 1 0 112 0 1 1 0 01-2 0zm18 0a1 1 0 112 0 1 1 0 01-2 0zm18 0a1 1 0 112 0 1 1 0 01-2 0zm18 0a1 1 0 112 0 1 1 0 01-2 0zm18 0a1 1 0 112 0 1 1 0 01-2 0zm18 0a1 1 0 112 0 1 1 0 01-2 0zm18 0a1 1 0 112 0 1 1 0 01-2 0zm18 0a1 1 0 112 0 1 1 0 01-2 0zm18 0a1 1 0 112 0 1 1 0 01-2 0zm18 0a1 1 0 112 0 1 1 0 01-2 0zm18 0a1 1 0 112 0 1 1 0 01-2 0zm18 0a1 1 0 112 0 1 1 0 01-2 0zm18 0a1 1 0 112 0 1 1 0 01-2 0zm18 0a1 1 0 112 0 1 1 0 01-2 0zm18 0a1 1 0 112 0 1 1 0 01-2 0zm18 0a1 1 0 112 0 1 1 0 01-2 0zm18 0a1 1 0 112 0 1 1 0 01-2 0zm18 0c0-.552.45-1 1-1s1 .448 1 1-.45 1-1 1-1-.448-1-1zm18 0c0-.552.45-1 1-1s1 .448 1 1-.45 1-1 1-1-.448-1-1zm18 0c0-.552.45-1 1-1s1 .448 1 1-.45 1-1 1-1-.448-1-1zm18 0c0-.552.45-1 1-1s1 .448 1 1-.45 1-1 1-1-.448-1-1zm18 0c0-.552.45-1 1-1s1 .448 1 1-.45 1-1 1-1-.448-1-1zm18 0c0-.552.45-1 1-1s1 .448 1 1-.45 1-1 1-1-.448-1-1zm18 0c0-.552.45-1 1-1s1 .448 1 1-.45 1-1 1-1-.448-1-1zm18 0c0-.552.45-1 1-1s1 .448 1 1-.45 1-1 1-1-.448-1-1zm18 0c0-.552.45-1 1-1s1 .448 1 1-.45 1-1 1-1-.448-1-1zm18 0c0-.552.45-1 1-1s1 .448 1 1-.45 1-1 1-1-.448-1-1zm18 0c0-.552.45-1 1-1s1 .448 1 1-.45 1-1 1-1-.448-1-1zm18 0c0-.552.45-1 1-1s1 .448 1 1-.45 1-1 1-1-.448-1-1zm18 0c0-.552.45-1 1-1s1 .448 1 1-.45 1-1 1-1-.448-1-1zm18 0c0-.552.45-1 1-1s1 .448 1 1-.45 1-1 1-1-.448-1-1zm18 0c0-.552.45-1 1-1s1 .448 1 1-.45 1-1 1-1-.448-1-1zm18 0c0-.552.45-1 1-1s1 .448 1 1-.45 1-1 1-1-.448-1-1zm18 0c0-.552.45-1 1-1s1 .448 1 1-.45 1-1 1-1-.448-1-1zm18 0c0-.552.45-1 1-1s1 .448 1 1-.45 1-1 1-1-.448-1-1zm18 0c0-.552.45-1 1-1s1 .448 1 1-.45 1-1 1-1-.448-1-1zm18 0c0-.552.45-1 1-1s1 .448 1 1-.45 1-1 1-1-.448-1-1zm18 0c0-.552.45-1 1-1s1 .448 1 1-.45 1-1 1-1-.448-1-1zm18 0c0-.552.45-1 1-1s1 .448 1 1-.45 1-1 1-1-.448-1-1zm18 0c0-.552.45-1 1-1s1 .448 1 1-.45 1-1 1-1-.448-1-1zm18 0c0-.552.45-1 1-1s1 .448 1 1-.45 1-1 1-1-.448-1-1zm18 0c0-.552.45-1 1-1s1 .448 1 1-.45 1-1 1-1-.448-1-1zm18 0c0-.552.45-1 1-1s1 .448 1 1-.45 1-1 1-1-.448-1-1zm18 0c0-.552.45-1 1-1s1 .448 1 1-.45 1-1 1-1-.448-1-1zm18 0c0-.552.45-1 1-1s1 .448 1 1-.45 1-1 1-1-.448-1-1zm18 0c0-.552.45-1 1-1s1 .448 1 1-.45 1-1 1-1-.448-1-1zm18 0c0-.552.45-1 1-1s1 .448 1 1-.45 1-1 1-1-.448-1-1zm18 0c0-.552.45-1 1-1s1 .448 1 1-.45 1-1 1-1-.448-1-1zm18 0c0-.552.45-1 1-1s1 .448 1 1-.45 1-1 1-1-.448-1-1zm18 0c0-.552.45-1 1-1s1 .448 1 1-.45 1-1 1-1-.448-1-1zm18 0c0-.552.45-1 1-1s1 .448 1 1-.45 1-1 1-1-.448-1-1zm18 0c0-.552.45-1 1-1s1 .448 1 1-.45 1-1 1-1-.448-1-1zm18 0c0-.552.45-1 1-1s1 .448 1 1-.45 1-1 1-1-.448-1-1zm18 0c0-.552.45-1 1-1s1 .448 1 1-.45 1-1 1-1-.448-1-1zm18 0c0-.552.45-1 1-1s1 .448 1 1-.45 1-1 1-1-.448-1-1zm18 0c0-.552.45-1 1-1s1 .448 1 1-.45 1-1 1-1-.448-1-1zm18 0c0-.552.45-1 1-1s1 .448 1 1-.45 1-1 1-1-.448-1-1zm18 0c0-.552.45-1 1-1s1 .448 1 1-.45 1-1 1-1-.448-1-1zm18 0c0-.552.45-1 1-1s1 .448 1 1-.45 1-1 1-1-.448-1-1zm18 0c0-.552.45-1 1-1s1 .448 1 1-.45 1-1 1-1-.448-1-1zm18 0c0-.552.45-1 1-1s1 .448 1 1-.45 1-1 1-1-.448-1-1zm18 0c0-.552.45-1 1-1s1 .448 1 1-.45 1-1 1-1-.448-1-1zm18 0c0-.552.45-1 1-1s1 .448 1 1-.45 1-1 1-1-.448-1-1zm18 0c0-.552.45-1 1-1s1 .448 1 1-.45 1-1 1-1-.448-1-1zm18 0c0-.552.45-1 1-1s1 .448 1 1-.45 1-1 1-1-.448-1-1zm18 0c0-.552.45-1 1-1s1 .448 1 1-.45 1-1 1-1-.448-1-1zm18 0c0-.552.45-1 1-1s1 .448 1 1-.45 1-1 1-1-.448-1-1zm18 0c0-.552.45-1 1-1s1 .448 1 1-.45 1-1 1-1-.448-1-1zm18 0c0-.552.45-1 1-1s1 .448 1 1-.45 1-1 1-1-.448-1-1zm18 0c0-.552.45-1 1-1s1 .448 1 1-.45 1-1 1-1-.448-1-1zM-10 325a1 1 0 112 0 1 1 0 01-2 0zm18 0a1 1 0 112 0 1 1 0 01-2 0zm18 0a1 1 0 112 0 1 1 0 01-2 0zm18 0a1 1 0 112 0 1 1 0 01-2 0zm18 0a1 1 0 112 0 1 1 0 01-2 0zm18 0a1 1 0 112 0 1 1 0 01-2 0zm18 0a1 1 0 112 0 1 1 0 01-2 0zm18 0a1 1 0 112 0 1 1 0 01-2 0zm18 0a1 1 0 112 0 1 1 0 01-2 0zm18 0a1 1 0 112 0 1 1 0 01-2 0zm18 0a1 1 0 112 0 1 1 0 01-2 0zm18 0a1 1 0 112 0 1 1 0 01-2 0zm18 0a1 1 0 112 0 1 1 0 01-2 0zm18 0a1 1 0 112 0 1 1 0 01-2 0zm18 0a1 1 0 112 0 1 1 0 01-2 0zm18 0a1 1 0 112 0 1 1 0 01-2 0zm18 0a1 1 0 112 0 1 1 0 01-2 0zm18 0a1 1 0 112 0 1 1 0 01-2 0zm18 0a1 1 0 112 0 1 1 0 01-2 0zm18 0a1 1 0 112 0 1 1 0 01-2 0zm18 0a1 1 0 112 0 1 1 0 01-2 0zm18 0a1 1 0 112 0 1 1 0 01-2 0zm18 0a1 1 0 112 0 1 1 0 01-2 0zm18 0a1 1 0 112 0 1 1 0 01-2 0zm18 0a1 1 0 112 0 1 1 0 01-2 0zm18 0a1 1 0 112 0 1 1 0 01-2 0zm18 0a1 1 0 112 0 1 1 0 01-2 0zm18 0a1 1 0 112 0 1 1 0 01-2 0zm18 0a1 1 0 112 0 1 1 0 01-2 0zm18 0a1 1 0 112 0 1 1 0 01-2 0zm18 0a1 1 0 112 0 1 1 0 01-2 0zm18 0a1 1 0 112 0 1 1 0 01-2 0zm18 0a1 1 0 112 0 1 1 0 01-2 0zm18 0a1 1 0 112 0 1 1 0 01-2 0zm18 0a1 1 0 112 0 1 1 0 01-2 0zm18 0a1 1 0 112 0 1 1 0 01-2 0zm18 0a1 1 0 112 0 1 1 0 01-2 0zm18 0a1 1 0 112 0 1 1 0 01-2 0zm18 0a1 1 0 112 0 1 1 0 01-2 0zm18 0a1 1 0 112 0 1 1 0 01-2 0zm18 0a1 1 0 112 0 1 1 0 01-2 0zm18 0a1 1 0 112 0 1 1 0 01-2 0zm18 0a1 1 0 112 0 1 1 0 01-2 0zm18 0a1 1 0 112 0 1 1 0 01-2 0zm18 0a1 1 0 112 0 1 1 0 01-2 0zm18 0a1 1 0 112 0 1 1 0 01-2 0zm18 0a1 1 0 112 0 1 1 0 01-2 0zm18 0a1 1 0 112 0 1 1 0 01-2 0zm18 0a1 1 0 112 0 1 1 0 01-2 0zm18 0a1 1 0 112 0 1 1 0 01-2 0zm18 0a1 1 0 112 0 1 1 0 01-2 0zm18 0a1 1 0 112 0 1 1 0 01-2 0zm18 0a1 1 0 112 0 1 1 0 01-2 0zm18 0a1 1 0 112 0 1 1 0 01-2 0zm18 0a1 1 0 112 0 1 1 0 01-2 0zm18 0a1 1 0 112 0 1 1 0 01-2 0zm18 0a1 1 0 112 0 1 1 0 01-2 0zm18 0c0-.552.45-1 1-1s1 .448 1 1-.45 1-1 1-1-.448-1-1zm18 0c0-.552.45-1 1-1s1 .448 1 1-.45 1-1 1-1-.448-1-1zm18 0c0-.552.45-1 1-1s1 .448 1 1-.45 1-1 1-1-.448-1-1zm18 0c0-.552.45-1 1-1s1 .448 1 1-.45 1-1 1-1-.448-1-1zm18 0c0-.552.45-1 1-1s1 .448 1 1-.45 1-1 1-1-.448-1-1zm18 0c0-.552.45-1 1-1s1 .448 1 1-.45 1-1 1-1-.448-1-1zm18 0c0-.552.45-1 1-1s1 .448 1 1-.45 1-1 1-1-.448-1-1zm18 0c0-.552.45-1 1-1s1 .448 1 1-.45 1-1 1-1-.448-1-1zm18 0c0-.552.45-1 1-1s1 .448 1 1-.45 1-1 1-1-.448-1-1zm18 0c0-.552.45-1 1-1s1 .448 1 1-.45 1-1 1-1-.448-1-1zm18 0c0-.552.45-1 1-1s1 .448 1 1-.45 1-1 1-1-.448-1-1zm18 0c0-.552.45-1 1-1s1 .448 1 1-.45 1-1 1-1-.448-1-1zm18 0c0-.552.45-1 1-1s1 .448 1 1-.45 1-1 1-1-.448-1-1zm18 0c0-.552.45-1 1-1s1 .448 1 1-.45 1-1 1-1-.448-1-1zm18 0c0-.552.45-1 1-1s1 .448 1 1-.45 1-1 1-1-.448-1-1zm18 0c0-.552.45-1 1-1s1 .448 1 1-.45 1-1 1-1-.448-1-1zm18 0c0-.552.45-1 1-1s1 .448 1 1-.45 1-1 1-1-.448-1-1zm18 0c0-.552.45-1 1-1s1 .448 1 1-.45 1-1 1-1-.448-1-1zm18 0c0-.552.45-1 1-1s1 .448 1 1-.45 1-1 1-1-.448-1-1zm18 0c0-.552.45-1 1-1s1 .448 1 1-.45 1-1 1-1-.448-1-1zm18 0c0-.552.45-1 1-1s1 .448 1 1-.45 1-1 1-1-.448-1-1zm18 0c0-.552.45-1 1-1s1 .448 1 1-.45 1-1 1-1-.448-1-1zm18 0c0-.552.45-1 1-1s1 .448 1 1-.45 1-1 1-1-.448-1-1zm18 0c0-.552.45-1 1-1s1 .448 1 1-.45 1-1 1-1-.448-1-1zm18 0c0-.552.45-1 1-1s1 .448 1 1-.45 1-1 1-1-.448-1-1zm18 0c0-.552.45-1 1-1s1 .448 1 1-.45 1-1 1-1-.448-1-1zm18 0c0-.552.45-1 1-1s1 .448 1 1-.45 1-1 1-1-.448-1-1zm18 0c0-.552.45-1 1-1s1 .448 1 1-.45 1-1 1-1-.448-1-1zm18 0c0-.552.45-1 1-1s1 .448 1 1-.45 1-1 1-1-.448-1-1zm18 0c0-.552.45-1 1-1s1 .448 1 1-.45 1-1 1-1-.448-1-1zm18 0c0-.552.45-1 1-1s1 .448 1 1-.45 1-1 1-1-.448-1-1zm18 0c0-.552.45-1 1-1s1 .448 1 1-.45 1-1 1-1-.448-1-1zm18 0c0-.552.45-1 1-1s1 .448 1 1-.45 1-1 1-1-.448-1-1zm18 0c0-.552.45-1 1-1s1 .448 1 1-.45 1-1 1-1-.448-1-1zm18 0c0-.552.45-1 1-1s1 .448 1 1-.45 1-1 1-1-.448-1-1zm18 0c0-.552.45-1 1-1s1 .448 1 1-.45 1-1 1-1-.448-1-1zm18 0c0-.552.45-1 1-1s1 .448 1 1-.45 1-1 1-1-.448-1-1zm18 0c0-.552.45-1 1-1s1 .448 1 1-.45 1-1 1-1-.448-1-1zm18 0c0-.552.45-1 1-1s1 .448 1 1-.45 1-1 1-1-.448-1-1zm18 0c0-.552.45-1 1-1s1 .448 1 1-.45 1-1 1-1-.448-1-1zm18 0c0-.552.45-1 1-1s1 .448 1 1-.45 1-1 1-1-.448-1-1zm18 0c0-.552.45-1 1-1s1 .448 1 1-.45 1-1 1-1-.448-1-1zm18 0c0-.552.45-1 1-1s1 .448 1 1-.45 1-1 1-1-.448-1-1zm18 0c0-.552.45-1 1-1s1 .448 1 1-.45 1-1 1-1-.448-1-1zm18 0c0-.552.45-1 1-1s1 .448 1 1-.45 1-1 1-1-.448-1-1zm18 0c0-.552.45-1 1-1s1 .448 1 1-.45 1-1 1-1-.448-1-1zm18 0c0-.552.45-1 1-1s1 .448 1 1-.45 1-1 1-1-.448-1-1zm18 0c0-.552.45-1 1-1s1 .448 1 1-.45 1-1 1-1-.448-1-1zm18 0c0-.552.45-1 1-1s1 .448 1 1-.45 1-1 1-1-.448-1-1zm18 0c0-.552.45-1 1-1s1 .448 1 1-.45 1-1 1-1-.448-1-1zm18 0c0-.552.45-1 1-1s1 .448 1 1-.45 1-1 1-1-.448-1-1zm18 0c0-.552.45-1 1-1s1 .448 1 1-.45 1-1 1-1-.448-1-1zm18 0c0-.552.45-1 1-1s1 .448 1 1-.45 1-1 1-1-.448-1-1zM-10 343a1 1 0 112 0 1 1 0 01-2 0zm18 0a1 1 0 112 0 1 1 0 01-2 0zm18 0a1 1 0 112 0 1 1 0 01-2 0zm18 0a1 1 0 112 0 1 1 0 01-2 0zm18 0a1 1 0 112 0 1 1 0 01-2 0zm18 0a1 1 0 112 0 1 1 0 01-2 0zm18 0a1 1 0 112 0 1 1 0 01-2 0zm18 0a1 1 0 112 0 1 1 0 01-2 0zm18 0a1 1 0 112 0 1 1 0 01-2 0zm18 0a1 1 0 112 0 1 1 0 01-2 0zm18 0a1 1 0 112 0 1 1 0 01-2 0zm18 0a1 1 0 112 0 1 1 0 01-2 0zm18 0a1 1 0 112 0 1 1 0 01-2 0zm18 0a1 1 0 112 0 1 1 0 01-2 0zm18 0a1 1 0 112 0 1 1 0 01-2 0zm18 0a1 1 0 112 0 1 1 0 01-2 0zm18 0a1 1 0 112 0 1 1 0 01-2 0zm18 0a1 1 0 112 0 1 1 0 01-2 0zm18 0a1 1 0 112 0 1 1 0 01-2 0zm18 0a1 1 0 112 0 1 1 0 01-2 0zm18 0a1 1 0 112 0 1 1 0 01-2 0zm18 0a1 1 0 112 0 1 1 0 01-2 0zm18 0a1 1 0 112 0 1 1 0 01-2 0zm18 0a1 1 0 112 0 1 1 0 01-2 0zm18 0a1 1 0 112 0 1 1 0 01-2 0zm18 0a1 1 0 112 0 1 1 0 01-2 0zm18 0a1 1 0 112 0 1 1 0 01-2 0zm18 0a1 1 0 112 0 1 1 0 01-2 0zm18 0a1 1 0 112 0 1 1 0 01-2 0zm18 0a1 1 0 112 0 1 1 0 01-2 0zm18 0a1 1 0 112 0 1 1 0 01-2 0zm18 0a1 1 0 112 0 1 1 0 01-2 0zm18 0a1 1 0 112 0 1 1 0 01-2 0zm18 0a1 1 0 112 0 1 1 0 01-2 0zm18 0a1 1 0 112 0 1 1 0 01-2 0zm18 0a1 1 0 112 0 1 1 0 01-2 0zm18 0a1 1 0 112 0 1 1 0 01-2 0zm18 0a1 1 0 112 0 1 1 0 01-2 0zm18 0a1 1 0 112 0 1 1 0 01-2 0zm18 0a1 1 0 112 0 1 1 0 01-2 0zm18 0a1 1 0 112 0 1 1 0 01-2 0zm18 0a1 1 0 112 0 1 1 0 01-2 0zm18 0a1 1 0 112 0 1 1 0 01-2 0zm18 0a1 1 0 112 0 1 1 0 01-2 0zm18 0a1 1 0 112 0 1 1 0 01-2 0zm18 0a1 1 0 112 0 1 1 0 01-2 0zm18 0a1 1 0 112 0 1 1 0 01-2 0zm18 0a1 1 0 112 0 1 1 0 01-2 0zm18 0a1 1 0 112 0 1 1 0 01-2 0zm18 0a1 1 0 112 0 1 1 0 01-2 0zm18 0a1 1 0 112 0 1 1 0 01-2 0zm18 0a1 1 0 112 0 1 1 0 01-2 0zm18 0a1 1 0 112 0 1 1 0 01-2 0zm18 0a1 1 0 112 0 1 1 0 01-2 0zm18 0a1 1 0 112 0 1 1 0 01-2 0zm18 0a1 1 0 112 0 1 1 0 01-2 0zm18 0a1 1 0 112 0 1 1 0 01-2 0zm18 0c0-.552.45-1 1-1s1 .448 1 1-.45 1-1 1-1-.448-1-1zm18 0c0-.552.45-1 1-1s1 .448 1 1-.45 1-1 1-1-.448-1-1zm18 0c0-.552.45-1 1-1s1 .448 1 1-.45 1-1 1-1-.448-1-1zm18 0c0-.552.45-1 1-1s1 .448 1 1-.45 1-1 1-1-.448-1-1zm18 0c0-.552.45-1 1-1s1 .448 1 1-.45 1-1 1-1-.448-1-1zm18 0c0-.552.45-1 1-1s1 .448 1 1-.45 1-1 1-1-.448-1-1zm18 0c0-.552.45-1 1-1s1 .448 1 1-.45 1-1 1-1-.448-1-1zm18 0c0-.552.45-1 1-1s1 .448 1 1-.45 1-1 1-1-.448-1-1zm18 0c0-.552.45-1 1-1s1 .448 1 1-.45 1-1 1-1-.448-1-1zm18 0c0-.552.45-1 1-1s1 .448 1 1-.45 1-1 1-1-.448-1-1zm18 0c0-.552.45-1 1-1s1 .448 1 1-.45 1-1 1-1-.448-1-1zm18 0c0-.552.45-1 1-1s1 .448 1 1-.45 1-1 1-1-.448-1-1zm18 0c0-.552.45-1 1-1s1 .448 1 1-.45 1-1 1-1-.448-1-1zm18 0c0-.552.45-1 1-1s1 .448 1 1-.45 1-1 1-1-.448-1-1zm18 0c0-.552.45-1 1-1s1 .448 1 1-.45 1-1 1-1-.448-1-1zm18 0c0-.552.45-1 1-1s1 .448 1 1-.45 1-1 1-1-.448-1-1zm18 0c0-.552.45-1 1-1s1 .448 1 1-.45 1-1 1-1-.448-1-1zm18 0c0-.552.45-1 1-1s1 .448 1 1-.45 1-1 1-1-.448-1-1zm18 0c0-.552.45-1 1-1s1 .448 1 1-.45 1-1 1-1-.448-1-1zm18 0c0-.552.45-1 1-1s1 .448 1 1-.45 1-1 1-1-.448-1-1zm18 0c0-.552.45-1 1-1s1 .448 1 1-.45 1-1 1-1-.448-1-1zm18 0c0-.552.45-1 1-1s1 .448 1 1-.45 1-1 1-1-.448-1-1zm18 0c0-.552.45-1 1-1s1 .448 1 1-.45 1-1 1-1-.448-1-1zm18 0c0-.552.45-1 1-1s1 .448 1 1-.45 1-1 1-1-.448-1-1zm18 0c0-.552.45-1 1-1s1 .448 1 1-.45 1-1 1-1-.448-1-1zm18 0c0-.552.45-1 1-1s1 .448 1 1-.45 1-1 1-1-.448-1-1zm18 0c0-.552.45-1 1-1s1 .448 1 1-.45 1-1 1-1-.448-1-1zm18 0c0-.552.45-1 1-1s1 .448 1 1-.45 1-1 1-1-.448-1-1zm18 0c0-.552.45-1 1-1s1 .448 1 1-.45 1-1 1-1-.448-1-1zm18 0c0-.552.45-1 1-1s1 .448 1 1-.45 1-1 1-1-.448-1-1zm18 0c0-.552.45-1 1-1s1 .448 1 1-.45 1-1 1-1-.448-1-1zm18 0c0-.552.45-1 1-1s1 .448 1 1-.45 1-1 1-1-.448-1-1zm18 0c0-.552.45-1 1-1s1 .448 1 1-.45 1-1 1-1-.448-1-1zm18 0c0-.552.45-1 1-1s1 .448 1 1-.45 1-1 1-1-.448-1-1zm18 0c0-.552.45-1 1-1s1 .448 1 1-.45 1-1 1-1-.448-1-1zm18 0c0-.552.45-1 1-1s1 .448 1 1-.45 1-1 1-1-.448-1-1zm18 0c0-.552.45-1 1-1s1 .448 1 1-.45 1-1 1-1-.448-1-1zm18 0c0-.552.45-1 1-1s1 .448 1 1-.45 1-1 1-1-.448-1-1zm18 0c0-.552.45-1 1-1s1 .448 1 1-.45 1-1 1-1-.448-1-1zm18 0c0-.552.45-1 1-1s1 .448 1 1-.45 1-1 1-1-.448-1-1zm18 0c0-.552.45-1 1-1s1 .448 1 1-.45 1-1 1-1-.448-1-1zm18 0c0-.552.45-1 1-1s1 .448 1 1-.45 1-1 1-1-.448-1-1zm18 0c0-.552.45-1 1-1s1 .448 1 1-.45 1-1 1-1-.448-1-1zm18 0c0-.552.45-1 1-1s1 .448 1 1-.45 1-1 1-1-.448-1-1zm18 0c0-.552.45-1 1-1s1 .448 1 1-.45 1-1 1-1-.448-1-1zm18 0c0-.552.45-1 1-1s1 .448 1 1-.45 1-1 1-1-.448-1-1zm18 0c0-.552.45-1 1-1s1 .448 1 1-.45 1-1 1-1-.448-1-1zm18 0c0-.552.45-1 1-1s1 .448 1 1-.45 1-1 1-1-.448-1-1zm18 0c0-.552.45-1 1-1s1 .448 1 1-.45 1-1 1-1-.448-1-1zm18 0c0-.552.45-1 1-1s1 .448 1 1-.45 1-1 1-1-.448-1-1zm18 0c0-.552.45-1 1-1s1 .448 1 1-.45 1-1 1-1-.448-1-1zm18 0c0-.552.45-1 1-1s1 .448 1 1-.45 1-1 1-1-.448-1-1zm18 0c0-.552.45-1 1-1s1 .448 1 1-.45 1-1 1-1-.448-1-1z"/></g><defs><clipPath id="clip0"><path fill="#fff" d="M0 0h1944v344H0z"/></clipPath></defs></svg>