<svg width="1272" height="351" fill="none" xmlns="http://www.w3.org/2000/svg"><mask id="a" maskUnits="userSpaceOnUse" x="0" y="10" width="1272" height="341"><path fill="#C4C4C4" d="M0 10h1272v341H0z"/></mask><g mask="url(#a)"><circle cx="636" cy="717" r="635.5" stroke="#fff"/></g><circle cx="636" cy="82" r="81.5" fill="#2971F0" stroke="#fff"/><circle cx="878" cy="131" r="81.5" fill="#2971F0" stroke="#fff"/><circle cx="394" cy="131" r="81.5" fill="#2971F0" stroke="#fff"/><circle cx="205" cy="252" r="81.5" fill="#2971F0" stroke="#fff"/><circle cx="1067" cy="252" r="81.5" fill="#2971F0" stroke="#fff"/><path d="M554.72 264.48c4.608 0 8.16-2.88 8.16-8.224v-14.944h-3.136v14.848c0 3.456-1.824 5.408-5.024 5.408-3.168 0-5.056-1.952-5.056-5.408v-14.848h-3.104v14.944c0 5.344 3.552 8.224 8.16 8.224zm14.558-5.44l-2.72.96c.256 1.76 2.048 4.48 6.272 4.48 3.808 0 5.632-2.592 5.632-4.768 0-2.272-1.472-3.968-4.256-4.576l-2.496-.544c-1.184-.256-1.76-.928-1.76-1.856 0-1.056 1.024-2.048 2.56-2.048 2.432 0 3.072 1.76 3.2 2.56l2.656-.992c-.32-1.376-1.632-4.128-5.856-4.128-3.008 0-5.472 2.24-5.472 4.864 0 2.176 1.44 3.808 3.84 4.32l2.624.576c1.28.288 1.984 1.024 1.984 1.984 0 1.088-.928 2.048-2.624 2.048-2.176 0-3.392-1.28-3.584-2.88zm26.44.576l-2.592-.896c-.576 1.728-1.824 3.104-4.32 3.104-2.592 0-4.576-1.92-4.64-4.672h11.584c.032-.192.064-.576.064-.96 0-4.8-2.656-8.064-7.392-8.064-3.872 0-7.36 3.296-7.36 8.128 0 5.216 3.616 8.224 7.744 8.224 3.584 0 6.048-2.144 6.912-4.864zm-3.04-4.896h-8.416c.128-1.984 1.664-3.936 4.192-3.936 2.72 0 4.16 1.728 4.224 3.936zm15.52-3.072v-3.2a5.66 5.66 0 00-.992-.096c-1.568 0-3.488.576-4.608 2.944v-2.688h-2.944V264h3.008v-7.712c0-3.392 1.696-4.736 4.224-4.736.416 0 .864.032 1.312.096zm4.486 7.392l-2.72.96c.256 1.76 2.048 4.48 6.272 4.48 3.808 0 5.632-2.592 5.632-4.768 0-2.272-1.472-3.968-4.256-4.576l-2.496-.544c-1.184-.256-1.76-.928-1.76-1.856 0-1.056 1.024-2.048 2.56-2.048 2.432 0 3.072 1.76 3.2 2.56l2.656-.992c-.32-1.376-1.632-4.128-5.856-4.128-3.008 0-5.472 2.24-5.472 4.864 0 2.176 1.44 3.808 3.84 4.32l2.624.576c1.28.288 1.984 1.024 1.984 1.984 0 1.088-.928 2.048-2.624 2.048-2.176 0-3.392-1.28-3.584-2.88zm10.159-16.032c0 1.28.896 2.048 2.016 2.048.32 0 .544-.096.64-.16-.032 1.44-1.024 2.912-2.464 3.232v1.536c1.856-.224 4.416-1.856 4.416-5.824 0-1.856-1.152-2.816-2.432-2.816-1.248 0-2.176.928-2.176 1.984zm24.916 1.216h7.584v-2.912h-18.304v2.912h7.584V264h3.136v-19.776zm6.779 15.648c0 2.432 2.016 4.608 5.152 4.608 2.752 0 4.288-1.472 4.96-2.56 0 1.12.096 1.696.16 2.08h2.944c-.064-.384-.192-1.184-.192-2.528v-7.712c0-3.008-1.792-5.632-6.401-5.632-3.327 0-5.983 2.048-6.303 4.992l2.88.672c.192-1.792 1.376-3.104 3.488-3.104 2.336 0 3.328 1.248 3.328 2.752 0 .544-.256 1.024-1.184 1.152l-4.16.608c-2.656.384-4.672 1.92-4.672 4.672zm5.568 2.08c-1.536 0-2.496-1.088-2.496-2.24 0-1.376.96-2.112 2.24-2.304l4.704-.704v.704c0 3.36-1.984 4.544-4.448 4.544zm20.686-10.304v-3.2a5.66 5.66 0 00-.992-.096c-1.568 0-3.488.576-4.608 2.944v-2.688h-2.944V264h3.008v-7.712c0-3.392 1.696-4.736 4.224-4.736.416 0 .864.032 1.312.096zm4.841 12.512l-2.912.672c.384 3.296 3.264 5.728 7.104 5.728 5.792 0 7.712-3.808 7.712-7.712v-14.24h-2.976v2.144c-.768-1.536-2.368-2.432-4.736-2.432-4.224 0-7.072 3.328-7.072 7.488 0 4.352 2.976 7.456 7.072 7.456 2.304 0 3.968-1.12 4.704-2.528v2.208c0 3.328-1.472 4.992-4.704 4.992-2.336 0-3.968-1.632-4.192-3.776zm4.64-3.424c-2.72 0-4.448-1.92-4.448-4.928 0-2.976 1.792-4.928 4.448-4.928 2.592 0 4.384 1.952 4.384 4.928s-1.792 4.928-4.384 4.928zm25.476-1.12l-2.592-.896c-.576 1.728-1.824 3.104-4.32 3.104-2.592 0-4.576-1.92-4.64-4.672h11.584c.032-.192.064-.576.064-.96 0-4.8-2.656-8.064-7.392-8.064-3.872 0-7.36 3.296-7.36 8.128 0 5.216 3.616 8.224 7.744 8.224 3.584 0 6.048-2.144 6.912-4.864zm-3.04-4.896h-8.416c.128-1.984 1.664-3.936 4.192-3.936 2.72 0 4.16 1.728 4.224 3.936zm11.008-6.112v-4.864h-2.752v2.496c0 1.344-.704 2.368-2.368 2.368h-.832v2.72h2.944v8.448c0 2.784 1.664 4.384 4.288 4.384 1.024 0 1.792-.192 2.048-.288v-2.56c-.256.064-.8.128-1.184.128-1.568 0-2.144-.704-2.144-2.112v-8h3.328v-2.72h-3.328zM577.76 84.2h3.2c2.62 0 4.38-1.78 4.38-4.18 0-2.38-1.76-4.2-4.38-4.2h-5.16V90h1.96v-5.8zm2.84-1.76h-2.84v-4.86h2.84c1.7 0 2.74.96 2.74 2.46 0 1.46-1.04 2.4-2.74 2.4zm11.981-.16v-2c-.1-.02-.36-.06-.62-.06-.98 0-2.18.36-2.88 1.84v-1.68h-1.84V90h1.88v-4.82c0-2.12 1.06-2.96 2.64-2.96.26 0 .54.02.82.06zm6.026-2.2c-2.88 0-4.92 2.18-4.92 5.1 0 2.94 2.04 5.12 4.92 5.12s4.92-2.18 4.92-5.12c0-2.92-2.04-5.1-4.92-5.1zm0 8.54c-1.6 0-3-1.2-3-3.44 0-2.22 1.4-3.42 3-3.42s3 1.2 3 3.42c0 2.24-1.4 3.44-3 3.44zm9.205 1.38v-5.56c0-1.46.76-2.64 2.24-2.64 1.68 0 2.24 1.08 2.24 2.42V90h1.88v-6.1c0-2.14-1.14-3.8-3.44-3.8-1.12 0-2.26.46-2.96 1.66v-1.38h-1.84V90h1.88zm15.495-1.16c0 .4.04.94.08 1.16h1.8c-.04-.34-.1-1.02-.1-1.78v-7.84h-1.88v5.8c0 1.46-.76 2.46-2.28 2.46-1.58 0-2.18-1.16-2.18-2.48v-5.78h-1.88v6.06c0 2.18 1.36 3.86 3.6 3.86 1.12 0 2.32-.46 2.84-1.46zm6.868 1.16v-5.56c0-1.46.76-2.64 2.24-2.64 1.68 0 2.24 1.08 2.24 2.42V90h1.88v-6.1c0-2.14-1.14-3.8-3.44-3.8-1.12 0-2.26.46-2.96 1.66v-1.38h-1.84V90h1.88zm13.391-8.18c1.64 0 2.34 1.1 2.58 2.04l1.7-.72c-.4-1.46-1.72-3.06-4.28-3.06-2.74 0-4.84 2.1-4.84 5.1 0 2.92 2.06 5.12 4.86 5.12 2.5 0 3.88-1.62 4.34-3l-1.66-.72c-.22.76-.88 1.98-2.68 1.98-1.56 0-2.94-1.18-2.94-3.38 0-2.24 1.4-3.36 2.92-3.36zm6.145-5.08c0 .74.6 1.34 1.34 1.34.76 0 1.36-.6 1.36-1.34 0-.76-.6-1.36-1.36-1.36-.74 0-1.34.6-1.34 1.36zm.42 13.26h1.86v-9.62h-1.86V90zm4.459-2.58c0 1.52 1.26 2.88 3.22 2.88 1.72 0 2.68-.92 3.1-1.6 0 .7.06 1.06.1 1.3h1.84c-.04-.24-.12-.74-.12-1.58V83.6c0-1.88-1.12-3.52-4-3.52-2.08 0-3.74 1.28-3.94 3.12l1.8.42c.12-1.12.86-1.94 2.18-1.94 1.46 0 2.08.78 2.08 1.72 0 .34-.16.64-.74.72l-2.6.38c-1.66.24-2.92 1.2-2.92 2.92zm3.48 1.3c-.96 0-1.56-.68-1.56-1.4 0-.86.6-1.32 1.4-1.44l2.94-.44v.44c0 2.1-1.24 2.84-2.78 2.84zm10.109-8.34v-3.04h-1.72v1.56c0 .84-.44 1.48-1.48 1.48h-.52v1.7h1.84v5.28c0 1.74 1.04 2.74 2.68 2.74.64 0 1.12-.12 1.28-.18v-1.6c-.16.04-.5.08-.74.08-.98 0-1.34-.44-1.34-1.32v-5h2.08v-1.7h-2.08zm4.169-3.64c0 .74.6 1.34 1.34 1.34.76 0 1.36-.6 1.36-1.34 0-.76-.6-1.36-1.36-1.36-.74 0-1.34.6-1.34 1.36zm.42 13.26h1.86v-9.62h-1.86V90zm9.179-9.92c-2.88 0-4.92 2.18-4.92 5.1 0 2.94 2.04 5.12 4.92 5.12s4.92-2.18 4.92-5.12c0-2.92-2.04-5.1-4.92-5.1zm0 8.54c-1.6 0-3-1.2-3-3.44 0-2.22 1.4-3.42 3-3.42s3 1.2 3 3.42c0 2.24-1.4 3.44-3 3.44zm9.205 1.38v-5.56c0-1.46.76-2.64 2.24-2.64 1.68 0 2.24 1.08 2.24 2.42V90h1.88v-6.1c0-2.14-1.14-3.8-3.44-3.8-1.12 0-2.26.46-2.96 1.66v-1.38h-1.84V90h1.88zm147.123 34.82l-4.32 11.66-4.28-11.66h-2.08l5.34 14.18h1.94l5.46-14.18h-2.06zm6.89 4.26c-2.88 0-4.92 2.18-4.92 5.1 0 2.94 2.04 5.12 4.92 5.12s4.92-2.18 4.92-5.12c0-2.92-2.04-5.1-4.92-5.1zm0 8.54c-1.6 0-3-1.2-3-3.44 0-2.22 1.4-3.42 3-3.42s3 1.2 3 3.42c0 2.24-1.4 3.44-3 3.44zm11.366-6.8c1.64 0 2.34 1.1 2.58 2.04l1.7-.72c-.4-1.46-1.72-3.06-4.28-3.06-2.74 0-4.84 2.1-4.84 5.1 0 2.92 2.06 5.12 4.86 5.12 2.5 0 3.88-1.62 4.34-3l-1.66-.72c-.22.76-.88 1.98-2.68 1.98-1.56 0-2.94-1.18-2.94-3.38 0-2.24 1.4-3.36 2.92-3.36zm5.867 5.6c0 1.52 1.26 2.88 3.22 2.88 1.72 0 2.68-.92 3.1-1.6 0 .7.06 1.06.1 1.3h1.84c-.04-.24-.12-.74-.12-1.58v-4.82c0-1.88-1.12-3.52-4-3.52-2.08 0-3.74 1.28-3.94 3.12l1.8.42c.12-1.12.86-1.94 2.18-1.94 1.46 0 2.08.78 2.08 1.72 0 .34-.16.64-.74.72l-2.6.38c-1.66.24-2.92 1.2-2.92 2.92zm3.48 1.3c-.96 0-1.56-.68-1.56-1.4 0-.86.6-1.32 1.4-1.44l2.94-.44v.44c0 2.1-1.24 2.84-2.78 2.84zm7.589 1.28h1.86v-1.4c.6 1.04 1.7 1.66 3.12 1.66 2.86 0 4.48-2.26 4.48-5.12 0-2.8-1.5-5.04-4.42-5.04-1.6 0-2.72.78-3.18 1.64v-6.22h-1.86V139zm7.54-4.86c0 2.08-1.12 3.44-2.84 3.44-1.66 0-2.86-1.36-2.86-3.44s1.2-3.38 2.86-3.38c1.74 0 2.84 1.3 2.84 3.38zm10.558 3.7c0 .4.04.94.08 1.16h1.8c-.04-.34-.1-1.02-.1-1.78v-7.84h-1.88v5.8c0 1.46-.76 2.46-2.28 2.46-1.58 0-2.18-1.16-2.18-2.48v-5.78h-1.88v6.06c0 2.18 1.36 3.86 3.6 3.86 1.12 0 2.32-.46 2.84-1.46zm4.988 1.16h1.88v-14.48h-1.88V139zm4.478-2.58c0 1.52 1.26 2.88 3.22 2.88 1.72 0 2.68-.92 3.1-1.6 0 .7.06 1.06.1 1.3h1.84c-.04-.24-.12-.74-.12-1.58v-4.82c0-1.88-1.12-3.52-4-3.52-2.08 0-3.74 1.28-3.94 3.12l1.8.42c.12-1.12.86-1.94 2.18-1.94 1.46 0 2.08.78 2.08 1.72 0 .34-.16.64-.74.72l-2.6.38c-1.66.24-2.92 1.2-2.92 2.92zm3.48 1.3c-.96 0-1.56-.68-1.56-1.4 0-.86.6-1.32 1.4-1.44l2.94-.44v.44c0 2.1-1.24 2.84-2.78 2.84zm12.929-6.44v-2c-.1-.02-.36-.06-.62-.06-.98 0-2.18.36-2.88 1.84v-1.68h-1.84V139h1.88v-4.82c0-2.12 1.06-2.96 2.64-2.96.26 0 .54.02.82.06zm2.637 11.74h2.06l6.26-13.64h-2.02l-2.88 6.64-3-6.64h-2.16l4.14 8.56-2.4 5.08zm-563.706-14.36l1.76-.62c-.32-1.54-1.6-3.52-4.8-3.52-2.62 0-4.68 2-4.68 4.22 0 2.12 1.44 3.44 3.46 3.88l2.02.44c1.42.3 2.12 1.18 2.12 2.2 0 1.24-.96 2.26-2.92 2.26-2.14 0-3.26-1.46-3.4-3.04l-1.88.6c.26 2.02 1.88 4.22 5.3 4.22 3.02 0 4.9-2 4.9-4.2 0-1.98-1.32-3.46-3.68-3.98l-2.12-.46c-1.2-.26-1.82-1.04-1.82-2.06 0-1.32 1.14-2.36 2.74-2.36 1.98 0 2.84 1.4 3 2.42zm6.7.72v-3.04h-1.72v1.56c0 .84-.44 1.48-1.48 1.48h-.52v1.7h1.84v5.28c0 1.74 1.04 2.74 2.68 2.74.64 0 1.12-.12 1.28-.18v-1.6c-.16.04-.5.08-.74.08-.98 0-1.34-.44-1.34-1.32v-5h2.08v-1.7h-2.08zm9.734 1.9v-2c-.1-.02-.36-.06-.62-.06-.98 0-2.18.36-2.88 1.84v-1.68h-1.84V139h1.88v-4.82c0-2.12 1.06-2.96 2.64-2.96.26 0 .54.02.82.06zm8.442 6.56c0 .4.04.94.08 1.16h1.8c-.04-.34-.1-1.02-.1-1.78v-7.84h-1.88v5.8c0 1.46-.76 2.46-2.28 2.46-1.58 0-2.18-1.16-2.18-2.48v-5.78h-1.88v6.06c0 2.18 1.36 3.86 3.6 3.86 1.12 0 2.32-.46 2.84-1.46zm8.93-7.02c1.64 0 2.34 1.1 2.58 2.04l1.7-.72c-.4-1.46-1.72-3.06-4.28-3.06-2.74 0-4.84 2.1-4.84 5.1 0 2.92 2.06 5.12 4.86 5.12 2.5 0 3.88-1.62 4.34-3l-1.66-.72c-.22.76-.88 1.98-2.68 1.98-1.56 0-2.94-1.18-2.94-3.38 0-2.24 1.4-3.36 2.92-3.36zm9.086-1.44v-3.04h-1.72v1.56c0 .84-.44 1.48-1.48 1.48h-.52v1.7h1.84v5.28c0 1.74 1.04 2.74 2.68 2.74.64 0 1.12-.12 1.28-.18v-1.6c-.16.04-.5.08-.74.08-.98 0-1.34-.44-1.34-1.32v-5h2.08v-1.7h-2.08zm10.929 8.46c0 .4.04.94.08 1.16h1.8c-.04-.34-.1-1.02-.1-1.78v-7.84h-1.88v5.8c0 1.46-.76 2.46-2.28 2.46-1.58 0-2.18-1.16-2.18-2.48v-5.78h-1.88v6.06c0 2.18 1.36 3.86 3.6 3.86 1.12 0 2.32-.46 2.84-1.46zm10.328-6.56v-2c-.1-.02-.36-.06-.62-.06-.98 0-2.18.36-2.88 1.84v-1.68h-1.84V139h1.88v-4.82c0-2.12 1.06-2.96 2.64-2.96.26 0 .54.02.82.06zm10.286 4.98l-1.62-.56c-.36 1.08-1.14 1.94-2.7 1.94-1.62 0-2.86-1.2-2.9-2.92h7.24c.02-.12.04-.36.04-.6 0-3-1.66-5.04-4.62-5.04-2.42 0-4.6 2.06-4.6 5.08 0 3.26 2.26 5.14 4.84 5.14 2.24 0 3.78-1.34 4.32-3.04zm-1.9-3.06h-5.26c.08-1.24 1.04-2.46 2.62-2.46 1.7 0 2.6 1.08 2.64 2.46zm5.16 2.7l-1.7.6c.16 1.1 1.28 2.8 3.92 2.8 2.38 0 3.52-1.62 3.52-2.98 0-1.42-.92-2.48-2.66-2.86l-1.56-.34c-.74-.16-1.1-.58-1.1-1.16 0-.66.64-1.28 1.6-1.28 1.52 0 1.92 1.1 2 1.6l1.66-.62c-.2-.86-1.02-2.58-3.66-2.58-1.88 0-3.42 1.4-3.42 3.04 0 1.36.9 2.38 2.4 2.7l1.64.36c.8.18 1.24.64 1.24 1.24 0 .68-.58 1.28-1.64 1.28-1.36 0-2.12-.8-2.24-1.8zM1015.8 222h2v-14.18h-2V222zm7.29 0v-5.56c0-1.46.76-2.64 2.24-2.64 1.68 0 2.24 1.08 2.24 2.42V222h1.88v-6.1c0-2.14-1.14-3.8-3.44-3.8-1.12 0-2.26.46-2.96 1.66v-1.38h-1.84V222h1.88zm11.87-9.62v-3.04h-1.72v1.56c0 .84-.44 1.48-1.48 1.48h-.52v1.7h1.84v5.28c0 1.74 1.04 2.74 2.68 2.74.64 0 1.12-.12 1.28-.18v-1.6c-.16.04-.5.08-.74.08-.98 0-1.34-.44-1.34-1.32v-5h2.08v-1.7h-2.08zm12.87 6.88l-1.62-.56c-.36 1.08-1.14 1.94-2.7 1.94-1.62 0-2.86-1.2-2.9-2.92h7.24c.02-.12.04-.36.04-.6 0-3-1.66-5.04-4.62-5.04-2.42 0-4.6 2.06-4.6 5.08 0 3.26 2.26 5.14 4.84 5.14 2.24 0 3.78-1.34 4.32-3.04zm-1.9-3.06h-5.26c.08-1.24 1.04-2.46 2.62-2.46 1.7 0 2.6 1.08 2.64 2.46zm9.7-1.92v-2c-.1-.02-.36-.06-.62-.06-.98 0-2.18.36-2.88 1.84v-1.68h-1.84V222h1.88v-4.82c0-2.12 1.06-2.96 2.64-2.96.26 0 .54.02.82.06zm1.41 5.14c0 1.52 1.26 2.88 3.22 2.88 1.72 0 2.68-.92 3.1-1.6 0 .7.06 1.06.1 1.3h1.84c-.04-.24-.12-.74-.12-1.58v-4.82c0-1.88-1.12-3.52-4-3.52-2.08 0-3.74 1.28-3.94 3.12l1.8.42c.12-1.12.86-1.94 2.18-1.94 1.46 0 2.08.78 2.08 1.72 0 .34-.16.64-.74.72l-2.6.38c-1.66.24-2.92 1.2-2.92 2.92zm3.48 1.3c-.96 0-1.56-.68-1.56-1.4 0-.86.6-1.32 1.4-1.44l2.94-.44v.44c0 2.1-1.24 2.84-2.78 2.84zm11.62-6.9c1.64 0 2.34 1.1 2.58 2.04l1.7-.72c-.4-1.46-1.72-3.06-4.28-3.06-2.74 0-4.84 2.1-4.84 5.1 0 2.92 2.06 5.12 4.86 5.12 2.5 0 3.88-1.62 4.34-3l-1.66-.72c-.22.76-.88 1.98-2.68 1.98-1.56 0-2.94-1.18-2.94-3.38 0-2.24 1.4-3.36 2.92-3.36zm9.09-1.44v-3.04h-1.72v1.56c0 .84-.44 1.48-1.48 1.48h-.52v1.7h1.84v5.28c0 1.74 1.04 2.74 2.68 2.74.64 0 1.12-.12 1.28-.18v-1.6c-.16.04-.5.08-.74.08-.98 0-1.34-.44-1.34-1.32v-5h2.08v-1.7h-2.08zm4.17-3.64c0 .74.6 1.34 1.34 1.34.76 0 1.36-.6 1.36-1.34 0-.76-.6-1.36-1.36-1.36-.74 0-1.34.6-1.34 1.36zm.42 13.26h1.86v-9.62h-1.86V222zm9.18-9.92c-2.88 0-4.92 2.18-4.92 5.1 0 2.94 2.04 5.12 4.92 5.12s4.92-2.18 4.92-5.12c0-2.92-2.04-5.1-4.92-5.1zm0 8.54c-1.6 0-3-1.2-3-3.44 0-2.22 1.4-3.42 3-3.42s3 1.2 3 3.42c0 2.24-1.4 3.44-3 3.44zm9.2 1.38v-5.56c0-1.46.76-2.64 2.24-2.64 1.68 0 2.24 1.08 2.24 2.42V222h1.88v-6.1c0-2.14-1.14-3.8-3.44-3.8-1.12 0-2.26.46-2.96 1.66v-1.38h-1.84V222h1.88zm10.15-3.1l-1.7.6c.16 1.1 1.28 2.8 3.92 2.8 2.38 0 3.52-1.62 3.52-2.98 0-1.42-.92-2.48-2.66-2.86l-1.56-.34c-.74-.16-1.1-.58-1.1-1.16 0-.66.64-1.28 1.6-1.28 1.52 0 1.92 1.1 2 1.6l1.66-.62c-.2-.86-1.02-2.58-3.66-2.58-1.88 0-3.42 1.4-3.42 3.04 0 1.36.9 2.38 2.4 2.7l1.64.36c.8.18 1.24.64 1.24 1.24 0 .68-.58 1.28-1.64 1.28-1.36 0-2.12-.8-2.24-1.8zm-88.48 18.48h-1.94l-2.5 7.24-2.16-7.24h-2.06l3.16 9.62h1.98l2.5-7.32 2.56 7.32h1.94l3.12-9.62h-1.98l-2.12 7.24-2.5-7.24zm8.08-3.64c0 .74.6 1.34 1.34 1.34.76 0 1.36-.6 1.36-1.34 0-.76-.6-1.36-1.36-1.36-.74 0-1.34.6-1.34 1.36zm.42 13.26h1.86v-9.62h-1.86V247zm7.58-9.62v-3.04h-1.72v1.56c0 .84-.44 1.48-1.48 1.48h-.52v1.7h1.84v5.28c0 1.74 1.04 2.74 2.68 2.74.64 0 1.12-.12 1.28-.18v-1.6c-.16.04-.5.08-.74.08-.98 0-1.34-.44-1.34-1.32v-5h2.08v-1.7h-2.08zm6.47 9.62v-5.66c.04-1.42.8-2.54 2.24-2.54 1.68 0 2.24 1.08 2.24 2.42V247h1.88v-6.1c0-2.14-1.14-3.8-3.44-3.8-1.1 0-2.22.38-2.92 1.4v-5.98h-1.88V247h1.88zm18.47-9.92c-2.88 0-4.92 2.18-4.92 5.1 0 2.94 2.04 5.12 4.92 5.12s4.92-2.18 4.92-5.12c0-2.92-2.04-5.1-4.92-5.1zm0 8.54c-1.6 0-3-1.2-3-3.44 0-2.22 1.4-3.42 3-3.42s3 1.2 3 3.42c0 2.24-1.4 3.44-3 3.44zm9.75-8.24v-3.04h-1.72v1.56c0 .84-.44 1.48-1.48 1.48h-.52v1.7h1.84v5.28c0 1.74 1.04 2.74 2.68 2.74.64 0 1.12-.12 1.28-.18v-1.6c-.16.04-.5.08-.74.08-.98 0-1.34-.44-1.34-1.32v-5h2.08v-1.7h-2.08zm6.47 9.62v-5.66c.04-1.42.8-2.54 2.24-2.54 1.68 0 2.24 1.08 2.24 2.42V247h1.88v-6.1c0-2.14-1.14-3.8-3.44-3.8-1.1 0-2.22.38-2.92 1.4v-5.98h-1.88V247h1.88zm17.73-2.74l-1.62-.56c-.36 1.08-1.14 1.94-2.7 1.94-1.62 0-2.86-1.2-2.9-2.92h7.24c.02-.12.04-.36.04-.6 0-3-1.66-5.04-4.62-5.04-2.42 0-4.6 2.06-4.6 5.08 0 3.26 2.26 5.14 4.84 5.14 2.24 0 3.78-1.34 4.32-3.04zm-1.9-3.06h-5.26c.08-1.24 1.04-2.46 2.62-2.46 1.7 0 2.6 1.08 2.64 2.46zm9.7-1.92v-2c-.1-.02-.36-.06-.62-.06-.98 0-2.18.36-2.88 1.84v-1.68h-1.84V247h1.88v-4.82c0-2.12 1.06-2.96 2.64-2.96.26 0 .54.02.82.06zm2.8 4.62l-1.7.6c.16 1.1 1.28 2.8 3.92 2.8 2.38 0 3.52-1.62 3.52-2.98 0-1.42-.92-2.48-2.66-2.86l-1.56-.34c-.74-.16-1.1-.58-1.1-1.16 0-.66.64-1.28 1.6-1.28 1.52 0 1.92 1.1 2 1.6l1.66-.62c-.2-.86-1.02-2.58-3.66-2.58-1.88 0-3.42 1.4-3.42 3.04 0 1.36.9 2.38 2.4 2.7l1.64.36c.8.18 1.24.64 1.24 1.24 0 .68-.58 1.28-1.64 1.28-1.36 0-2.12-.8-2.24-1.8zm-86.17 18.48h-1.94l-2.5 7.24-2.16-7.24h-2.06l3.16 9.62h1.98l2.5-7.32 2.56 7.32h1.94l3.12-9.62h-1.98l-2.12 7.24-2.5-7.24zm10.38 9.62v-5.66c.04-1.42.8-2.54 2.24-2.54 1.68 0 2.24 1.08 2.24 2.42V272h1.88v-6.1c0-2.14-1.14-3.8-3.44-3.8-1.1 0-2.22.38-2.92 1.4v-5.98h-1.88V272h1.88zm17.73-2.74l-1.62-.56c-.36 1.08-1.14 1.94-2.7 1.94-1.62 0-2.86-1.2-2.9-2.92h7.24c.02-.12.04-.36.04-.6 0-3-1.66-5.04-4.62-5.04-2.42 0-4.6 2.06-4.6 5.08 0 3.26 2.26 5.14 4.84 5.14 2.24 0 3.78-1.34 4.32-3.04zm-1.9-3.06h-5.26c.08-1.24 1.04-2.46 2.62-2.46 1.7 0 2.6 1.08 2.64 2.46zm6.24 5.8v-5.56c0-1.46.76-2.64 2.24-2.64 1.68 0 2.24 1.08 2.24 2.42V272h1.88v-6.1c0-2.14-1.14-3.8-3.44-3.8-1.12 0-2.26.46-2.96 1.66v-1.38h-1.84V272h1.88zm20.69-1.16c0 .4.04.94.08 1.16h1.8c-.04-.34-.1-1.02-.1-1.78v-7.84h-1.88v5.8c0 1.46-.76 2.46-2.28 2.46-1.58 0-2.18-1.16-2.18-2.48v-5.78h-1.88v6.06c0 2.18 1.36 3.86 3.6 3.86 1.12 0 2.32-.46 2.84-1.46zm5.79-1.94l-1.7.6c.16 1.1 1.28 2.8 3.92 2.8 2.38 0 3.52-1.62 3.52-2.98 0-1.42-.92-2.48-2.66-2.86l-1.56-.34c-.74-.16-1.1-.58-1.1-1.16 0-.66.64-1.28 1.6-1.28 1.52 0 1.92 1.1 2 1.6l1.66-.62c-.2-.86-1.02-2.58-3.66-2.58-1.88 0-3.42 1.4-3.42 3.04 0 1.36.9 2.38 2.4 2.7l1.64.36c.8.18 1.24.64 1.24 1.24 0 .68-.58 1.28-1.64 1.28-1.36 0-2.12-.8-2.24-1.8zm7.82-10.16c0 .74.6 1.34 1.34 1.34.76 0 1.36-.6 1.36-1.34 0-.76-.6-1.36-1.36-1.36-.74 0-1.34.6-1.34 1.36zm.42 13.26h1.86v-9.62h-1.86V272zm6.94 0v-5.56c0-1.46.76-2.64 2.24-2.64 1.68 0 2.24 1.08 2.24 2.42V272h1.88v-6.1c0-2.14-1.14-3.8-3.44-3.8-1.12 0-2.26.46-2.96 1.66v-1.38h-1.84V272h1.88zm10.47.1l-1.82.42c.24 2.06 2.04 3.58 4.44 3.58 3.62 0 4.82-2.38 4.82-4.82v-8.9h-1.86v1.34c-.48-.96-1.48-1.52-2.96-1.52-2.64 0-4.42 2.08-4.42 4.68 0 2.72 1.86 4.66 4.42 4.66 1.44 0 2.48-.7 2.94-1.58v1.38c0 2.08-.92 3.12-2.94 3.12-1.46 0-2.48-1.02-2.62-2.36zm2.9-2.14c-1.7 0-2.78-1.2-2.78-3.08 0-1.86 1.12-3.08 2.78-3.08 1.62 0 2.74 1.22 2.74 3.08s-1.12 3.08-2.74 3.08zM1037.03 297h8.62v-1.82h-6.66v-4.34h6.04V289h-6.04v-4.36h6.66v-1.82h-8.62V297zm13.01 0v-5.56c0-1.46.76-2.64 2.24-2.64 1.68 0 2.24 1.08 2.24 2.42V297h1.88v-6.1c0-2.14-1.14-3.8-3.44-3.8-1.12 0-2.26.46-2.96 1.66v-1.38h-1.84V297h1.88zm10.47.1l-1.82.42c.24 2.06 2.04 3.58 4.44 3.58 3.62 0 4.82-2.38 4.82-4.82v-8.9h-1.86v1.34c-.48-.96-1.48-1.52-2.96-1.52-2.64 0-4.42 2.08-4.42 4.68 0 2.72 1.86 4.66 4.42 4.66 1.44 0 2.48-.7 2.94-1.58v1.38c0 2.08-.92 3.12-2.94 3.12-1.46 0-2.48-1.02-2.62-2.36zm2.9-2.14c-1.7 0-2.78-1.2-2.78-3.08 0-1.86 1.12-3.08 2.78-3.08 1.62 0 2.74 1.22 2.74 3.08s-1.12 3.08-2.74 3.08zm7.55 2.04h1.88v-14.48h-1.88V297zm4.65-13.26c0 .74.6 1.34 1.34 1.34.76 0 1.36-.6 1.36-1.34 0-.76-.6-1.36-1.36-1.36-.74 0-1.34.6-1.34 1.36zm.42 13.26h1.86v-9.62h-1.86V297zm5.86-3.1l-1.7.6c.16 1.1 1.28 2.8 3.92 2.8 2.38 0 3.52-1.62 3.52-2.98 0-1.42-.92-2.48-2.66-2.86l-1.56-.34c-.74-.16-1.1-.58-1.1-1.16 0-.66.64-1.28 1.6-1.28 1.52 0 1.92 1.1 2 1.6l1.66-.62c-.2-.86-1.02-2.58-3.66-2.58-1.88 0-3.42 1.4-3.42 3.04 0 1.36.9 2.38 2.4 2.7l1.64.36c.8.18 1.24.64 1.24 1.24 0 .68-.58 1.28-1.64 1.28-1.36 0-2.12-.8-2.24-1.8zm10.13 3.1v-5.66c.04-1.42.8-2.54 2.24-2.54 1.68 0 2.24 1.08 2.24 2.42V297h1.88v-6.1c0-2.14-1.14-3.8-3.44-3.8-1.1 0-2.22.38-2.92 1.4v-5.98h-1.88V297h1.88zm-904.556-50h2v-14.18h-2V247zm12.146-1.46v.16c0 .58.06 1.08.1 1.3h1.82c-.02-.16-.1-.86-.1-1.78v-12.7h-1.86v6.22c-.32-.78-1.24-1.62-2.94-1.62-2.72 0-4.56 2.32-4.56 5.04 0 2.86 1.74 5.1 4.56 5.1 1.5 0 2.52-.8 2.98-1.72zm-5.62-3.38c0-1.98 1.12-3.38 2.84-3.38 1.72 0 2.76 1.36 2.76 3.34 0 1.98-1.06 3.48-2.78 3.48-1.8 0-2.82-1.46-2.82-3.44zm19.017 2.1l-1.62-.56c-.36 1.08-1.14 1.94-2.7 1.94-1.62 0-2.86-1.2-2.9-2.92h7.24c.02-.12.04-.36.04-.6 0-3-1.66-5.04-4.62-5.04-2.42 0-4.6 2.06-4.6 5.08 0 3.26 2.26 5.14 4.84 5.14 2.24 0 3.78-1.34 4.32-3.04zm-1.9-3.06h-5.26c.08-1.24 1.04-2.46 2.62-2.46 1.7 0 2.6 1.08 2.64 2.46zm3.76 3.22c0 1.52 1.26 2.88 3.22 2.88 1.72 0 2.68-.92 3.1-1.6 0 .7.06 1.06.1 1.3h1.84c-.04-.24-.12-.74-.12-1.58v-4.82c0-1.88-1.12-3.52-4-3.52-2.08 0-3.74 1.28-3.94 3.12l1.8.42c.12-1.12.86-1.94 2.18-1.94 1.46 0 2.08.78 2.08 1.72 0 .34-.16.64-.74.72l-2.6.38c-1.66.24-2.92 1.2-2.92 2.92zm3.48 1.3c-.96 0-1.56-.68-1.56-1.4 0-.86.6-1.32 1.4-1.44l2.94-.44v.44c0 2.1-1.24 2.84-2.78 2.84zM143.7 272h1.86v-1.4c.6 1.04 1.7 1.66 3.12 1.66 2.86 0 4.48-2.26 4.48-5.12 0-2.8-1.5-5.04-4.42-5.04-1.6 0-2.72.78-3.18 1.64v-6.22h-1.86V272zm7.54-4.86c0 2.08-1.12 3.44-2.84 3.44-1.66 0-2.86-1.36-2.86-3.44s1.2-3.38 2.86-3.38c1.74 0 2.84 1.3 2.84 3.38zm9.655-2.86v-2c-.1-.02-.36-.06-.62-.06-.98 0-2.18.36-2.88 1.84v-1.68h-1.84V272h1.88v-4.82c0-2.12 1.06-2.96 2.64-2.96.26 0 .54.02.82.06zm1.404 5.14c0 1.52 1.26 2.88 3.22 2.88 1.72 0 2.68-.92 3.1-1.6 0 .7.06 1.06.1 1.3h1.84c-.04-.24-.12-.74-.12-1.58v-4.82c0-1.88-1.12-3.52-4-3.52-2.08 0-3.74 1.28-3.94 3.12l1.8.42c.12-1.12.86-1.94 2.18-1.94 1.46 0 2.08.78 2.08 1.72 0 .34-.16.64-.74.72l-2.6.38c-1.66.24-2.92 1.2-2.92 2.92zm3.48 1.3c-.96 0-1.56-.68-1.56-1.4 0-.86.6-1.32 1.4-1.44l2.94-.44v.44c0 2.1-1.24 2.84-2.78 2.84zm7.169-11.98c0 .74.6 1.34 1.34 1.34.76 0 1.36-.6 1.36-1.34 0-.76-.6-1.36-1.36-1.36-.74 0-1.34.6-1.34 1.36zm.42 13.26h1.86v-9.62h-1.86V272zm6.938 0v-5.56c0-1.46.76-2.64 2.24-2.64 1.68 0 2.24 1.08 2.24 2.42V272h1.88v-6.1c0-2.14-1.14-3.8-3.44-3.8-1.12 0-2.26.46-2.96 1.66v-1.38h-1.84V272h1.88zm10.151-3.1l-1.7.6c.16 1.1 1.28 2.8 3.92 2.8 2.38 0 3.52-1.62 3.52-2.98 0-1.42-.92-2.48-2.66-2.86l-1.56-.34c-.74-.16-1.1-.58-1.1-1.16 0-.66.64-1.28 1.6-1.28 1.52 0 1.92 1.1 2 1.6l1.66-.62c-.2-.86-1.02-2.58-3.66-2.58-1.88 0-3.42 1.4-3.42 3.04 0 1.36.9 2.38 2.4 2.7l1.64.36c.8.18 1.24.64 1.24 1.24 0 .68-.58 1.28-1.64 1.28-1.36 0-2.12-.8-2.24-1.8zm10.763-6.52v-3.04h-1.72v1.56c0 .84-.44 1.48-1.48 1.48h-.52v1.7h1.84v5.28c0 1.74 1.04 2.74 2.68 2.74.64 0 1.12-.12 1.28-.18v-1.6c-.16.04-.5.08-.74.08-.98 0-1.34-.44-1.34-1.32v-5h2.08v-1.7h-2.08zm8.611-.3c-2.88 0-4.92 2.18-4.92 5.1 0 2.94 2.04 5.12 4.92 5.12s4.92-2.18 4.92-5.12c0-2.92-2.04-5.1-4.92-5.1zm0 8.54c-1.6 0-3-1.2-3-3.44 0-2.22 1.4-3.42 3-3.42s3 1.2 3 3.42c0 2.24-1.4 3.44-3 3.44zm12.666-6.34v-2c-.1-.02-.36-.06-.62-.06-.98 0-2.18.36-2.88 1.84v-1.68h-1.84V272h1.88v-4.82c0-2.12 1.06-2.96 2.64-2.96.26 0 .54.02.82.06zM224.5 272h1.86v-5.8c0-1.44.9-2.44 2.24-2.44 1.44 0 2.04.96 2.04 2.2V272h1.88v-5.82c0-1.38.9-2.42 2.22-2.42 1.42 0 2.04.94 2.04 2.2V272h1.86v-6.24c0-2.52-1.64-3.66-3.32-3.66-1.22 0-2.46.44-3.22 1.82-.52-1.24-1.68-1.82-2.88-1.82-1.12 0-2.32.5-2.92 1.56v-1.28h-1.8V272zm16.729-13.26c0 .74.6 1.34 1.34 1.34.76 0 1.36-.6 1.36-1.34 0-.76-.6-1.36-1.36-1.36-.74 0-1.34.6-1.34 1.36zm.42 13.26h1.86v-9.62h-1.86V272zm6.938 0v-5.56c0-1.46.76-2.64 2.24-2.64 1.68 0 2.24 1.08 2.24 2.42V272h1.88v-6.1c0-2.14-1.14-3.8-3.44-3.8-1.12 0-2.26.46-2.96 1.66v-1.38h-1.84V272h1.88zm10.471.1l-1.82.42c.24 2.06 2.04 3.58 4.44 3.58 3.62 0 4.82-2.38 4.82-4.82v-8.9h-1.86v1.34c-.48-.96-1.48-1.52-2.96-1.52-2.64 0-4.42 2.08-4.42 4.68 0 2.72 1.86 4.66 4.42 4.66 1.44 0 2.48-.7 2.94-1.58v1.38c0 2.08-.92 3.12-2.94 3.12-1.46 0-2.48-1.02-2.62-2.36zm2.9-2.14c-1.7 0-2.78-1.2-2.78-3.08 0-1.86 1.12-3.08 2.78-3.08 1.62 0 2.74 1.22 2.74 3.08s-1.12 3.08-2.74 3.08z" fill="#fff"/></svg>