<svg width="341" height="373" fill="none" xmlns="http://www.w3.org/2000/svg"><path d="M9.38 35.42c4.032 0 7.14-2.52 7.14-7.196V15.148h-2.744V28.14c0 3.024-1.596 4.732-4.396 4.732-2.772 0-4.424-1.708-4.424-4.732V15.148H2.24v13.076c0 4.676 3.108 7.196 7.14 7.196zm12.738-4.76l-2.38.84c.224 1.54 1.792 3.92 5.488 3.92 3.332 0 4.928-2.268 4.928-4.172 0-1.988-1.288-3.472-3.724-4.004l-2.184-.476c-1.036-.224-1.54-.812-1.54-1.624 0-.924.896-1.792 2.24-1.792 2.128 0 2.688 1.54 2.8 2.24l2.324-.868c-.28-1.204-1.428-3.612-5.124-3.612-2.632 0-4.788 1.96-4.788 4.256 0 1.904 1.26 3.332 3.36 3.78l2.296.504c1.12.252 1.736.896 1.736 1.736 0 .952-.812 1.792-2.296 1.792-1.904 0-2.968-1.12-3.136-2.52zm23.135.504l-2.268-.784c-.504 1.512-1.596 2.716-3.78 2.716-2.268 0-4.004-1.68-4.06-4.088h10.136c.028-.168.056-.504.056-.84 0-4.2-2.324-7.056-6.468-7.056-3.388 0-6.44 2.884-6.44 7.112 0 4.564 3.164 7.196 6.776 7.196 3.136 0 5.292-1.876 6.048-4.256zm-2.66-4.284H35.23c.112-1.736 1.456-3.444 3.668-3.444 2.38 0 3.64 1.512 3.696 3.444zm13.58-2.688v-2.8a4.953 4.953 0 00-.868-.084c-1.372 0-3.052.504-4.032 2.576v-2.352h-2.576V35h2.632v-6.748c0-2.968 1.484-4.144 3.696-4.144.364 0 .756.028 1.148.084zm3.925 6.468l-2.38.84c.224 1.54 1.792 3.92 5.488 3.92 3.332 0 4.928-2.268 4.928-4.172 0-1.988-1.288-3.472-3.724-4.004l-2.184-.476c-1.036-.224-1.54-.812-1.54-1.624 0-.924.896-1.792 2.24-1.792 2.128 0 2.688 1.54 2.8 2.24l2.324-.868c-.28-1.204-1.428-3.612-5.124-3.612-2.632 0-4.788 1.96-4.788 4.256 0 1.904 1.26 3.332 3.36 3.78l2.296.504c1.12.252 1.736.896 1.736 1.736 0 .952-.812 1.792-2.296 1.792-1.904 0-2.968-1.12-3.136-2.52zm8.89-14.028c0 1.12.783 1.792 1.763 1.792.28 0 .476-.084.56-.14-.028 1.26-.896 2.548-2.156 2.828v1.344c1.624-.196 3.864-1.624 3.864-5.096 0-1.624-1.008-2.464-2.128-2.464-1.092 0-1.904.812-1.904 1.736zm21.8 1.064h6.637v-2.548H81.409v2.548h6.636V35h2.744V17.696zm5.932 13.692c0 2.128 1.764 4.032 4.508 4.032 2.408 0 3.752-1.288 4.34-2.24 0 .98.084 1.484.14 1.82h2.576c-.056-.336-.168-1.036-.168-2.212V26.04c0-2.632-1.568-4.928-5.6-4.928-2.912 0-5.236 1.792-5.516 4.368l2.52.588c.168-1.568 1.204-2.716 3.052-2.716 2.044 0 2.912 1.092 2.912 2.408 0 .476-.224.896-1.036 1.008l-3.64.532c-2.324.336-4.088 1.68-4.088 4.088zm4.872 1.82c-1.344 0-2.184-.952-2.184-1.96 0-1.204.84-1.848 1.96-2.016l4.116-.616v.616c0 2.94-1.736 3.976-3.892 3.976zm18.101-9.016v-2.8a4.953 4.953 0 00-.868-.084c-1.372 0-3.052.504-4.032 2.576v-2.352h-2.576V35h2.632v-6.748c0-2.968 1.484-4.144 3.696-4.144.364 0 .756.028 1.148.084zm4.236 10.948l-2.548.588c.336 2.884 2.856 5.012 6.216 5.012 5.068 0 6.748-3.332 6.748-6.748v-12.46h-2.604v1.876c-.672-1.344-2.072-2.128-4.144-2.128-3.696 0-6.188 2.912-6.188 6.552 0 3.808 2.604 6.524 6.188 6.524 2.016 0 3.472-.98 4.116-2.212v1.932c0 2.912-1.288 4.368-4.116 4.368-2.044 0-3.472-1.428-3.668-3.304zm4.06-2.996c-2.38 0-3.892-1.68-3.892-4.312 0-2.604 1.568-4.312 3.892-4.312 2.268 0 3.836 1.708 3.836 4.312s-1.568 4.312-3.836 4.312zm22.292-.98l-2.268-.784c-.504 1.512-1.596 2.716-3.78 2.716-2.268 0-4.004-1.68-4.06-4.088h10.136c.028-.168.056-.504.056-.84 0-4.2-2.324-7.056-6.468-7.056-3.388 0-6.44 2.884-6.44 7.112 0 4.564 3.164 7.196 6.776 7.196 3.136 0 5.292-1.876 6.048-4.256zm-2.66-4.284h-7.364c.112-1.736 1.456-3.444 3.668-3.444 2.38 0 3.64 1.512 3.696 3.444zm9.631-5.348v-4.256h-2.408v2.184c0 1.176-.616 2.072-2.072 2.072h-.728v2.38h2.576v7.392c0 2.436 1.456 3.836 3.752 3.836.896 0 1.568-.168 1.792-.252v-2.24c-.224.056-.7.112-1.036.112-1.372 0-1.876-.616-1.876-1.848v-7h2.912v-2.38h-2.912z" fill="#fff"/><circle cx="71" cy="135" r="61.5" fill="#2971F0" stroke="#fff"/><path d="M57.471 131h1.6v-11.344h-1.6V131zm9.717-1.168v.128c0 .464.048.864.08 1.04h1.456c-.016-.128-.08-.688-.08-1.424v-10.16h-1.488v4.976c-.256-.624-.992-1.296-2.352-1.296-2.176 0-3.648 1.856-3.648 4.032 0 2.288 1.392 4.08 3.648 4.08 1.2 0 2.016-.64 2.384-1.376zm-4.496-2.704c0-1.584.896-2.704 2.272-2.704s2.208 1.088 2.208 2.672-.848 2.784-2.224 2.784c-1.44 0-2.256-1.168-2.256-2.752zm15.214 1.68l-1.296-.448c-.288.864-.912 1.552-2.16 1.552-1.296 0-2.288-.96-2.32-2.336h5.792a3.38 3.38 0 00.032-.48c0-2.4-1.328-4.032-3.696-4.032-1.936 0-3.68 1.648-3.68 4.064 0 2.608 1.808 4.112 3.872 4.112 1.792 0 3.024-1.072 3.456-2.432zm-1.52-2.448h-4.208c.064-.992.832-1.968 2.096-1.968 1.36 0 2.08.864 2.112 1.968zm3.008 2.576c0 1.216 1.008 2.304 2.576 2.304 1.376 0 2.144-.736 2.48-1.28 0 .56.048.848.08 1.04h1.472a7.24 7.24 0 01-.096-1.264v-3.856c0-1.504-.896-2.816-3.2-2.816-1.664 0-2.992 1.024-3.152 2.496l1.44.336c.096-.896.688-1.552 1.744-1.552 1.168 0 1.664.624 1.664 1.376 0 .272-.128.512-.592.576l-2.08.304c-1.328.192-2.336.96-2.336 2.336zm2.784 1.04c-.768 0-1.248-.544-1.248-1.12 0-.688.48-1.056 1.12-1.152l2.352-.352v.352c0 1.68-.992 2.272-2.224 2.272zM22.46 151h1.488v-1.12c.48.832 1.36 1.328 2.496 1.328 2.288 0 3.584-1.808 3.584-4.096 0-2.24-1.2-4.032-3.536-4.032-1.28 0-2.176.624-2.544 1.312v-4.976H22.46V151zm6.032-3.888c0 1.664-.896 2.752-2.272 2.752-1.328 0-2.288-1.088-2.288-2.752 0-1.664.96-2.704 2.288-2.704 1.392 0 2.272 1.04 2.272 2.704zm7.724-2.288v-1.6a2.83 2.83 0 00-.496-.048c-.784 0-1.744.288-2.304 1.472v-1.344h-1.472V151h1.504v-3.856c0-1.696.848-2.368 2.112-2.368.208 0 .432.016.656.048zm1.123 4.112c0 1.216 1.008 2.304 2.576 2.304 1.376 0 2.144-.736 2.48-1.28 0 .56.048.848.08 1.04h1.472a7.24 7.24 0 01-.096-1.264v-3.856c0-1.504-.896-2.816-3.2-2.816-1.664 0-2.992 1.024-3.152 2.496l1.44.336c.096-.896.688-1.552 1.744-1.552 1.168 0 1.664.624 1.664 1.376 0 .272-.128.512-.592.576l-2.08.304c-1.328.192-2.336.96-2.336 2.336zm2.784 1.04c-.768 0-1.248-.544-1.248-1.12 0-.688.48-1.056 1.12-1.152l2.352-.352v.352c0 1.68-.992 2.272-2.224 2.272zm5.735-9.584c0 .592.48 1.072 1.072 1.072.608 0 1.088-.48 1.088-1.072 0-.608-.48-1.088-1.088-1.088-.592 0-1.072.48-1.072 1.088zM46.194 151h1.488v-7.696h-1.488V151zm5.55 0v-4.448c0-1.168.609-2.112 1.793-2.112 1.344 0 1.792.864 1.792 1.936V151h1.504v-4.88c0-1.712-.912-3.04-2.752-3.04-.896 0-1.808.368-2.368 1.328v-1.104H50.24V151h1.504zm8.121-2.48l-1.36.48c.128.88 1.024 2.24 3.136 2.24 1.904 0 2.816-1.296 2.816-2.384 0-1.136-.736-1.984-2.128-2.288l-1.248-.272c-.592-.128-.88-.464-.88-.928 0-.528.512-1.024 1.28-1.024 1.216 0 1.536.88 1.6 1.28l1.328-.496c-.16-.688-.816-2.064-2.928-2.064-1.504 0-2.736 1.12-2.736 2.432 0 1.088.72 1.904 1.92 2.16l1.312.288c.64.144.992.512.992.992 0 .544-.464 1.024-1.312 1.024-1.088 0-1.696-.64-1.792-1.44zm8.61-5.216v-2.432H67.1v1.248c0 .672-.352 1.184-1.184 1.184H65.5v1.36h1.472v4.224c0 1.392.832 2.192 2.144 2.192.512 0 .896-.096 1.024-.144v-1.28c-.128.032-.4.064-.592.064-.784 0-1.072-.352-1.072-1.056v-4h1.664v-1.36h-1.664zm6.89-.24c-2.304 0-3.936 1.744-3.936 4.08 0 2.352 1.632 4.096 3.936 4.096 2.304 0 3.936-1.744 3.936-4.096 0-2.336-1.632-4.08-3.936-4.08zm0 6.832c-1.28 0-2.4-.96-2.4-2.752 0-1.776 1.12-2.736 2.4-2.736 1.28 0 2.4.96 2.4 2.736 0 1.792-1.12 2.752-2.4 2.752zm10.132-5.072v-1.6a2.83 2.83 0 00-.496-.048c-.784 0-1.744.288-2.304 1.472v-1.344h-1.472V151h1.504v-3.856c0-1.696.848-2.368 2.112-2.368.208 0 .432.016.656.048zM87.1 151h1.488v-4.64c0-1.152.72-1.952 1.792-1.952 1.152 0 1.632.768 1.632 1.76V151h1.504v-4.656c0-1.104.72-1.936 1.776-1.936 1.136 0 1.632.752 1.632 1.76V151h1.488v-4.992c0-2.016-1.312-2.928-2.656-2.928-.976 0-1.968.352-2.576 1.456-.416-.992-1.344-1.456-2.304-1.456-.896 0-1.856.4-2.336 1.248v-1.024H87.1V151zm13.383-10.608c0 .592.48 1.072 1.072 1.072.608 0 1.088-.48 1.088-1.072 0-.608-.48-1.088-1.088-1.088-.592 0-1.072.48-1.072 1.088zm.336 10.608h1.488v-7.696h-1.488V151zm5.551 0v-4.448c0-1.168.608-2.112 1.792-2.112 1.344 0 1.792.864 1.792 1.936V151h1.504v-4.88c0-1.712-.912-3.04-2.752-3.04-.896 0-1.808.368-2.368 1.328v-1.104h-1.472V151h1.504zm8.376.08l-1.456.336c.192 1.648 1.632 2.864 3.552 2.864 2.896 0 3.856-1.904 3.856-3.856v-7.12h-1.488v1.072c-.384-.768-1.184-1.216-2.368-1.216-2.112 0-3.536 1.664-3.536 3.744 0 2.176 1.488 3.728 3.536 3.728 1.152 0 1.984-.56 2.352-1.264v1.104c0 1.664-.736 2.496-2.352 2.496-1.168 0-1.984-.816-2.096-1.888zm2.32-1.712c-1.36 0-2.224-.96-2.224-2.464 0-1.488.896-2.464 2.224-2.464 1.296 0 2.192.976 2.192 2.464s-.896 2.464-2.192 2.464z" fill="#fff"/><circle cx="212" cy="159" r="60.5" fill="#2971F0" stroke="#fff"/><path d="M182.397 156.728l1.408-.496c-.256-1.232-1.28-2.816-3.84-2.816-2.096 0-3.744 1.6-3.744 3.376 0 1.696 1.152 2.752 2.768 3.104l1.616.352c1.136.24 1.696.944 1.696 1.76 0 .992-.768 1.808-2.336 1.808-1.712 0-2.608-1.168-2.72-2.432l-1.504.48c.208 1.616 1.504 3.376 4.24 3.376 2.416 0 3.92-1.6 3.92-3.36 0-1.584-1.056-2.768-2.944-3.184l-1.696-.368c-.96-.208-1.456-.832-1.456-1.648 0-1.056.912-1.888 2.192-1.888 1.584 0 2.272 1.12 2.4 1.936zm5.36.576v-2.432h-1.376v1.248c0 .672-.352 1.184-1.184 1.184h-.416v1.36h1.472v4.224c0 1.392.832 2.192 2.144 2.192.512 0 .896-.096 1.024-.144v-1.28c-.128.032-.4.064-.592.064-.784 0-1.072-.352-1.072-1.056v-4h1.664v-1.36h-1.664zm7.787 1.52v-1.6a2.83 2.83 0 00-.496-.048c-.784 0-1.744.288-2.304 1.472v-1.344h-1.472V165h1.504v-3.856c0-1.696.848-2.368 2.112-2.368.208 0 .432.016.656.048zm6.753 5.248c0 .32.032.752.064.928h1.44c-.032-.272-.08-.816-.08-1.424v-6.272h-1.504v4.64c0 1.168-.608 1.968-1.824 1.968-1.264 0-1.744-.928-1.744-1.984v-4.624h-1.504v4.848c0 1.744 1.088 3.088 2.88 3.088.896 0 1.856-.368 2.272-1.168zm7.145-5.616c1.312 0 1.872.88 2.064 1.632l1.36-.576c-.32-1.168-1.376-2.448-3.424-2.448-2.192 0-3.872 1.68-3.872 4.08 0 2.336 1.648 4.096 3.888 4.096 2 0 3.104-1.296 3.472-2.4l-1.328-.576c-.176.608-.704 1.584-2.144 1.584-1.248 0-2.352-.944-2.352-2.704 0-1.792 1.12-2.688 2.336-2.688zm7.268-1.152v-2.432h-1.376v1.248c0 .672-.352 1.184-1.184 1.184h-.416v1.36h1.472v4.224c0 1.392.832 2.192 2.144 2.192.512 0 .896-.096 1.024-.144v-1.28c-.128.032-.4.064-.592.064-.784 0-1.072-.352-1.072-1.056v-4h1.664v-1.36h-1.664zm8.744 6.768c0 .32.032.752.064.928h1.44c-.032-.272-.08-.816-.08-1.424v-6.272h-1.504v4.64c0 1.168-.608 1.968-1.824 1.968-1.264 0-1.744-.928-1.744-1.984v-4.624h-1.504v4.848c0 1.744 1.088 3.088 2.88 3.088.896 0 1.856-.368 2.272-1.168zm8.262-5.248v-1.6a2.83 2.83 0 00-.496-.048c-.784 0-1.744.288-2.304 1.472v-1.344h-1.472V165h1.504v-3.856c0-1.696.848-2.368 2.112-2.368.208 0 .432.016.656.048zm8.229 3.984l-1.296-.448c-.288.864-.912 1.552-2.16 1.552-1.296 0-2.288-.96-2.32-2.336h5.792a3.38 3.38 0 00.032-.48c0-2.4-1.328-4.032-3.696-4.032-1.936 0-3.68 1.648-3.68 4.064 0 2.608 1.808 4.112 3.872 4.112 1.792 0 3.024-1.072 3.456-2.432zm-1.52-2.448h-4.208c.064-.992.832-1.968 2.096-1.968 1.36 0 2.08.864 2.112 1.968zm4.128 2.16l-1.36.48c.128.88 1.024 2.24 3.136 2.24 1.904 0 2.816-1.296 2.816-2.384 0-1.136-.736-1.984-2.128-2.288l-1.248-.272c-.592-.128-.88-.464-.88-.928 0-.528.512-1.024 1.28-1.024 1.216 0 1.536.88 1.6 1.28l1.328-.496c-.16-.688-.816-2.064-2.928-2.064-1.504 0-2.736 1.12-2.736 2.432 0 1.088.72 1.904 1.92 2.16l1.312.288c.64.144.992.512.992.992 0 .544-.464 1.024-1.312 1.024-1.088 0-1.696-.64-1.792-1.44z" fill="#fff"/><circle cx="269" cy="297" r="68.5" fill="#2971F0" stroke="#fff"/><path d="M222.008 298.36h2.56c2.096 0 3.504-1.424 3.504-3.344 0-1.904-1.408-3.36-3.504-3.36h-4.128V303h1.568v-4.64zm2.272-1.408h-2.272v-3.888h2.272c1.36 0 2.192.768 2.192 1.968 0 1.168-.832 1.92-2.192 1.92zm9.585-.128v-1.6a2.83 2.83 0 00-.496-.048c-.784 0-1.744.288-2.304 1.472v-1.344h-1.472V303h1.504v-3.856c0-1.696.848-2.368 2.112-2.368.208 0 .432.016.656.048zm4.82-1.76c-2.304 0-3.936 1.744-3.936 4.08 0 2.352 1.632 4.096 3.936 4.096 2.304 0 3.936-1.744 3.936-4.096 0-2.336-1.632-4.08-3.936-4.08zm0 6.832c-1.28 0-2.4-.96-2.4-2.752 0-1.776 1.12-2.736 2.4-2.736 1.28 0 2.4.96 2.4 2.736 0 1.792-1.12 2.752-2.4 2.752zM246.05 303v-4.448c0-1.168.608-2.112 1.792-2.112 1.344 0 1.792.864 1.792 1.936V303h1.504v-4.88c0-1.712-.912-3.04-2.752-3.04-.896 0-1.808.368-2.368 1.328v-1.104h-1.472V303h1.504zm12.396-.928c0 .32.032.752.064.928h1.44c-.032-.272-.08-.816-.08-1.424v-6.272h-1.504v4.64c0 1.168-.608 1.968-1.824 1.968-1.264 0-1.744-.928-1.744-1.984v-4.624h-1.504v4.848c0 1.744 1.088 3.088 2.88 3.088.896 0 1.856-.368 2.272-1.168zm5.494.928v-4.448c0-1.168.608-2.112 1.792-2.112 1.344 0 1.792.864 1.792 1.936V303h1.504v-4.88c0-1.712-.912-3.04-2.752-3.04-.896 0-1.808.368-2.368 1.328v-1.104h-1.472V303h1.504zm10.713-6.544c1.312 0 1.872.88 2.064 1.632l1.36-.576c-.32-1.168-1.376-2.448-3.424-2.448-2.192 0-3.872 1.68-3.872 4.08 0 2.336 1.648 4.096 3.888 4.096 2 0 3.104-1.296 3.472-2.4l-1.328-.576c-.176.608-.704 1.584-2.144 1.584-1.248 0-2.352-.944-2.352-2.704 0-1.792 1.12-2.688 2.336-2.688zm4.916-4.064c0 .592.48 1.072 1.072 1.072.608 0 1.088-.48 1.088-1.072 0-.608-.48-1.088-1.088-1.088-.592 0-1.072.48-1.072 1.088zm.336 10.608h1.488v-7.696h-1.488V303zm3.567-2.064c0 1.216 1.008 2.304 2.576 2.304 1.376 0 2.144-.736 2.48-1.28 0 .56.048.848.08 1.04h1.472a7.24 7.24 0 01-.096-1.264v-3.856c0-1.504-.896-2.816-3.2-2.816-1.664 0-2.992 1.024-3.152 2.496l1.44.336c.096-.896.688-1.552 1.744-1.552 1.168 0 1.664.624 1.664 1.376 0 .272-.128.512-.592.576l-2.08.304c-1.328.192-2.336.96-2.336 2.336zm2.784 1.04c-.768 0-1.248-.544-1.248-1.12 0-.688.48-1.056 1.12-1.152l2.352-.352v.352c0 1.68-.992 2.272-2.224 2.272zm8.087-6.672v-2.432h-1.376v1.248c0 .672-.352 1.184-1.184 1.184h-.416v1.36h1.472v4.224c0 1.392.832 2.192 2.144 2.192.512 0 .896-.096 1.024-.144v-1.28c-.128.032-.4.064-.592.064-.784 0-1.072-.352-1.072-1.056v-4h1.664v-1.36h-1.664zm3.335-2.912c0 .592.48 1.072 1.072 1.072.608 0 1.088-.48 1.088-1.072 0-.608-.48-1.088-1.088-1.088-.592 0-1.072.48-1.072 1.088zm.336 10.608h1.488v-7.696h-1.488V303zm7.343-7.936c-2.304 0-3.936 1.744-3.936 4.08 0 2.352 1.632 4.096 3.936 4.096 2.304 0 3.936-1.744 3.936-4.096 0-2.336-1.632-4.08-3.936-4.08zm0 6.832c-1.28 0-2.4-.96-2.4-2.752 0-1.776 1.12-2.736 2.4-2.736 1.28 0 2.4.96 2.4 2.736 0 1.792-1.12 2.752-2.4 2.752zm7.365 1.104v-4.448c0-1.168.608-2.112 1.792-2.112 1.344 0 1.792.864 1.792 1.936V303h1.504v-4.88c0-1.712-.912-3.04-2.752-3.04-.897 0-1.808.368-2.368 1.328v-1.104h-1.472V303h1.504z" fill="#fff"/><circle cx="292" cy="49" r="48.5" fill="#2971F0" stroke="#fff"/><path d="M260.72 41.656l-3.456 9.328-3.424-9.328h-1.664L256.448 53H258l4.368-11.344h-1.648zm5.512 3.408c-2.304 0-3.936 1.744-3.936 4.08 0 2.352 1.632 4.096 3.936 4.096 2.304 0 3.936-1.744 3.936-4.096 0-2.336-1.632-4.08-3.936-4.08zm0 6.832c-1.28 0-2.4-.96-2.4-2.752 0-1.776 1.12-2.736 2.4-2.736 1.28 0 2.4.96 2.4 2.736 0 1.792-1.12 2.752-2.4 2.752zm9.093-5.44c1.312 0 1.872.88 2.064 1.632l1.36-.576c-.32-1.168-1.376-2.448-3.424-2.448-2.192 0-3.872 1.68-3.872 4.08 0 2.336 1.648 4.096 3.888 4.096 2 0 3.104-1.296 3.471-2.4l-1.327-.576c-.176.608-.704 1.584-2.144 1.584-1.248 0-2.352-.944-2.352-2.704 0-1.792 1.12-2.688 2.336-2.688zm4.694 4.48c0 1.216 1.008 2.304 2.576 2.304 1.376 0 2.144-.736 2.48-1.28 0 .56.048.848.08 1.04h1.472a7.24 7.24 0 01-.096-1.264V47.88c0-1.504-.896-2.816-3.2-2.816-1.664 0-2.992 1.024-3.152 2.496l1.44.336c.096-.896.688-1.552 1.744-1.552 1.168 0 1.664.624 1.664 1.376 0 .272-.128.512-.592.576l-2.08.304c-1.328.192-2.336.96-2.336 2.336zm2.784 1.04c-.768 0-1.248-.544-1.248-1.12 0-.688.48-1.056 1.12-1.152l2.352-.352v.352c0 1.68-.992 2.272-2.224 2.272zM288.874 53h1.488v-1.12c.48.832 1.36 1.328 2.496 1.328 2.288 0 3.584-1.808 3.584-4.096 0-2.24-1.2-4.032-3.536-4.032-1.28 0-2.176.624-2.544 1.312v-4.976h-1.488V53zm6.032-3.888c0 1.664-.896 2.752-2.272 2.752-1.328 0-2.288-1.088-2.288-2.752 0-1.664.96-2.704 2.288-2.704 1.392 0 2.272 1.04 2.272 2.704zm8.446 2.96c0 .32.032.752.064.928h1.44c-.032-.272-.08-.816-.08-1.424v-6.272h-1.504v4.64c0 1.168-.608 1.968-1.824 1.968-1.264 0-1.744-.928-1.744-1.984v-4.624H298.2v4.848c0 1.744 1.088 3.088 2.88 3.088.896 0 1.856-.368 2.272-1.168zm3.991.928h1.504V41.416h-1.504V53zm3.582-2.064c0 1.216 1.008 2.304 2.576 2.304 1.376 0 2.144-.736 2.48-1.28 0 .56.048.848.08 1.04h1.472a7.24 7.24 0 01-.096-1.264V47.88c0-1.504-.896-2.816-3.2-2.816-1.664 0-2.992 1.024-3.152 2.496l1.44.336c.096-.896.688-1.552 1.744-1.552 1.168 0 1.664.624 1.664 1.376 0 .272-.128.512-.592.576l-2.08.304c-1.328.192-2.336.96-2.336 2.336zm2.784 1.04c-.768 0-1.248-.544-1.248-1.12 0-.688.48-1.056 1.12-1.152l2.352-.352v.352c0 1.68-.992 2.272-2.224 2.272zm10.343-5.152v-1.6a2.83 2.83 0 00-.496-.048c-.784 0-1.744.288-2.304 1.472v-1.344h-1.472V53h1.504v-3.856c0-1.696.848-2.368 2.112-2.368.208 0 .432.016.656.048zm2.109 9.392h1.648l5.008-10.912h-1.616l-2.304 5.312-2.4-5.312h-1.728l3.312 6.848-1.92 4.064z" fill="#fff"/><circle cx="96" cy="300" r="72.5" fill="#2971F0" stroke="#fff"/><path d="M37.44 286h1.6v-11.344h-1.6V286zm5.828 0v-4.448c0-1.168.608-2.112 1.792-2.112 1.344 0 1.792.864 1.792 1.936V286h1.504v-4.88c0-1.712-.912-3.04-2.752-3.04-.896 0-1.808.368-2.368 1.328v-1.104h-1.472V286h1.504zm9.497-7.696v-2.432h-1.376v1.248c0 .672-.352 1.184-1.184 1.184h-.416v1.36h1.472v4.224c0 1.392.832 2.192 2.144 2.192.512 0 .896-.096 1.024-.144v-1.28c-.128.032-.4.064-.592.064-.784 0-1.072-.352-1.072-1.056v-4h1.664v-1.36h-1.664zm10.297 5.504l-1.296-.448c-.288.864-.912 1.552-2.16 1.552-1.296 0-2.288-.96-2.32-2.336h5.792a3.38 3.38 0 00.032-.48c0-2.4-1.328-4.032-3.696-4.032-1.936 0-3.68 1.648-3.68 4.064 0 2.608 1.808 4.112 3.872 4.112 1.792 0 3.024-1.072 3.456-2.432zm-1.52-2.448h-4.208c.064-.992.832-1.968 2.096-1.968 1.36 0 2.08.864 2.112 1.968zm7.76-1.536v-1.6a2.83 2.83 0 00-.496-.048c-.784 0-1.744.288-2.304 1.472v-1.344H65.03V286h1.504v-3.856c0-1.696.848-2.368 2.112-2.368.208 0 .432.016.656.048zm1.123 4.112c0 1.216 1.008 2.304 2.576 2.304 1.376 0 2.144-.736 2.48-1.28 0 .56.048.848.08 1.04h1.472a7.24 7.24 0 01-.096-1.264v-3.856c0-1.504-.896-2.816-3.2-2.816-1.664 0-2.992 1.024-3.152 2.496l1.44.336c.096-.896.688-1.552 1.744-1.552 1.168 0 1.664.624 1.664 1.376 0 .272-.128.512-.592.576l-2.08.304c-1.328.192-2.336.96-2.336 2.336zm2.784 1.04c-.768 0-1.248-.544-1.248-1.12 0-.688.48-1.056 1.12-1.152l2.352-.352v.352c0 1.68-.992 2.272-2.224 2.272zm9.303-5.52c1.312 0 1.872.88 2.064 1.632l1.36-.576c-.32-1.168-1.376-2.448-3.424-2.448-2.192 0-3.872 1.68-3.872 4.08 0 2.336 1.648 4.096 3.888 4.096 2 0 3.104-1.296 3.472-2.4l-1.328-.576c-.176.608-.704 1.584-2.144 1.584-1.248 0-2.352-.944-2.352-2.704 0-1.792 1.12-2.688 2.336-2.688zm7.268-1.152v-2.432h-1.376v1.248c0 .672-.352 1.184-1.184 1.184h-.416v1.36h1.472v4.224c0 1.392.832 2.192 2.144 2.192.512 0 .896-.096 1.024-.144v-1.28c-.128.032-.4.064-.592.064-.784 0-1.072-.352-1.072-1.056v-4h1.664v-1.36H89.78zm3.336-2.912c0 .592.48 1.072 1.072 1.072.608 0 1.088-.48 1.088-1.072 0-.608-.48-1.088-1.088-1.088-.592 0-1.072.48-1.072 1.088zM93.452 286h1.488v-7.696h-1.488V286zm7.343-7.936c-2.304 0-3.936 1.744-3.936 4.08 0 2.352 1.632 4.096 3.936 4.096 2.304 0 3.936-1.744 3.936-4.096 0-2.336-1.632-4.08-3.936-4.08zm0 6.832c-1.28 0-2.4-.96-2.4-2.752 0-1.776 1.12-2.736 2.4-2.736 1.28 0 2.4.96 2.4 2.736 0 1.792-1.12 2.752-2.4 2.752zm7.364 1.104v-4.448c0-1.168.608-2.112 1.792-2.112 1.344 0 1.792.864 1.792 1.936V286h1.504v-4.88c0-1.712-.912-3.04-2.752-3.04-.896 0-1.808.368-2.368 1.328v-1.104h-1.472V286h1.504zm8.12-2.48l-1.36.48c.128.88 1.024 2.24 3.136 2.24 1.904 0 2.816-1.296 2.816-2.384 0-1.136-.736-1.984-2.128-2.288l-1.248-.272c-.592-.128-.88-.464-.88-.928 0-.528.512-1.024 1.28-1.024 1.216 0 1.536.88 1.6 1.28l1.328-.496c-.16-.688-.816-2.064-2.928-2.064-1.504 0-2.736 1.12-2.736 2.432 0 1.088.72 1.904 1.92 2.16l1.312.288c.64.144.992.512.992.992 0 .544-.464 1.024-1.312 1.024-1.088 0-1.696-.64-1.792-1.44zm16.483-5.216h-1.552l-2 5.792-1.728-5.792h-1.648l2.528 7.696h1.584l2-5.856 2.048 5.856h1.552l2.496-7.696h-1.584l-1.696 5.792-2-5.792zm6.463-2.912c0 .592.48 1.072 1.072 1.072.608 0 1.088-.48 1.088-1.072 0-.608-.48-1.088-1.088-1.088-.592 0-1.072.48-1.072 1.088zm.336 10.608h1.488v-7.696h-1.488V286zm6.063-7.696v-2.432h-1.376v1.248c0 .672-.352 1.184-1.184 1.184h-.416v1.36h1.472v4.224c0 1.392.832 2.192 2.144 2.192.512 0 .896-.096 1.024-.144v-1.28c-.128.032-.4.064-.592.064-.784 0-1.072-.352-1.072-1.056v-4h1.664v-1.36h-1.664zM150.8 286v-4.528c.032-1.136.64-2.032 1.792-2.032 1.344 0 1.792.864 1.792 1.936V286h1.504v-4.88c0-1.712-.912-3.04-2.752-3.04-.88 0-1.776.304-2.336 1.12v-4.784h-1.504V286h1.504zm-94.154 12.064c-2.304 0-3.936 1.744-3.936 4.08 0 2.352 1.632 4.096 3.936 4.096 2.304 0 3.936-1.744 3.936-4.096 0-2.336-1.632-4.08-3.936-4.08zm0 6.832c-1.28 0-2.4-.96-2.4-2.752 0-1.776 1.12-2.736 2.4-2.736 1.28 0 2.4.96 2.4 2.736 0 1.792-1.12 2.752-2.4 2.752zm7.798-6.592v-2.432h-1.376v1.248c0 .672-.352 1.184-1.184 1.184h-.416v1.36h1.472v4.224c0 1.392.832 2.192 2.144 2.192.512 0 .896-.096 1.024-.144v-1.28c-.128.032-.4.064-.592.064-.784 0-1.072-.352-1.072-1.056v-4h1.664v-1.36h-1.664zM69.62 306v-4.528c.032-1.136.64-2.032 1.792-2.032 1.344 0 1.792.864 1.792 1.936V306h1.504v-4.88c0-1.712-.912-3.04-2.752-3.04-.88 0-1.776.304-2.336 1.12v-4.784h-1.504V306h1.504zm14.184-2.192l-1.296-.448c-.288.864-.912 1.552-2.16 1.552-1.296 0-2.288-.96-2.32-2.336h5.792a3.38 3.38 0 00.032-.48c0-2.4-1.328-4.032-3.696-4.032-1.936 0-3.68 1.648-3.68 4.064 0 2.608 1.808 4.112 3.872 4.112 1.792 0 3.024-1.072 3.456-2.432zm-1.52-2.448h-4.208c.064-.992.832-1.968 2.096-1.968 1.36 0 2.08.864 2.112 1.968zm7.76-1.536v-1.6a2.83 2.83 0 00-.496-.048c-.784 0-1.744.288-2.304 1.472v-1.344h-1.472V306h1.504v-3.856c0-1.696.848-2.368 2.112-2.368.208 0 .432.016.656.048zm2.243 3.696l-1.36.48c.128.88 1.024 2.24 3.136 2.24 1.904 0 2.816-1.296 2.816-2.384 0-1.136-.736-1.984-2.128-2.288l-1.248-.272c-.592-.128-.88-.464-.88-.928 0-.528.512-1.024 1.28-1.024 1.216 0 1.536.88 1.6 1.28l1.328-.496c-.16-.688-.816-2.064-2.928-2.064-1.504 0-2.736 1.12-2.736 2.432 0 1.088.72 1.904 1.92 2.16l1.312.288c.64.144.992.512.992.992 0 .544-.464 1.024-1.312 1.024-1.088 0-1.696-.64-1.792-1.44zm16.483-5.216h-1.552l-2 5.792-1.728-5.792h-1.648L104.37 306h1.584l2-5.856 2.048 5.856h1.552l2.496-7.696h-1.584l-1.696 5.792-2-5.792zm8.303 7.696v-4.528c.032-1.136.64-2.032 1.792-2.032 1.344 0 1.792.864 1.792 1.936V306h1.504v-4.88c0-1.712-.912-3.04-2.752-3.04-.88 0-1.776.304-2.336 1.12v-4.784h-1.504V306h1.504zm14.184-2.192l-1.296-.448c-.288.864-.912 1.552-2.16 1.552-1.296 0-2.288-.96-2.32-2.336h5.792a3.38 3.38 0 00.032-.48c0-2.4-1.328-4.032-3.696-4.032-1.936 0-3.68 1.648-3.68 4.064 0 2.608 1.808 4.112 3.872 4.112 1.792 0 3.024-1.072 3.456-2.432zm-1.52-2.448h-4.208c.064-.992.832-1.968 2.096-1.968 1.36 0 2.08.864 2.112 1.968zm4.992 4.64v-4.448c0-1.168.608-2.112 1.792-2.112 1.344 0 1.792.864 1.792 1.936V306h1.504v-4.88c0-1.712-.912-3.04-2.752-3.04-.896 0-1.808.368-2.368 1.328v-1.104h-1.472V306h1.504zM55.75 325.072c0 .32.032.752.064.928h1.44c-.032-.272-.08-.816-.08-1.424v-6.272H55.67v4.64c0 1.168-.608 1.968-1.824 1.968-1.264 0-1.744-.928-1.744-1.984v-4.624h-1.504v4.848c0 1.744 1.088 3.088 2.88 3.088.896 0 1.856-.368 2.272-1.168zm4.63-1.552l-1.36.48c.129.88 1.025 2.24 3.137 2.24 1.904 0 2.816-1.296 2.816-2.384 0-1.136-.736-1.984-2.128-2.288l-1.248-.272c-.592-.128-.88-.464-.88-.928 0-.528.512-1.024 1.28-1.024 1.216 0 1.536.88 1.6 1.28l1.328-.496c-.16-.688-.816-2.064-2.928-2.064-1.504 0-2.736 1.12-2.736 2.432 0 1.088.72 1.904 1.92 2.16l1.312.288c.64.144.992.512.992.992 0 .544-.464 1.024-1.312 1.024-1.088 0-1.696-.64-1.792-1.44zm6.26-8.128c0 .592.48 1.072 1.071 1.072.608 0 1.088-.48 1.088-1.072 0-.608-.48-1.088-1.088-1.088-.592 0-1.072.48-1.072 1.088zM66.974 326h1.488v-7.696h-1.488V326zm5.551 0v-4.448c0-1.168.608-2.112 1.792-2.112 1.344 0 1.792.864 1.792 1.936V326h1.504v-4.88c0-1.712-.912-3.04-2.752-3.04-.896 0-1.808.368-2.368 1.328v-1.104h-1.472V326h1.504zm8.377.08l-1.456.336c.192 1.648 1.632 2.864 3.552 2.864 2.896 0 3.856-1.904 3.856-3.856v-7.12h-1.488v1.072c-.384-.768-1.184-1.216-2.368-1.216-2.112 0-3.536 1.664-3.536 3.744 0 2.176 1.488 3.728 3.536 3.728 1.152 0 1.984-.56 2.352-1.264v1.104c0 1.664-.736 2.496-2.352 2.496-1.168 0-1.984-.816-2.096-1.888zm2.32-1.712c-1.36 0-2.224-.96-2.224-2.464 0-1.488.896-2.464 2.224-2.464 1.296 0 2.192.976 2.192 2.464s-.896 2.464-2.192 2.464zM93.417 326h6.896v-1.456h-5.328v-3.472h4.832V319.6h-4.832v-3.488h5.328v-1.456h-6.896V326zm10.406 0v-4.448c0-1.168.608-2.112 1.792-2.112 1.344 0 1.792.864 1.792 1.936V326h1.504v-4.88c0-1.712-.912-3.04-2.752-3.04-.896 0-1.808.368-2.368 1.328v-1.104h-1.472V326h1.504zm8.376.08l-1.456.336c.192 1.648 1.632 2.864 3.552 2.864 2.896 0 3.856-1.904 3.856-3.856v-7.12h-1.488v1.072c-.384-.768-1.184-1.216-2.368-1.216-2.112 0-3.536 1.664-3.536 3.744 0 2.176 1.488 3.728 3.536 3.728 1.152 0 1.984-.56 2.352-1.264v1.104c0 1.664-.736 2.496-2.352 2.496-1.168 0-1.984-.816-2.096-1.888zm2.32-1.712c-1.36 0-2.224-.96-2.224-2.464 0-1.488.896-2.464 2.224-2.464 1.296 0 2.192.976 2.192 2.464s-.896 2.464-2.192 2.464zm6.034 1.632h1.504v-11.584h-1.504V326zm3.727-10.608c0 .592.48 1.072 1.072 1.072.608 0 1.088-.48 1.088-1.072 0-.608-.48-1.088-1.088-1.088-.592 0-1.072.48-1.072 1.088zm.336 10.608h1.488v-7.696h-1.488V326zm4.687-2.48l-1.36.48c.128.88 1.024 2.24 3.136 2.24 1.904 0 2.816-1.296 2.816-2.384 0-1.136-.736-1.984-2.128-2.288l-1.248-.272c-.592-.128-.88-.464-.88-.928 0-.528.512-1.024 1.28-1.024 1.216 0 1.536.88 1.6 1.28l1.328-.496c-.16-.688-.816-2.064-2.928-2.064-1.504 0-2.736 1.12-2.736 2.432 0 1.088.72 1.904 1.92 2.16l1.312.288c.64.144.992.512.992.992 0 .544-.464 1.024-1.312 1.024-1.088 0-1.696-.64-1.792-1.44zm8.098 2.48v-4.528c.032-1.136.64-2.032 1.792-2.032 1.344 0 1.792.864 1.792 1.936V326h1.504v-4.88c0-1.712-.912-3.04-2.752-3.04-.88 0-1.776.304-2.336 1.12v-4.784h-1.504V326h1.504z" fill="#fff"/></svg>