
<svg width="24" height="24" viewBox="0 0 24 24" fill="none" xmlns="http://www.w3.org/2000/svg">
<path d="M8.68721 14.8401C8.73034 14.8729 8.78307 14.8904 8.83721 14.8901H15.1702C15.2243 14.8904 15.2771 14.8729 15.3202 14.8401L23.0002 9.08214C23.0318 9.05841 23.0574 9.02752 23.0747 8.99201C23.0921 8.9565 23.1008 8.91737 23.1001 8.87785C23.0994 8.83832 23.0894 8.79952 23.0708 8.76463C23.0522 8.72974 23.0256 8.69976 22.9932 8.67714L12.8562 1.62714C12.6045 1.45309 12.3057 1.35986 11.9997 1.35986C11.6937 1.35986 11.3949 1.45309 11.1432 1.62714L1.01321 8.67414C0.980785 8.69676 0.954189 8.72674 0.935603 8.76163C0.917017 8.79652 0.906971 8.83532 0.906287 8.87485C0.905604 8.91438 0.914304 8.9535 0.931673 8.98901C0.949043 9.02452 0.974586 9.05541 1.00621 9.07914L8.68721 14.8401Z" fill="white"/>
<path d="M17.083 15.3932C17.051 15.4172 17.0252 15.4485 17.0078 15.4844C16.9904 15.5204 16.9819 15.5601 16.9829 15.6C16.984 15.64 16.9947 15.6791 17.014 15.7141C17.0333 15.7491 17.0608 15.779 17.094 15.8012L20.419 18.0162C20.5021 18.0703 20.5737 18.1404 20.6296 18.2223C20.6854 18.3043 20.7245 18.3965 20.7445 18.4936C20.7645 18.5908 20.765 18.6909 20.746 18.7883C20.727 18.8856 20.6889 18.9783 20.6339 19.0608C20.5789 19.1433 20.508 19.2141 20.4255 19.2691C20.3429 19.324 20.2503 19.3621 20.1529 19.381C20.0555 19.3999 19.9554 19.3993 19.8583 19.3793C19.7611 19.3592 19.6689 19.3201 19.587 19.2642L15.336 16.4322C15.2948 16.4049 15.2465 16.3903 15.197 16.3902H8.8C8.75055 16.3903 8.70221 16.4049 8.661 16.4322L4.419 19.2642C4.25349 19.3719 4.05217 19.41 3.85873 19.3702C3.6653 19.3304 3.49537 19.216 3.38582 19.0516C3.27628 18.8873 3.23596 18.6864 3.27363 18.4926C3.31129 18.2987 3.4239 18.1275 3.587 18.0162L6.91 15.8002C6.9432 15.7782 6.97061 15.7486 6.98993 15.7138C7.00926 15.6789 7.01991 15.64 7.021 15.6002C7.02203 15.5602 7.01349 15.5206 6.99609 15.4846C6.9787 15.4486 6.95295 15.4172 6.921 15.3932L0.4 10.5002C0.362858 10.4723 0.318692 10.4554 0.272451 10.4512C0.226211 10.447 0.179723 10.4558 0.138197 10.4766C0.0966702 10.4974 0.0617459 10.5293 0.0373373 10.5688C0.0129287 10.6083 0 10.6538 0 10.7002L0 20.6402C0 21.1706 0.210714 21.6793 0.585786 22.0544C0.960859 22.4295 1.46957 22.6402 2 22.6402H22C22.5304 22.6402 23.0391 22.4295 23.4142 22.0544C23.7893 21.6793 24 21.1706 24 20.6402V10.7062C24 10.6598 23.9871 10.6143 23.9627 10.5748C23.9383 10.5353 23.9033 10.5034 23.8618 10.4826C23.8203 10.4618 23.7738 10.453 23.7275 10.4572C23.6813 10.4614 23.6371 10.4783 23.6 10.5062L17.083 15.3932Z" fill="white"/>
</svg>
