
<svg width="18" height="16" viewBox="0 0 18 16" fill="none" xmlns="http://www.w3.org/2000/svg">
<path fill-rule="evenodd" clip-rule="evenodd" d="M12.2097 0.0841174C12.7355 0.0841174 13.2605 0.158284 13.7596 0.325784C16.8355 1.32578 17.9438 4.70078 17.018 7.65078C16.493 9.15828 15.6347 10.5341 14.5105 11.6583C12.9013 13.2166 11.1355 14.5999 9.23465 15.7916L9.02632 15.9175L8.80965 15.7833C6.90215 14.5999 5.12632 13.2166 3.50215 11.65C2.38548 10.5258 1.52632 9.15828 0.992983 7.65078C0.0513158 4.70078 1.15965 1.32578 4.26882 0.308284C4.51048 0.224951 4.75965 0.166617 5.00965 0.134117H5.10965C5.34382 0.0999508 5.57632 0.0841174 5.80965 0.0841174H5.90132C6.42632 0.0999508 6.93465 0.191617 7.42715 0.359117H7.47632C7.50965 0.374951 7.53465 0.392451 7.55132 0.408284C7.73548 0.467451 7.90965 0.534117 8.07632 0.625784L8.39298 0.767451C8.4695 0.80826 8.55539 0.870617 8.62961 0.924508C8.67665 0.958654 8.719 0.989401 8.75132 1.00912C8.76492 1.01714 8.77874 1.02521 8.79268 1.03335C8.86413 1.07505 8.93856 1.1185 9.00132 1.16662C9.92715 0.459117 11.0513 0.0757841 12.2097 0.0841174ZM14.426 6.0842C14.7676 6.07503 15.0593 5.80086 15.0843 5.45003V5.35086C15.1093 4.18336 14.4018 3.12586 13.326 2.71753C12.9843 2.60003 12.6093 2.7842 12.4843 3.1342C12.3676 3.4842 12.551 3.86753 12.901 3.9917C13.4351 4.1917 13.7926 4.71753 13.7926 5.30003V5.32586C13.7768 5.5167 13.8343 5.70086 13.951 5.84253C14.0676 5.9842 14.2426 6.0667 14.426 6.0842Z" fill="#FF6D03"/>
</svg>
