<svg width="80" height="83" fill="none" xmlns="http://www.w3.org/2000/svg"><ellipse cx="40" cy="79" rx="40" ry="4" fill="#E2E8F0"/><circle opacity=".3" cx="58" cy="60" r="16" fill="#FF6D03"/><path d="M11.25 77.5H57.5A17.498 17.498 0 0065 44.19V18.75a1.25 1.25 0 00-.366-.884l-15-15a1.25 1.25 0 00-.884-.366h-37.5A6.257 6.257 0 005 8.75v62.5a6.257 6.257 0 006.25 6.25zM72.5 60a15 15 0 11-15-15 15.017 15.017 0 0115 15zM50 6.768L60.732 17.5H53.75A3.754 3.754 0 0150 13.75V6.768zM7.5 8.75A3.754 3.754 0 0111.25 5H47.5v8.75A6.257 6.257 0 0053.75 20h8.75v23.23A17.497 17.497 0 0048.495 75H11.25a3.755 3.755 0 01-3.75-3.75V8.75z" fill="#1A202C"/><path d="M25 26.25a1.25 1.25 0 001.25 1.25h30a1.25 1.25 0 000-2.5h-30A1.25 1.25 0 0025 26.25zM13.75 35h25a1.25 1.25 0 000-2.5h-25a1.25 1.25 0 000 2.5zm30 5h-10a1.25 1.25 0 000 2.5h10a1.25 1.25 0 000-2.5zm-30 10h22.5a1.25 1.25 0 000-2.5h-22.5a1.25 1.25 0 000 2.5zm0-22.5h7.5a1.25 1.25 0 000-2.5h-7.5a1.25 1.25 0 000 2.5zm42.5 5h-12.5a1.25 1.25 0 000 2.5h12.5a1.25 1.25 0 000-2.5zm-42.5 10h15a1.25 1.25 0 000-2.5h-15a1.25 1.25 0 000 2.5zm20 20h-5a1.25 1.25 0 000 2.5h5a1.25 1.25 0 000-2.5zm-20 2.5h10a1.25 1.25 0 000-2.5h-10a1.25 1.25 0 000 2.5zm0-7.5h7.5a1.25 1.25 0 000-2.5h-7.5a1.25 1.25 0 000 2.5zm0-37.5h15a1.25 1.25 0 000-2.5h-15a1.25 1.25 0 000 2.5zm20 35h-7.5a1.25 1.25 0 000 2.5h7.5a1.25 1.25 0 000-2.5z" fill="#1A202C"/><path d="M50.884 62.866a1.25 1.25 0 00-1.768 1.768l5 5a1.25 1.25 0 001.924-.19l10-15a1.25 1.25 0 00-2.08-1.388l-9.154 13.732-3.922-3.922z" fill="#FF6D03"/></svg>