<svg width="80" height="83" fill="none" xmlns="http://www.w3.org/2000/svg"><ellipse cx="40" cy="79" rx="40" ry="4" fill="#E2E8F0"/><path opacity=".3" fill="#FF6D03" d="M56 49h8v25h-8z"/><path d="M16.25 50a4.989 4.989 0 001.698 3.75 4.988 4.988 0 000 7.5 4.993 4.993 0 001.65 8.469A4.998 4.998 0 0023.75 77.5h23.574a6.238 6.238 0 005.2-2.783l.645-.967h1.83A1.25 1.25 0 0056.25 75h7.5A1.25 1.25 0 0065 73.75v-25a1.25 1.25 0 00-1.25-1.25h-7.5A1.25 1.25 0 0055 48.75h-1.352a13.453 13.453 0 00-1.108-3.81c-1.094-2.344-3.393-5.268-8.155-6.105-.822-.971-3.425-4.43-4.401-10.29a1.25 1.25 0 00-1.536-1.008 7.854 7.854 0 00-3.02 1.678c-1.335 1.169-2.927 3.338-2.927 7.035 0 3.89 1.729 6.877 3.249 8.75h-14.5a5.006 5.006 0 00-5 5zm41.25 0h5v22.5h-5V50zm-38.75 7.5a2.503 2.503 0 012.5-2.5h7.5a2.5 2.5 0 110 5h-7.5a2.503 2.503 0 01-2.5-2.5zm0 7.5a2.503 2.503 0 012.5-2.5h7.5a2.5 2.5 0 110 5h-7.5a2.503 2.503 0 01-2.5-2.5zm5 10a2.5 2.5 0 110-5h5a2.5 2.5 0 110 5h-5zm15.753-29.748C39.458 45.219 35 41.772 35 36.25c0-3.331 1.63-4.966 2.825-5.717 1.517 6.762 4.888 10.198 5.041 10.35.191.192.44.316.707.354 7.542 1.078 7.675 8.454 7.677 8.763a1.25 1.25 0 001.25 1.25H55v20h-2.5a1.25 1.25 0 00-1.04.556l-1.016 1.524a3.742 3.742 0 01-3.12 1.67H33.078a4.988 4.988 0 00-1.025-6.25 4.988 4.988 0 00.821-6.574c4.554-.633 11.47-2.503 13.313-8.03a1.25 1.25 0 10-2.372-.791c-.611 1.835-2.52 4.319-8.135 5.734-.819.206-1.625.365-2.383.489a4.988 4.988 0 00-1.244-5.828 4.987 4.987 0 001.025-6.25h5.672a1.25 1.25 0 00.753-2.248zM31.25 50a2.503 2.503 0 01-2.5 2.5h-7.5a2.5 2.5 0 110-5h7.5a2.502 2.502 0 012.5 2.5z" fill="#1A202C"/><path d="M33.665 15.303l-1.14 5.702a1.25 1.25 0 001.868 1.317L40 18.958l5.607 3.364a1.25 1.25 0 001.869-1.317l-1.14-5.702 3.414-4.553a1.25 1.25 0 00-1-2h-4.292l-3.386-5.643a1.25 1.25 0 00-2.144 0L35.542 8.75H31.25a1.25 1.25 0 00-1 2l3.415 4.553zm2.585-4.053a1.25 1.25 0 001.072-.607L40 6.18l2.678 4.463a1.251 1.251 0 001.072.607h2.5l-2.25 3a1.252 1.252 0 00-.226.995l.696 3.48-3.827-2.298a1.25 1.25 0 00-1.286 0l-3.827 2.297.696-3.479A1.25 1.25 0 0036 14.25l-2.25-3h2.5zm23.665 16.553l-1.14 5.702a1.25 1.25 0 001.868 1.317l5.607-3.364 5.607 3.364a1.25 1.25 0 001.869-1.317l-1.14-5.702L76 23.25a1.25 1.25 0 00-1-2h-4.292l-3.386-5.643a1.25 1.25 0 00-2.144 0l-3.386 5.643H57.5a1.25 1.25 0 00-1 2l3.415 4.553zM62.5 23.75a1.25 1.25 0 001.072-.607l2.678-4.463 2.678 4.463A1.251 1.251 0 0070 23.75h2.5l-2.25 3a1.252 1.252 0 00-.226.995l.696 3.48-3.827-2.298a1.25 1.25 0 00-1.286 0l-3.827 2.297.696-3.479a1.25 1.25 0 00-.226-.995l-2.25-3h2.5zM7.415 27.803l-1.14 5.702a1.25 1.25 0 001.868 1.317l5.607-3.364 5.607 3.364a1.25 1.25 0 001.869-1.317l-1.14-5.702L23.5 23.25a1.25 1.25 0 00-1-2h-4.292l-3.386-5.643a1.25 1.25 0 00-2.144 0L9.292 21.25H5a1.25 1.25 0 00-1 2l3.415 4.553zM10 23.75a1.25 1.25 0 001.072-.607l2.678-4.463 2.678 4.463a1.251 1.251 0 001.072.607H20l-2.25 3a1.25 1.25 0 00-.226.995l.696 3.48-3.827-2.298a1.25 1.25 0 00-1.286 0L9.28 31.224l.696-3.479a1.249 1.249 0 00-.226-.995l-2.25-3H10z" fill="#FF6D03"/></svg>