<svg width="80" height="82" fill="none" xmlns="http://www.w3.org/2000/svg"><ellipse cx="40" cy="78" rx="40" ry="4" fill="#E2E8F0"/><path opacity=".3" d="M60.556 27.778L50 19.444h-.556l2.223-2.222 2.777 1.111 10 5.556L70 30.555l3.333 8.89v8.888l-2.222 9.445-6.11 8.889-6.668 6.666c-2.037.741-6.889 2.222-10 2.222-3.11 0-.555-1.851 1.111-2.777l7.778-5.556 5-6.666 3.89-9.445V43.89l-1.667-8.334-3.89-7.777z" fill="#FF6D03"/><path d="M24.444 73.889c.741-.185.667-1.222-5.555-3.889l5.555-6.667c2.223-.74 7.334-3 10-6.11C37.111 54.11 49.26 61.48 55 65.554l-3.889 6.667-1.667 1.667c-1.666.555-5.444 1.666-7.222 1.666H35L24.444 73.89z" fill="#fff"/><path d="M53.693 16.616a1.241 1.241 0 00-.57-1.45c-.742-.427-3.163-2.153-3.123-6.404a1.25 1.25 0 00-2.498-.082c-.153 2.713-.711 4.837-2.875 6.32H36.25C19.019 15 5 29.019 5 46.25a31.002 31.002 0 008.354 21.266 8.053 8.053 0 01-.263.172 1.25 1.25 0 00-.05 2.092c2.535 1.744 3.102 5.491 3.216 6.598a1.25 1.25 0 002.486 0 12.86 12.86 0 01.93-3.633A31.068 31.068 0 0036.25 77.5h7.5C60.981 77.5 75 63.481 75 46.25a31.26 31.26 0 00-21.307-29.634zM65.859 56.25h4.846a28.737 28.737 0 01-4.161 7.5h-4.416a31.167 31.167 0 003.731-7.5zm.003-20h4.846a28.682 28.682 0 011.683 7.5H67.4a31.233 31.233 0 00-1.538-7.5zM65 33.75v.239a31.092 31.092 0 00-4.739-7.739h4.148a28.851 28.851 0 015.233 7.5H65zm-3.339-10h-3.729a31.327 31.327 0 00-6.357-4.739 6.85 6.85 0 01.247-.361 28.605 28.605 0 019.839 5.1zm-12.912-9.677a8.56 8.56 0 001.753 2.256 9.92 9.92 0 00-1.752 2.637 9.907 9.907 0 00-1.76-2.647 8.15 8.15 0 001.759-2.246zM17.5 71.466a9.906 9.906 0 00-1.76-2.646c.713-.64 1.31-1.4 1.759-2.247a8.56 8.56 0 001.753 2.256 9.918 9.918 0 00-1.752 2.637zm3.5-.841c.286-.318.607-.602.959-.846a1.25 1.25 0 00-.085-2.113c-.743-.428-3.163-2.153-3.124-6.405a1.25 1.25 0 00-2.498-.082c-.1 1.77-.372 3.291-1.15 4.547A28.52 28.52 0 017.5 46.25c0-15.853 12.897-28.75 28.75-28.75a28.64 28.64 0 019.802 1.716c1.067 1.78 1.375 3.88 1.455 4.661a1.25 1.25 0 002.486 0c.094-.876.274-1.741.538-2.582A28.657 28.657 0 0165 46.25C65 62.103 52.103 75 36.25 75A28.58 28.58 0 0121 70.625zm28.977 3.693a31.444 31.444 0 0010.265-8.068h4.14a28.742 28.742 0 01-14.405 8.069zM71.506 53.75h-4.918a31.18 31.18 0 00.912-7.5h5a28.684 28.684 0 01-.994 7.5z" fill="#1A202C"/><path d="M5.385 12.28c2.535 1.743 3.102 5.49 3.215 6.597a1.25 1.25 0 002.487 0c.114-1.107.68-4.853 3.215-6.597a1.251 1.251 0 00-.085-2.113c-.742-.428-3.163-2.154-3.123-6.405a1.25 1.25 0 00-2.498-.083c-.16 2.83-.759 5.019-3.161 6.508a1.25 1.25 0 00-.05 2.093zm4.459 1.686a9.909 9.909 0 00-1.761-2.646c.714-.64 1.31-1.4 1.76-2.247a8.556 8.556 0 001.753 2.256 9.915 9.915 0 00-1.752 2.637zM36.25 37.5A3.754 3.754 0 0140 41.25a1.25 1.25 0 002.5 0 6.26 6.26 0 00-5-6.124V32.5a1.25 1.25 0 00-2.5 0v2.626A6.25 6.25 0 0036.25 47.5a3.75 3.75 0 11-3.75 3.75 1.25 1.25 0 00-2.5 0 6.26 6.26 0 005 6.125V60a1.25 1.25 0 002.5 0v-2.625A6.25 6.25 0 0036.25 45a3.75 3.75 0 010-7.5z" fill="#FF6D03"/><path d="M56 33.055a1.25 1.25 0 10-2.078 1.39A21.148 21.148 0 0157.5 46.25c0 11.717-9.533 21.25-21.25 21.25a21.115 21.115 0 01-8.264-1.666 1.25 1.25 0 00-.972 2.303A23.603 23.603 0 0036.25 70C49.346 70 60 59.346 60 46.25a23.64 23.64 0 00-4-13.195zm-16.207-7.761a1.25 1.25 0 10.414-2.466 23.975 23.975 0 00-3.957-.328c-13.096 0-23.75 10.654-23.75 23.75a23.785 23.785 0 00.928 6.597 1.25 1.25 0 002.402-.694A21.284 21.284 0 0115 46.25C15 34.533 24.533 25 36.25 25c1.187 0 2.372.098 3.543.294z" fill="#1A202C"/></svg>