<svg width="64" height="64" fill="none" xmlns="http://www.w3.org/2000/svg"><g clip-path="url(#clip0)" fill="#FF7613"><path d="M7.981 17.754h18.997l3.96 3.96a1.419 1.419 0 001.55.308c.534-.221.878-.737.878-1.314v-3.154a3.707 3.707 0 002.49-3.488V3.69A3.692 3.692 0 0032.168.001H7.981A3.692 3.692 0 004.293 3.69v.758a.937.937 0 101.875 0V3.69c0-1 .814-1.813 1.813-1.813h24.187c1 0 1.813.813 1.813 1.813v10.377a1.82 1.82 0 01-1.436 1.773 1.339 1.339 0 00-1.054 1.308v2.469l-3.344-3.344a1.329 1.329 0 00-.947-.393H7.981c-1 0-1.813-.813-1.813-1.813v-5.23a.937.937 0 10-1.875 0v5.23a3.692 3.692 0 003.688 3.687z"/><path d="M63.063 43.242c.517 0 .937-.42.937-.937v-.722c0-2.88-1.93-5.457-4.692-6.268l-5.083-1.492a1.868 1.868 0 00-.502-.33l-1.06-.471a2.23 2.23 0 00-.88-.194v-2.23a7.733 7.733 0 003.091-5.263 2.004 2.004 0 001.458-1.926v-6.71a2.96 2.96 0 00-2.78-2.951 2.961 2.961 0 00-2.948-2.707h-6.96a5.592 5.592 0 00-5.586 5.586v6.782c0 .915.617 1.688 1.457 1.926a7.735 7.735 0 003.092 5.262v2.227c-.296.006-.592.07-.87.196l-1.04.466a1.866 1.866 0 00-.498.328l-5.114 1.501a6.568 6.568 0 00-4.693 6.269v5.09a6.372 6.372 0 00-2.239-1.18c-.082-.024.398.073-7.3-1.394v-.02a24.46 24.46 0 003.593-.948c2.603-.903 4.297-3.58 2.97-8.005a15.707 15.707 0 01-.661-4.51c-.002-5.726-4.662-10.384-10.388-10.384S5.982 24.89 5.98 30.62c0 1.527-.223 3.043-.662 4.506-1.312 4.38.33 7.088 2.97 8.005 1.174.408 2.375.724 3.59.947-7.664 1.484-7.216 1.392-7.296 1.416A6.413 6.413 0 000 51.615v8.851a3.531 3.531 0 003.533 3.533h.007l56.927-.058A3.537 3.537 0 0064 60.41V46.688a.937.937 0 10-1.875 0v2.168H51.167l-1.659-7.395.898-1.609c.356-.069.697-.239.979-.51l2.88-2.805a1.87 1.87 0 00.423-.624l4.092 1.201a4.683 4.683 0 013.345 4.47v.72c0 .519.42.938.938.938zm-23.13-26.615a3.715 3.715 0 013.711-3.711h6.96c.597 0 1.083.485 1.083 1.082 0 .893.726 1.62 1.62 1.62h.067c.597 0 1.083.485 1.083 1.082v3.473h-.459a.468.468 0 01-.467-.468v-.77c0-1.656-1.627-2.812-3.181-2.298a10.122 10.122 0 01-6.31 0 2.42 2.42 0 00-3.18 2.299v.769c0 .258-.21.468-.469.468h-.458v-3.546zm1.41 8.116a1.29 1.29 0 00-1.284-1.208.126.126 0 01-.126-.126v-1.361h.458a2.346 2.346 0 002.343-2.343v-.77c0-.37.36-.636.72-.517 2.413.797 5.071.797 7.484 0a.545.545 0 01.718.518v.769a2.346 2.346 0 002.342 2.343h.459v1.36c0 .07-.057.127-.126.127-.677 0-1.24.53-1.284 1.208a5.873 5.873 0 01-5.852 5.49 5.873 5.873 0 01-5.853-5.49zm6.621 15.636H46.41l-.603-1.037 1.46-1.22 1.325 1.134-.627 1.123zm1.28 8.477H45.14l1.48-6.602h1.144l1.48 6.602zm-1.981-13.139l-2.781-2.078v-2.022a7.695 7.695 0 002.713.492c.952 0 1.867-.174 2.713-.492v2.052l-2.645 2.048zm-4.758-.987a.354.354 0 01.357.04l2.9 2.166-1.348 1.125a.06.06 0 01-.023.012l-.012.002a.057.057 0 01-.04-.015l-2.863-2.868 1.029-.462zM8.904 41.36c-2.37-.823-2.507-3.302-1.79-5.696.491-1.637.74-3.334.741-5.048.002-4.692 3.82-8.51 8.513-8.51 4.692 0 8.51 3.818 8.512 8.514 0 1.71.25 3.407.74 5.044.718 2.394.581 4.873-1.789 5.696a22.851 22.851 0 01-14.927 0zm10.075 2.99v.332c-1.027 2.21-4.213 2.2-5.226-.02v-.312c1.717.181 3.468.186 5.226 0zM30.86 61.826a.24.24 0 01-.232.241h-.012l-.021.002-27.059.055h-.003a1.657 1.657 0 01-1.658-1.658v-8.851a4.529 4.529 0 013.195-4.31l7.222-1.396c1.817 3.07 6.326 3.06 8.146.02l7.229 1.377a4.505 4.505 0 013.193 4.309v10.211zm1.407-20.243a4.683 4.683 0 013.346-4.469l4.124-1.21c.092.223.228.429.404.605l2.88 2.883c.002.004.006.007.009.01.268.261.593.43.934.505l.91 1.563-1.656 7.386h-10.95v-7.273zm29.858 9.148v9.678a1.66 1.66 0 01-1.658 1.657H32.722c.008-.078.013-.159.013-.24V51.615c0-.297-.02-.592-.062-.884h29.452zM50.081 37.995a.057.057 0 01-.04.016 1.44 1.44 0 00-.021-.005.058.058 0 01-.016-.009l-1.246-1.066 2.78-2.153a.354.354 0 01.362-.044l1.049.468-2.868 2.793z"/></g><defs><clipPath id="clip0"><path fill="#fff" d="M0 0h64v64H0z"/></clipPath></defs></svg>