<svg width="64" height="64" fill="none" xmlns="http://www.w3.org/2000/svg"><g clip-path="url(#clip0)" fill="#FF6D03"><path d="M45.52 28.676H15.047a.938.938 0 000 1.875H45.52a.938.938 0 100-1.875zm0-5.856H15.047a.938.938 0 000 1.875H45.52a.937.937 0 100-1.875zM18.04 10.083h1.615a.938.938 0 000-1.875H18.04c-1.372 0-2.52.68-3.233 1.915-.923 1.6-.925 3.917-.004 5.509.71 1.228 1.858 1.904 3.233 1.904h1.957a.937.937 0 100-1.875h-1.955c-.698 0-1.24-.326-1.611-.968-.587-1.015-.585-2.61.005-3.633.374-.649.915-.977 1.609-.977zm6.324 6.684c.198.471.609.767 1.073.77h.011c.465 0 .867-.28 1.076-.754a.953.953 0 00.029-.073l2.516-7.258a.938.938 0 00-1.772-.614l-1.85 5.336-1.85-5.336a.938.938 0 00-1.77.614l2.515 7.258a.877.877 0 00.022.057zm2.807 31.354a.938.938 0 000-1.875H15.047a.938.938 0 000 1.875h12.124zm26.407-5.117a.938.938 0 00-1.321.117L45.4 51.313l-3.24-2.754a.937.937 0 10-1.214 1.429l3.96 3.365a.937.937 0 001.325-.113l7.464-8.916a.937.937 0 00-.117-1.32z"/><path d="M58.572 37.771a15.294 15.294 0 00-5.883-3.678v-7.92a.938.938 0 00-1.875 0v7.41a15.481 15.481 0 00-3.097-.31 15.31 15.31 0 00-6.113 1.262H15.047a.937.937 0 100 1.875h23.37a15.36 15.36 0 00-3.653 3.98H15.047a.937.937 0 100 1.876H33.75a15.463 15.463 0 00.275 13.314H8.638V1.875H41.7l-.006 4.745a3.957 3.957 0 003.953 3.952h5.167v11.276a.938.938 0 001.875 0l-.004-12.044c0-.579-.306-.868-.553-1.1L43.768.716 43.64.595C43.321.29 43.02 0 42.444 0H8.451a1.69 1.69 0 00-1.688 1.688v3.576H2.629A1.69 1.69 0 00.942 6.952v24.925a.938.938 0 001.875 0V7.139h3.946v48.628a1.69 1.69 0 001.688 1.688h26.696a15.38 15.38 0 003.247 3.39H2.817v-24.64a.938.938 0 00-1.875 0v24.826a1.69 1.69 0 001.687 1.688h38.934c1.915.84 4 1.281 6.154 1.281 4.1 0 7.955-1.598 10.856-4.5 5.98-5.99 5.98-15.738 0-21.729zM43.574 3.124l5.837 5.573h-3.764A2.08 2.08 0 0143.57 6.62l.004-3.497zm13.672 55.051a13.385 13.385 0 01-9.529 3.95 13.43 13.43 0 01-5.49-1.163 13.487 13.487 0 01-4.038-2.786c-4.382-4.39-5.107-11.076-2.176-16.225a.93.93 0 00.186-.316 13.472 13.472 0 011.99-2.539 13.484 13.484 0 014.076-2.803 13.435 13.435 0 015.452-1.146c1.285 0 2.541.18 3.743.525l.043.013a13.408 13.408 0 015.742 3.411c5.252 5.26 5.252 13.82.001 19.08z"/></g><defs><clipPath id="clip0"><path fill="#fff" d="M0 0h64v64H0z"/></clipPath></defs></svg>