<svg width="64" height="64" fill="none" xmlns="http://www.w3.org/2000/svg"><g clip-path="url(#clip0)" fill="#FF6D03"><path d="M62.18 55.975h-1.496l1.053-11.711a1.582 1.582 0 00-1.573-1.72H49.836c-.443 0-.868.187-1.166.513a1.583 1.583 0 00-.407 1.207l1.052 11.71h-2.459c.116-.31.18-.645.18-.995v-2.233a2.149 2.149 0 00-2.147-2.146h-1.025a2.34 2.34 0 00.047-.467v-21.98c0-1.29-1.05-2.34-2.34-2.34h-2.677c.163-2.19-.357-4.356-1.112-6.428a3.732 3.732 0 002.427-3.491 3.73 3.73 0 00-3.726-3.726h-.252V11.3c0-6.23-5.07-11.3-11.3-11.3-6.231 0-11.3 5.07-11.3 11.3v.868h-.252a3.73 3.73 0 00-3.726 3.725 3.732 3.732 0 002.427 3.492c-.756 2.071-1.275 4.237-1.111 6.429h-2.68a2.342 2.342 0 00-2.338 2.339v2.27a.936.936 0 101.872 0v-2.27c0-.258.21-.467.467-.467h33.282c.257 0 .467.21.467.467v21.98c0 .258-.21.467-.467.467H8.29a.467.467 0 01-.467-.467V34.807a.936.936 0 00-1.872 0v15.326c0 .16.016.316.047.467H4.973a2.149 2.149 0 00-2.147 2.146v2.233c0 .35.064.685.18.996H1.82a1.78 1.78 0 00-1.779 1.778v4.47A1.782 1.782 0 001.821 64H62.18a1.78 1.78 0 001.778-1.778v-4.47a1.78 1.78 0 00-1.778-1.777zM36.23 14.04h.253c1.022 0 1.854.831 1.854 1.854a1.856 1.856 0 01-1.854 1.853h-.252V14.04zM15.504 11.3c0-5.199 4.23-9.428 9.428-9.428s9.428 4.23 9.428 9.428v2.16c-1.87-.195-6.13-1.024-8.669-4.551a.936.936 0 00-1.519 0c-2.54 3.527-6.799 4.356-8.668 4.55V11.3zm-3.978 4.593c0-1.022.832-1.853 1.854-1.853h.252v3.707h-.252a1.856 1.856 0 01-1.854-1.854zm1.32 9.92c-.165-1.875.286-3.806.96-5.688a11.269 11.269 0 002.842 5.689h-3.802zm17.554 0H19.463a9.418 9.418 0 01-3.96-7.671v-2.797c1.92-.166 6.333-.924 9.428-4.395 3.094 3.47 7.507 4.23 9.428 4.396v2.796a9.418 9.418 0 01-3.96 7.672zm6.617 0h-3.802a11.267 11.267 0 002.842-5.688c.675 1.882 1.126 3.813.96 5.689zm22.828 18.603l-.21 2.327h-3.862a.936.936 0 000 1.872h3.694l-.28 3.122-8.372-.001-.28-3.12h.891a.936.936 0 100-1.872h-1.06l-.21-2.328h9.689zm-.827 9.193l-.212 2.366h-7.61l-.213-2.367h8.035zm-54.319-.863c0-.15.123-.274.275-.274H44.89c.151 0 .274.123.274.274v2.233a.997.997 0 01-.996.996H5.695a.997.997 0 01-.997-.996v-2.233zm57.388 9.382H1.915v-4.281h60.17v4.281z"/><path d="M30.203 39.143a5.278 5.278 0 00-5.272-5.272 5.278 5.278 0 00-5.272 5.272 5.278 5.278 0 005.272 5.272 5.278 5.278 0 005.271-5.272zm-8.672 0c0-1.875 1.525-3.4 3.4-3.4 1.874 0 3.4 1.525 3.4 3.4s-1.526 3.4-3.4 3.4a3.404 3.404 0 01-3.4-3.4zm-.905-23.313a.936.936 0 00-.936.935v1.243a.936.936 0 001.872 0v-1.243a.936.936 0 00-.936-.936zm9.03 0a.936.936 0 00-.936.935v1.243a.936.936 0 001.872 0v-1.243a.936.936 0 00-.936-.936zm-2.546 4.977a.937.937 0 00-1.315.149 1.109 1.109 0 01-1.735.008.936.936 0 10-1.453 1.18 2.973 2.973 0 002.318 1.104 2.97 2.97 0 002.334-1.126.936.936 0 00-.148-1.315z"/></g><defs><clipPath id="clip0"><path fill="#fff" d="M0 0h64v64H0z"/></clipPath></defs></svg>