<svg width="80" height="80" fill="none" xmlns="http://www.w3.org/2000/svg"><ellipse cx="40" cy="76" rx="40" ry="4" fill="#E2E8F0"/><path d="M37.866 23.384a1.25 1.25 0 101.768-1.768l-2.5-2.5a1.251 1.251 0 00-1.768 0l-2.5 2.5a1.25 1.25 0 001.768 1.768l.366-.366v13.447a3.749 3.749 0 00-2.134 5.15l-6.616 6.617v-.517a1.25 1.25 0 10-2.5 0v3.535A1.25 1.25 0 0025 52.5h3.535a1.25 1.25 0 000-2.5h-.517l6.616-6.616a3.748 3.748 0 005.373-3.432 3.75 3.75 0 00-2.507-3.487V23.018l.366.366zM36.25 41.25a1.25 1.25 0 110-2.501 1.25 1.25 0 010 2.501z" fill="#FF6D03"/><path opacity=".3" d="M68.333 47.778H44.444v13.889l2.223 5.555 11.666.556L65 65.556l3.333-5V47.778z" fill="#FF6D03"/><path d="M69.355 61.25H72.5a5.006 5.006 0 005-5v-2.5a5.006 5.006 0 00-5-5H70V47.5a1.249 1.249 0 00-.615-1.075 33.75 33.75 0 10-27.954 26.928c.69.263 1.422.397 2.16.397H71.41a6.098 6.098 0 006.091-6.091V67.5a1.25 1.25 0 00-1.25-1.25H65.81a11.293 11.293 0 003.545-5zm3.145-10a2.503 2.503 0 012.5 2.5v2.5a2.503 2.503 0 01-2.5 2.5h-2.57c.047-.415.07-.832.071-1.25v-6.25h2.5zM5 40C5 22.769 19.02 8.75 36.25 8.75S67.5 22.769 67.5 40c0 2.099-.21 4.193-.627 6.25h-2.559C64.77 44.198 65 42.102 65 40c0-15.853-12.897-28.75-28.75-28.75S7.5 24.147 7.5 40s12.897 28.75 28.75 28.75c.45 0 .898-.012 1.344-.032a6.054 6.054 0 001.017 2.442c-.785.06-1.574.09-2.361.09C19.019 71.25 5 57.231 5 40zm40.125 24.712A25.988 25.988 0 0137.5 66.22V65a1.25 1.25 0 10-2.5 0v1.22a26.15 26.15 0 01-16.398-6.804l.854-.854a1.25 1.25 0 00-1.767-1.768l-.855.854a26.149 26.149 0 01-6.803-16.398h1.22a1.25 1.25 0 000-2.5h-1.22a26.149 26.149 0 016.803-16.398l.855.854a1.25 1.25 0 101.767-1.768l-.854-.854A26.15 26.15 0 0135 13.781V15a1.25 1.25 0 002.5 0v-1.219a26.149 26.149 0 0116.398 6.804l-.854.854a1.25 1.25 0 001.768 1.768l.854-.854A26.149 26.149 0 0162.47 38.75h-1.22a1.25 1.25 0 100 2.5h1.217a26.278 26.278 0 01-.716 5h-18a1.25 1.25 0 00-1.25 1.25v10a11.197 11.197 0 002.624 7.212zm29.706 4.038a3.598 3.598 0 01-3.422 2.5H43.59a3.597 3.597 0 01-3.422-2.5H74.83zm-21.08-2.5A8.76 8.76 0 0145 57.5v-8.75h22.5v8.75a8.76 8.76 0 01-8.75 8.75h-5z" fill="#1A202C"/><path d="M47.5 43.75a1.25 1.25 0 001.25-1.25c0-.955.207-1.369.493-1.94A6.083 6.083 0 0050 37.5a1.25 1.25 0 00-2.5 0c0 .955-.207 1.369-.493 1.94a6.073 6.073 0 00-.757 3.06 1.25 1.25 0 001.25 1.25zm6.25 0A1.25 1.25 0 0055 42.5c0-.955.207-1.369.493-1.94a6.083 6.083 0 00.757-3.06 1.25 1.25 0 00-2.5 0c0 .955-.207 1.369-.493 1.94a6.073 6.073 0 00-.757 3.06 1.25 1.25 0 001.25 1.25z" fill="#1A202C"/></svg>