<svg width="83" height="80" fill="none" xmlns="http://www.w3.org/2000/svg"><ellipse cx="43" cy="76" rx="40" ry="4" fill="#E2E8F0"/><path d="M46.25 27.5a1.25 1.25 0 100-2.5 1.25 1.25 0 000 2.5z" fill="#1A202C"/><path opacity=".3" d="M57.5 49.5l-6-3.5-.5 9-.5 9-1.5 4c.167.333.6 1 1 1h14.5l9-1 .5-4.5v-9L73 46l-4-4-5-1-6.5 8.5z" fill="#FF6D03"/><path d="M68.5 63.5H51l-.5 5c3.167.167 9.5.6 9.5 1s4.333-.5 6.5-1l2-2.5v-2.5z" fill="#fff"/><path d="M58.75 27.5a1.25 1.25 0 100-2.5 1.25 1.25 0 000 2.5z" fill="#1A202C"/><path d="M76.25 67.5H75V48.75a8.766 8.766 0 00-7.001-8.574 11.704 11.704 0 004.501-9.27v-9.053C72.5 11.182 64.089 2.5 53.75 2.5h-2.5c-10.339 0-18.75 8.682-18.75 19.353v9.052c0 .534.035 1.066.106 1.595H11.25A6.257 6.257 0 005 38.75v25a6.217 6.217 0 001.253 3.75H3.75a1.25 1.25 0 00-1.25 1.25v5A1.25 1.25 0 003.75 75h72.5a1.25 1.25 0 001.25-1.25v-5a1.25 1.25 0 00-1.25-1.25zM72.5 48.75V67.5h-3.753A6.217 6.217 0 0070 63.75a1.25 1.25 0 00-1.25-1.25H52.5V47.812L56.75 51a1.25 1.25 0 001.767-.273l5.876-8.227h1.857a6.257 6.257 0 016.25 6.25zM44.07 32.5a8.643 8.643 0 01-1.57-5v-6.25h20v6.25a8.76 8.76 0 01-8.75 8.75h-1.773a6.259 6.259 0 00-5.727-3.75h-2.18zm17.25 10l-4.093 5.732L54.25 46l2.625-3.5h4.446zM55 40.833l-2.5 3.334V38.75h1.25a11.3 11.3 0 001.25-.071v2.154zM52.375 65h14.912a3.757 3.757 0 01-3.537 2.5H51.247a6.226 6.226 0 001.128-2.5zM35 30.905v-9.052C35 12.56 42.29 5 51.25 5h2.5C62.71 5 70 12.56 70 21.853v9.052C70 35.921 66.075 40 61.25 40H57.5v-1.895A11.268 11.268 0 0065 27.5V20a1.25 1.25 0 00-1.25-1.25h-2.5V15a1.25 1.25 0 00-2.5 0v3.75h-2.5V15a1.25 1.25 0 00-2.5 0v3.75h-2.5V15a1.25 1.25 0 00-2.5 0v3.75h-2.5V15a1.25 1.25 0 00-2.5 0v3.75h-2.5A1.25 1.25 0 0040 20v7.5a11.288 11.288 0 001.174 5h-6.04A9.523 9.523 0 0135 30.905zM7.5 63.75v-25A3.754 3.754 0 0111.25 35h35A3.754 3.754 0 0150 38.75v25a3.754 3.754 0 01-3.75 3.75h-35a3.754 3.754 0 01-3.75-3.75zM75 72.5H5V70h70v2.5z" fill="#1A202C"/><rect x="22.15" y="44.15" width="13.7" height="13.7" rx="6.85" stroke="#FF6D03" stroke-width="2.3"/></svg>