<svg width="64" height="64" fill="none" xmlns="http://www.w3.org/2000/svg"><path d="M52.04 15.03a.937.937 0 00-.938.937v42.086a.065.065 0 01-.064.064H17.971a.938.938 0 000 1.875h33.067c1.07 0 1.94-.87 1.94-1.94V15.968a.938.938 0 00-.938-.937z" fill="#FF6D03"/><path d="M55.046 4.008h-8.63L43.27.862A2.922 2.922 0 0041.19 0H8.953c-1.07 0-1.94.87-1.94 1.94v56.112c0 1.07.87 1.94 1.94 1.94h2.069v2.069c0 1.069.87 1.939 1.94 1.939h42.084c1.07 0 1.94-.87 1.94-1.94V5.948c0-1.07-.87-1.94-1.94-1.94zm-13.09-1.81l8.823 8.824h-8.76a.064.064 0 01-.064-.064v-8.76zM55.11 62.062a.064.064 0 01-.065.064H12.961a.064.064 0 01-.064-.064v-2.069h1.066a.937.937 0 100-1.875h-5.01a.065.065 0 01-.064-.064V1.94c0-.036.029-.065.064-.065H40.08v9.083c0 1.07.87 1.94 1.94 1.94h10.02c.518 0 .938-.42.938-.938v-.172a2.92 2.92 0 00-.862-2.08l-3.825-3.825h6.755c.036 0 .065.029.065.065V62.06z" fill="#FF6D03"/><path d="M25.649 10.71a.937.937 0 00-1.326 0l-5.303 5.303a.064.064 0 01-.092 0L16.814 13.9h1.628a.938.938 0 000-1.875h-2.474c-.3 0-.583.07-.837.193l-.504-.505a.937.937 0 10-1.326 1.326l.737.737a1.96 1.96 0 00-.01.189v6.012c0 1.07.87 1.94 1.94 1.94h6.012c1.07 0 1.94-.87 1.94-1.94v-6.211l1.729-1.73a.937.937 0 000-1.325zm-3.605 9.266a.064.064 0 01-.064.064h-6.012a.064.064 0 01-.065-.064V15.64l1.7 1.7c.378.377.874.566 1.371.566s.993-.189 1.371-.567l1.7-1.699v4.336zm-.064 5.074h-6.012c-1.07 0-1.94.87-1.94 1.94v6.012c0 1.07.87 1.94 1.94 1.94h6.012c1.07 0 1.94-.87 1.94-1.94V26.99c0-1.07-.87-1.94-1.94-1.94zm.065 7.952a.064.064 0 01-.065.064h-6.012a.064.064 0 01-.065-.064V26.99c0-.036.03-.065.065-.065h6.012c.036 0 .065.03.065.065v6.012zm-.065 5.075h-6.012c-1.07 0-1.94.87-1.94 1.94v6.011c0 1.07.87 1.94 1.94 1.94h6.012c1.07 0 1.94-.87 1.94-1.94v-6.012c0-1.07-.87-1.94-1.94-1.94zm.065 7.951a.064.064 0 01-.065.065h-6.012a.065.065 0 01-.065-.065v-6.012c0-.035.03-.064.065-.064h6.012c.036 0 .065.029.065.064v6.012zm14.965-32h-9.018a.938.938 0 000 1.875h9.018a.938.938 0 000-1.875zm8.017 4.008H27.992a.938.938 0 000 1.875h17.035a.938.938 0 000-1.875zm-8.017 9.019h-9.018a.938.938 0 000 1.875h9.018a.938.938 0 000-1.875zm8.017 4.008H27.992a.938.938 0 000 1.875h17.035a.938.938 0 000-1.875zM37.01 40.08h-9.018a.938.938 0 000 1.876h9.018a.938.938 0 000-1.875zm8.017 4.009H27.992a.938.938 0 000 1.875h17.035a.938.938 0 000-1.875z" fill="#FF6D03"/></svg>