<svg width="64" height="64" fill="none" xmlns="http://www.w3.org/2000/svg"><g clip-path="url(#clip0)" fill="#1A202C"><path d="M61.991 46.688h-3.316a4.367 4.367 0 00.796-2.517V13.217a5.38 5.38 0 00-5.374-5.374h-7.013a.937.937 0 100 1.874h7.013c1.93 0 3.5 1.57 3.5 3.5v30.954a2.52 2.52 0 01-2.518 2.517H7.87a2.52 2.52 0 01-2.517-2.517V13.217c0-1.93 1.57-3.5 3.499-3.5h33.934a.937.937 0 000-1.874H8.852a5.38 5.38 0 00-5.374 5.374v30.954c0 .936.295 1.804.796 2.517H2.01A2.011 2.011 0 000 48.698v3.423a4.041 4.041 0 004.037 4.036h7.596a.937.937 0 000-1.874H4.037a2.164 2.164 0 01-2.162-2.162v-3.424c0-.074.06-.134.134-.134H24.9v1.387a2.413 2.413 0 002.41 2.41h9.378a2.413 2.413 0 002.41-2.41v-1.387H61.99c.074 0 .134.06.134.134v3.424c0 1.192-.97 2.162-2.162 2.162h-44.02a.937.937 0 000 1.874h44.022A4.041 4.041 0 0064 52.121v-3.424a2.011 2.011 0 00-2.009-2.009zM37.224 49.95c0 .295-.24.535-.535.535H27.31a.536.536 0 01-.535-.535v-1.387h10.448v1.387z"/><path d="M7.246 13.906V42.5c0 1.176.957 2.133 2.133 2.133h44.19a2.136 2.136 0 002.134-2.133V13.906a2.136 2.136 0 00-2.134-2.134H9.38a2.136 2.136 0 00-2.133 2.134zm23.741 28.853h-12.63v-1.023a6.321 6.321 0 013.456-5.63 3.166 3.166 0 002.86 1.812c1.26 0 2.35-.742 2.858-1.811a6.321 6.321 0 013.456 5.629v1.023zm-6.315-11.502a5.36 5.36 0 01-5.178-4.004c1.449-.383 3.52-1.273 5.178-3.336 1.658 2.063 3.729 2.952 5.178 3.335a5.36 5.36 0 01-5.178 4.005zm1.288 1.758v1.74a1.29 1.29 0 01-1.288 1.288 1.29 1.29 0 01-1.288-1.288v-1.74a7.234 7.234 0 002.576 0zm1.875-.615a7.278 7.278 0 002.87-2.527v2.431a5.99 5.99 0 01-.858 3.093 8.203 8.203 0 00-2.012-1.212V32.4zm-2.359-10.603a.937.937 0 00-1.608 0c-1.561 2.605-3.917 3.458-5.228 3.737v-2.357c0-1.036.202-1.986.6-2.823a6.006 6.006 0 015.432-3.432 6.009 6.009 0 015.432 3.432c.398.837.6 1.787.6 2.823v2.357c-1.312-.28-3.667-1.132-5.228-3.737zM21.509 32.4v1.784a8.2 8.2 0 00-2.012 1.212 5.988 5.988 0 01-.857-3.092v-2.43a7.276 7.276 0 002.87 2.526zM42.1 13.647h11.47a.26.26 0 01.259.259V22.1h-11.73v-8.454zm0 10.329h11.729v8.454h-11.73v-8.454zm0 10.329h11.729V42.5a.26.26 0 01-.259.259H42.1v-8.454zm-1.875 8.454h-7.362v-1.023a8.14 8.14 0 00-1.679-4.958 7.852 7.852 0 001.396-4.474v-9.128c0-1.316-.263-2.536-.782-3.627a7.868 7.868 0 00-2.17-2.754c-2.87-2.327-7.039-2.327-9.91 0a7.866 7.866 0 00-2.17 2.754c-.518 1.09-.781 2.31-.781 3.628v9.127c0 1.66.515 3.202 1.393 4.475a8.146 8.146 0 00-1.676 4.957v1.023H9.379a.26.26 0 01-.258-.259V13.906a.26.26 0 01.258-.259h30.845v29.112z"/></g><defs><clipPath id="clip0"><path fill="#fff" d="M0 0h64v64H0z"/></clipPath></defs></svg>