<svg width="80" height="85" fill="none" xmlns="http://www.w3.org/2000/svg"><ellipse cx="40" cy="81" rx="40" ry="4" fill="#E2E8F0"/><g clip-path="url(#clip0)"><path opacity=".3" d="M33.39 51.298l-6.174-2.375-10.45 22.8 9.5-3.325 5.7 5.7 9.5-22.325-8.075-.475z" fill="#FF6D03"/><path opacity=".2" d="M47.165 74.097l-7.6-18.049.95-3.325c1.108-.475 3.325-1.52 3.325-1.9 0-.38 5.383-1.425 8.075-1.9l10.45 22.8-9.975-3.325-5.225 5.7z" fill="#FF6D03"/><path d="M66.17 26.627c.022-12.81-9.095-23.812-21.685-26.172-12.59-2.36-25.073 4.594-29.693 16.542-4.62 11.947-.062 25.49 10.841 32.214l-9.99 22.475a1.265 1.265 0 001.602 1.7l9.268-3.476 4.49 5.612a1.263 1.263 0 001.173.462c.447-.066.824-.364.992-.783l6.419-16.049 6.42 16.049a1.264 1.264 0 001.175.796c.385 0 .749-.174.99-.475l4.49-5.612 9.267 3.475a1.265 1.265 0 001.601-1.7l-9.99-22.474a26.562 26.562 0 0012.63-22.584zM31.624 72.244l-3.706-4.633a1.267 1.267 0 00-1.434-.395l-7.298 2.738 8.67-19.51a26.355 26.355 0 0011.393 2.75l-.82 2.05-6.805 17zm28.367-2.29l-7.3-2.738a1.266 1.266 0 00-1.432.395l-3.707 4.633-6.6-16.501 1.061-2.658a26.348 26.348 0 009.307-2.644l8.67 19.513zM39.587 50.679c-13.283 0-24.052-10.768-24.052-24.052 0-13.283 10.769-24.052 24.052-24.052 13.284 0 24.052 10.769 24.052 24.052-.015 13.278-10.774 24.038-24.052 24.052z" fill="#1A202C"/><path d="M39.587 5.107c-11.886 0-21.52 9.635-21.52 21.52 0 11.886 9.634 21.52 21.52 21.52 11.885 0 21.52-9.634 21.52-21.52-.013-11.88-9.64-21.507-21.52-21.52zm0 40.508c-10.488 0-18.989-8.5-18.989-18.988 0-10.487 8.502-18.989 18.989-18.989 10.486 0 18.988 8.502 18.988 18.989-.012 10.483-8.507 18.977-18.989 18.988z" fill="#1A202C"/><path d="M49.906 21.72l-6.33-.969-2.843-6.055a1.267 1.267 0 00-2.291 0l-2.843 6.055-6.33.968a1.265 1.265 0 00-.715 2.136l4.618 4.732-1.093 6.698a1.267 1.267 0 001.862 1.311l5.646-3.121 5.646 3.121a1.267 1.267 0 001.863-1.311l-1.093-6.698 4.618-4.732a1.265 1.265 0 00-.715-2.136zm-6.161 5.557c-.28.287-.408.69-.343 1.087l.775 4.756-3.977-2.199a1.27 1.27 0 00-1.225 0l-3.978 2.2.777-4.757c.064-.396-.063-.8-.344-1.087l-3.343-3.427 4.557-.697c.418-.065.776-.332.955-.714l1.988-4.225 1.984 4.225c.18.382.537.65.955.714l4.557.697-3.338 3.427z" fill="#FF6D03"/></g><defs><clipPath id="clip0"><path fill="#fff" d="M0 0h80v80H0z"/></clipPath></defs></svg>