
<svg width="64" height="64" viewBox="0 0 64 64" fill="none" xmlns="http://www.w3.org/2000/svg">
<g clip-path="url(#clip0_3418_15653)">
<path d="M62.9331 16.0001V18.1335H1.06641V16.0001C1.06641 13.7369 1.96545 11.5665 3.56576 9.96615C5.16607 8.36584 7.33656 7.4668 9.59974 7.4668H54.3997C56.6629 7.4668 58.8334 8.36584 60.4337 9.96615C62.034 11.5665 62.9331 13.7369 62.9331 16.0001Z" fill="#FFB700"/>
<path d="M54.3992 7.4668H51.1992C53.4624 7.4668 55.6329 8.36584 57.2332 9.96615C58.8335 11.5665 59.7326 13.7369 59.7326 16.0001V18.1335H62.9326V16.0001C62.9326 13.7369 62.0335 11.5665 60.4332 9.96615C58.8329 8.36584 56.6624 7.4668 54.3992 7.4668Z" fill="#DB9D00"/>
<path d="M62.9331 18.1338V54.4005C62.9331 56.6636 62.034 58.8341 60.4337 60.4344C58.8334 62.0347 56.6629 62.9338 54.3997 62.9338H9.59974C7.33656 62.9338 5.16607 62.0347 3.56576 60.4344C1.96545 58.8341 1.06641 56.6636 1.06641 54.4005V18.1338H62.9331Z" fill="white"/>
<path d="M59.7326 18.1338V54.4005C59.7326 56.6636 58.8335 58.8341 57.2332 60.4344C55.6329 62.0347 53.4624 62.9338 51.1992 62.9338H54.3992C56.6624 62.9338 58.8329 62.0347 60.4332 60.4344C62.0335 58.8341 62.9326 56.6636 62.9326 54.4005V18.1338H59.7326Z" fill="#E2E8F0"/>
<path d="M14.9346 4.26712V10.6671C14.9346 11.2329 14.7099 11.7755 14.3098 12.1756C13.9097 12.5757 13.3671 12.8005 12.8013 12.8005C12.2355 12.8005 11.6929 12.5757 11.2928 12.1756C10.8927 11.7755 10.668 11.2329 10.668 10.6671V4.26712C10.6697 3.70185 10.895 3.16021 11.2947 2.76049C11.6944 2.36078 12.236 2.13548 12.8013 2.13379C13.3658 2.13798 13.906 2.36408 14.3052 2.76326C14.7043 3.16243 14.9304 3.70262 14.9346 4.26712Z" fill="#EEB68E"/>
<path d="M40.5362 4.26712V10.6671C40.5362 11.2329 40.3114 11.7755 39.9114 12.1756C39.5113 12.5757 38.9687 12.8005 38.4029 12.8005C37.8371 12.8005 37.2944 12.5757 36.8944 12.1756C36.4943 11.7755 36.2695 11.2329 36.2695 10.6671V4.26712C36.2712 3.70185 36.4965 3.16021 36.8962 2.76049C37.2959 2.36078 37.8376 2.13548 38.4029 2.13379C38.9674 2.13798 39.5076 2.36408 39.9067 2.76326C40.3059 3.16243 40.532 3.70262 40.5362 4.26712Z" fill="#EEB68E"/>
<path d="M27.7354 4.26712V10.6671C27.7354 11.2329 27.5107 11.7755 27.1106 12.1756C26.7105 12.5757 26.1679 12.8005 25.6021 12.8005C25.0363 12.8005 24.4937 12.5757 24.0936 12.1756C23.6935 11.7755 23.4688 11.2329 23.4688 10.6671V4.26712C23.4704 3.70185 23.6957 3.16021 24.0955 2.76049C24.4952 2.36078 25.0368 2.13548 25.6021 2.13379C26.1666 2.13798 26.7068 2.36408 27.106 2.76326C27.5051 3.16243 27.7312 3.70262 27.7354 4.26712Z" fill="#EEB68E"/>
<path d="M53.3331 4.26712V10.6671C53.3331 11.2329 53.1083 11.7755 52.7082 12.1756C52.3082 12.5757 51.7655 12.8005 51.1997 12.8005C50.6339 12.8005 50.0913 12.5757 49.6912 12.1756C49.2912 11.7755 49.0664 11.2329 49.0664 10.6671V4.26712C49.0681 3.70185 49.2934 3.16021 49.6931 2.76049C50.0928 2.36078 50.6345 2.13548 51.1997 2.13379C51.7642 2.13798 52.3044 2.36408 52.7036 2.76326C53.1028 3.16243 53.3289 3.70262 53.3331 4.26712Z" fill="#EEB68E"/>
<path d="M17.0648 24.5337H10.6648C8.89753 24.5337 7.46484 25.9664 7.46484 27.7337V34.1337C7.46484 35.901 8.89753 37.3337 10.6648 37.3337H17.0648C18.8322 37.3337 20.2648 35.901 20.2648 34.1337V27.7337C20.2648 25.9664 18.8322 24.5337 17.0648 24.5337Z" fill="#FF6D03"/>
<path d="M17.0672 24.5337H13.8672C14.7159 24.5337 15.5298 24.8708 16.1299 25.4709C16.73 26.0711 17.0672 26.885 17.0672 27.7337V34.1337C17.0672 34.9824 16.73 35.7963 16.1299 36.3964C15.5298 36.9965 14.7159 37.3337 13.8672 37.3337H17.0672C17.9159 37.3337 18.7298 36.9965 19.3299 36.3964C19.93 35.7963 20.2672 34.9824 20.2672 34.1337V27.7337C20.2672 26.885 19.93 26.0711 19.3299 25.4709C18.7298 24.8708 17.9159 24.5337 17.0672 24.5337Z" fill="#BD5000"/>
<path d="M17.0648 43.7334H10.6648C8.89753 43.7334 7.46484 45.1661 7.46484 46.9334V53.3334C7.46484 55.1007 8.89753 56.5334 10.6648 56.5334H17.0648C18.8322 56.5334 20.2648 55.1007 20.2648 53.3334V46.9334C20.2648 45.1661 18.8322 43.7334 17.0648 43.7334Z" fill="#FF6D03"/>
<path d="M17.0672 43.7334H13.8672C14.7159 43.7334 15.5298 44.0705 16.1299 44.6707C16.73 45.2708 17.0672 46.0847 17.0672 46.9334V53.3334C17.0672 54.1821 16.73 54.996 16.1299 55.5961C15.5298 56.1963 14.7159 56.5334 13.8672 56.5334H17.0672C17.9159 56.5334 18.7298 56.1963 19.3299 55.5961C19.93 54.996 20.2672 54.1821 20.2672 53.3334V46.9334C20.2672 46.0847 19.93 45.2708 19.3299 44.6707C18.7298 44.0705 17.9159 43.7334 17.0672 43.7334Z" fill="#BD5000"/>
<path d="M35.2016 24.5337H28.8016C27.0343 24.5337 25.6016 25.9664 25.6016 27.7337V34.1337C25.6016 35.901 27.0343 37.3337 28.8016 37.3337H35.2016C36.9689 37.3337 38.4016 35.901 38.4016 34.1337V27.7337C38.4016 25.9664 36.9689 24.5337 35.2016 24.5337Z" fill="#FF6D03"/>
<path d="M35.2 24.5337H32C32.8487 24.5337 33.6626 24.8708 34.2627 25.4709C34.8629 26.0711 35.2 26.885 35.2 27.7337V34.1337C35.2 34.9824 34.8629 35.7963 34.2627 36.3964C33.6626 36.9965 32.8487 37.3337 32 37.3337H35.2C36.0487 37.3337 36.8626 36.9965 37.4627 36.3964C38.0629 35.7963 38.4 34.9824 38.4 34.1337V27.7337C38.4 26.885 38.0629 26.0711 37.4627 25.4709C36.8626 24.8708 36.0487 24.5337 35.2 24.5337Z" fill="#BD5000"/>
<path d="M35.2016 43.7334H28.8016C27.0343 43.7334 25.6016 45.1661 25.6016 46.9334V53.3334C25.6016 55.1007 27.0343 56.5334 28.8016 56.5334H35.2016C36.9689 56.5334 38.4016 55.1007 38.4016 53.3334V46.9334C38.4016 45.1661 36.9689 43.7334 35.2016 43.7334Z" fill="#FF6D03"/>
<path d="M35.2 43.7334H32C32.8487 43.7334 33.6626 44.0705 34.2627 44.6707C34.8629 45.2708 35.2 46.0847 35.2 46.9334V53.3334C35.2 54.1821 34.8629 54.996 34.2627 55.5961C33.6626 56.1963 32.8487 56.5334 32 56.5334H35.2C36.0487 56.5334 36.8626 56.1963 37.4627 55.5961C38.0629 54.996 38.4 54.1821 38.4 53.3334V46.9334C38.4 46.0847 38.0629 45.2708 37.4627 44.6707C36.8626 44.0705 36.0487 43.7334 35.2 43.7334Z" fill="#BD5000"/>
<path d="M53.3344 24.5337H46.9344C45.1671 24.5337 43.7344 25.9664 43.7344 27.7337V34.1337C43.7344 35.901 45.1671 37.3337 46.9344 37.3337H53.3344C55.1017 37.3337 56.5344 35.901 56.5344 34.1337V27.7337C56.5344 25.9664 55.1017 24.5337 53.3344 24.5337Z" fill="#3F51B5"/>
<path d="M53.3344 24.5337H46.9344C45.1671 24.5337 43.7344 25.9664 43.7344 27.7337V34.1337C43.7344 35.901 45.1671 37.3337 46.9344 37.3337H53.3344C55.1017 37.3337 56.5344 35.901 56.5344 34.1337V27.7337C56.5344 25.9664 55.1017 24.5337 53.3344 24.5337Z" fill="#FF6D03"/>
<path d="M53.3328 24.5337H50.1328C50.9815 24.5337 51.7954 24.8708 52.3956 25.4709C52.9957 26.0711 53.3328 26.885 53.3328 27.7337V34.1337C53.3328 34.9824 52.9957 35.7963 52.3956 36.3964C51.7954 36.9965 50.9815 37.3337 50.1328 37.3337H53.3328C54.1815 37.3337 54.9954 36.9965 55.5956 36.3964C56.1957 35.7963 56.5328 34.9824 56.5328 34.1337V27.7337C56.5328 26.885 56.1957 26.0711 55.5956 25.4709C54.9954 24.8708 54.1815 24.5337 53.3328 24.5337Z" fill="#BD5000"/>
<path d="M53.3344 43.7334H46.9344C45.1671 43.7334 43.7344 45.1661 43.7344 46.9334V53.3334C43.7344 55.1007 45.1671 56.5334 46.9344 56.5334H53.3344C55.1017 56.5334 56.5344 55.1007 56.5344 53.3334V46.9334C56.5344 45.1661 55.1017 43.7334 53.3344 43.7334Z" fill="#FF6D03"/>
<path d="M53.3328 43.7334H50.1328C50.9815 43.7334 51.7954 44.0705 52.3956 44.6707C52.9957 45.2708 53.3328 46.0847 53.3328 46.9334V53.3334C53.3328 54.1821 52.9957 54.996 52.3956 55.5961C51.7954 56.1963 50.9815 56.5334 50.1328 56.5334H53.3328C54.1815 56.5334 54.9954 56.1963 55.5956 55.5961C56.1957 54.996 56.5328 54.1821 56.5328 53.3334V46.9334C56.5328 46.0847 56.1957 45.2708 55.5956 44.6707C54.9954 44.0705 54.1815 43.7334 53.3328 43.7334Z" fill="#BD5000"/>
<path d="M54.4 6.40023V4.26689C54.3958 3.4195 54.0573 2.60801 53.4581 2.0088C52.8589 1.40959 52.0474 1.0711 51.2 1.06689C50.3513 1.06689 49.5374 1.40404 48.9373 2.00415C48.3371 2.60427 48 3.4182 48 4.26689V6.40023H41.6V4.26689C41.5958 3.4195 41.2573 2.60801 40.6581 2.0088C40.0589 1.40959 39.2474 1.0711 38.4 1.06689C37.5513 1.06689 36.7374 1.40404 36.1373 2.00415C35.5371 2.60427 35.2 3.4182 35.2 4.26689V6.40023H28.8V4.26689C28.7958 3.4195 28.4573 2.60801 27.8581 2.0088C27.2589 1.40959 26.4474 1.0711 25.6 1.06689C24.7513 1.06689 23.9374 1.40404 23.3373 2.00415C22.7371 2.60427 22.4 3.4182 22.4 4.26689V6.40023H16V4.26689C15.9958 3.4195 15.6573 2.60801 15.0581 2.0088C14.4589 1.40959 13.6474 1.0711 12.8 1.06689C11.9513 1.06689 11.1374 1.40404 10.5373 2.00415C9.93714 2.60427 9.6 3.4182 9.6 4.26689V6.40023C7.05488 6.40333 4.61488 7.41576 2.8152 9.21543C1.01553 11.0151 0.00310502 13.4551 0 16.0002V54.4002C0.00310502 56.9454 1.01553 59.3853 2.8152 61.185C4.61488 62.9847 7.05488 63.9971 9.6 64.0002H54.4C56.9451 63.9971 59.3851 62.9847 61.1848 61.185C62.9845 59.3853 63.9969 56.9454 64 54.4002V16.0002C63.9969 13.4551 62.9845 11.0151 61.1848 9.21543C59.3851 7.41576 56.9451 6.40333 54.4 6.40023ZM50.1333 4.26689C50.1333 3.984 50.2457 3.71269 50.4458 3.51265C50.6458 3.31261 50.9171 3.20023 51.2 3.20023C51.3422 3.19977 51.483 3.2285 51.6136 3.28464C51.7442 3.34079 51.862 3.42315 51.9595 3.52663C52.058 3.62291 52.136 3.73813 52.1888 3.86535C52.2416 3.99257 52.2681 4.12916 52.2667 4.26689V10.6669C52.2667 10.9498 52.1543 11.2211 51.9543 11.4211C51.7542 11.6212 51.4829 11.7336 51.2 11.7336C50.9171 11.7336 50.6458 11.6212 50.4458 11.4211C50.2457 11.2211 50.1333 10.9498 50.1333 10.6669V4.26689ZM37.3333 4.26689C37.3333 3.984 37.4457 3.71269 37.6458 3.51265C37.8458 3.31261 38.1171 3.20023 38.4 3.20023C38.5422 3.19977 38.683 3.2285 38.8136 3.28464C38.9442 3.34079 39.062 3.42315 39.1595 3.52663C39.258 3.62291 39.336 3.73813 39.3888 3.86535C39.4416 3.99257 39.4681 4.12916 39.4667 4.26689V10.6669C39.4667 10.9498 39.3543 11.2211 39.1543 11.4211C38.9542 11.6212 38.6829 11.7336 38.4 11.7336C38.1171 11.7336 37.8458 11.6212 37.6458 11.4211C37.4457 11.2211 37.3333 10.9498 37.3333 10.6669V4.26689ZM24.5333 4.26689C24.5333 3.984 24.6457 3.71269 24.8458 3.51265C25.0458 3.31261 25.3171 3.20023 25.6 3.20023C25.7422 3.19977 25.883 3.2285 26.0136 3.28464C26.1442 3.34079 26.262 3.42315 26.3595 3.52663C26.458 3.62291 26.536 3.73813 26.5888 3.86535C26.6416 3.99257 26.6681 4.12916 26.6667 4.26689V10.6669C26.6667 10.9498 26.5543 11.2211 26.3542 11.4211C26.1542 11.6212 25.8829 11.7336 25.6 11.7336C25.3171 11.7336 25.0458 11.6212 24.8458 11.4211C24.6457 11.2211 24.5333 10.9498 24.5333 10.6669V4.26689ZM11.7333 4.26689C11.7333 3.984 11.8457 3.71269 12.0458 3.51265C12.2458 3.31261 12.5171 3.20023 12.8 3.20023C12.9422 3.19977 13.083 3.2285 13.2136 3.28464C13.3442 3.34079 13.462 3.42315 13.5595 3.52663C13.658 3.62291 13.736 3.73813 13.7888 3.86535C13.8416 3.99257 13.8681 4.12916 13.8667 4.26689V10.6669C13.8667 10.9498 13.7543 11.2211 13.5542 11.4211C13.3542 11.6212 13.0829 11.7336 12.8 11.7336C12.5171 11.7336 12.2458 11.6212 12.0458 11.4211C11.8457 11.2211 11.7333 10.9498 11.7333 10.6669V4.26689ZM54.4 61.8669H9.6C7.62041 61.8646 5.72255 61.0773 4.32276 59.6775C2.92298 58.2777 2.13559 56.3798 2.13333 54.4002V19.2002H61.8667V54.4002C61.8644 56.3798 61.077 58.2777 59.6772 59.6775C58.2775 61.0773 56.3796 61.8646 54.4 61.8669ZM61.8667 17.0669H2.13333V16.0002C2.13559 14.0206 2.92298 12.1228 4.32276 10.723C5.72255 9.32321 7.62041 8.53582 9.6 8.53356V10.6669C9.6 11.5156 9.93714 12.3295 10.5373 12.9296C11.1374 13.5298 11.9513 13.8669 12.8 13.8669C13.6487 13.8669 14.4626 13.5298 15.0627 12.9296C15.6629 12.3295 16 11.5156 16 10.6669V8.53356H22.4V10.6669C22.4 11.5156 22.7371 12.3295 23.3373 12.9296C23.9374 13.5298 24.7513 13.8669 25.6 13.8669C26.4487 13.8669 27.2626 13.5298 27.8627 12.9296C28.4629 12.3295 28.8 11.5156 28.8 10.6669V8.53356H35.2V10.6669C35.2 11.5156 35.5371 12.3295 36.1373 12.9296C36.7374 13.5298 37.5513 13.8669 38.4 13.8669C39.2487 13.8669 40.0626 13.5298 40.6627 12.9296C41.2629 12.3295 41.6 11.5156 41.6 10.6669V8.53356H48V10.6669C48 11.5156 48.3371 12.3295 48.9373 12.9296C49.5374 13.5298 50.3513 13.8669 51.2 13.8669C52.0487 13.8669 52.8626 13.5298 53.4627 12.9296C54.0629 12.3295 54.4 11.5156 54.4 10.6669V8.53356C56.3796 8.53582 58.2775 9.32321 59.6772 10.723C61.077 12.1228 61.8644 14.0206 61.8667 16.0002V17.0669Z" fill="#1A202C"/>
<path d="M17.0651 23.4668H10.6651C9.53351 23.4668 8.44827 23.9163 7.64812 24.7165C6.84796 25.5166 6.39844 26.6019 6.39844 27.7335V34.1335C6.39844 35.2651 6.84796 36.3503 7.64812 37.1505C8.44827 37.9506 9.53351 38.4001 10.6651 38.4001H17.0651C18.1967 38.4001 19.2819 37.9506 20.0821 37.1505C20.8822 36.3503 21.3318 35.2651 21.3318 34.1335V27.7335C21.3318 26.6019 20.8822 25.5166 20.0821 24.7165C19.2819 23.9163 18.1967 23.4668 17.0651 23.4668ZM19.1984 34.1335C19.1984 34.6993 18.9737 35.2419 18.5736 35.642C18.1735 36.042 17.6309 36.2668 17.0651 36.2668H10.6651C10.0993 36.2668 9.55669 36.042 9.15661 35.642C8.75653 35.2419 8.53177 34.6993 8.53177 34.1335V27.7335C8.53177 27.1677 8.75653 26.625 9.15661 26.225C9.55669 25.8249 10.0993 25.6001 10.6651 25.6001H17.0651C17.6309 25.6001 18.1735 25.8249 18.5736 26.225C18.9737 26.625 19.1984 27.1677 19.1984 27.7335V34.1335Z" fill="#1A202C"/>
<path d="M17.0651 42.667H10.6651C9.53351 42.667 8.44827 43.1165 7.64812 43.9167C6.84796 44.7168 6.39844 45.8021 6.39844 46.9337V53.3337C6.39844 54.4653 6.84796 55.5505 7.64812 56.3506C8.44827 57.1508 9.53351 57.6003 10.6651 57.6003H17.0651C18.1967 57.6003 19.2819 57.1508 20.0821 56.3506C20.8822 55.5505 21.3318 54.4653 21.3318 53.3337V46.9337C21.3318 45.8021 20.8822 44.7168 20.0821 43.9167C19.2819 43.1165 18.1967 42.667 17.0651 42.667ZM19.1984 53.3337C19.1984 53.8995 18.9737 54.4421 18.5736 54.8422C18.1735 55.2422 17.6309 55.467 17.0651 55.467H10.6651C10.0993 55.467 9.55669 55.2422 9.15661 54.8422C8.75653 54.4421 8.53177 53.8995 8.53177 53.3337V46.9337C8.53177 46.3679 8.75653 45.8252 9.15661 45.4252C9.55669 45.0251 10.0993 44.8003 10.6651 44.8003H17.0651C17.6309 44.8003 18.1735 45.0251 18.5736 45.4252C18.9737 45.8252 19.1984 46.3679 19.1984 46.9337V53.3337Z" fill="#1A202C"/>
<path d="M35.2018 23.4668H28.8018C27.6702 23.4668 26.585 23.9163 25.7848 24.7165C24.9847 25.5166 24.5352 26.6019 24.5352 27.7335V34.1335C24.5352 35.2651 24.9847 36.3503 25.7848 37.1505C26.585 37.9506 27.6702 38.4001 28.8018 38.4001H35.2018C36.3334 38.4001 37.4187 37.9506 38.2188 37.1505C39.019 36.3503 39.4685 35.2651 39.4685 34.1335V27.7335C39.4685 26.6019 39.019 25.5166 38.2188 24.7165C37.4187 23.9163 36.3334 23.4668 35.2018 23.4668ZM37.3352 34.1335C37.3352 34.6993 37.1104 35.2419 36.7103 35.642C36.3102 36.042 35.7676 36.2668 35.2018 36.2668H28.8018C28.236 36.2668 27.6934 36.042 27.2933 35.642C26.8933 35.2419 26.6685 34.6993 26.6685 34.1335V27.7335C26.6685 27.1677 26.8933 26.625 27.2933 26.225C27.6934 25.8249 28.236 25.6001 28.8018 25.6001H35.2018C35.7676 25.6001 36.3102 25.8249 36.7103 26.225C37.1104 26.625 37.3352 27.1677 37.3352 27.7335V34.1335Z" fill="#1A202C"/>
<path d="M35.2018 42.667H28.8018C27.6702 42.667 26.585 43.1165 25.7848 43.9167C24.9847 44.7168 24.5352 45.8021 24.5352 46.9337V53.3337C24.5352 54.4653 24.9847 55.5505 25.7848 56.3506C26.585 57.1508 27.6702 57.6003 28.8018 57.6003H35.2018C36.3334 57.6003 37.4187 57.1508 38.2188 56.3506C39.019 55.5505 39.4685 54.4653 39.4685 53.3337V46.9337C39.4685 45.8021 39.019 44.7168 38.2188 43.9167C37.4187 43.1165 36.3334 42.667 35.2018 42.667ZM37.3352 53.3337C37.3352 53.8995 37.1104 54.4421 36.7103 54.8422C36.3102 55.2422 35.7676 55.467 35.2018 55.467H28.8018C28.236 55.467 27.6934 55.2422 27.2933 54.8422C26.8933 54.4421 26.6685 53.8995 26.6685 53.3337V46.9337C26.6685 46.3679 26.8933 45.8252 27.2933 45.4252C27.6934 45.0251 28.236 44.8003 28.8018 44.8003H35.2018C35.7676 44.8003 36.3102 45.0251 36.7103 45.4252C37.1104 45.8252 37.3352 46.3679 37.3352 46.9337V53.3337Z" fill="#1A202C"/>
<path d="M53.3346 23.4668H46.9346C45.803 23.4668 44.7178 23.9163 43.9176 24.7165C43.1175 25.5166 42.668 26.6019 42.668 27.7335V34.1335C42.668 35.2651 43.1175 36.3503 43.9176 37.1505C44.7178 37.9506 45.803 38.4001 46.9346 38.4001H53.3346C54.4662 38.4001 55.5515 37.9506 56.3516 37.1505C57.1518 36.3503 57.6013 35.2651 57.6013 34.1335V27.7335C57.6013 26.6019 57.1518 25.5166 56.3516 24.7165C55.5515 23.9163 54.4662 23.4668 53.3346 23.4668ZM55.468 34.1335C55.468 34.6993 55.2432 35.2419 54.8431 35.642C54.4431 36.042 53.9004 36.2668 53.3346 36.2668H46.9346C46.3688 36.2668 45.8262 36.042 45.4261 35.642C45.0261 35.2419 44.8013 34.6993 44.8013 34.1335V27.7335C44.8013 27.1677 45.0261 26.625 45.4261 26.225C45.8262 25.8249 46.3688 25.6001 46.9346 25.6001H53.3346C53.9004 25.6001 54.4431 25.8249 54.8431 26.225C55.2432 26.625 55.468 27.1677 55.468 27.7335V34.1335Z" fill="#1A202C"/>
<path d="M53.3346 42.667H46.9346C45.803 42.667 44.7178 43.1165 43.9176 43.9167C43.1175 44.7168 42.668 45.8021 42.668 46.9337V53.3337C42.668 54.4653 43.1175 55.5505 43.9176 56.3506C44.7178 57.1508 45.803 57.6003 46.9346 57.6003H53.3346C54.4662 57.6003 55.5515 57.1508 56.3516 56.3506C57.1518 55.5505 57.6013 54.4653 57.6013 53.3337V46.9337C57.6013 45.8021 57.1518 44.7168 56.3516 43.9167C55.5515 43.1165 54.4662 42.667 53.3346 42.667ZM55.468 53.3337C55.468 53.8995 55.2432 54.4421 54.8431 54.8422C54.4431 55.2422 53.9004 55.467 53.3346 55.467H46.9346C46.3688 55.467 45.8262 55.2422 45.4261 54.8422C45.0261 54.4421 44.8013 53.8995 44.8013 53.3337V46.9337C44.8013 46.3679 45.0261 45.8252 45.4261 45.4252C45.8262 45.0251 46.3688 44.8003 46.9346 44.8003H53.3346C53.9004 44.8003 54.4431 45.0251 54.8431 45.4252C55.2432 45.8252 55.468 46.3679 55.468 46.9337V53.3337Z" fill="#1A202C"/>
</g>
<defs>
<clipPath id="clip0_3418_15653">
<rect width="64" height="64" fill="white"/>
</clipPath>
</defs>
</svg>
