
<svg width="64" height="64" viewBox="0 0 64 64" fill="none" xmlns="http://www.w3.org/2000/svg">
<path fill-rule="evenodd" clip-rule="evenodd" d="M38.3042 51.1998C38.3688 50.848 38.4009 50.4909 38.4002 50.1331C38.4046 48.5319 37.8024 46.9884 36.7148 45.8131C49.8028 45.5571 56.8855 44.2345 59.1788 43.7545C59.6891 43.645 60.2024 43.9266 60.3842 44.4158C61.2599 46.5766 61.7613 48.8707 61.8668 51.1998H38.3042Z" fill="#EEB68E"/>
<path fill-rule="evenodd" clip-rule="evenodd" d="M25.5995 50.1331C25.5987 50.4909 25.6308 50.848 25.6955 51.1998H2.13281C2.21968 48.8683 2.72177 46.571 3.61548 44.4158C3.79725 43.9266 4.31055 43.645 4.82081 43.7545C7.11415 44.2345 14.1968 45.5571 27.2848 45.8131C26.1973 46.9884 25.5951 48.5319 25.5995 50.1331Z" fill="#EEB68E"/>
<path fill-rule="evenodd" clip-rule="evenodd" d="M28.7997 55.6695V60.8215C14.2184 61.0029 6.45307 62.4215 4.03174 62.9122C3.52818 63.0153 3.0236 62.7405 2.83707 62.2615C1.7023 59.4199 1.10201 56.3932 1.06641 53.3335V52.2669C1.06641 51.6778 1.54397 51.2002 2.13307 51.2002H25.6957C26.0093 53.0795 27.1483 54.7194 28.7997 55.6695Z" fill="white"/>
<path fill-rule="evenodd" clip-rule="evenodd" d="M25.698 51.2002H22.498C22.8116 53.0795 23.9505 54.7194 25.602 55.6695V60.8215C18.0347 60.8151 10.4779 61.3813 2.99609 62.5154C3.23582 62.8377 3.64033 62.9924 4.03396 62.9122C6.45529 62.4215 14.2206 61.0029 28.802 60.8215V55.6695C27.1505 54.7194 26.0115 53.0795 25.698 51.2002Z" fill="#E2E8F0"/>
<path fill-rule="evenodd" clip-rule="evenodd" d="M62.9326 52.2669V53.3335C62.897 56.3932 62.2967 59.4199 61.1619 62.2615C60.9754 62.7405 60.4708 63.0153 59.9672 62.9122C57.5459 62.4215 49.7806 61.0029 35.1992 60.8215V55.6695C36.8507 54.7194 37.9896 53.0795 38.3032 51.2002H61.8659C62.455 51.2002 62.9326 51.6778 62.9326 52.2669Z" fill="white"/>
<path fill-rule="evenodd" clip-rule="evenodd" d="M61.8655 51.2002H58.6655C59.2546 51.2002 59.7322 51.6778 59.7322 52.2669V53.3335C59.6966 56.3932 59.0963 59.4199 57.9615 62.2615C57.921 62.3529 57.8682 62.4383 57.8047 62.5154C58.7498 62.6733 59.4751 62.813 59.9668 62.9122C60.4704 63.0153 60.975 62.7405 61.1615 62.2615C62.2963 59.4199 62.8966 56.3932 62.9322 53.3335V52.2669C62.9322 51.6778 62.4546 51.2002 61.8655 51.2002Z" fill="#E2E8F0"/>
<path fill-rule="evenodd" clip-rule="evenodd" d="M38.4016 50.1334C38.4023 50.4911 38.3702 50.8482 38.3056 51.2001C37.992 53.0793 36.853 54.7193 35.2016 55.6694C33.2237 56.8213 30.7794 56.8213 28.8016 55.6694C27.1501 54.7193 26.0112 53.0793 25.6976 51.2001C25.6329 50.8482 25.6008 50.4911 25.6016 50.1334C25.6016 46.5988 28.467 43.7334 32.0016 43.7334C35.5362 43.7334 38.4016 46.5988 38.4016 50.1334Z" fill="#FF9142"/>
<path fill-rule="evenodd" clip-rule="evenodd" d="M36.717 45.8133C35.1264 44.0599 32.6907 43.3398 30.4023 43.9466C33.2244 44.6753 35.1977 47.2187 35.2023 50.1333C35.2031 50.4911 35.171 50.8481 35.1063 51.2C34.7928 53.0792 33.6538 54.7192 32.0023 55.6693C31.5025 55.9625 30.9639 56.1841 30.4023 56.3274C30.9249 56.4632 31.4625 56.5323 32.0023 56.5333C33.1273 56.5387 34.2329 56.2402 35.2023 55.6693C36.8538 54.7192 37.9928 53.0792 38.3063 51.2C38.371 50.8481 38.4031 50.4911 38.4023 50.1333C38.4067 48.5321 37.8046 46.9886 36.717 45.8133Z" fill="#FF6D03"/>
<path fill-rule="evenodd" clip-rule="evenodd" d="M35.2008 55.6694V62.1761C35.1981 62.4832 35.0116 62.7588 34.7274 62.8753C34.4432 62.9917 34.1169 62.9264 33.8994 62.7094L32.5341 61.3441C32.3937 61.2008 32.2015 61.12 32.0008 61.12C31.8001 61.12 31.6079 61.2008 31.4674 61.3441L30.1021 62.7094C29.8847 62.9264 29.5584 62.9917 29.2742 62.8753C28.99 62.7588 28.8034 62.4832 28.8008 62.1761V55.6694C30.7786 56.8213 33.2229 56.8213 35.2008 55.6694Z" fill="#FF6D03"/>
<path d="M32.0005 52.2667C33.1787 52.2667 34.1339 51.3115 34.1339 50.1333C34.1339 48.9551 33.1787 48 32.0005 48C30.8223 48 29.8672 48.9551 29.8672 50.1333C29.8672 51.3115 30.8223 52.2667 32.0005 52.2667Z" fill="#FF6D03"/>
<path fill-rule="evenodd" clip-rule="evenodd" d="M61.5355 15.8935L49.0661 20.5015L32.7248 26.5389C32.2563 26.7095 31.7426 26.7095 31.2741 26.5389L14.9328 20.5015L2.46345 15.8935C1.62039 15.5751 1.0625 14.7681 1.0625 13.8669C1.0625 12.9657 1.62039 12.1586 2.46345 11.8402L31.2741 1.19487C31.7426 1.02424 32.2563 1.02424 32.7248 1.19487L61.5355 11.8402C62.3785 12.1586 62.9364 12.9657 62.9364 13.8669C62.9364 14.7681 62.3785 15.5751 61.5355 15.8935Z" fill="#FF6D03"/>
<path fill-rule="evenodd" clip-rule="evenodd" d="M61.5344 11.8402L32.7238 1.19487C32.2553 1.02424 31.7416 1.02424 31.2731 1.19487L30.3984 1.51487L58.3344 11.8402C59.1775 12.1586 59.7354 12.9657 59.7354 13.8669C59.7354 14.7681 59.1775 15.5751 58.3344 15.8935L45.8651 20.5015L30.3984 26.2157L31.2731 26.5357C31.7416 26.7063 32.2553 26.7063 32.7238 26.5357L49.0651 20.5015L61.5344 15.8935C62.3775 15.5751 62.9354 14.7681 62.9354 13.8669C62.9354 12.9657 62.3775 12.1586 61.5344 11.8402Z" fill="#BD5000"/>
<path fill-rule="evenodd" clip-rule="evenodd" d="M49.0669 20.5015V31.7335C49.0654 32.6223 48.5129 33.417 47.6803 33.7281L32.7469 39.3281C32.2657 39.5095 31.7349 39.5095 31.2536 39.3281L16.3203 33.7281C15.4876 33.417 14.9351 32.6223 14.9336 31.7335V20.5015L31.2749 26.5388C31.7434 26.7094 32.2571 26.7094 32.7256 26.5388L49.0669 20.5015Z" fill="#FF6D03"/>
<path d="M32.0013 16.0001C34.9468 16.0001 37.3346 14.5674 37.3346 12.8001C37.3346 11.0328 34.9468 9.6001 32.0013 9.6001C29.0558 9.6001 26.668 11.0328 26.668 12.8001C26.668 14.5674 29.0558 16.0001 32.0013 16.0001Z" fill="#FFB700"/>
<path fill-rule="evenodd" clip-rule="evenodd" d="M31.9984 9.6001C31.4611 9.60363 30.9254 9.65827 30.3984 9.7633C32.5563 10.1729 34.1318 11.3697 34.1318 12.8001C34.1318 14.2305 32.5563 15.4273 30.3984 15.8369C30.9254 15.9419 31.4611 15.9966 31.9984 16.0001C34.9435 16.0001 37.3318 14.5676 37.3318 12.8001C37.3318 11.0326 34.9435 9.6001 31.9984 9.6001Z" fill="#FFB700"/>
<path fill-rule="evenodd" clip-rule="evenodd" d="M56.532 27.7334C58.2993 27.7334 59.732 29.1661 59.732 30.9334V35.2001C59.732 35.7892 59.2545 36.2667 58.6654 36.2667H54.3987C53.8096 36.2667 53.332 35.7892 53.332 35.2001V30.9334C53.332 29.1661 54.7647 27.7334 56.532 27.7334Z" fill="#FFB700"/>
<path fill-rule="evenodd" clip-rule="evenodd" d="M56.5336 27.7334C55.9703 27.7363 55.418 27.8895 54.9336 28.1771C55.9211 28.744 56.5311 29.7947 56.5336 30.9334V35.2001C56.5336 35.7892 56.056 36.2667 55.4669 36.2667H58.6669C59.256 36.2667 59.7336 35.7892 59.7336 35.2001V30.9334C59.7336 29.1661 58.3009 27.7334 56.5336 27.7334Z" fill="#FFB700"/>
<path d="M62.8789 50.4008C62.7024 48.2199 62.199 46.0779 61.3856 44.0467C61.0242 43.0581 59.9886 42.4879 58.96 42.7112C55.8485 43.3629 48.896 44.4808 37.1456 44.7379C34.2706 41.9773 29.7294 41.9773 26.8544 44.7379C15.104 44.4819 8.15147 43.364 5.03893 42.7112C4.01687 42.4882 2.98632 43.0505 2.6208 44.0307C1.79684 46.0688 1.28513 48.2196 1.10293 50.4104C0.425282 50.7826 0.00298661 51.4933 0 52.2664V53.3331C0.0327868 56.5278 0.658879 59.6887 1.8464 62.6547C2.16476 63.4625 2.94287 63.9952 3.8112 63.9997C3.95677 63.9998 4.10194 63.9844 4.24427 63.9539C7.6096 63.2733 15.088 62.1213 27.7333 61.9059V62.1757C27.7348 62.9148 28.1808 63.5804 28.8638 63.8627C29.5468 64.1451 30.3326 63.9887 30.8555 63.4664L32 62.3187L33.1445 63.4664C33.6674 63.9887 34.4532 64.1451 35.1362 63.8627C35.8192 63.5804 36.2652 62.9148 36.2667 62.1757V61.9059C48.912 62.1192 56.3893 63.2733 59.7461 63.9539C60.7572 64.1682 61.775 63.62 62.1525 62.6579C63.3406 59.6909 63.967 56.5289 64 53.3331V52.2664C63.9969 51.486 63.5666 50.7699 62.8789 50.4008ZM59.3899 44.7997C60.0744 46.5088 60.5233 48.303 60.7243 50.1331H39.4667C39.4659 48.9874 39.199 47.8576 38.6869 46.8328C45.6334 46.7491 52.5598 46.0689 59.3899 44.7997ZM32 44.7997C34.9455 44.7997 37.3333 47.1876 37.3333 50.1331C37.3333 53.0786 34.9455 55.4664 32 55.4664C29.0545 55.4664 26.6667 53.0786 26.6667 50.1331C26.6702 47.189 29.0559 44.8033 32 44.7997ZM25.3131 46.8328C24.801 47.8576 24.5341 48.9874 24.5333 50.1331H3.25333C3.46311 48.3032 3.91655 46.5095 4.6016 44.7997C11.4343 46.0705 18.3637 46.7507 25.3131 46.8328ZM3.8272 61.8664C2.73879 59.1515 2.16441 56.2579 2.13333 53.3331V52.2664H24.8533C25.3371 53.8812 26.3519 55.2854 27.7333 56.2515V59.7715C14.8949 59.9891 7.26187 61.1677 3.8272 61.8664ZM33.3024 60.6077C32.5793 59.9174 31.443 59.9113 30.7125 60.5939L29.8667 61.4397V57.2904C31.2579 57.71 32.7421 57.71 34.1333 57.2904V61.4397L33.3024 60.6077ZM61.8667 53.3331C61.833 56.257 61.261 59.1497 60.1792 61.8664C56.7381 61.1677 49.1051 59.9891 36.2667 59.7715V56.2515C37.6501 55.2863 38.6668 53.882 39.152 52.2664H61.8667V53.3331Z" fill="#1A202C"/>
<path d="M32.0008 53.3332C33.2951 53.3332 34.4619 52.5535 34.9572 51.3578C35.4525 50.162 35.1787 48.7857 34.2635 47.8705C33.3483 46.9553 31.972 46.6815 30.7762 47.1768C29.5804 47.6721 28.8008 48.8389 28.8008 50.1332C28.8008 51.9005 30.2335 53.3332 32.0008 53.3332ZM32.0008 49.0665C32.5899 49.0665 33.0674 49.5441 33.0674 50.1332C33.0674 50.7223 32.5899 51.1999 32.0008 51.1999C31.4117 51.1999 30.9341 50.7223 30.9341 50.1332C30.9341 49.5441 31.4117 49.0665 32.0008 49.0665Z" fill="#1A202C"/>
<path d="M61.9062 10.8395L33.0944 0.196314C32.3884 -0.066089 31.6116 -0.066089 30.9056 0.196314L2.09389 10.8395C0.83398 11.3145 0 12.5202 0 13.8667C0 15.2132 0.83398 16.4189 2.09389 16.8939L13.8667 21.2427V31.7344C13.87 33.0673 14.6971 34.2592 15.9446 34.7286L30.8779 40.3286C31.6019 40.6009 32.4003 40.6009 33.1243 40.3286L48.0576 34.7286C49.304 34.2582 50.1301 33.0666 50.1334 31.7344V21.2427L55.4667 19.2726V26.8182C53.5886 27.3031 52.274 28.9937 52.2667 30.9334V35.2001C52.2667 36.3783 53.2218 37.3334 54.4 37.3334H58.6667C59.8449 37.3334 60.8 36.3783 60.8 35.2001V30.9334C60.7928 28.9937 59.4781 27.3031 57.6 26.8182V18.4843L61.9062 16.8939C63.1661 16.4189 64.0001 15.2132 64.0001 13.8667C64.0001 12.5202 63.1661 11.3145 61.9062 10.8395ZM58.6667 30.9334V35.2001H54.4V30.9334C54.4 29.7552 55.3552 28.8 56.5334 28.8C57.7116 28.8 58.6667 29.7552 58.6667 30.9334ZM48 31.7344C47.9986 32.1787 47.722 32.5757 47.3056 32.7307L32.3723 38.3329C32.132 38.4252 31.866 38.4252 31.6256 38.3329L16.6923 32.7307C16.2768 32.575 16.0011 32.1782 16 31.7344V22.0278L30.9056 27.5339C31.6118 27.7956 32.3883 27.7956 33.0944 27.5339L48 22.031V31.7344ZM61.167 14.8928L56.4534 16.6336L38.3862 12.9931C38.3862 12.9291 38.4 12.8651 38.4 12.8C38.4 10.4075 35.5883 8.53338 32 8.53338C28.4118 8.53338 25.6 10.4075 25.6 12.8C25.6 15.1926 28.4118 17.0667 32 17.0667C34.0445 17.1687 36.0396 16.4178 37.5094 14.9931L52.6411 18.0427L32.3552 25.536C32.1261 25.6214 31.8739 25.6214 31.6448 25.536L2.83309 14.8928C2.41066 14.7276 2.13268 14.3203 2.13268 13.8667C2.13268 13.4131 2.41066 13.0058 2.83309 12.8406L31.6448 2.19738C31.8739 2.11204 32.1261 2.11204 32.3552 2.19738L61.167 12.8406C61.5894 13.0058 61.8674 13.4131 61.8674 13.8667C61.8674 14.3203 61.5894 14.7276 61.167 14.8928ZM36.2667 12.8C36.2667 13.807 34.4416 14.9334 32 14.9334C29.5584 14.9334 27.7334 13.807 27.7334 12.8C27.7334 11.7931 29.5584 10.6667 32 10.6667C34.4416 10.6667 36.2667 11.7931 36.2667 12.8Z" fill="#1A202C"/>
</svg>
