
<svg width="64" height="64" viewBox="0 0 64 64" fill="none" xmlns="http://www.w3.org/2000/svg">
<g clip-path="url(#clip0_3418_15579)">
<path d="M62.9331 48V57.6C62.9331 59.0145 62.3712 60.371 61.371 61.3712C60.3708 62.3714 59.0142 62.9333 57.5997 62.9333H6.39974C5.69936 62.9333 5.00583 62.7954 4.35876 62.5274C3.71169 62.2593 3.12375 61.8665 2.6285 61.3712C1.62831 60.371 1.06641 59.0145 1.06641 57.6V48H62.9331Z" fill="white"/>
<path d="M59.7318 48V57.6C59.7318 59.0145 59.1699 60.371 58.1697 61.3712C57.1695 62.3714 55.8129 62.9333 54.3984 62.9333H57.5984C59.0129 62.9333 60.3695 62.3714 61.3697 61.3712C62.3699 60.371 62.9318 59.0145 62.9318 57.6V48H59.7318Z" fill="#E2E8F0"/>
<path d="M62.9331 6.40023V48.0002H25.5997V45.3869C25.5998 44.916 25.7573 44.4586 26.0472 44.0875C26.3371 43.7164 26.7428 43.4529 27.1997 43.3389L40.4264 40.0322C40.9251 39.9057 41.3676 39.617 41.6842 39.2115C42.0009 38.806 42.1738 38.3067 42.1757 37.7922C42.1738 37.6379 42.1559 37.4842 42.1224 37.3336H57.5997C57.8826 37.3336 58.154 37.2212 58.354 37.0211C58.554 36.8211 58.6664 36.5498 58.6664 36.2669V33.0669C58.6647 32.5016 58.4394 31.96 58.0397 31.5603C57.64 31.1606 57.0984 30.9353 56.5331 30.9336V9.60023C56.5314 9.03495 56.3061 8.49331 55.9064 8.0936C55.5067 7.69389 54.965 7.46858 54.3997 7.4669H33.0664C32.5011 7.46858 31.9595 7.69389 31.5598 8.0936C31.1601 8.49331 30.9348 9.03495 30.9331 9.60023V30.9336C30.3678 30.9353 29.8262 31.1606 29.4264 31.5603C29.0267 31.96 28.8014 32.5016 28.7997 33.0669V36.2669C28.8003 36.5345 28.899 36.7925 29.0771 36.9922L21.3757 38.0909C21.7231 37.8506 22.048 37.5792 22.3464 37.2802C23.0417 36.5883 23.593 35.7654 23.9683 34.8591C24.3436 33.9529 24.5356 32.9812 24.5331 32.0002V29.8669C24.5331 27.8866 23.7464 25.9874 22.3461 24.5872C20.9459 23.1869 19.0467 22.4002 17.0664 22.4002C15.0861 22.4002 13.1869 23.1869 11.7867 24.5872C10.3864 25.9874 9.59974 27.8866 9.59974 29.8669V32.0002C9.5971 33.3005 9.93554 34.5788 10.5813 35.7074C11.227 36.836 12.1574 37.7756 13.2797 38.4322C11.4063 38.5744 9.65602 39.4198 8.37995 40.7987C7.10389 42.1776 6.39651 43.9881 6.39974 45.8669V48.0002H1.06641V6.40023C1.06641 4.98574 1.62831 3.62919 2.6285 2.62899C3.6287 1.6288 4.98525 1.06689 6.39974 1.06689H57.5997C59.0142 1.06689 60.3708 1.6288 61.371 2.62899C62.3712 3.62919 62.9331 4.98574 62.9331 6.40023Z" fill="#FF6D03"/>
<path d="M57.5984 1.06689H54.3984C55.0988 1.06689 55.7923 1.20485 56.4394 1.47287C57.0865 1.7409 57.6744 2.13375 58.1697 2.62899C58.6649 3.12424 59.0578 3.71218 59.3258 4.35925C59.5938 5.00632 59.7318 5.69984 59.7318 6.40023V48.0002H62.9318V6.40023C62.9318 5.69984 62.7938 5.00632 62.5258 4.35925C62.2578 3.71218 61.8649 3.12424 61.3697 2.62899C60.8744 2.13375 60.2865 1.7409 59.6394 1.47287C58.9923 1.20485 58.2988 1.06689 57.5984 1.06689Z" fill="#BD5000"/>
<path d="M24.5349 29.8666V31.9999C24.5374 32.9808 24.3455 33.9525 23.9702 34.8588C23.5948 35.7651 23.0436 36.588 22.3482 37.2799C22.0499 37.5789 21.725 37.8503 21.3776 38.0906C20.2054 38.9237 18.8169 39.3993 17.3801 39.4599C15.9433 39.5205 14.5197 39.1634 13.2816 38.4319C12.1593 37.7752 11.2288 36.8357 10.5831 35.7071C9.93738 34.5784 9.59894 33.3002 9.60158 31.9999V29.8666C9.60158 27.8863 10.3882 25.9871 11.7885 24.5868C13.1888 23.1866 15.088 22.3999 17.0682 22.3999C19.0485 22.3999 20.9477 23.1866 22.348 24.5868C23.7482 25.9871 24.5349 27.8863 24.5349 29.8666Z" fill="#FFB700"/>
<path d="M56.5336 9.60013V30.9335H30.9336V9.60013C30.9353 9.03485 31.1606 8.49321 31.5603 8.0935C31.96 7.69379 32.5017 7.46849 33.0669 7.4668H54.4003C54.9655 7.46849 55.5072 7.69379 55.9069 8.0935C56.3066 8.49321 56.5319 9.03485 56.5336 9.60013Z" fill="white"/>
<path d="M54.3992 7.4668H51.1992C51.7645 7.46849 52.3061 7.69379 52.7058 8.0935C53.1056 8.49321 53.3309 9.03485 53.3326 9.60013V30.9335H56.5326V9.60013C56.5309 9.03485 56.3056 8.49321 55.9058 8.0935C55.5061 7.69379 54.9645 7.46849 54.3992 7.4668Z" fill="#E2E8F0"/>
<path d="M58.6674 33.0664V36.2664C58.6674 36.5493 58.5551 36.8206 58.355 37.0207C58.155 37.2207 57.8837 37.3331 57.6008 37.3331H42.1235C42.1215 37.2967 42.1143 37.2608 42.1021 37.2264C41.9641 36.671 41.6247 36.1865 41.1497 35.8672C40.6746 35.5479 40.0979 35.4165 39.5315 35.4984L29.0781 36.9918C28.9 36.7921 28.8014 36.534 28.8008 36.2664V33.0664C28.8025 32.5012 29.0278 31.9595 29.4275 31.5598C29.8272 31.1601 30.3688 30.9348 30.9341 30.9331H56.5341C57.0994 30.9348 57.641 31.1601 58.0407 31.5598C58.4405 31.9595 58.6658 32.5012 58.6674 33.0664Z" fill="#EEB68E"/>
<path d="M56.532 30.9331H53.332C53.8973 30.9348 54.4389 31.1601 54.8387 31.5598C55.2384 31.9595 55.4637 32.5012 55.4654 33.0664V36.2664C55.4654 36.5493 55.353 36.8206 55.1529 37.0207C54.9529 37.2207 54.6816 37.3331 54.3987 37.3331H57.5987C57.8816 37.3331 58.1529 37.2207 58.3529 37.0207C58.553 36.8206 58.6654 36.5493 58.6654 36.2664V33.0664C58.6637 32.5012 58.4384 31.9595 58.0387 31.5598C57.6389 31.1601 57.0973 30.9348 56.532 30.9331Z" fill="#CD966F"/>
<path d="M42.1745 37.7922C42.1725 38.3067 41.9996 38.806 41.6829 39.2115C41.3663 39.6169 40.9238 39.9057 40.4251 40.0322L27.1984 43.3389C26.7415 43.4529 26.3358 43.7164 26.0459 44.0875C25.756 44.4586 25.5985 44.916 25.5984 45.3869V48.0002H6.39845V45.8669C6.39522 43.9881 7.1026 42.1776 8.37866 40.7987C9.65473 39.4197 11.4051 38.5744 13.2784 38.4322C14.5166 39.1637 15.9402 39.5208 17.377 39.4602C18.8138 39.3997 20.2023 38.924 21.3745 38.0909L29.0758 36.9922L39.5291 35.4989C40.0956 35.4169 40.6723 35.5484 41.1473 35.8677C41.6223 36.187 41.9618 36.6714 42.0998 37.2269C42.112 37.2612 42.1192 37.2972 42.1211 37.3336C42.1547 37.4842 42.1725 37.6379 42.1745 37.7922Z" fill="#FFB700"/>
<path d="M6.4 64H57.6C59.2969 63.9983 60.9237 63.3235 62.1236 62.1236C63.3235 60.9237 63.9983 59.2969 64 57.6V6.4C63.9983 4.70313 63.3235 3.07625 62.1236 1.87639C60.9237 0.676522 59.2969 0.00169433 57.6 0L6.4 0C4.70313 0.00169433 3.07625 0.676522 1.87639 1.87639C0.676522 3.07625 0.00169433 4.70313 0 6.4L0 57.6C0.00169433 59.2969 0.676522 60.9237 1.87639 62.1236C3.07625 63.3235 4.70313 63.9983 6.4 64ZM57.6 61.8667H6.4C5.26841 61.8667 4.18317 61.4171 3.38301 60.617C2.58286 59.8168 2.13333 58.7316 2.13333 57.6V49.0667H61.8667V57.6C61.8667 58.7316 61.4171 59.8168 60.617 60.617C59.8168 61.4171 58.7316 61.8667 57.6 61.8667ZM23.4667 32C23.4667 33.6974 22.7924 35.3253 21.5922 36.5255C20.3919 37.7257 18.7641 38.4 17.0667 38.4C15.3693 38.4 13.7414 37.7257 12.5412 36.5255C11.341 35.3253 10.6667 33.6974 10.6667 32V29.8667C10.6667 28.1693 11.341 26.5414 12.5412 25.3412C13.7414 24.141 15.3693 23.4667 17.0667 23.4667C18.7641 23.4667 20.3919 24.141 21.5922 25.3412C22.7924 26.5414 23.4667 28.1693 23.4667 29.8667V32ZM13.0645 39.5317C14.4224 40.2548 15.9506 40.5969 17.4871 40.5218C19.0236 40.4467 20.5112 39.9571 21.792 39.1051L39.68 36.5547C39.9802 36.5103 40.2863 36.5778 40.54 36.7444C40.7937 36.911 40.9774 37.165 41.056 37.4581C41.0844 37.5673 41.1012 37.6793 41.1061 37.792C41.1054 38.0688 41.0125 38.3376 40.8422 38.5558C40.6718 38.774 40.4337 38.9294 40.1653 38.9973L26.9387 42.2987C26.2508 42.4704 25.6403 42.8675 25.2044 43.4266C24.7685 43.9856 24.5322 44.6745 24.5333 45.3835V46.9333H7.46667V45.8667C7.47022 44.3107 8.04048 42.8094 9.07078 41.6434C10.1011 40.4774 11.5209 39.7267 13.0645 39.5317ZM55.4667 29.8667H32V9.6C32 9.3171 32.1124 9.04579 32.3124 8.84575C32.5125 8.64571 32.7838 8.53333 33.0667 8.53333H54.4C54.6829 8.53333 54.9542 8.64571 55.1543 8.84575C55.3543 9.04579 55.4667 9.3171 55.4667 9.6V29.8667ZM30.9333 32H56.5333C56.8162 32 57.0875 32.1124 57.2876 32.3124C57.4876 32.5125 57.6 32.7838 57.6 33.0667V36.2667H42.8683C42.553 35.6338 42.0459 35.1168 41.4193 34.7892C40.7928 34.4617 40.0788 34.3404 39.3792 34.4427L29.8667 35.8005V33.0667C29.8667 32.7838 29.979 32.5125 30.1791 32.3124C30.3791 32.1124 30.6504 32 30.9333 32ZM6.4 2.13333H57.6C58.7316 2.13333 59.8168 2.58286 60.617 3.38301C61.4171 4.18317 61.8667 5.26841 61.8667 6.4V46.9333H26.6667V45.3835C26.6665 45.1502 26.7444 44.9235 26.888 44.7396C27.0317 44.5558 27.2328 44.4253 27.4592 44.3691L40.6859 41.0624C41.3134 40.9043 41.8825 40.5694 42.3253 40.0975C42.7681 39.6255 43.0662 39.0364 43.184 38.4H57.6C58.1658 38.4 58.7084 38.1752 59.1085 37.7752C59.5086 37.3751 59.7333 36.8325 59.7333 36.2667V33.0667C59.7306 32.4072 59.5242 31.7647 59.1423 31.227C58.7604 30.6893 58.2218 30.2828 57.6 30.0629V9.6C57.6 8.75131 57.2629 7.93738 56.6627 7.33726C56.0626 6.73714 55.2487 6.4 54.4 6.4H33.0667C32.218 6.4 31.404 6.73714 30.8039 7.33726C30.2038 7.93738 29.8667 8.75131 29.8667 9.6V30.0629C29.2449 30.2828 28.7062 30.6893 28.3244 31.227C27.9425 31.7647 27.7361 32.4072 27.7333 33.0667V36.1056L24.2485 36.6027C25.1333 35.2308 25.6026 33.6324 25.6 32V29.8667C25.6 27.6035 24.701 25.433 23.1006 23.8327C21.5003 22.2324 19.3298 21.3333 17.0667 21.3333C14.8035 21.3333 12.633 22.2324 11.0327 23.8327C9.43238 25.433 8.53333 27.6035 8.53333 29.8667V32C8.53379 34.1899 9.37982 36.2951 10.8949 37.8763C9.2662 38.4858 7.86166 39.5769 6.86817 41.0042C5.87468 42.4316 5.33933 44.1276 5.33333 45.8667V46.9333H2.13333V6.4C2.13333 5.26841 2.58286 4.18317 3.38301 3.38301C4.18317 2.58286 5.26841 2.13333 6.4 2.13333Z" fill="#1A202C"/>
<path d="M57.5997 54.3999H43.7331V53.3333C43.7331 53.0504 43.6207 52.7791 43.4207 52.579C43.2206 52.379 42.9493 52.2666 42.6664 52.2666C42.3835 52.2666 42.1122 52.379 41.9122 52.579C41.7121 52.7791 41.5997 53.0504 41.5997 53.3333V54.3999H18.1331C17.8502 54.3999 17.5789 54.5123 17.3788 54.7124C17.1788 54.9124 17.0664 55.1837 17.0664 55.4666C17.0664 55.7495 17.1788 56.0208 17.3788 56.2208C17.5789 56.4209 17.8502 56.5333 18.1331 56.5333H41.5997V57.5999C41.5997 57.8828 41.7121 58.1541 41.9122 58.3542C42.1122 58.5542 42.3835 58.6666 42.6664 58.6666C42.9493 58.6666 43.2206 58.5542 43.4207 58.3542C43.6207 58.1541 43.7331 57.8828 43.7331 57.5999V56.5333H57.5997C57.8826 56.5333 58.1539 56.4209 58.354 56.2208C58.554 56.0208 58.6664 55.7495 58.6664 55.4666C58.6664 55.1837 58.554 54.9124 58.354 54.7124C58.1539 54.5123 57.8826 54.3999 57.5997 54.3999Z" fill="#1A202C"/>
<path d="M7.4651 52.2231C7.18221 52.2231 6.9109 52.3355 6.71086 52.5356C6.51082 52.7356 6.39844 53.0069 6.39844 53.2898V57.6439C6.39844 57.9268 6.51082 58.1982 6.71086 58.3982C6.9109 58.5982 7.18221 58.7106 7.4651 58.7106C7.748 58.7106 8.01931 58.5982 8.21935 58.3982C8.41939 58.1982 8.53177 57.9268 8.53177 57.6439V53.2898C8.53177 53.0069 8.41939 52.7356 8.21935 52.5356C8.01931 52.3355 7.748 52.2231 7.4651 52.2231Z" fill="#1A202C"/>
<path d="M11.7346 52.2231C11.4517 52.2231 11.1804 52.3355 10.9804 52.5356C10.7803 52.7356 10.668 53.0069 10.668 53.2898V57.6439C10.668 57.9268 10.7803 58.1982 10.9804 58.3982C11.1804 58.5982 11.4517 58.7106 11.7346 58.7106C12.0175 58.7106 12.2888 58.5982 12.4889 58.3982C12.6889 58.1982 12.8013 57.9268 12.8013 57.6439V53.2898C12.8013 53.0069 12.6889 52.7356 12.4889 52.5356C12.2888 52.3355 12.0175 52.2231 11.7346 52.2231Z" fill="#1A202C"/>
<path d="M51.1992 13.8667H36.2659C35.983 13.8667 35.7117 13.9791 35.5116 14.1791C35.3116 14.3792 35.1992 14.6505 35.1992 14.9334C35.1992 15.2163 35.3116 15.4876 35.5116 15.6876C35.7117 15.8877 35.983 16 36.2659 16H51.1992C51.4821 16 51.7534 15.8877 51.9535 15.6876C52.1535 15.4876 52.2659 15.2163 52.2659 14.9334C52.2659 14.6505 52.1535 14.3792 51.9535 14.1791C51.7534 13.9791 51.4821 13.8667 51.1992 13.8667Z" fill="#1A202C"/>
<path d="M51.1992 19.2002H36.2659C35.983 19.2002 35.7117 19.3126 35.5116 19.5126C35.3116 19.7127 35.1992 19.984 35.1992 20.2669C35.1992 20.5498 35.3116 20.8211 35.5116 21.0211C35.7117 21.2211 35.983 21.3335 36.2659 21.3335H51.1992C51.4821 21.3335 51.7534 21.2211 51.9535 21.0211C52.1535 20.8211 52.2659 20.5498 52.2659 20.2669C52.2659 19.984 52.1535 19.7127 51.9535 19.5126C51.7534 19.3126 51.4821 19.2002 51.1992 19.2002Z" fill="#1A202C"/>
<path d="M46.9326 24.5332H36.2659C35.983 24.5332 35.7117 24.6456 35.5116 24.8456C35.3116 25.0457 35.1992 25.317 35.1992 25.5999C35.1992 25.8828 35.3116 26.1541 35.5116 26.3541C35.7117 26.5542 35.983 26.6665 36.2659 26.6665H46.9326C47.2155 26.6665 47.4868 26.5542 47.6868 26.3541C47.8868 26.1541 47.9992 25.8828 47.9992 25.5999C47.9992 25.317 47.8868 25.0457 47.6868 24.8456C47.4868 24.6456 47.2155 24.5332 46.9326 24.5332Z" fill="#1A202C"/>
</g>
<defs>
<clipPath id="clip0_3418_15579">
<rect width="64" height="64" fill="white"/>
</clipPath>
</defs>
</svg>
