
<svg width="64" height="63" viewBox="0 0 64 63" fill="none" xmlns="http://www.w3.org/2000/svg">
<path d="M56.1316 61.9508H7.8693C4.39262 61.9508 1.57422 59.1324 1.57422 55.6557V52.5082C1.57422 51.9287 2.04395 51.459 2.6234 51.459H61.3775C61.9569 51.459 62.4267 51.9287 62.4267 52.5082V55.6557C62.4267 59.1324 59.6083 61.9508 56.1316 61.9508Z" fill="white"/>
<path d="M61.3778 51.459H58.2303C58.8097 51.459 59.2795 51.9287 59.2795 52.5082V55.6557C59.2795 59.1324 56.4611 61.9508 52.9844 61.9508H56.1319C59.6086 61.9508 62.427 59.1324 62.427 55.6557V52.5082C62.427 51.9287 61.9573 51.459 61.3778 51.459Z" fill="#E2E8F0"/>
<path d="M21.5078 51.459H42.4914V53.5573C42.4914 55.2957 41.0822 56.7049 39.3439 56.7049H24.6554C22.917 56.7049 21.5078 55.2957 21.5078 53.5573V51.459Z" fill="#EEB68E"/>
<path d="M39.3429 51.459V53.5573C39.3429 55.2957 37.9337 56.7049 36.1953 56.7049H39.3429C41.0812 56.7049 42.4904 55.2957 42.4904 53.5573V51.459H39.3429Z" fill="#CD966F"/>
<path d="M48.2411 9.4917H56.1309C58.4487 9.4917 60.3276 11.3706 60.3276 13.6884V51.4589H3.67188V13.6884C3.67188 11.3706 5.55081 9.4917 7.8686 9.4917H15.7584" fill="#FF6D03"/>
<path d="M56.1319 9.4917H52.9844C55.3022 9.4917 57.1811 11.3706 57.1811 13.6884V51.4589H60.3286V13.6884C60.3286 11.3706 58.4497 9.4917 56.1319 9.4917Z" fill="#BD5000"/>
<path d="M20.4584 22.0819V38.8688C20.4584 39.4482 19.9887 39.918 19.4093 39.918H16.2617V21.0327H19.4093C19.9887 21.0327 20.4584 21.5024 20.4584 22.0819Z" fill="white"/>
<path d="M16.2606 21.0327V39.9181H13.1131C10.2159 39.9181 7.86719 37.5694 7.86719 34.6722V26.2787C7.86668 23.7855 9.62107 21.6364 12.0639 21.1378C12.4089 21.0655 12.7606 21.0303 13.1131 21.0328L16.2606 21.0327Z" fill="#FFB700"/>
<path d="M13.1133 21.0327H16.2608V39.918H13.1133V21.0327Z" fill="#DB9D00"/>
<path d="M56.1317 26.2787V34.6722C56.1317 37.5694 53.7831 39.9181 50.8858 39.9181H47.7383V21.0327L50.8858 21.0328C51.2383 21.0303 51.59 21.0655 51.935 21.1378C54.3778 21.6364 56.1322 23.7855 56.1317 26.2787Z" fill="#FFB700"/>
<path d="M51.935 21.1379C51.59 21.0656 51.2383 21.0304 50.8858 21.033L47.7383 21.0328C48.0907 21.0304 48.4425 21.0656 48.7875 21.1379C51.2303 21.6365 52.9847 23.7856 52.9842 26.2789V34.6723C52.9842 37.5695 50.6355 39.9182 47.7383 39.9182H50.8858C53.7831 39.9182 56.1317 37.5695 56.1317 34.6723V26.2789C56.1322 23.7856 54.3778 21.6365 51.935 21.1379Z" fill="#DB9D00"/>
<path d="M47.7358 21.0327V39.918H44.5882C44.0088 39.918 43.5391 39.4482 43.5391 38.8688V22.0819C43.5391 21.5024 44.0088 21.0327 44.5882 21.0327H47.7358Z" fill="white"/>
<path d="M51.9314 21.0331V21.138C51.5864 21.0657 51.2346 21.0305 50.8822 21.0331H47.7346C47.7346 12.3414 40.6886 5.29535 31.9969 5.29535C23.3052 5.29535 16.2592 12.3414 16.2592 21.0331H13.1117C12.7592 21.0305 12.4075 21.0657 12.0625 21.138V21.0331C12.0625 10.0236 20.9874 1.09863 31.9969 1.09863C43.0064 1.09863 51.9314 10.0236 51.9314 21.0331Z" fill="#FFB700"/>
<path d="M12.0625 21.1378C12.4075 21.0655 12.7592 21.0303 13.1117 21.0328H12.0625V21.1378Z" fill="#DB9D00"/>
<path d="M31.9996 1.09863C31.4687 1.09863 30.9504 1.13745 30.4258 1.17837C40.7872 1.99589 48.7803 10.6394 48.7864 21.0331H50.8848C51.2373 21.0305 51.589 21.0657 51.934 21.138V21.0331C51.934 10.0236 43.009 1.09863 31.9996 1.09863Z" fill="#DB9D00"/>
<path d="M35.1473 43.0654H28.8523C27.6934 43.0654 26.7539 44.0049 26.7539 45.1638C26.7539 46.3227 27.6934 47.2622 28.8523 47.2622H35.1473C36.3062 47.2622 37.2457 46.3227 37.2457 45.1638C37.2457 44.0049 36.3062 43.0654 35.1473 43.0654Z" fill="#EEB68E"/>
<path d="M35.1475 43.0654H32C33.1589 43.0654 34.0984 44.0049 34.0984 45.1638C34.0984 46.3227 33.1589 47.2622 32 47.2622H35.1475C36.3064 47.2622 37.2459 46.3227 37.2459 45.1638C37.2459 44.0049 36.3064 43.0654 35.1475 43.0654Z" fill="#CD966F"/>
<path d="M61.3759 50.4099V13.6886C61.3724 10.7928 59.0258 8.44615 56.13 8.44268H48.7459C44.8122 3.13815 38.5986 0.0102539 31.9946 0.0102539C25.3907 0.0102539 19.1771 3.13815 15.2434 8.44268H7.8677C4.97191 8.44615 2.62527 10.7928 2.6218 13.6886V50.4099C1.46291 50.4099 0.523438 51.3494 0.523438 52.5082V55.6558C0.528063 59.71 3.81349 62.9954 7.8677 63H56.13C60.184 62.9948 63.4691 59.7098 63.4743 55.6558V52.5082C63.4743 51.3494 62.5348 50.4099 61.3759 50.4099ZM18.6512 7.68307C23.9104 2.41427 31.7772 0.732783 38.7308 3.39116C45.6845 6.04953 50.4233 12.5501 50.8264 19.9837H48.728C48.4643 15.7159 46.5758 11.7114 43.4506 8.7931C43.418 8.75978 43.3829 8.72892 43.3457 8.70078C36.9438 2.76119 27.0455 2.76119 20.6436 8.70078C20.6064 8.72892 20.5713 8.75978 20.5386 8.7931C17.415 11.7121 15.5281 15.7165 15.2655 19.9837H13.1671C13.403 15.3444 15.3581 10.9593 18.6512 7.68307ZM46.6874 38.8689H44.589V22.082H46.6874V38.8689ZM48.7857 22.082H50.8841C53.2019 22.082 55.0808 23.961 55.0808 26.2787V34.6722C55.0808 36.99 53.2019 38.8689 50.8841 38.8689H48.7857V22.082ZM39.5257 8.44268H24.472C29.0999 5.64496 34.8978 5.64496 39.5257 8.44268ZM13.1136 38.8689C10.7958 38.8689 8.91688 36.99 8.91688 34.6722V26.2787C8.91688 23.961 10.7958 22.082 13.1136 22.082H15.212V38.8689H13.1136ZM17.3103 22.082H19.4087V38.8689H17.3103V22.082ZM4.72016 13.6886C4.72016 11.9502 6.12936 10.541 7.8677 10.541H13.848C12.1172 13.5241 11.1563 16.8911 11.052 20.3383C8.52162 21.2173 6.82359 23.6001 6.81852 26.2787V34.6722C6.82199 38.1474 9.63836 40.9638 13.1136 40.9673H19.4087C20.5676 40.9673 21.507 40.0278 21.507 38.8689V22.082C21.507 20.9231 20.5676 19.9837 19.4087 19.9837H17.3638C17.616 16.4064 19.1729 13.0462 21.7389 10.541H42.2588C44.8248 13.0462 46.3817 16.4064 46.6339 19.9837H44.589C43.4301 19.9837 42.4906 20.9231 42.4906 22.082V38.8689C42.4906 40.0278 43.4301 40.9673 44.589 40.9673H45.8837L45.2185 42.0773C44.4567 43.3385 43.0922 44.1108 41.6188 44.1148H38.1009C37.6579 42.8617 36.4755 42.022 35.1464 42.0164H28.8513C27.113 42.0164 25.7038 43.4256 25.7038 45.164C25.7038 46.9023 27.113 48.3115 28.8513 48.3115H35.1464C36.4755 48.306 37.6579 47.4663 38.1009 46.2132H41.6188C43.8283 46.2066 45.8743 45.0481 47.0168 43.1569L48.3304 40.9673H50.8841C54.3593 40.9638 57.1757 38.1474 57.1792 34.6722V26.2787C57.1762 23.5997 55.4779 21.2161 52.9468 20.3383C52.8383 16.8907 51.8749 13.5242 50.1434 10.541H56.13C57.8683 10.541 59.2775 11.9502 59.2775 13.6886V50.4099H4.72016V13.6886ZM36.1956 45.164C36.1956 45.7434 35.7258 46.2132 35.1464 46.2132H28.8513C28.2719 46.2132 27.8021 45.7434 27.8021 45.164C27.8021 44.5845 28.2719 44.1148 28.8513 44.1148H35.1464C35.7258 44.1148 36.1956 44.5845 36.1956 45.164ZM22.5562 52.5082H41.4415V53.5574C41.4415 54.7163 40.502 55.6558 39.3431 55.6558H24.6546C23.4957 55.6558 22.5562 54.7163 22.5562 53.5574V52.5082ZM61.3759 55.6558C61.3724 58.5516 59.0258 60.8982 56.13 60.9017H7.8677C4.97191 60.8982 2.62527 58.5516 2.6218 55.6558V52.5082H20.4579V53.5574C20.4579 55.8752 22.3368 57.7541 24.6546 57.7541H39.3431C41.6609 57.7541 43.5398 55.8752 43.5398 53.5574V52.5082H61.3759V55.6558Z" fill="#1A202C"/>
<path d="M16.2592 54.6064H13.1117C12.5322 54.6064 12.0625 55.0762 12.0625 55.6556C12.0625 56.2351 12.5322 56.7048 13.1117 56.7048H16.2592C16.8387 56.7048 17.3084 56.2351 17.3084 55.6556C17.3084 55.0762 16.8387 54.6064 16.2592 54.6064Z" fill="#1A202C"/>
<path d="M6.81871 56.7048C7.39816 56.7048 7.86789 56.2351 7.86789 55.6556C7.86789 55.0762 7.39816 54.6064 6.81871 54.6064C6.23927 54.6064 5.76953 55.0762 5.76953 55.6556C5.76953 56.2351 6.23927 56.7048 6.81871 56.7048Z" fill="#1A202C"/>
<path d="M9.96715 56.7048C10.5466 56.7048 11.0163 56.2351 11.0163 55.6556C11.0163 55.0762 10.5466 54.6064 9.96715 54.6064C9.3877 54.6064 8.91797 55.0762 8.91797 55.6556C8.91797 56.2351 9.3877 56.7048 9.96715 56.7048Z" fill="#1A202C"/>
</svg>
